M48
INCH,TZ
T1C0.025
T2C0.032
T3C0.032
T4C0.035
T5C0.039
T6C0.040
T7C0.043
T8C0.047
T9C0.059
T10C0.120
%
G90
G05
T1
X1.649Y-3.212
X1.729Y-2.953
X1.741Y-3.210
X1.792Y-2.383
X1.816Y-4.260
X1.934Y-3.464
X2.186Y-2.110
X2.617Y-2.211
X2.738Y-2.213
T2
X1.412Y-1.283
X1.519Y-1.284
X2.677Y-3.261
X2.677Y-3.356
T3
X1.197Y-1.391
X1.251Y-2.799
X1.251Y-3.099
X1.297Y-1.391
X1.351Y-2.799
X1.351Y-3.099
X1.451Y-2.799
X1.451Y-3.099
X1.551Y-2.799
X1.551Y-3.099
X1.651Y-2.799
X1.651Y-3.099
X1.751Y-2.799
X1.751Y-3.099
X2.507Y-3.604
X2.627Y-3.604
X2.674Y-3.028
X2.674Y-3.128
T4
X2.084Y-1.274
X2.184Y-1.274
X2.284Y-1.274
X2.384Y-1.274
T5
X1.200Y-3.773
X1.250Y-3.853
X1.300Y-3.773
X1.350Y-3.853
X1.400Y-3.773
X1.450Y-3.853
X1.500Y-3.773
X1.550Y-3.853
X1.600Y-3.773
X1.650Y-3.853
X1.700Y-3.773
X1.750Y-3.853
X1.800Y-3.773
X1.823Y-1.708
X1.823Y-2.053
X1.850Y-3.853
X1.900Y-3.773
X1.950Y-3.853
X2.000Y-3.773
X2.050Y-3.853
X2.100Y-3.773
X2.150Y-3.853
X2.200Y-3.773
X2.250Y-3.853
X2.300Y-3.773
X2.350Y-3.853
X2.400Y-3.773
T6
X1.238Y-1.988
X1.238Y-2.088
X1.238Y-2.188
X2.473Y-2.655
X2.473Y-2.755
X2.473Y-2.855
T7
X1.494Y-3.464
X1.694Y-3.464
X1.934Y-3.464
X2.134Y-3.464
T8
X1.496Y-4.689
X1.701Y-4.689
X1.707Y-1.328
X1.898Y-4.689
X1.900Y-1.328
X2.103Y-4.689
T9
X2.058Y-2.328
X2.058Y-3.128
T10
X1.071Y-1.115
X1.072Y-4.820
X2.908Y-4.815
X2.915Y-1.110
T0
M30
