G04 (created by PCBNEW-RS274X (2011-07-08 BZR 3044)-stable) date 2012-04-12 22:18:47*
G01*
G70*
G90*
%MOIN*%
G04 Gerber Fmt 3.4, Leading zero omitted, Abs format*
%FSLAX34Y34*%
G04 APERTURE LIST*
%ADD10C,0.006000*%
%ADD11C,0.015000*%
G04 APERTURE END LIST*
G54D10*
G54D11*
X09514Y-08758D02*
X09490Y-09000D01*
X09419Y-09234D01*
X09305Y-09449D01*
X09150Y-09638D01*
X08962Y-09794D01*
X08748Y-09910D01*
X08515Y-09982D01*
X08272Y-10007D01*
X08030Y-09985D01*
X07796Y-09916D01*
X07580Y-09803D01*
X07390Y-09651D01*
X07233Y-09464D01*
X07116Y-09250D01*
X07042Y-09017D01*
X07015Y-08775D01*
X07035Y-08533D01*
X07102Y-08298D01*
X07214Y-08081D01*
X07365Y-07890D01*
X07551Y-07732D01*
X07764Y-07613D01*
X07996Y-07538D01*
X08238Y-07509D01*
X08481Y-07527D01*
X08716Y-07593D01*
X08933Y-07703D01*
X09126Y-07853D01*
X09285Y-08038D01*
X09405Y-08250D01*
X09482Y-08482D01*
X09513Y-08724D01*
X09514Y-08758D01*
X05764Y-08758D02*
X10764Y-08758D01*
X08264Y-06258D02*
X08264Y-11258D01*
X32782Y-08800D02*
X32758Y-09042D01*
X32687Y-09276D01*
X32573Y-09491D01*
X32418Y-09680D01*
X32230Y-09836D01*
X32016Y-09952D01*
X31783Y-10024D01*
X31540Y-10049D01*
X31298Y-10027D01*
X31064Y-09958D01*
X30848Y-09845D01*
X30658Y-09693D01*
X30501Y-09506D01*
X30384Y-09292D01*
X30310Y-09059D01*
X30283Y-08817D01*
X30303Y-08575D01*
X30370Y-08340D01*
X30482Y-08123D01*
X30633Y-07932D01*
X30819Y-07774D01*
X31032Y-07655D01*
X31264Y-07580D01*
X31506Y-07551D01*
X31749Y-07569D01*
X31984Y-07635D01*
X32201Y-07745D01*
X32394Y-07895D01*
X32553Y-08080D01*
X32673Y-08292D01*
X32750Y-08524D01*
X32781Y-08766D01*
X32782Y-08800D01*
X29032Y-08800D02*
X34032Y-08800D01*
X31532Y-06300D02*
X31532Y-11300D01*
X09612Y-50626D02*
X09588Y-50868D01*
X09517Y-51102D01*
X09403Y-51317D01*
X09248Y-51506D01*
X09060Y-51662D01*
X08846Y-51778D01*
X08613Y-51850D01*
X08370Y-51875D01*
X08128Y-51853D01*
X07894Y-51784D01*
X07678Y-51671D01*
X07488Y-51519D01*
X07331Y-51332D01*
X07214Y-51118D01*
X07140Y-50885D01*
X07113Y-50643D01*
X07133Y-50401D01*
X07200Y-50166D01*
X07312Y-49949D01*
X07463Y-49758D01*
X07649Y-49600D01*
X07862Y-49481D01*
X08094Y-49406D01*
X08336Y-49377D01*
X08579Y-49395D01*
X08814Y-49461D01*
X09031Y-49571D01*
X09224Y-49721D01*
X09383Y-49906D01*
X09503Y-50118D01*
X09580Y-50350D01*
X09611Y-50592D01*
X09612Y-50626D01*
X05862Y-50626D02*
X10862Y-50626D01*
X08362Y-48126D02*
X08362Y-53126D01*
X32724Y-50712D02*
X32700Y-50954D01*
X32629Y-51188D01*
X32515Y-51403D01*
X32360Y-51592D01*
X32172Y-51748D01*
X31958Y-51864D01*
X31725Y-51936D01*
X31482Y-51961D01*
X31240Y-51939D01*
X31006Y-51870D01*
X30790Y-51757D01*
X30600Y-51605D01*
X30443Y-51418D01*
X30326Y-51204D01*
X30252Y-50971D01*
X30225Y-50729D01*
X30245Y-50487D01*
X30312Y-50252D01*
X30424Y-50035D01*
X30575Y-49844D01*
X30761Y-49686D01*
X30974Y-49567D01*
X31206Y-49492D01*
X31448Y-49463D01*
X31691Y-49481D01*
X31926Y-49547D01*
X32143Y-49657D01*
X32336Y-49807D01*
X32495Y-49992D01*
X32615Y-50204D01*
X32692Y-50436D01*
X32723Y-50678D01*
X32724Y-50712D01*
X28974Y-50712D02*
X33974Y-50712D01*
X31474Y-48212D02*
X31474Y-53212D01*
X30448Y-09792D02*
X30242Y-09792D01*
X30448Y-49506D02*
X30448Y-09792D01*
X09378Y-49746D02*
X30330Y-49746D01*
X09270Y-09786D02*
X09270Y-49500D01*
X30188Y-09792D02*
X09398Y-09792D01*
M02*
