G04 (created by PCBNEW-RS274X (2011-07-08 BZR 3044)-stable) date 2012-04-12 22:18:47*
G01*
G70*
G90*
%MOIN*%
G04 Gerber Fmt 3.4, Leading zero omitted, Abs format*
%FSLAX34Y34*%
G04 APERTURE LIST*
%ADD10C,0.006000*%
%ADD11R,0.118100X0.100000*%
%ADD12O,0.118100X0.100000*%
%ADD13C,0.150000*%
%ADD14O,0.098400X0.098400*%
%ADD15R,0.086600X0.070900*%
%ADD16O,0.118100X0.078700*%
%ADD17R,0.118100X0.078700*%
%ADD18O,0.118100X0.070900*%
%ADD19R,0.118100X0.070900*%
%ADD20O,0.078700X0.118700*%
%ADD21R,0.060000X0.080000*%
%ADD22R,0.080000X0.060000*%
%ADD23R,0.039400X0.078700*%
%ADD24R,0.065000X0.100000*%
%ADD25O,0.065000X0.100000*%
%ADD26R,0.100000X0.055000*%
%ADD27O,0.100000X0.055000*%
%ADD28R,0.070900X0.100000*%
%ADD29O,0.070900X0.100000*%
%ADD30C,0.066900*%
%ADD31R,0.157500X0.078700*%
%ADD32C,0.078700*%
%ADD33C,0.160000*%
%ADD34O,0.055100X0.098400*%
%ADD35R,0.078700X0.118100*%
%ADD36O,0.078700X0.118100*%
%ADD37O,0.052000X0.104000*%
%ADD38R,0.100400X0.098400*%
%ADD39R,0.098400X0.076800*%
%ADD40R,0.060000X0.060000*%
%ADD41C,0.070900*%
%ADD42R,0.076800X0.098400*%
%ADD43C,0.039400*%
%ADD44C,0.059100*%
%ADD45C,0.047200*%
%ADD46C,0.015700*%
%ADD47C,0.019700*%
%ADD48C,0.023600*%
%ADD49C,0.011800*%
%ADD50C,0.031500*%
%ADD51C,0.010000*%
G04 APERTURE END LIST*
G54D10*
G54D11*
X18230Y-17084D03*
G54D12*
X18230Y-20534D03*
G54D13*
X20578Y-23280D03*
X20578Y-31280D03*
G54D14*
X21033Y-46890D03*
X18983Y-46890D03*
X17008Y-46890D03*
X14958Y-46890D03*
G54D15*
X26782Y-28256D03*
X26782Y-26676D03*
G54D16*
X24734Y-26546D03*
X24734Y-27546D03*
G54D17*
X24734Y-28546D03*
G54D18*
X12380Y-21880D03*
X12380Y-20880D03*
G54D19*
X12380Y-19880D03*
G54D20*
X17072Y-13276D03*
X18997Y-13276D03*
G54D21*
X12978Y-15090D03*
X14278Y-15090D03*
X21586Y-29284D03*
X20286Y-29284D03*
X26748Y-29220D03*
X28048Y-29220D03*
X21134Y-36240D03*
X19834Y-36240D03*
X24564Y-29920D03*
X23264Y-29920D03*
G54D22*
X23004Y-36170D03*
X23004Y-34870D03*
G54D21*
X16080Y-23780D03*
X14780Y-23780D03*
G54D22*
X21284Y-15120D03*
X21284Y-16420D03*
X24274Y-15090D03*
X24274Y-16390D03*
X27254Y-15080D03*
X27254Y-16380D03*
X28148Y-21550D03*
X28148Y-22850D03*
X25248Y-21528D03*
X25248Y-22828D03*
X23302Y-20936D03*
X23302Y-22236D03*
G54D23*
X27252Y-17716D03*
X28252Y-17716D03*
X28252Y-20116D03*
X27252Y-20116D03*
X24290Y-17720D03*
X25290Y-17720D03*
X25290Y-20120D03*
X24290Y-20120D03*
X21290Y-17720D03*
X22290Y-17720D03*
X22290Y-20120D03*
X21290Y-20120D03*
G54D24*
X26266Y-36038D03*
G54D25*
X25066Y-36038D03*
G54D26*
X26738Y-31280D03*
G54D27*
X26738Y-30280D03*
G54D28*
X11970Y-13910D03*
G54D29*
X12970Y-13910D03*
G54D30*
X26768Y-32612D03*
G54D31*
X15194Y-16762D03*
X15194Y-19332D03*
G54D32*
X15188Y-12840D03*
X14122Y-12826D03*
G54D30*
X26768Y-33556D03*
G54D33*
X10708Y-11146D03*
X29152Y-11100D03*
X29078Y-48150D03*
X10718Y-48196D03*
G54D34*
X12000Y-37573D03*
X12500Y-38687D03*
X13000Y-37573D03*
X13500Y-38687D03*
X14000Y-37573D03*
X14500Y-38687D03*
X15000Y-37573D03*
X15500Y-38687D03*
X16000Y-37573D03*
X16500Y-38687D03*
X17000Y-37573D03*
X17500Y-38687D03*
X18000Y-37573D03*
X18500Y-38687D03*
X19000Y-37573D03*
X19500Y-38687D03*
X20000Y-37573D03*
X20500Y-38687D03*
X21000Y-37573D03*
X21500Y-38687D03*
X22000Y-37573D03*
X22500Y-38687D03*
X23000Y-37573D03*
X23500Y-38687D03*
X24000Y-37573D03*
G54D35*
X16942Y-34636D03*
G54D36*
X14942Y-34636D03*
G54D35*
X19342Y-34636D03*
G54D36*
X21342Y-34636D03*
G54D37*
X12510Y-30990D03*
X13510Y-30990D03*
X14510Y-30990D03*
X15510Y-30990D03*
X16510Y-30990D03*
X17510Y-30990D03*
X17510Y-27990D03*
X16510Y-27990D03*
X15510Y-27990D03*
X14510Y-27990D03*
X13510Y-27990D03*
X12510Y-27990D03*
G54D32*
X17922Y-23828D03*
G54D38*
X27378Y-24346D03*
X25390Y-24346D03*
G54D39*
X13004Y-39910D03*
X13004Y-41110D03*
G54D40*
X23844Y-12740D03*
G54D41*
X22844Y-12740D03*
X21844Y-12740D03*
X20844Y-12740D03*
G54D39*
X23274Y-28120D03*
X23274Y-26920D03*
G54D21*
X12824Y-29430D03*
X14124Y-29430D03*
G54D42*
X15064Y-29330D03*
X16264Y-29330D03*
G54D22*
X21438Y-41006D03*
X21438Y-39706D03*
G54D21*
X12344Y-23820D03*
X13644Y-23820D03*
X15144Y-21876D03*
X13844Y-21876D03*
G54D22*
X14404Y-39820D03*
X14404Y-41120D03*
G54D30*
X26168Y-22110D03*
X21860Y-21100D03*
X19342Y-34636D03*
X18158Y-42600D03*
X16492Y-32116D03*
X27382Y-22134D03*
X17408Y-32100D03*
X17288Y-29528D03*
G54D43*
X17560Y-16762D02*
X17908Y-16762D01*
X17908Y-16762D02*
X18230Y-17084D01*
X18230Y-17084D02*
X18230Y-16834D01*
X18230Y-16834D02*
X18158Y-16762D01*
X18158Y-16762D02*
X18230Y-17084D01*
G54D44*
X15592Y-15646D02*
X15592Y-16364D01*
G54D45*
X15188Y-12840D02*
X16820Y-12820D01*
G54D44*
X17072Y-13276D02*
X17072Y-14166D01*
X15592Y-16364D02*
X15194Y-16762D01*
G54D45*
X16820Y-12820D02*
X17072Y-13276D01*
G54D44*
X17072Y-14166D02*
X15592Y-15646D01*
X15194Y-16762D02*
X17560Y-16762D01*
X17560Y-16762D02*
X18158Y-16762D01*
X18158Y-16762D02*
X18230Y-16834D01*
G54D46*
X25766Y-21528D02*
X25248Y-21528D01*
X26168Y-22110D02*
X25766Y-21528D01*
X25290Y-21486D02*
X25248Y-21528D01*
X25290Y-20120D02*
X25290Y-21486D01*
X21708Y-20900D02*
X22290Y-20900D01*
X22268Y-20956D02*
X23302Y-20936D01*
X22290Y-20120D02*
X22290Y-20900D01*
X21860Y-21100D02*
X21708Y-20900D01*
X22290Y-20900D02*
X22268Y-20956D01*
G54D43*
X17500Y-38530D02*
X17500Y-38176D01*
X17485Y-38161D02*
X17500Y-38161D01*
X17500Y-38176D02*
X17485Y-38161D01*
G54D47*
X17500Y-36826D02*
X17500Y-35762D01*
G54D44*
X17500Y-35762D02*
X17512Y-34636D01*
X16942Y-34636D02*
X17512Y-34636D01*
G54D48*
X17500Y-38161D02*
X17500Y-36826D01*
G54D43*
X17500Y-36826D02*
X17500Y-35762D01*
X19000Y-35024D02*
X19000Y-37730D01*
X19000Y-35024D02*
X19000Y-37730D01*
X19342Y-34636D02*
X19342Y-34682D01*
X19342Y-34682D02*
X19000Y-35024D01*
X19342Y-34682D02*
X19000Y-35024D01*
G54D46*
X28244Y-18430D02*
X28252Y-17716D01*
X28072Y-13366D02*
X23854Y-13364D01*
X22290Y-17720D02*
X22430Y-17720D01*
X25304Y-18270D02*
X25180Y-18330D01*
X28148Y-18420D02*
X28244Y-18430D01*
X25290Y-17720D02*
X25304Y-18270D01*
X23500Y-18330D02*
X25180Y-18330D01*
X28252Y-16726D02*
X28234Y-16340D01*
X26482Y-18420D02*
X28148Y-18420D01*
X28252Y-17716D02*
X28252Y-16726D01*
X25290Y-17720D02*
X25482Y-17720D01*
X25482Y-17720D02*
X26482Y-18420D01*
X28234Y-16340D02*
X28234Y-13686D01*
X28234Y-13686D02*
X28072Y-13366D01*
X22430Y-17720D02*
X23500Y-18330D01*
X23854Y-13364D02*
X23844Y-12740D01*
G54D43*
X18260Y-21600D02*
X18260Y-20564D01*
X18260Y-20564D02*
X18230Y-20534D01*
G54D49*
X16714Y-28880D02*
X16264Y-29330D01*
X26782Y-22843D02*
X26782Y-21286D01*
G54D46*
X22762Y-15790D02*
X22762Y-14830D01*
X22762Y-14830D02*
X22740Y-14808D01*
X19770Y-15790D02*
X22762Y-15790D01*
X22762Y-15790D02*
X25872Y-15790D01*
X25872Y-15790D02*
X25882Y-15780D01*
G54D48*
X26768Y-33556D02*
X26274Y-33556D01*
X26274Y-33556D02*
X25982Y-33848D01*
X23264Y-29920D02*
X23268Y-30494D01*
X25996Y-35768D02*
X26266Y-36038D01*
X25996Y-31770D02*
X25996Y-33398D01*
X25996Y-33398D02*
X25996Y-35768D01*
X25050Y-30724D02*
X25996Y-31770D01*
X23598Y-30724D02*
X25050Y-30724D01*
X23268Y-30494D02*
X23598Y-30724D01*
G54D50*
X14122Y-12826D02*
X14122Y-14070D01*
G54D43*
X17000Y-37730D02*
X17000Y-36976D01*
X15068Y-34740D02*
X15038Y-36466D01*
X15038Y-36466D02*
X16490Y-36466D01*
X14942Y-34636D02*
X15068Y-34740D01*
X17000Y-36976D02*
X16490Y-36466D01*
G54D46*
X20392Y-34636D02*
X21342Y-34636D01*
X20392Y-35610D02*
X20392Y-34636D01*
X19956Y-35626D02*
X20392Y-35610D01*
X15572Y-32762D02*
X14932Y-32776D01*
X14932Y-32776D02*
X14932Y-33630D01*
X14932Y-33630D02*
X14942Y-34636D01*
X15572Y-32762D02*
X15304Y-32770D01*
G54D50*
X14288Y-14506D02*
X14278Y-15090D01*
X14122Y-14070D02*
X14288Y-14506D01*
X24734Y-27546D02*
X24240Y-27546D01*
X23614Y-26920D02*
X23274Y-26920D01*
X24240Y-27546D02*
X23614Y-26920D01*
X25390Y-24346D02*
X25390Y-24354D01*
G54D46*
X20212Y-21210D02*
X18606Y-21210D01*
G54D50*
X25390Y-24354D02*
X23274Y-26470D01*
X12394Y-41204D02*
X13004Y-41110D01*
G54D46*
X19500Y-36082D02*
X19956Y-35626D01*
X19500Y-36361D02*
X19500Y-36082D01*
G54D48*
X19500Y-38530D02*
X19500Y-36361D01*
G54D46*
X19477Y-36361D02*
X19500Y-36361D01*
X19500Y-36361D02*
X19477Y-36361D01*
X19621Y-36240D02*
X19500Y-36361D01*
G54D45*
X18260Y-21600D02*
X16080Y-23780D01*
G54D46*
X19834Y-36240D02*
X19621Y-36240D01*
G54D48*
X21500Y-36964D02*
X22114Y-36350D01*
X21500Y-38530D02*
X21500Y-36964D01*
X22030Y-34636D02*
X21342Y-34636D01*
X22114Y-34720D02*
X22030Y-34636D01*
X22114Y-36350D02*
X22114Y-34720D01*
X19500Y-39278D02*
X18908Y-39870D01*
X19500Y-38530D02*
X19500Y-39278D01*
X17000Y-39584D02*
X17000Y-37730D01*
X17286Y-39870D02*
X17000Y-39584D01*
X18908Y-39870D02*
X17286Y-39870D01*
G54D46*
X23302Y-24564D02*
X18966Y-28880D01*
X18966Y-28880D02*
X16714Y-28880D01*
X16714Y-28880D02*
X16694Y-28880D01*
X23302Y-22236D02*
X23302Y-24564D01*
X23302Y-22236D02*
X21172Y-22230D01*
X18606Y-21210D02*
X18230Y-20834D01*
G54D45*
X18230Y-20834D02*
X18260Y-21600D01*
G54D46*
X21172Y-22230D02*
X20212Y-21210D01*
G54D45*
X25248Y-22828D02*
X25248Y-24204D01*
X25248Y-24204D02*
X25390Y-24346D01*
X28148Y-22850D02*
X26782Y-22843D01*
X26782Y-22843D02*
X25256Y-22836D01*
X25256Y-22836D02*
X25248Y-22828D01*
X18230Y-20834D02*
X18212Y-20294D01*
X19770Y-13603D02*
X18997Y-13276D01*
X19770Y-18768D02*
X19770Y-15790D01*
X19770Y-15790D02*
X19770Y-13603D01*
X18212Y-20294D02*
X19770Y-18768D01*
G54D50*
X14242Y-41206D02*
X12394Y-41204D01*
X23274Y-26470D02*
X23274Y-26920D01*
G54D46*
X21284Y-17714D02*
X21290Y-17720D01*
X21284Y-16420D02*
X21284Y-17714D01*
X24274Y-17704D02*
X24290Y-17720D01*
X24274Y-16390D02*
X24274Y-17704D01*
X24274Y-15090D02*
X24274Y-14470D01*
X21844Y-13560D02*
X21844Y-12740D01*
X22384Y-14100D02*
X21844Y-13560D01*
X23904Y-14100D02*
X22384Y-14100D01*
X24274Y-14470D02*
X23904Y-14100D01*
X13644Y-23820D02*
X14740Y-23820D01*
X14740Y-23820D02*
X14780Y-23780D01*
X27254Y-16380D02*
X27254Y-17714D01*
X27254Y-17714D02*
X27252Y-17716D01*
X27254Y-14260D02*
X26744Y-13750D01*
X27254Y-15080D02*
X27254Y-14260D01*
X22844Y-13580D02*
X22844Y-12740D01*
X23014Y-13750D02*
X22844Y-13580D01*
X26744Y-13750D02*
X23014Y-13750D01*
G54D45*
X22134Y-39690D02*
X24670Y-39690D01*
X20930Y-39690D02*
X22134Y-39690D01*
G54D46*
X20500Y-39260D02*
X20500Y-38530D01*
X20808Y-39568D02*
X20500Y-39260D01*
X20808Y-39602D02*
X20808Y-39568D01*
G54D43*
X24370Y-31282D02*
X24390Y-31302D01*
X20578Y-31280D02*
X24370Y-31282D01*
G54D44*
X15500Y-40064D02*
X16536Y-41100D01*
X16536Y-41100D02*
X20408Y-41100D01*
G54D43*
X25340Y-35764D02*
X25066Y-36038D01*
G54D44*
X20500Y-41008D02*
X20500Y-38530D01*
X15500Y-38530D02*
X15500Y-40064D01*
G54D43*
X25334Y-36038D02*
X25340Y-36032D01*
G54D45*
X25340Y-39020D02*
X25340Y-37314D01*
G54D43*
X22134Y-39690D02*
X21454Y-39690D01*
X21454Y-39690D02*
X21438Y-39706D01*
X25340Y-35460D02*
X25340Y-35764D01*
G54D44*
X20408Y-41100D02*
X20500Y-41008D01*
G54D45*
X24670Y-39690D02*
X25340Y-39020D01*
X24760Y-31290D02*
X20578Y-31280D01*
X20500Y-39260D02*
X20930Y-39690D01*
X20500Y-38530D02*
X20500Y-39260D01*
G54D43*
X25066Y-36038D02*
X25334Y-36038D01*
G54D45*
X25340Y-37314D02*
X25340Y-35460D01*
X25340Y-35460D02*
X25340Y-31870D01*
G54D43*
X25340Y-36032D02*
X25066Y-36038D01*
G54D45*
X25340Y-31870D02*
X24760Y-31290D01*
G54D46*
X21284Y-14460D02*
X20844Y-14020D01*
X21284Y-15120D02*
X21284Y-14460D01*
X20844Y-14020D02*
X20844Y-12740D01*
X13510Y-27990D02*
X12510Y-27990D01*
X14510Y-27990D02*
X13510Y-27990D01*
X15014Y-27990D02*
X14510Y-27990D01*
X17510Y-27990D02*
X16510Y-27990D01*
X14964Y-29430D02*
X15064Y-29330D01*
X14124Y-29430D02*
X14964Y-29430D01*
X16510Y-27990D02*
X15510Y-27990D01*
X15014Y-27990D02*
X15014Y-29280D01*
X15510Y-27990D02*
X15014Y-27990D01*
X15014Y-29280D02*
X15064Y-29330D01*
X16510Y-30990D02*
X16510Y-32098D01*
X16510Y-32098D02*
X16492Y-32116D01*
X12500Y-38530D02*
X12500Y-32778D01*
X12500Y-32778D02*
X13510Y-31768D01*
X13510Y-31768D02*
X13510Y-30990D01*
X20286Y-29934D02*
X20024Y-30196D01*
X19436Y-31800D02*
X19462Y-32430D01*
X19436Y-30766D02*
X19436Y-31800D01*
X19430Y-30196D02*
X19436Y-30766D01*
X20024Y-30196D02*
X19430Y-30196D01*
X22000Y-37174D02*
X22000Y-37730D01*
X22974Y-36676D02*
X22974Y-36200D01*
X24412Y-32430D02*
X24412Y-36676D01*
X22974Y-36200D02*
X23004Y-36170D01*
X19462Y-32430D02*
X24412Y-32430D01*
X22974Y-36676D02*
X22492Y-36676D01*
X24412Y-36676D02*
X22974Y-36676D01*
X22492Y-36676D02*
X22000Y-37174D01*
X20286Y-29284D02*
X20286Y-29934D01*
X12000Y-32528D02*
X12510Y-32018D01*
X12510Y-32018D02*
X12510Y-30990D01*
X12000Y-37730D02*
X12000Y-32528D01*
X13500Y-38530D02*
X13500Y-33000D01*
X13500Y-33000D02*
X15510Y-30990D01*
X21134Y-36240D02*
X21134Y-36650D01*
X21134Y-36650D02*
X21000Y-36784D01*
X21000Y-36784D02*
X21000Y-37730D01*
X28252Y-21446D02*
X28148Y-21550D01*
X27382Y-22134D02*
X27980Y-21536D01*
X27980Y-21536D02*
X28148Y-21550D01*
X28252Y-20116D02*
X28252Y-21446D01*
X17510Y-32056D02*
X17408Y-32100D01*
X17510Y-30990D02*
X17510Y-32056D01*
X12380Y-23784D02*
X12344Y-23820D01*
X13840Y-21880D02*
X13844Y-21876D01*
X12380Y-21880D02*
X13840Y-21880D01*
X12380Y-21880D02*
X12380Y-23784D01*
X26738Y-30280D02*
X26752Y-29224D01*
X26752Y-29224D02*
X26748Y-29220D01*
X12970Y-13910D02*
X12970Y-14930D01*
X12970Y-14930D02*
X12978Y-15090D01*
X13000Y-32908D02*
X14510Y-31398D01*
X13000Y-37730D02*
X13000Y-32908D01*
X14510Y-31398D02*
X14510Y-30990D01*
X15194Y-20896D02*
X15194Y-21826D01*
X15194Y-21826D02*
X15144Y-21876D01*
X26492Y-26386D02*
X26782Y-26676D01*
G54D44*
X12400Y-20900D02*
X12380Y-20880D01*
G54D46*
X27382Y-26386D02*
X27382Y-24350D01*
G54D44*
X15194Y-19332D02*
X15194Y-20896D01*
X15194Y-20896D02*
X15190Y-20900D01*
G54D46*
X26174Y-26386D02*
X24894Y-26386D01*
X27382Y-26386D02*
X26174Y-26386D01*
X27382Y-24350D02*
X27378Y-24346D01*
X28820Y-13356D02*
X28874Y-23412D01*
X24894Y-26386D02*
X24734Y-26546D01*
G54D44*
X15190Y-20900D02*
X12400Y-20900D01*
G54D46*
X26174Y-26386D02*
X26492Y-26386D01*
X17712Y-19332D02*
X15194Y-19332D01*
X19194Y-17850D02*
X17712Y-19332D01*
X19194Y-15880D02*
X19194Y-17850D01*
X17900Y-14586D02*
X19194Y-15880D01*
X17900Y-12234D02*
X17900Y-14586D01*
X18208Y-11926D02*
X17900Y-12234D01*
X24608Y-11926D02*
X18208Y-11926D01*
X24682Y-12000D02*
X24608Y-11926D01*
X28874Y-24350D02*
X27378Y-24346D01*
X24638Y-12796D02*
X24682Y-12796D01*
X24682Y-12796D02*
X28416Y-12784D01*
X28416Y-12784D02*
X28820Y-13356D01*
X24682Y-12796D02*
X24682Y-12000D01*
X28874Y-23412D02*
X28874Y-24350D01*
X14404Y-39820D02*
X12920Y-39824D01*
X12920Y-39824D02*
X13004Y-39910D01*
X14500Y-38530D02*
X14500Y-39724D01*
X14500Y-39724D02*
X14404Y-39820D01*
X26768Y-32612D02*
X26768Y-31310D01*
X26768Y-31310D02*
X26738Y-31280D01*
X17288Y-29528D02*
X16658Y-30090D01*
X16658Y-30090D02*
X12998Y-30090D01*
X12998Y-30090D02*
X12828Y-29920D01*
X12824Y-29430D02*
X12828Y-29920D01*
X24564Y-29920D02*
X25844Y-29910D01*
X26274Y-31100D02*
X26738Y-31280D01*
X25844Y-30670D02*
X26274Y-31100D01*
X25844Y-30270D02*
X25844Y-30670D01*
X25844Y-29910D02*
X25844Y-30270D01*
X24734Y-28546D02*
X24734Y-29894D01*
X24734Y-29894D02*
X24564Y-29920D01*
X22808Y-29156D02*
X21714Y-29156D01*
X21714Y-29156D02*
X21586Y-29284D01*
X13010Y-39600D02*
X12282Y-39600D01*
X13004Y-39910D02*
X13010Y-39600D01*
X12184Y-30040D02*
X12824Y-29430D01*
X11372Y-30852D02*
X12184Y-30040D01*
X11372Y-38690D02*
X11372Y-30852D01*
X12282Y-39600D02*
X11372Y-38690D01*
X22564Y-28070D02*
X23224Y-28070D01*
X24290Y-20120D02*
X24290Y-24694D01*
X23274Y-28690D02*
X22808Y-29156D01*
X23274Y-28120D02*
X23274Y-28690D01*
X23630Y-28546D02*
X24734Y-28546D01*
X23274Y-28190D02*
X23630Y-28546D01*
X23274Y-28120D02*
X23274Y-28190D01*
X23224Y-28070D02*
X23274Y-28120D01*
X27252Y-20116D02*
X26880Y-20116D01*
X25934Y-19470D02*
X24276Y-19468D01*
X26880Y-20116D02*
X25934Y-19470D01*
X24290Y-24694D02*
X22564Y-26420D01*
X24734Y-28546D02*
X26134Y-28546D01*
X26492Y-28546D02*
X26782Y-28256D01*
X26134Y-28546D02*
X26492Y-28546D01*
X22564Y-26420D02*
X22564Y-28070D01*
X24290Y-20120D02*
X24260Y-19496D01*
X24260Y-19496D02*
X24276Y-19468D01*
X21290Y-20120D02*
X21290Y-19840D01*
X21314Y-19470D02*
X24276Y-19468D01*
X21290Y-19840D02*
X21314Y-19470D01*
G54D44*
X20578Y-23280D02*
X18220Y-23290D01*
X17922Y-23588D02*
X17922Y-23828D01*
X18220Y-23290D02*
X17922Y-23588D01*
X20584Y-24930D02*
X11244Y-24916D01*
X11602Y-19473D02*
X12380Y-19880D01*
X11246Y-19468D02*
X11602Y-19473D01*
X11256Y-19466D02*
X11246Y-19468D01*
X11258Y-24840D02*
X11256Y-19466D01*
X11244Y-24916D02*
X11258Y-24840D01*
X11970Y-13910D02*
X11970Y-19820D01*
X11970Y-19820D02*
X12380Y-19880D01*
X20578Y-23280D02*
X20584Y-24930D01*
G54D10*
G36*
X16314Y-29380D02*
X16214Y-29380D01*
X16214Y-29280D01*
X16314Y-29280D01*
X16314Y-29380D01*
X16314Y-29380D01*
G37*
G54D51*
X16314Y-29380D02*
X16214Y-29380D01*
X16214Y-29280D01*
X16314Y-29280D01*
X16314Y-29380D01*
G54D10*
G36*
X19761Y-40361D02*
X16842Y-40361D01*
X16239Y-39757D01*
X16239Y-39577D01*
X16360Y-39627D01*
X16640Y-39627D01*
X16899Y-39520D01*
X17000Y-39419D01*
X17100Y-39520D01*
X17360Y-39627D01*
X17640Y-39627D01*
X17899Y-39520D01*
X18000Y-39419D01*
X18100Y-39520D01*
X18360Y-39627D01*
X18640Y-39627D01*
X18899Y-39520D01*
X19098Y-39322D01*
X19123Y-39261D01*
X19169Y-39316D01*
X19352Y-39411D01*
X19369Y-39412D01*
X19450Y-39364D01*
X19450Y-38787D01*
X19450Y-38737D01*
X19450Y-38637D01*
X19550Y-38637D01*
X19550Y-38737D01*
X19550Y-38787D01*
X19550Y-39364D01*
X19631Y-39412D01*
X19648Y-39411D01*
X19761Y-39352D01*
X19761Y-40361D01*
X19761Y-40361D01*
G37*
G54D51*
X19761Y-40361D02*
X16842Y-40361D01*
X16239Y-39757D01*
X16239Y-39577D01*
X16360Y-39627D01*
X16640Y-39627D01*
X16899Y-39520D01*
X17000Y-39419D01*
X17100Y-39520D01*
X17360Y-39627D01*
X17640Y-39627D01*
X17899Y-39520D01*
X18000Y-39419D01*
X18100Y-39520D01*
X18360Y-39627D01*
X18640Y-39627D01*
X18899Y-39520D01*
X19098Y-39322D01*
X19123Y-39261D01*
X19169Y-39316D01*
X19352Y-39411D01*
X19369Y-39412D01*
X19450Y-39364D01*
X19450Y-38787D01*
X19450Y-38737D01*
X19450Y-38637D01*
X19550Y-38637D01*
X19550Y-38737D01*
X19550Y-38787D01*
X19550Y-39364D01*
X19631Y-39412D01*
X19648Y-39411D01*
X19761Y-39352D01*
X19761Y-40361D01*
G54D10*
G36*
X23324Y-26970D02*
X23224Y-26970D01*
X23224Y-26870D01*
X23324Y-26870D01*
X23324Y-26970D01*
X23324Y-26970D01*
G37*
G54D51*
X23324Y-26970D02*
X23224Y-26970D01*
X23224Y-26870D01*
X23324Y-26870D01*
X23324Y-26970D01*
G54D10*
G36*
X23707Y-17100D02*
X23650Y-17239D01*
X23650Y-17415D01*
X23650Y-17808D01*
X23638Y-17808D01*
X22930Y-17404D01*
X22930Y-17239D01*
X22863Y-17076D01*
X22738Y-16952D01*
X22575Y-16884D01*
X22399Y-16884D01*
X22095Y-16884D01*
X22127Y-16808D01*
X22127Y-16632D01*
X22127Y-16032D01*
X22060Y-15869D01*
X21960Y-15770D01*
X22059Y-15671D01*
X22127Y-15508D01*
X22127Y-15332D01*
X22127Y-14732D01*
X22060Y-14569D01*
X21935Y-14445D01*
X21790Y-14384D01*
X21766Y-14260D01*
X21686Y-14140D01*
X22014Y-14469D01*
X22015Y-14469D01*
X22184Y-14582D01*
X22384Y-14622D01*
X23464Y-14622D01*
X23431Y-14702D01*
X23431Y-14878D01*
X23431Y-15478D01*
X23498Y-15641D01*
X23597Y-15739D01*
X23499Y-15839D01*
X23431Y-16002D01*
X23431Y-16178D01*
X23431Y-16778D01*
X23498Y-16941D01*
X23623Y-17065D01*
X23707Y-17100D01*
X23707Y-17100D01*
G37*
G54D51*
X23707Y-17100D02*
X23650Y-17239D01*
X23650Y-17415D01*
X23650Y-17808D01*
X23638Y-17808D01*
X22930Y-17404D01*
X22930Y-17239D01*
X22863Y-17076D01*
X22738Y-16952D01*
X22575Y-16884D01*
X22399Y-16884D01*
X22095Y-16884D01*
X22127Y-16808D01*
X22127Y-16632D01*
X22127Y-16032D01*
X22060Y-15869D01*
X21960Y-15770D01*
X22059Y-15671D01*
X22127Y-15508D01*
X22127Y-15332D01*
X22127Y-14732D01*
X22060Y-14569D01*
X21935Y-14445D01*
X21790Y-14384D01*
X21766Y-14260D01*
X21686Y-14140D01*
X22014Y-14469D01*
X22015Y-14469D01*
X22184Y-14582D01*
X22384Y-14622D01*
X23464Y-14622D01*
X23431Y-14702D01*
X23431Y-14878D01*
X23431Y-15478D01*
X23498Y-15641D01*
X23597Y-15739D01*
X23499Y-15839D01*
X23431Y-16002D01*
X23431Y-16178D01*
X23431Y-16778D01*
X23498Y-16941D01*
X23623Y-17065D01*
X23707Y-17100D01*
G54D10*
G36*
X23922Y-30605D02*
X23814Y-30604D01*
X23814Y-30032D01*
X23752Y-29970D01*
X23314Y-29970D01*
X23314Y-30508D01*
X23376Y-30570D01*
X23613Y-30569D01*
X23705Y-30531D01*
X23775Y-30461D01*
X23813Y-30370D01*
X23813Y-30271D01*
X23814Y-30032D01*
X23814Y-30604D01*
X23214Y-30603D01*
X23214Y-30508D01*
X23214Y-29970D01*
X22776Y-29970D01*
X22714Y-30032D01*
X22715Y-30271D01*
X22715Y-30370D01*
X22753Y-30461D01*
X22823Y-30531D01*
X22915Y-30569D01*
X23152Y-30570D01*
X23214Y-30508D01*
X23214Y-30603D01*
X21587Y-30601D01*
X21255Y-30269D01*
X20817Y-30087D01*
X20777Y-30086D01*
X20777Y-30084D01*
X20837Y-30060D01*
X20935Y-29960D01*
X21035Y-30059D01*
X21198Y-30127D01*
X21374Y-30127D01*
X21974Y-30127D01*
X22137Y-30060D01*
X22261Y-29935D01*
X22329Y-29772D01*
X22329Y-29678D01*
X22714Y-29678D01*
X22714Y-29808D01*
X22776Y-29870D01*
X23164Y-29870D01*
X23214Y-29870D01*
X23314Y-29870D01*
X23364Y-29870D01*
X23752Y-29870D01*
X23814Y-29808D01*
X23813Y-29569D01*
X23813Y-29470D01*
X23775Y-29379D01*
X23705Y-29309D01*
X23613Y-29271D01*
X23431Y-29270D01*
X23634Y-29068D01*
X23717Y-29068D01*
X23768Y-29190D01*
X23876Y-29298D01*
X23821Y-29432D01*
X23821Y-29608D01*
X23821Y-30408D01*
X23888Y-30571D01*
X23922Y-30605D01*
X23922Y-30605D01*
G37*
G54D51*
X23922Y-30605D02*
X23814Y-30604D01*
X23814Y-30032D01*
X23752Y-29970D01*
X23314Y-29970D01*
X23314Y-30508D01*
X23376Y-30570D01*
X23613Y-30569D01*
X23705Y-30531D01*
X23775Y-30461D01*
X23813Y-30370D01*
X23813Y-30271D01*
X23814Y-30032D01*
X23814Y-30604D01*
X23214Y-30603D01*
X23214Y-30508D01*
X23214Y-29970D01*
X22776Y-29970D01*
X22714Y-30032D01*
X22715Y-30271D01*
X22715Y-30370D01*
X22753Y-30461D01*
X22823Y-30531D01*
X22915Y-30569D01*
X23152Y-30570D01*
X23214Y-30508D01*
X23214Y-30603D01*
X21587Y-30601D01*
X21255Y-30269D01*
X20817Y-30087D01*
X20777Y-30086D01*
X20777Y-30084D01*
X20837Y-30060D01*
X20935Y-29960D01*
X21035Y-30059D01*
X21198Y-30127D01*
X21374Y-30127D01*
X21974Y-30127D01*
X22137Y-30060D01*
X22261Y-29935D01*
X22329Y-29772D01*
X22329Y-29678D01*
X22714Y-29678D01*
X22714Y-29808D01*
X22776Y-29870D01*
X23164Y-29870D01*
X23214Y-29870D01*
X23314Y-29870D01*
X23364Y-29870D01*
X23752Y-29870D01*
X23814Y-29808D01*
X23813Y-29569D01*
X23813Y-29470D01*
X23775Y-29379D01*
X23705Y-29309D01*
X23613Y-29271D01*
X23431Y-29270D01*
X23634Y-29068D01*
X23717Y-29068D01*
X23768Y-29190D01*
X23876Y-29298D01*
X23821Y-29432D01*
X23821Y-29608D01*
X23821Y-30408D01*
X23888Y-30571D01*
X23922Y-30605D01*
G54D10*
G36*
X26244Y-27465D02*
X26098Y-27526D01*
X25974Y-27651D01*
X25906Y-27814D01*
X25906Y-27990D01*
X25906Y-28024D01*
X25750Y-28024D01*
X25700Y-27902D01*
X25575Y-27778D01*
X25535Y-27761D01*
X25543Y-27748D01*
X25556Y-27696D01*
X25509Y-27596D01*
X24834Y-27596D01*
X24784Y-27596D01*
X24684Y-27596D01*
X24684Y-27496D01*
X24784Y-27496D01*
X24834Y-27496D01*
X25509Y-27496D01*
X25556Y-27396D01*
X25543Y-27344D01*
X25460Y-27197D01*
X25647Y-27011D01*
X25689Y-26908D01*
X25906Y-26908D01*
X25906Y-27118D01*
X25973Y-27281D01*
X26098Y-27405D01*
X26244Y-27465D01*
X26244Y-27465D01*
G37*
G54D51*
X26244Y-27465D02*
X26098Y-27526D01*
X25974Y-27651D01*
X25906Y-27814D01*
X25906Y-27990D01*
X25906Y-28024D01*
X25750Y-28024D01*
X25700Y-27902D01*
X25575Y-27778D01*
X25535Y-27761D01*
X25543Y-27748D01*
X25556Y-27696D01*
X25509Y-27596D01*
X24834Y-27596D01*
X24784Y-27596D01*
X24684Y-27596D01*
X24684Y-27496D01*
X24784Y-27496D01*
X24834Y-27496D01*
X25509Y-27496D01*
X25556Y-27396D01*
X25543Y-27344D01*
X25460Y-27197D01*
X25647Y-27011D01*
X25689Y-26908D01*
X25906Y-26908D01*
X25906Y-27118D01*
X25973Y-27281D01*
X26098Y-27405D01*
X26244Y-27465D01*
G54D10*
G36*
X26674Y-17084D02*
X26612Y-17235D01*
X26612Y-17411D01*
X26612Y-17873D01*
X25930Y-17396D01*
X25930Y-17239D01*
X25863Y-17076D01*
X25738Y-16952D01*
X25575Y-16884D01*
X25399Y-16884D01*
X25072Y-16884D01*
X25117Y-16778D01*
X25117Y-16602D01*
X25117Y-16002D01*
X25050Y-15839D01*
X24950Y-15740D01*
X25049Y-15641D01*
X25117Y-15478D01*
X25117Y-15302D01*
X25117Y-14702D01*
X25050Y-14539D01*
X24925Y-14415D01*
X24772Y-14351D01*
X24756Y-14272D01*
X26528Y-14272D01*
X26643Y-14387D01*
X26603Y-14404D01*
X26479Y-14529D01*
X26411Y-14692D01*
X26411Y-14868D01*
X26411Y-15468D01*
X26478Y-15631D01*
X26577Y-15729D01*
X26479Y-15829D01*
X26411Y-15992D01*
X26411Y-16168D01*
X26411Y-16768D01*
X26478Y-16931D01*
X26603Y-17055D01*
X26674Y-17084D01*
X26674Y-17084D01*
G37*
G54D51*
X26674Y-17084D02*
X26612Y-17235D01*
X26612Y-17411D01*
X26612Y-17873D01*
X25930Y-17396D01*
X25930Y-17239D01*
X25863Y-17076D01*
X25738Y-16952D01*
X25575Y-16884D01*
X25399Y-16884D01*
X25072Y-16884D01*
X25117Y-16778D01*
X25117Y-16602D01*
X25117Y-16002D01*
X25050Y-15839D01*
X24950Y-15740D01*
X25049Y-15641D01*
X25117Y-15478D01*
X25117Y-15302D01*
X25117Y-14702D01*
X25050Y-14539D01*
X24925Y-14415D01*
X24772Y-14351D01*
X24756Y-14272D01*
X26528Y-14272D01*
X26643Y-14387D01*
X26603Y-14404D01*
X26479Y-14529D01*
X26411Y-14692D01*
X26411Y-14868D01*
X26411Y-15468D01*
X26478Y-15631D01*
X26577Y-15729D01*
X26479Y-15829D01*
X26411Y-15992D01*
X26411Y-16168D01*
X26411Y-16768D01*
X26478Y-16931D01*
X26603Y-17055D01*
X26674Y-17084D01*
G54D10*
G36*
X27419Y-20952D02*
X27373Y-20999D01*
X27305Y-21162D01*
X27305Y-21338D01*
X27305Y-21356D01*
X27228Y-21356D01*
X26942Y-21474D01*
X26787Y-21629D01*
X26609Y-21451D01*
X26323Y-21332D01*
X26264Y-21332D01*
X26196Y-21232D01*
X26161Y-21198D01*
X26135Y-21159D01*
X26087Y-21127D01*
X26085Y-21125D01*
X26084Y-21124D01*
X26024Y-20977D01*
X25899Y-20853D01*
X25812Y-20816D01*
X25812Y-20814D01*
X25862Y-20764D01*
X25930Y-20601D01*
X25930Y-20425D01*
X25930Y-20098D01*
X26586Y-20546D01*
X26612Y-20557D01*
X26612Y-20597D01*
X26679Y-20760D01*
X26804Y-20884D01*
X26967Y-20952D01*
X27143Y-20952D01*
X27419Y-20952D01*
X27419Y-20952D01*
G37*
G54D51*
X27419Y-20952D02*
X27373Y-20999D01*
X27305Y-21162D01*
X27305Y-21338D01*
X27305Y-21356D01*
X27228Y-21356D01*
X26942Y-21474D01*
X26787Y-21629D01*
X26609Y-21451D01*
X26323Y-21332D01*
X26264Y-21332D01*
X26196Y-21232D01*
X26161Y-21198D01*
X26135Y-21159D01*
X26087Y-21127D01*
X26085Y-21125D01*
X26084Y-21124D01*
X26024Y-20977D01*
X25899Y-20853D01*
X25812Y-20816D01*
X25812Y-20814D01*
X25862Y-20764D01*
X25930Y-20601D01*
X25930Y-20425D01*
X25930Y-20098D01*
X26586Y-20546D01*
X26612Y-20557D01*
X26612Y-20597D01*
X26679Y-20760D01*
X26804Y-20884D01*
X26967Y-20952D01*
X27143Y-20952D01*
X27419Y-20952D01*
G54D10*
G36*
X28352Y-23827D02*
X28323Y-23827D01*
X28323Y-23766D01*
X28256Y-23603D01*
X28131Y-23479D01*
X27968Y-23411D01*
X27792Y-23411D01*
X26788Y-23411D01*
X26625Y-23478D01*
X26501Y-23603D01*
X26433Y-23766D01*
X26433Y-23942D01*
X26433Y-24926D01*
X26500Y-25089D01*
X26625Y-25213D01*
X26788Y-25281D01*
X26860Y-25281D01*
X26860Y-25864D01*
X26492Y-25864D01*
X26174Y-25864D01*
X26142Y-25864D01*
X26142Y-24458D01*
X26142Y-24234D01*
X26141Y-23903D01*
X26141Y-23804D01*
X26103Y-23713D01*
X26033Y-23643D01*
X25941Y-23605D01*
X25898Y-23604D01*
X25502Y-23604D01*
X25440Y-23666D01*
X25440Y-24296D01*
X26080Y-24296D01*
X26142Y-24234D01*
X26142Y-24458D01*
X26080Y-24396D01*
X25440Y-24396D01*
X25440Y-25026D01*
X25502Y-25088D01*
X25941Y-25087D01*
X26033Y-25049D01*
X26103Y-24979D01*
X26141Y-24888D01*
X26141Y-24789D01*
X26142Y-24458D01*
X26142Y-25864D01*
X25430Y-25864D01*
X25416Y-25850D01*
X25115Y-25725D01*
X24788Y-25725D01*
X24354Y-25725D01*
X24052Y-25850D01*
X23821Y-26081D01*
X23735Y-26287D01*
X23717Y-26287D01*
X23435Y-26286D01*
X24658Y-25064D01*
X24658Y-25063D01*
X24659Y-25063D01*
X24699Y-25001D01*
X24747Y-25049D01*
X24839Y-25087D01*
X25278Y-25088D01*
X25340Y-25026D01*
X25340Y-24446D01*
X25340Y-24396D01*
X25340Y-24296D01*
X25340Y-24246D01*
X25340Y-23666D01*
X25278Y-23604D01*
X24839Y-23605D01*
X24812Y-23616D01*
X24812Y-23377D01*
X24897Y-23377D01*
X25136Y-23378D01*
X25198Y-23316D01*
X25198Y-22928D01*
X25198Y-22878D01*
X25198Y-22778D01*
X25198Y-22728D01*
X25198Y-22340D01*
X25136Y-22278D01*
X24897Y-22279D01*
X24812Y-22279D01*
X24812Y-22271D01*
X24936Y-22271D01*
X25392Y-22271D01*
X25395Y-22278D01*
X25360Y-22278D01*
X25298Y-22340D01*
X25298Y-22728D01*
X25298Y-22778D01*
X25298Y-22878D01*
X25298Y-22928D01*
X25298Y-23316D01*
X25360Y-23378D01*
X25599Y-23377D01*
X25698Y-23377D01*
X25789Y-23339D01*
X25859Y-23269D01*
X25897Y-23177D01*
X25898Y-22940D01*
X25886Y-22928D01*
X25898Y-22928D01*
X25898Y-22840D01*
X26013Y-22888D01*
X26322Y-22888D01*
X26608Y-22770D01*
X26763Y-22615D01*
X26941Y-22793D01*
X27227Y-22912D01*
X27498Y-22912D01*
X27498Y-22950D01*
X27509Y-22950D01*
X27498Y-22962D01*
X27499Y-23199D01*
X27537Y-23291D01*
X27607Y-23361D01*
X27698Y-23399D01*
X27797Y-23399D01*
X28036Y-23400D01*
X28098Y-23338D01*
X28098Y-22950D01*
X28098Y-22900D01*
X28098Y-22800D01*
X28198Y-22800D01*
X28198Y-22900D01*
X28198Y-22950D01*
X28198Y-23338D01*
X28260Y-23400D01*
X28350Y-23399D01*
X28351Y-23415D01*
X28352Y-23419D01*
X28352Y-23827D01*
X28352Y-23827D01*
G37*
G54D51*
X28352Y-23827D02*
X28323Y-23827D01*
X28323Y-23766D01*
X28256Y-23603D01*
X28131Y-23479D01*
X27968Y-23411D01*
X27792Y-23411D01*
X26788Y-23411D01*
X26625Y-23478D01*
X26501Y-23603D01*
X26433Y-23766D01*
X26433Y-23942D01*
X26433Y-24926D01*
X26500Y-25089D01*
X26625Y-25213D01*
X26788Y-25281D01*
X26860Y-25281D01*
X26860Y-25864D01*
X26492Y-25864D01*
X26174Y-25864D01*
X26142Y-25864D01*
X26142Y-24458D01*
X26142Y-24234D01*
X26141Y-23903D01*
X26141Y-23804D01*
X26103Y-23713D01*
X26033Y-23643D01*
X25941Y-23605D01*
X25898Y-23604D01*
X25502Y-23604D01*
X25440Y-23666D01*
X25440Y-24296D01*
X26080Y-24296D01*
X26142Y-24234D01*
X26142Y-24458D01*
X26080Y-24396D01*
X25440Y-24396D01*
X25440Y-25026D01*
X25502Y-25088D01*
X25941Y-25087D01*
X26033Y-25049D01*
X26103Y-24979D01*
X26141Y-24888D01*
X26141Y-24789D01*
X26142Y-24458D01*
X26142Y-25864D01*
X25430Y-25864D01*
X25416Y-25850D01*
X25115Y-25725D01*
X24788Y-25725D01*
X24354Y-25725D01*
X24052Y-25850D01*
X23821Y-26081D01*
X23735Y-26287D01*
X23717Y-26287D01*
X23435Y-26286D01*
X24658Y-25064D01*
X24658Y-25063D01*
X24659Y-25063D01*
X24699Y-25001D01*
X24747Y-25049D01*
X24839Y-25087D01*
X25278Y-25088D01*
X25340Y-25026D01*
X25340Y-24446D01*
X25340Y-24396D01*
X25340Y-24296D01*
X25340Y-24246D01*
X25340Y-23666D01*
X25278Y-23604D01*
X24839Y-23605D01*
X24812Y-23616D01*
X24812Y-23377D01*
X24897Y-23377D01*
X25136Y-23378D01*
X25198Y-23316D01*
X25198Y-22928D01*
X25198Y-22878D01*
X25198Y-22778D01*
X25198Y-22728D01*
X25198Y-22340D01*
X25136Y-22278D01*
X24897Y-22279D01*
X24812Y-22279D01*
X24812Y-22271D01*
X24936Y-22271D01*
X25392Y-22271D01*
X25395Y-22278D01*
X25360Y-22278D01*
X25298Y-22340D01*
X25298Y-22728D01*
X25298Y-22778D01*
X25298Y-22878D01*
X25298Y-22928D01*
X25298Y-23316D01*
X25360Y-23378D01*
X25599Y-23377D01*
X25698Y-23377D01*
X25789Y-23339D01*
X25859Y-23269D01*
X25897Y-23177D01*
X25898Y-22940D01*
X25886Y-22928D01*
X25898Y-22928D01*
X25898Y-22840D01*
X26013Y-22888D01*
X26322Y-22888D01*
X26608Y-22770D01*
X26763Y-22615D01*
X26941Y-22793D01*
X27227Y-22912D01*
X27498Y-22912D01*
X27498Y-22950D01*
X27509Y-22950D01*
X27498Y-22962D01*
X27499Y-23199D01*
X27537Y-23291D01*
X27607Y-23361D01*
X27698Y-23399D01*
X27797Y-23399D01*
X28036Y-23400D01*
X28098Y-23338D01*
X28098Y-22950D01*
X28098Y-22900D01*
X28098Y-22800D01*
X28198Y-22800D01*
X28198Y-22900D01*
X28198Y-22950D01*
X28198Y-23338D01*
X28260Y-23400D01*
X28350Y-23399D01*
X28351Y-23415D01*
X28352Y-23419D01*
X28352Y-23827D01*
G54D10*
G36*
X29929Y-49227D02*
X29740Y-49227D01*
X29740Y-48883D01*
X29078Y-48221D01*
X29007Y-48292D01*
X29007Y-48150D01*
X28345Y-47488D01*
X28201Y-47574D01*
X28048Y-47954D01*
X28051Y-48364D01*
X28201Y-48726D01*
X28345Y-48812D01*
X29007Y-48150D01*
X29007Y-48292D01*
X28416Y-48883D01*
X28502Y-49027D01*
X28882Y-49180D01*
X29292Y-49177D01*
X29654Y-49027D01*
X29740Y-48883D01*
X29740Y-49227D01*
X27998Y-49227D01*
X27998Y-29808D01*
X27998Y-29270D01*
X27560Y-29270D01*
X27498Y-29332D01*
X27499Y-29571D01*
X27499Y-29670D01*
X27537Y-29761D01*
X27607Y-29831D01*
X27699Y-29869D01*
X27936Y-29870D01*
X27998Y-29808D01*
X27998Y-49227D01*
X27100Y-49227D01*
X27100Y-33958D01*
X26768Y-33627D01*
X26436Y-33958D01*
X26467Y-34055D01*
X26681Y-34132D01*
X26908Y-34122D01*
X27069Y-34055D01*
X27100Y-33958D01*
X27100Y-49227D01*
X26841Y-49227D01*
X26841Y-36150D01*
X26841Y-35926D01*
X26840Y-35587D01*
X26840Y-35488D01*
X26802Y-35397D01*
X26732Y-35327D01*
X26640Y-35289D01*
X26378Y-35288D01*
X26316Y-35350D01*
X26316Y-35988D01*
X26779Y-35988D01*
X26841Y-35926D01*
X26841Y-36150D01*
X26779Y-36088D01*
X26316Y-36088D01*
X26316Y-36726D01*
X26378Y-36788D01*
X26640Y-36787D01*
X26732Y-36749D01*
X26802Y-36679D01*
X26840Y-36588D01*
X26840Y-36489D01*
X26841Y-36150D01*
X26841Y-49227D01*
X22088Y-49227D01*
X22088Y-41118D01*
X22088Y-40894D01*
X22087Y-40657D01*
X22049Y-40565D01*
X21979Y-40495D01*
X21888Y-40457D01*
X21789Y-40457D01*
X21550Y-40456D01*
X21488Y-40518D01*
X21488Y-40956D01*
X22026Y-40956D01*
X22088Y-40894D01*
X22088Y-41118D01*
X22026Y-41056D01*
X21488Y-41056D01*
X21488Y-41494D01*
X21550Y-41556D01*
X21789Y-41555D01*
X21888Y-41555D01*
X21979Y-41517D01*
X22049Y-41447D01*
X22087Y-41355D01*
X22088Y-41118D01*
X22088Y-49227D01*
X21969Y-49227D01*
X21969Y-47073D01*
X21969Y-46708D01*
X21829Y-46371D01*
X21571Y-46112D01*
X21234Y-45972D01*
X20869Y-45972D01*
X20833Y-45972D01*
X20496Y-46112D01*
X20237Y-46370D01*
X20097Y-46707D01*
X20097Y-47072D01*
X20237Y-47409D01*
X20495Y-47668D01*
X20832Y-47808D01*
X21197Y-47808D01*
X21233Y-47808D01*
X21570Y-47668D01*
X21829Y-47410D01*
X21969Y-47073D01*
X21969Y-49227D01*
X19919Y-49227D01*
X19919Y-47073D01*
X19919Y-46708D01*
X19779Y-46371D01*
X19521Y-46112D01*
X19184Y-45972D01*
X18819Y-45972D01*
X18783Y-45972D01*
X18446Y-46112D01*
X18187Y-46370D01*
X18047Y-46707D01*
X18047Y-47072D01*
X18187Y-47409D01*
X18445Y-47668D01*
X18782Y-47808D01*
X19147Y-47808D01*
X19183Y-47808D01*
X19520Y-47668D01*
X19779Y-47410D01*
X19919Y-47073D01*
X19919Y-49227D01*
X17944Y-49227D01*
X17944Y-47073D01*
X17944Y-46708D01*
X17804Y-46371D01*
X17546Y-46112D01*
X17209Y-45972D01*
X16844Y-45972D01*
X16808Y-45972D01*
X16471Y-46112D01*
X16212Y-46370D01*
X16072Y-46707D01*
X16072Y-47072D01*
X16212Y-47409D01*
X16470Y-47668D01*
X16807Y-47808D01*
X17172Y-47808D01*
X17208Y-47808D01*
X17545Y-47668D01*
X17804Y-47410D01*
X17944Y-47073D01*
X17944Y-49227D01*
X15894Y-49227D01*
X15894Y-47073D01*
X15894Y-46708D01*
X15754Y-46371D01*
X15496Y-46112D01*
X15159Y-45972D01*
X15054Y-45972D01*
X15054Y-41232D01*
X15054Y-41008D01*
X15053Y-40771D01*
X15015Y-40679D01*
X14945Y-40609D01*
X14854Y-40571D01*
X14755Y-40571D01*
X14516Y-40570D01*
X14454Y-40632D01*
X14454Y-41070D01*
X14992Y-41070D01*
X15054Y-41008D01*
X15054Y-41232D01*
X14992Y-41170D01*
X14454Y-41170D01*
X14454Y-41608D01*
X14516Y-41670D01*
X14755Y-41669D01*
X14854Y-41669D01*
X14945Y-41631D01*
X15015Y-41561D01*
X15053Y-41469D01*
X15054Y-41232D01*
X15054Y-45972D01*
X14794Y-45972D01*
X14758Y-45972D01*
X14421Y-46112D01*
X14354Y-46178D01*
X14354Y-41608D01*
X14354Y-41170D01*
X14354Y-41070D01*
X14354Y-40632D01*
X14292Y-40570D01*
X14053Y-40571D01*
X13954Y-40571D01*
X13863Y-40609D01*
X13793Y-40679D01*
X13755Y-40771D01*
X13754Y-41008D01*
X13816Y-41070D01*
X14354Y-41070D01*
X14354Y-41170D01*
X13816Y-41170D01*
X13754Y-41232D01*
X13755Y-41469D01*
X13793Y-41561D01*
X13863Y-41631D01*
X13954Y-41669D01*
X14053Y-41669D01*
X14292Y-41670D01*
X14354Y-41608D01*
X14354Y-46178D01*
X14162Y-46370D01*
X14022Y-46707D01*
X14022Y-47072D01*
X14162Y-47409D01*
X14420Y-47668D01*
X14757Y-47808D01*
X15122Y-47808D01*
X15158Y-47808D01*
X15495Y-47668D01*
X15754Y-47410D01*
X15894Y-47073D01*
X15894Y-49227D01*
X13746Y-49227D01*
X13746Y-41222D01*
X13684Y-41160D01*
X13054Y-41160D01*
X13054Y-41682D01*
X13116Y-41744D01*
X13447Y-41743D01*
X13546Y-41743D01*
X13637Y-41705D01*
X13707Y-41635D01*
X13745Y-41543D01*
X13746Y-41222D01*
X13746Y-49227D01*
X12954Y-49227D01*
X12954Y-41682D01*
X12954Y-41160D01*
X12324Y-41160D01*
X12262Y-41222D01*
X12263Y-41543D01*
X12301Y-41635D01*
X12371Y-41705D01*
X12462Y-41743D01*
X12561Y-41743D01*
X12892Y-41744D01*
X12954Y-41682D01*
X12954Y-49227D01*
X11748Y-49227D01*
X11748Y-48392D01*
X11745Y-47982D01*
X11595Y-47620D01*
X11451Y-47534D01*
X11380Y-47605D01*
X11380Y-47463D01*
X11294Y-47319D01*
X10914Y-47166D01*
X10504Y-47169D01*
X10142Y-47319D01*
X10056Y-47463D01*
X10718Y-48125D01*
X11380Y-47463D01*
X11380Y-47605D01*
X10789Y-48196D01*
X11451Y-48858D01*
X11595Y-48772D01*
X11748Y-48392D01*
X11748Y-49227D01*
X11380Y-49227D01*
X11380Y-48929D01*
X10718Y-48267D01*
X10056Y-48929D01*
X10142Y-49073D01*
X10522Y-49226D01*
X10932Y-49223D01*
X11294Y-49073D01*
X11380Y-48929D01*
X11380Y-49227D01*
X09789Y-49227D01*
X09789Y-48646D01*
X09841Y-48772D01*
X09985Y-48858D01*
X10647Y-48196D01*
X09985Y-47534D01*
X09841Y-47620D01*
X09789Y-47749D01*
X09789Y-11620D01*
X09831Y-11722D01*
X09975Y-11808D01*
X10637Y-11146D01*
X09975Y-10484D01*
X09831Y-10570D01*
X09789Y-10674D01*
X09789Y-10311D01*
X10106Y-10311D01*
X10046Y-10413D01*
X10708Y-11075D01*
X11370Y-10413D01*
X11309Y-10311D01*
X28523Y-10311D01*
X28490Y-10367D01*
X29152Y-11029D01*
X29814Y-10367D01*
X29780Y-10311D01*
X29929Y-10311D01*
X29929Y-10464D01*
X29885Y-10438D01*
X29223Y-11100D01*
X29885Y-11762D01*
X29929Y-11735D01*
X29929Y-47558D01*
X29814Y-47489D01*
X29814Y-11833D01*
X29152Y-11171D01*
X29081Y-11242D01*
X29081Y-11100D01*
X28419Y-10438D01*
X28275Y-10524D01*
X28122Y-10904D01*
X28125Y-11314D01*
X28275Y-11676D01*
X28419Y-11762D01*
X29081Y-11100D01*
X29081Y-11242D01*
X28490Y-11833D01*
X28576Y-11977D01*
X28956Y-12130D01*
X29366Y-12127D01*
X29728Y-11977D01*
X29814Y-11833D01*
X29814Y-47489D01*
X29811Y-47488D01*
X29740Y-47559D01*
X29740Y-47417D01*
X29654Y-47273D01*
X29396Y-47169D01*
X29396Y-24353D01*
X29395Y-24351D01*
X29396Y-24350D01*
X29396Y-23412D01*
X29395Y-23409D01*
X29394Y-23406D01*
X29342Y-13353D01*
X29330Y-13296D01*
X29329Y-13242D01*
X29310Y-13201D01*
X29301Y-13153D01*
X29267Y-13103D01*
X29246Y-13055D01*
X28843Y-12483D01*
X28810Y-12452D01*
X28784Y-12413D01*
X28733Y-12379D01*
X28695Y-12343D01*
X28656Y-12328D01*
X28614Y-12300D01*
X28551Y-12287D01*
X28505Y-12270D01*
X28465Y-12270D01*
X28414Y-12261D01*
X25204Y-12272D01*
X25204Y-12000D01*
X25164Y-11800D01*
X25051Y-11631D01*
X25051Y-11630D01*
X24977Y-11557D01*
X24808Y-11444D01*
X24608Y-11404D01*
X18208Y-11404D01*
X18008Y-11444D01*
X17838Y-11557D01*
X17531Y-11865D01*
X17418Y-12034D01*
X17378Y-12234D01*
X17378Y-12293D01*
X17236Y-12235D01*
X17143Y-12235D01*
X17072Y-12189D01*
X17042Y-12183D01*
X17009Y-12166D01*
X16907Y-12157D01*
X16812Y-12140D01*
X15684Y-12153D01*
X15662Y-12131D01*
X15355Y-12003D01*
X15022Y-12003D01*
X14714Y-12130D01*
X14532Y-12311D01*
X14514Y-12293D01*
X14476Y-12330D01*
X14458Y-12278D01*
X14222Y-12191D01*
X13972Y-12201D01*
X13786Y-12278D01*
X13749Y-12382D01*
X14087Y-12720D01*
X14122Y-12755D01*
X14193Y-12826D01*
X14122Y-12897D01*
X14087Y-12932D01*
X14051Y-12968D01*
X14051Y-12826D01*
X13678Y-12453D01*
X13574Y-12490D01*
X13487Y-12726D01*
X13497Y-12976D01*
X13574Y-13162D01*
X13678Y-13199D01*
X14051Y-12826D01*
X14051Y-12968D01*
X13749Y-13270D01*
X13786Y-13374D01*
X14022Y-13461D01*
X14272Y-13451D01*
X14458Y-13374D01*
X14475Y-13320D01*
X14514Y-13359D01*
X14518Y-13354D01*
X14714Y-13549D01*
X15021Y-13677D01*
X15354Y-13677D01*
X15662Y-13550D01*
X15697Y-13513D01*
X16251Y-13507D01*
X16251Y-13659D01*
X16333Y-13857D01*
X16333Y-13858D01*
X16333Y-13859D01*
X15069Y-15123D01*
X14909Y-15363D01*
X14852Y-15646D01*
X14853Y-15650D01*
X14853Y-15926D01*
X14828Y-15926D01*
X14828Y-15202D01*
X14828Y-14978D01*
X14827Y-14739D01*
X14827Y-14640D01*
X14789Y-14549D01*
X14719Y-14479D01*
X14627Y-14441D01*
X14390Y-14440D01*
X14328Y-14502D01*
X14328Y-15040D01*
X14766Y-15040D01*
X14828Y-14978D01*
X14828Y-15202D01*
X14766Y-15140D01*
X14328Y-15140D01*
X14328Y-15678D01*
X14390Y-15740D01*
X14627Y-15739D01*
X14719Y-15701D01*
X14789Y-15631D01*
X14827Y-15540D01*
X14827Y-15441D01*
X14828Y-15202D01*
X14828Y-15926D01*
X14319Y-15926D01*
X14228Y-15963D01*
X14228Y-15678D01*
X14228Y-15140D01*
X14228Y-15040D01*
X14228Y-14502D01*
X14166Y-14440D01*
X13929Y-14441D01*
X13837Y-14479D01*
X13767Y-14549D01*
X13729Y-14640D01*
X13729Y-14739D01*
X13728Y-14978D01*
X13790Y-15040D01*
X14228Y-15040D01*
X14228Y-15140D01*
X13790Y-15140D01*
X13728Y-15202D01*
X13729Y-15441D01*
X13729Y-15540D01*
X13767Y-15631D01*
X13837Y-15701D01*
X13929Y-15739D01*
X14166Y-15740D01*
X14228Y-15678D01*
X14228Y-15963D01*
X14156Y-15993D01*
X14032Y-16118D01*
X13964Y-16281D01*
X13964Y-16457D01*
X13964Y-17243D01*
X14031Y-17406D01*
X14156Y-17530D01*
X14319Y-17598D01*
X14495Y-17598D01*
X16069Y-17598D01*
X16232Y-17531D01*
X16261Y-17501D01*
X17197Y-17501D01*
X17197Y-17672D01*
X17264Y-17835D01*
X17389Y-17959D01*
X17552Y-18027D01*
X17728Y-18027D01*
X18279Y-18027D01*
X17496Y-18810D01*
X16407Y-18810D01*
X16357Y-18688D01*
X16232Y-18564D01*
X16069Y-18496D01*
X15893Y-18496D01*
X14319Y-18496D01*
X14156Y-18563D01*
X14032Y-18688D01*
X13964Y-18851D01*
X13964Y-19027D01*
X13964Y-19813D01*
X14031Y-19976D01*
X14156Y-20100D01*
X14302Y-20161D01*
X13413Y-20161D01*
X13413Y-20146D01*
X13413Y-19438D01*
X13346Y-19275D01*
X13221Y-19151D01*
X13058Y-19083D01*
X12882Y-19083D01*
X12709Y-19083D01*
X12709Y-15933D01*
X12766Y-15933D01*
X13366Y-15933D01*
X13529Y-15866D01*
X13653Y-15741D01*
X13721Y-15578D01*
X13721Y-15402D01*
X13721Y-14602D01*
X13659Y-14453D01*
X13753Y-14230D01*
X13753Y-13919D01*
X13753Y-13591D01*
X13634Y-13303D01*
X13414Y-13083D01*
X13126Y-12963D01*
X12815Y-12963D01*
X12594Y-13054D01*
X12575Y-13035D01*
X12412Y-12967D01*
X12236Y-12967D01*
X11738Y-12967D01*
X11738Y-11342D01*
X11735Y-10932D01*
X11585Y-10570D01*
X11441Y-10484D01*
X10779Y-11146D01*
X11441Y-11808D01*
X11585Y-11722D01*
X11738Y-11342D01*
X11738Y-12967D01*
X11528Y-12967D01*
X11370Y-13031D01*
X11370Y-11879D01*
X10708Y-11217D01*
X10046Y-11879D01*
X10132Y-12023D01*
X10512Y-12176D01*
X10922Y-12173D01*
X11284Y-12023D01*
X11370Y-11879D01*
X11370Y-13031D01*
X11365Y-13034D01*
X11241Y-13159D01*
X11173Y-13322D01*
X11173Y-13498D01*
X11173Y-14498D01*
X11231Y-14639D01*
X11231Y-18731D01*
X11185Y-18741D01*
X11111Y-18741D01*
X11101Y-18743D01*
X11038Y-18768D01*
X10973Y-18781D01*
X10905Y-18824D01*
X10835Y-18854D01*
X10789Y-18899D01*
X10730Y-18938D01*
X10683Y-19005D01*
X10631Y-19058D01*
X10606Y-19118D01*
X10567Y-19175D01*
X10550Y-19252D01*
X10521Y-19324D01*
X10521Y-19391D01*
X10507Y-19458D01*
X10517Y-19512D01*
X10517Y-24783D01*
X10517Y-24840D01*
X10517Y-24844D01*
X10517Y-24849D01*
X10505Y-24915D01*
X10519Y-24990D01*
X10521Y-25071D01*
X10548Y-25135D01*
X10561Y-25198D01*
X10602Y-25260D01*
X10635Y-25336D01*
X10683Y-25383D01*
X10720Y-25438D01*
X10784Y-25481D01*
X10842Y-25537D01*
X10903Y-25561D01*
X10960Y-25599D01*
X11039Y-25614D01*
X11111Y-25643D01*
X11177Y-25642D01*
X11243Y-25655D01*
X20583Y-25671D01*
X20866Y-25616D01*
X21106Y-25456D01*
X21109Y-25451D01*
X21266Y-25216D01*
X21266Y-25213D01*
X21268Y-25211D01*
X21290Y-25094D01*
X21323Y-24934D01*
X21322Y-24930D01*
X21323Y-24927D01*
X21320Y-24225D01*
X21589Y-23957D01*
X21771Y-23519D01*
X21772Y-23044D01*
X21591Y-22605D01*
X21255Y-22269D01*
X20817Y-22087D01*
X20342Y-22086D01*
X19903Y-22267D01*
X19623Y-22546D01*
X19051Y-22548D01*
X19051Y-20700D01*
X19051Y-20368D01*
X19035Y-20321D01*
X18899Y-20064D01*
X18675Y-19878D01*
X18397Y-19792D01*
X18280Y-19851D01*
X18280Y-20484D01*
X19006Y-20484D01*
X19051Y-20368D01*
X19051Y-20700D01*
X19006Y-20584D01*
X18280Y-20584D01*
X18280Y-21217D01*
X18397Y-21276D01*
X18675Y-21190D01*
X18899Y-21004D01*
X19035Y-20747D01*
X19051Y-20700D01*
X19051Y-22548D01*
X18217Y-22551D01*
X18180Y-22558D01*
X18180Y-21217D01*
X18180Y-20584D01*
X18180Y-20484D01*
X18180Y-19851D01*
X18063Y-19792D01*
X17785Y-19878D01*
X17561Y-20064D01*
X17425Y-20321D01*
X17409Y-20368D01*
X17454Y-20484D01*
X18180Y-20484D01*
X18180Y-20584D01*
X17454Y-20584D01*
X17409Y-20700D01*
X17425Y-20747D01*
X17561Y-21004D01*
X17785Y-21190D01*
X18063Y-21276D01*
X18180Y-21217D01*
X18180Y-22558D01*
X18077Y-22579D01*
X17937Y-22607D01*
X17935Y-22607D01*
X17935Y-22608D01*
X17695Y-22769D01*
X17693Y-22771D01*
X17399Y-23065D01*
X17239Y-23305D01*
X17233Y-23333D01*
X17213Y-23354D01*
X17085Y-23661D01*
X17085Y-23994D01*
X17164Y-24187D01*
X16629Y-24186D01*
X16629Y-24131D01*
X16630Y-23892D01*
X16630Y-23668D01*
X16629Y-23429D01*
X16629Y-23330D01*
X16591Y-23239D01*
X16521Y-23169D01*
X16429Y-23131D01*
X16192Y-23130D01*
X16130Y-23192D01*
X16130Y-23730D01*
X16568Y-23730D01*
X16630Y-23668D01*
X16630Y-23892D01*
X16568Y-23830D01*
X16180Y-23830D01*
X16130Y-23830D01*
X16030Y-23830D01*
X16030Y-23730D01*
X16030Y-23192D01*
X15968Y-23130D01*
X15731Y-23131D01*
X15639Y-23169D01*
X15569Y-23239D01*
X15531Y-23330D01*
X15531Y-23429D01*
X15530Y-23668D01*
X15592Y-23730D01*
X16030Y-23730D01*
X16030Y-23830D01*
X15980Y-23830D01*
X15592Y-23830D01*
X15530Y-23892D01*
X15531Y-24131D01*
X15531Y-24184D01*
X15523Y-24184D01*
X15523Y-24092D01*
X15523Y-23292D01*
X15456Y-23129D01*
X15331Y-23005D01*
X15168Y-22937D01*
X14992Y-22937D01*
X14392Y-22937D01*
X14229Y-23004D01*
X14190Y-23043D01*
X14032Y-22977D01*
X13856Y-22977D01*
X13256Y-22977D01*
X13093Y-23044D01*
X12994Y-23143D01*
X12902Y-23051D01*
X12902Y-22617D01*
X13079Y-22544D01*
X13147Y-22475D01*
X13168Y-22527D01*
X13293Y-22651D01*
X13456Y-22719D01*
X13632Y-22719D01*
X14232Y-22719D01*
X14395Y-22652D01*
X14493Y-22552D01*
X14593Y-22651D01*
X14756Y-22719D01*
X14932Y-22719D01*
X15532Y-22719D01*
X15695Y-22652D01*
X15819Y-22527D01*
X15887Y-22364D01*
X15887Y-22188D01*
X15887Y-21388D01*
X15830Y-21249D01*
X15873Y-21183D01*
X15877Y-21179D01*
X15933Y-20896D01*
X15933Y-20168D01*
X16069Y-20168D01*
X16232Y-20101D01*
X16356Y-19976D01*
X16406Y-19854D01*
X17712Y-19854D01*
X17911Y-19814D01*
X17912Y-19814D01*
X18081Y-19701D01*
X19562Y-18220D01*
X19562Y-18219D01*
X19563Y-18219D01*
X19676Y-18050D01*
X19715Y-17851D01*
X19716Y-17850D01*
X19716Y-15880D01*
X19715Y-15879D01*
X19676Y-15680D01*
X19640Y-15626D01*
X19640Y-13526D01*
X19640Y-13326D01*
X19047Y-13326D01*
X19047Y-14054D01*
X19147Y-14101D01*
X19197Y-14089D01*
X19416Y-13966D01*
X19572Y-13768D01*
X19640Y-13526D01*
X19640Y-15626D01*
X19563Y-15511D01*
X19562Y-15510D01*
X18422Y-14370D01*
X18422Y-13768D01*
X18578Y-13966D01*
X18797Y-14089D01*
X18847Y-14101D01*
X18947Y-14054D01*
X18947Y-13376D01*
X18947Y-13326D01*
X18947Y-13226D01*
X19047Y-13226D01*
X19097Y-13226D01*
X19640Y-13226D01*
X19640Y-13026D01*
X19572Y-12784D01*
X19416Y-12586D01*
X19197Y-12463D01*
X19147Y-12451D01*
X19097Y-12474D01*
X19097Y-12448D01*
X20101Y-12448D01*
X20046Y-12581D01*
X20046Y-12898D01*
X20167Y-13191D01*
X20322Y-13346D01*
X20322Y-14020D01*
X20362Y-14220D01*
X20475Y-14389D01*
X20581Y-14495D01*
X20509Y-14569D01*
X20441Y-14732D01*
X20441Y-14908D01*
X20441Y-15508D01*
X20508Y-15671D01*
X20607Y-15769D01*
X20509Y-15869D01*
X20441Y-16032D01*
X20441Y-16208D01*
X20441Y-16808D01*
X20508Y-16971D01*
X20633Y-17095D01*
X20698Y-17122D01*
X20650Y-17239D01*
X20650Y-17415D01*
X20650Y-18201D01*
X20717Y-18364D01*
X20842Y-18488D01*
X21005Y-18556D01*
X21181Y-18556D01*
X21575Y-18556D01*
X21738Y-18489D01*
X21790Y-18436D01*
X21842Y-18488D01*
X22005Y-18556D01*
X22181Y-18556D01*
X22575Y-18556D01*
X22730Y-18492D01*
X23241Y-18783D01*
X23272Y-18793D01*
X23300Y-18812D01*
X23366Y-18825D01*
X23434Y-18848D01*
X23467Y-18845D01*
X23500Y-18852D01*
X25180Y-18852D01*
X25195Y-18848D01*
X25210Y-18851D01*
X25294Y-18829D01*
X25380Y-18812D01*
X25392Y-18803D01*
X25407Y-18800D01*
X25517Y-18746D01*
X25531Y-18740D01*
X25602Y-18686D01*
X25683Y-18629D01*
X25688Y-18620D01*
X25693Y-18617D01*
X25729Y-18554D01*
X25740Y-18537D01*
X26182Y-18847D01*
X26233Y-18869D01*
X26282Y-18902D01*
X26328Y-18911D01*
X26369Y-18929D01*
X26423Y-18930D01*
X26482Y-18942D01*
X28122Y-18942D01*
X28190Y-18949D01*
X28214Y-18946D01*
X28239Y-18952D01*
X28317Y-18937D01*
X28327Y-18936D01*
X28329Y-19280D01*
X27967Y-19280D01*
X27804Y-19347D01*
X27751Y-19399D01*
X27700Y-19348D01*
X27537Y-19280D01*
X27361Y-19280D01*
X26967Y-19280D01*
X26804Y-19347D01*
X26753Y-19397D01*
X26228Y-19039D01*
X26176Y-19017D01*
X26135Y-18989D01*
X26088Y-18979D01*
X26040Y-18959D01*
X25982Y-18958D01*
X25935Y-18949D01*
X24277Y-18946D01*
X24267Y-18948D01*
X21314Y-18948D01*
X21216Y-18967D01*
X21145Y-18977D01*
X21132Y-18984D01*
X21114Y-18988D01*
X21035Y-19040D01*
X20969Y-19079D01*
X20959Y-19091D01*
X20945Y-19101D01*
X20894Y-19176D01*
X20846Y-19240D01*
X20841Y-19255D01*
X20832Y-19270D01*
X20814Y-19355D01*
X20806Y-19386D01*
X20718Y-19476D01*
X20650Y-19639D01*
X20650Y-19815D01*
X20650Y-20601D01*
X20717Y-20764D01*
X20842Y-20888D01*
X21005Y-20956D01*
X21082Y-20956D01*
X21082Y-21254D01*
X21200Y-21540D01*
X21419Y-21759D01*
X21705Y-21878D01*
X22014Y-21878D01*
X22300Y-21760D01*
X22519Y-21541D01*
X22536Y-21497D01*
X22651Y-21611D01*
X22814Y-21679D01*
X22990Y-21679D01*
X23768Y-21679D01*
X23768Y-21693D01*
X23752Y-21687D01*
X23653Y-21687D01*
X23414Y-21686D01*
X23352Y-21748D01*
X23352Y-22136D01*
X23352Y-22186D01*
X23352Y-22286D01*
X23352Y-22336D01*
X23352Y-22724D01*
X23414Y-22786D01*
X23653Y-22785D01*
X23752Y-22785D01*
X23768Y-22778D01*
X23768Y-24478D01*
X23252Y-24994D01*
X23252Y-22724D01*
X23252Y-22286D01*
X23252Y-22186D01*
X23252Y-21748D01*
X23190Y-21686D01*
X22951Y-21687D01*
X22852Y-21687D01*
X22761Y-21725D01*
X22691Y-21795D01*
X22653Y-21887D01*
X22652Y-22124D01*
X22714Y-22186D01*
X23252Y-22186D01*
X23252Y-22286D01*
X22714Y-22286D01*
X22652Y-22348D01*
X22653Y-22585D01*
X22691Y-22677D01*
X22761Y-22747D01*
X22852Y-22785D01*
X22951Y-22785D01*
X23190Y-22786D01*
X23252Y-22724D01*
X23252Y-24994D01*
X22195Y-26051D01*
X22082Y-26220D01*
X22042Y-26420D01*
X22042Y-28070D01*
X22082Y-28270D01*
X22195Y-28439D01*
X22339Y-28535D01*
X22339Y-28592D01*
X22356Y-28634D01*
X22262Y-28634D01*
X22262Y-28633D01*
X22137Y-28509D01*
X21974Y-28441D01*
X21798Y-28441D01*
X21198Y-28441D01*
X21035Y-28508D01*
X20936Y-28607D01*
X20837Y-28509D01*
X20674Y-28441D01*
X20498Y-28441D01*
X19898Y-28441D01*
X19735Y-28508D01*
X19611Y-28633D01*
X19543Y-28796D01*
X19543Y-28972D01*
X19543Y-29674D01*
X19430Y-29674D01*
X19427Y-29674D01*
X19425Y-29674D01*
X19325Y-29695D01*
X19230Y-29714D01*
X19227Y-29715D01*
X19225Y-29716D01*
X19140Y-29773D01*
X19061Y-29827D01*
X19059Y-29829D01*
X19057Y-29831D01*
X19001Y-29915D01*
X18948Y-29996D01*
X18947Y-29998D01*
X18946Y-30001D01*
X18927Y-30101D01*
X18908Y-30196D01*
X18908Y-30198D01*
X18908Y-30201D01*
X18914Y-30771D01*
X18914Y-31800D01*
X18915Y-31809D01*
X18914Y-31822D01*
X18940Y-32429D01*
X18940Y-32430D01*
X18941Y-32451D01*
X18959Y-32526D01*
X18980Y-32630D01*
X18986Y-32640D01*
X18989Y-32649D01*
X19034Y-32712D01*
X19093Y-32799D01*
X19102Y-32805D01*
X19109Y-32814D01*
X19174Y-32853D01*
X19262Y-32912D01*
X19276Y-32914D01*
X19283Y-32919D01*
X19351Y-32929D01*
X19462Y-32952D01*
X23890Y-32952D01*
X23890Y-36154D01*
X23847Y-36154D01*
X23847Y-35782D01*
X23780Y-35619D01*
X23655Y-35495D01*
X23654Y-35494D01*
X23654Y-34982D01*
X23654Y-34758D01*
X23653Y-34521D01*
X23615Y-34429D01*
X23545Y-34359D01*
X23454Y-34321D01*
X23355Y-34321D01*
X23116Y-34320D01*
X23054Y-34382D01*
X23054Y-34820D01*
X23592Y-34820D01*
X23654Y-34758D01*
X23654Y-34982D01*
X23592Y-34920D01*
X23054Y-34920D01*
X23054Y-35358D01*
X23116Y-35420D01*
X23355Y-35419D01*
X23454Y-35419D01*
X23545Y-35381D01*
X23615Y-35311D01*
X23653Y-35219D01*
X23654Y-34982D01*
X23654Y-35494D01*
X23492Y-35427D01*
X23316Y-35427D01*
X22954Y-35427D01*
X22954Y-35358D01*
X22954Y-34920D01*
X22954Y-34820D01*
X22954Y-34382D01*
X22892Y-34320D01*
X22653Y-34321D01*
X22554Y-34321D01*
X22463Y-34359D01*
X22393Y-34429D01*
X22355Y-34521D01*
X22354Y-34758D01*
X22416Y-34820D01*
X22954Y-34820D01*
X22954Y-34920D01*
X22416Y-34920D01*
X22354Y-34982D01*
X22355Y-35219D01*
X22393Y-35311D01*
X22463Y-35381D01*
X22554Y-35419D01*
X22653Y-35419D01*
X22892Y-35420D01*
X22954Y-35358D01*
X22954Y-35427D01*
X22516Y-35427D01*
X22353Y-35494D01*
X22229Y-35619D01*
X22161Y-35782D01*
X22161Y-35958D01*
X22161Y-36281D01*
X22123Y-36307D01*
X22122Y-36308D01*
X22121Y-36309D01*
X21877Y-36555D01*
X21877Y-36552D01*
X21877Y-35752D01*
X21810Y-35589D01*
X21685Y-35465D01*
X21583Y-35422D01*
X21763Y-35321D01*
X21918Y-35123D01*
X21985Y-34881D01*
X21985Y-34686D01*
X21985Y-34586D01*
X21985Y-34391D01*
X21918Y-34149D01*
X21763Y-33951D01*
X21544Y-33827D01*
X21492Y-33814D01*
X21392Y-33861D01*
X21392Y-34586D01*
X21985Y-34586D01*
X21985Y-34686D01*
X21442Y-34686D01*
X21392Y-34686D01*
X21292Y-34686D01*
X21292Y-34586D01*
X21292Y-33861D01*
X21192Y-33814D01*
X21140Y-33827D01*
X20921Y-33951D01*
X20766Y-34149D01*
X20699Y-34391D01*
X20699Y-34586D01*
X21292Y-34586D01*
X21292Y-34686D01*
X21242Y-34686D01*
X20699Y-34686D01*
X20699Y-34881D01*
X20766Y-35123D01*
X20921Y-35321D01*
X21055Y-35397D01*
X20746Y-35397D01*
X20583Y-35464D01*
X20459Y-35589D01*
X20391Y-35752D01*
X20391Y-35928D01*
X20391Y-36728D01*
X20395Y-36737D01*
X20367Y-36726D01*
X20383Y-36690D01*
X20383Y-36591D01*
X20384Y-36352D01*
X20322Y-36290D01*
X19934Y-36290D01*
X19884Y-36290D01*
X19784Y-36290D01*
X19784Y-36190D01*
X19884Y-36190D01*
X19934Y-36190D01*
X20322Y-36190D01*
X20384Y-36128D01*
X20383Y-35889D01*
X20383Y-35790D01*
X20345Y-35699D01*
X20275Y-35629D01*
X20183Y-35591D01*
X19997Y-35590D01*
X20110Y-35477D01*
X20178Y-35314D01*
X20178Y-35138D01*
X20178Y-33958D01*
X20111Y-33795D01*
X19986Y-33671D01*
X19823Y-33603D01*
X19647Y-33603D01*
X18861Y-33603D01*
X18698Y-33670D01*
X18574Y-33795D01*
X18506Y-33958D01*
X18506Y-34134D01*
X18506Y-34632D01*
X18408Y-34779D01*
X18359Y-35024D01*
X18359Y-36723D01*
X18141Y-36633D01*
X18141Y-36108D01*
X18180Y-36052D01*
X18239Y-35770D01*
X18251Y-34644D01*
X18250Y-34639D01*
X18251Y-34636D01*
X18224Y-34503D01*
X18198Y-34360D01*
X18195Y-34356D01*
X18195Y-34353D01*
X18099Y-34209D01*
X18040Y-34119D01*
X18038Y-34117D01*
X18035Y-34113D01*
X17893Y-34018D01*
X17802Y-33956D01*
X17798Y-33955D01*
X17795Y-33953D01*
X17774Y-33948D01*
X17711Y-33795D01*
X17586Y-33671D01*
X17423Y-33603D01*
X17247Y-33603D01*
X16461Y-33603D01*
X16298Y-33670D01*
X16174Y-33795D01*
X16106Y-33958D01*
X16106Y-34134D01*
X16106Y-35314D01*
X16173Y-35477D01*
X16298Y-35601D01*
X16461Y-35669D01*
X16637Y-35669D01*
X16761Y-35669D01*
X16761Y-35754D01*
X16814Y-36038D01*
X16859Y-36106D01*
X16859Y-36826D01*
X16863Y-36848D01*
X16852Y-36849D01*
X16669Y-36944D01*
X16622Y-36999D01*
X16598Y-36939D01*
X16400Y-36740D01*
X16140Y-36633D01*
X15860Y-36633D01*
X15601Y-36740D01*
X15585Y-36755D01*
X15585Y-34881D01*
X15585Y-34686D01*
X15585Y-34586D01*
X15585Y-34391D01*
X15518Y-34149D01*
X15363Y-33951D01*
X15144Y-33827D01*
X15092Y-33814D01*
X14992Y-33861D01*
X14992Y-34586D01*
X15585Y-34586D01*
X15585Y-34686D01*
X14992Y-34686D01*
X14992Y-35411D01*
X15092Y-35458D01*
X15144Y-35445D01*
X15363Y-35321D01*
X15518Y-35123D01*
X15585Y-34881D01*
X15585Y-36755D01*
X15499Y-36840D01*
X15400Y-36740D01*
X15140Y-36633D01*
X14892Y-36633D01*
X14892Y-35411D01*
X14892Y-34686D01*
X14892Y-34586D01*
X14892Y-33861D01*
X14792Y-33814D01*
X14740Y-33827D01*
X14521Y-33951D01*
X14366Y-34149D01*
X14299Y-34391D01*
X14299Y-34586D01*
X14892Y-34586D01*
X14892Y-34686D01*
X14299Y-34686D01*
X14299Y-34881D01*
X14366Y-35123D01*
X14521Y-35321D01*
X14740Y-35445D01*
X14792Y-35458D01*
X14892Y-35411D01*
X14892Y-36633D01*
X14860Y-36633D01*
X14601Y-36740D01*
X14499Y-36840D01*
X14400Y-36740D01*
X14140Y-36633D01*
X14022Y-36633D01*
X14022Y-33216D01*
X15306Y-31931D01*
X15372Y-31959D01*
X15647Y-31959D01*
X15728Y-31925D01*
X15714Y-31961D01*
X15714Y-32270D01*
X15832Y-32556D01*
X16051Y-32775D01*
X16337Y-32894D01*
X16646Y-32894D01*
X16932Y-32776D01*
X16958Y-32750D01*
X16967Y-32759D01*
X17253Y-32878D01*
X17562Y-32878D01*
X17848Y-32760D01*
X18067Y-32541D01*
X18186Y-32255D01*
X18186Y-31946D01*
X18075Y-31679D01*
X18095Y-31660D01*
X18201Y-31406D01*
X18201Y-31131D01*
X18201Y-30575D01*
X18096Y-30321D01*
X17902Y-30127D01*
X17822Y-30093D01*
X17947Y-29969D01*
X18066Y-29683D01*
X18066Y-29374D01*
X17948Y-29088D01*
X17768Y-28908D01*
X17901Y-28854D01*
X18095Y-28660D01*
X18201Y-28406D01*
X18201Y-28131D01*
X18201Y-27575D01*
X18096Y-27321D01*
X17902Y-27127D01*
X17648Y-27021D01*
X17373Y-27021D01*
X17119Y-27126D01*
X17010Y-27235D01*
X16902Y-27127D01*
X16648Y-27021D01*
X16373Y-27021D01*
X16119Y-27126D01*
X16010Y-27235D01*
X15902Y-27127D01*
X15648Y-27021D01*
X15373Y-27021D01*
X15119Y-27126D01*
X15010Y-27235D01*
X14902Y-27127D01*
X14648Y-27021D01*
X14373Y-27021D01*
X14119Y-27126D01*
X14010Y-27235D01*
X13902Y-27127D01*
X13648Y-27021D01*
X13373Y-27021D01*
X13119Y-27126D01*
X13010Y-27235D01*
X12902Y-27127D01*
X12648Y-27021D01*
X12373Y-27021D01*
X12119Y-27126D01*
X11925Y-27320D01*
X11819Y-27574D01*
X11819Y-27849D01*
X11819Y-28405D01*
X11924Y-28659D01*
X12118Y-28853D01*
X12081Y-28942D01*
X12081Y-29118D01*
X12081Y-29417D01*
X11824Y-29662D01*
X11820Y-29667D01*
X11815Y-29671D01*
X11003Y-30483D01*
X10890Y-30652D01*
X10850Y-30852D01*
X10850Y-38690D01*
X10890Y-38890D01*
X11003Y-39059D01*
X11912Y-39968D01*
X11913Y-39969D01*
X12069Y-40073D01*
X12069Y-40382D01*
X12136Y-40545D01*
X12261Y-40669D01*
X12265Y-40670D01*
X12263Y-40677D01*
X12262Y-40998D01*
X12324Y-41060D01*
X12904Y-41060D01*
X12954Y-41060D01*
X13054Y-41060D01*
X13104Y-41060D01*
X13684Y-41060D01*
X13746Y-40998D01*
X13745Y-40677D01*
X13742Y-40671D01*
X13747Y-40670D01*
X13871Y-40545D01*
X13871Y-40544D01*
X13916Y-40563D01*
X14092Y-40563D01*
X14892Y-40563D01*
X14946Y-40540D01*
X14977Y-40587D01*
X16011Y-41620D01*
X16013Y-41623D01*
X16253Y-41783D01*
X16536Y-41840D01*
X16536Y-41839D01*
X16540Y-41839D01*
X20403Y-41839D01*
X20408Y-41840D01*
X20408Y-41839D01*
X20691Y-41783D01*
X20931Y-41623D01*
X20998Y-41555D01*
X21087Y-41555D01*
X21326Y-41556D01*
X21388Y-41494D01*
X21388Y-41106D01*
X21388Y-41056D01*
X21388Y-40956D01*
X21388Y-40906D01*
X21388Y-40518D01*
X21326Y-40456D01*
X21239Y-40456D01*
X21239Y-40449D01*
X21926Y-40449D01*
X22089Y-40382D01*
X22100Y-40370D01*
X22134Y-40370D01*
X24670Y-40370D01*
X24930Y-40318D01*
X25151Y-40171D01*
X25818Y-39502D01*
X25820Y-39501D01*
X25821Y-39501D01*
X25908Y-39368D01*
X25968Y-39281D01*
X25968Y-39280D01*
X26020Y-39020D01*
X26020Y-37314D01*
X26020Y-36787D01*
X26154Y-36788D01*
X26216Y-36726D01*
X26216Y-36138D01*
X26216Y-36088D01*
X26216Y-35988D01*
X26216Y-35938D01*
X26216Y-35350D01*
X26154Y-35288D01*
X26020Y-35288D01*
X26020Y-32838D01*
X26108Y-33052D01*
X26300Y-33244D01*
X26269Y-33255D01*
X26192Y-33469D01*
X26202Y-33696D01*
X26269Y-33857D01*
X26366Y-33888D01*
X26662Y-33591D01*
X26697Y-33556D01*
X26768Y-33485D01*
X26839Y-33556D01*
X26874Y-33591D01*
X27170Y-33888D01*
X27267Y-33857D01*
X27344Y-33643D01*
X27334Y-33416D01*
X27267Y-33255D01*
X27235Y-33244D01*
X27427Y-33053D01*
X27546Y-32767D01*
X27546Y-32458D01*
X27428Y-32172D01*
X27290Y-32034D01*
X27290Y-31998D01*
X27326Y-31998D01*
X27489Y-31931D01*
X27613Y-31806D01*
X27681Y-31643D01*
X27681Y-31467D01*
X27681Y-30917D01*
X27614Y-30754D01*
X27559Y-30699D01*
X27579Y-30680D01*
X27686Y-30420D01*
X27686Y-30140D01*
X27579Y-29881D01*
X27466Y-29767D01*
X27491Y-29708D01*
X27491Y-29532D01*
X27491Y-28960D01*
X27498Y-28953D01*
X27498Y-29108D01*
X27560Y-29170D01*
X27998Y-29170D01*
X27998Y-28632D01*
X27936Y-28570D01*
X27699Y-28571D01*
X27658Y-28587D01*
X27658Y-28522D01*
X27658Y-27814D01*
X27591Y-27651D01*
X27466Y-27527D01*
X27319Y-27466D01*
X27466Y-27406D01*
X27590Y-27281D01*
X27658Y-27118D01*
X27658Y-26942D01*
X27658Y-26817D01*
X27751Y-26755D01*
X27864Y-26586D01*
X27904Y-26386D01*
X27904Y-25281D01*
X27968Y-25281D01*
X28131Y-25214D01*
X28255Y-25089D01*
X28323Y-24926D01*
X28323Y-24871D01*
X28872Y-24873D01*
X28874Y-24872D01*
X29072Y-24834D01*
X29074Y-24832D01*
X29242Y-24722D01*
X29243Y-24719D01*
X29355Y-24553D01*
X29355Y-24550D01*
X29356Y-24550D01*
X29371Y-24473D01*
X29396Y-24353D01*
X29396Y-47169D01*
X29274Y-47120D01*
X28864Y-47123D01*
X28598Y-47233D01*
X28598Y-29332D01*
X28598Y-29108D01*
X28597Y-28869D01*
X28597Y-28770D01*
X28559Y-28679D01*
X28489Y-28609D01*
X28397Y-28571D01*
X28160Y-28570D01*
X28098Y-28632D01*
X28098Y-29170D01*
X28536Y-29170D01*
X28598Y-29108D01*
X28598Y-29332D01*
X28536Y-29270D01*
X28098Y-29270D01*
X28098Y-29808D01*
X28160Y-29870D01*
X28397Y-29869D01*
X28489Y-29831D01*
X28559Y-29761D01*
X28597Y-29670D01*
X28597Y-29571D01*
X28598Y-29332D01*
X28598Y-47233D01*
X28502Y-47273D01*
X28416Y-47417D01*
X29078Y-48079D01*
X29740Y-47417D01*
X29740Y-47559D01*
X29149Y-48150D01*
X29811Y-48812D01*
X29929Y-48741D01*
X29929Y-49227D01*
X29929Y-49227D01*
G37*
G54D51*
X29929Y-49227D02*
X29740Y-49227D01*
X29740Y-48883D01*
X29078Y-48221D01*
X29007Y-48292D01*
X29007Y-48150D01*
X28345Y-47488D01*
X28201Y-47574D01*
X28048Y-47954D01*
X28051Y-48364D01*
X28201Y-48726D01*
X28345Y-48812D01*
X29007Y-48150D01*
X29007Y-48292D01*
X28416Y-48883D01*
X28502Y-49027D01*
X28882Y-49180D01*
X29292Y-49177D01*
X29654Y-49027D01*
X29740Y-48883D01*
X29740Y-49227D01*
X27998Y-49227D01*
X27998Y-29808D01*
X27998Y-29270D01*
X27560Y-29270D01*
X27498Y-29332D01*
X27499Y-29571D01*
X27499Y-29670D01*
X27537Y-29761D01*
X27607Y-29831D01*
X27699Y-29869D01*
X27936Y-29870D01*
X27998Y-29808D01*
X27998Y-49227D01*
X27100Y-49227D01*
X27100Y-33958D01*
X26768Y-33627D01*
X26436Y-33958D01*
X26467Y-34055D01*
X26681Y-34132D01*
X26908Y-34122D01*
X27069Y-34055D01*
X27100Y-33958D01*
X27100Y-49227D01*
X26841Y-49227D01*
X26841Y-36150D01*
X26841Y-35926D01*
X26840Y-35587D01*
X26840Y-35488D01*
X26802Y-35397D01*
X26732Y-35327D01*
X26640Y-35289D01*
X26378Y-35288D01*
X26316Y-35350D01*
X26316Y-35988D01*
X26779Y-35988D01*
X26841Y-35926D01*
X26841Y-36150D01*
X26779Y-36088D01*
X26316Y-36088D01*
X26316Y-36726D01*
X26378Y-36788D01*
X26640Y-36787D01*
X26732Y-36749D01*
X26802Y-36679D01*
X26840Y-36588D01*
X26840Y-36489D01*
X26841Y-36150D01*
X26841Y-49227D01*
X22088Y-49227D01*
X22088Y-41118D01*
X22088Y-40894D01*
X22087Y-40657D01*
X22049Y-40565D01*
X21979Y-40495D01*
X21888Y-40457D01*
X21789Y-40457D01*
X21550Y-40456D01*
X21488Y-40518D01*
X21488Y-40956D01*
X22026Y-40956D01*
X22088Y-40894D01*
X22088Y-41118D01*
X22026Y-41056D01*
X21488Y-41056D01*
X21488Y-41494D01*
X21550Y-41556D01*
X21789Y-41555D01*
X21888Y-41555D01*
X21979Y-41517D01*
X22049Y-41447D01*
X22087Y-41355D01*
X22088Y-41118D01*
X22088Y-49227D01*
X21969Y-49227D01*
X21969Y-47073D01*
X21969Y-46708D01*
X21829Y-46371D01*
X21571Y-46112D01*
X21234Y-45972D01*
X20869Y-45972D01*
X20833Y-45972D01*
X20496Y-46112D01*
X20237Y-46370D01*
X20097Y-46707D01*
X20097Y-47072D01*
X20237Y-47409D01*
X20495Y-47668D01*
X20832Y-47808D01*
X21197Y-47808D01*
X21233Y-47808D01*
X21570Y-47668D01*
X21829Y-47410D01*
X21969Y-47073D01*
X21969Y-49227D01*
X19919Y-49227D01*
X19919Y-47073D01*
X19919Y-46708D01*
X19779Y-46371D01*
X19521Y-46112D01*
X19184Y-45972D01*
X18819Y-45972D01*
X18783Y-45972D01*
X18446Y-46112D01*
X18187Y-46370D01*
X18047Y-46707D01*
X18047Y-47072D01*
X18187Y-47409D01*
X18445Y-47668D01*
X18782Y-47808D01*
X19147Y-47808D01*
X19183Y-47808D01*
X19520Y-47668D01*
X19779Y-47410D01*
X19919Y-47073D01*
X19919Y-49227D01*
X17944Y-49227D01*
X17944Y-47073D01*
X17944Y-46708D01*
X17804Y-46371D01*
X17546Y-46112D01*
X17209Y-45972D01*
X16844Y-45972D01*
X16808Y-45972D01*
X16471Y-46112D01*
X16212Y-46370D01*
X16072Y-46707D01*
X16072Y-47072D01*
X16212Y-47409D01*
X16470Y-47668D01*
X16807Y-47808D01*
X17172Y-47808D01*
X17208Y-47808D01*
X17545Y-47668D01*
X17804Y-47410D01*
X17944Y-47073D01*
X17944Y-49227D01*
X15894Y-49227D01*
X15894Y-47073D01*
X15894Y-46708D01*
X15754Y-46371D01*
X15496Y-46112D01*
X15159Y-45972D01*
X15054Y-45972D01*
X15054Y-41232D01*
X15054Y-41008D01*
X15053Y-40771D01*
X15015Y-40679D01*
X14945Y-40609D01*
X14854Y-40571D01*
X14755Y-40571D01*
X14516Y-40570D01*
X14454Y-40632D01*
X14454Y-41070D01*
X14992Y-41070D01*
X15054Y-41008D01*
X15054Y-41232D01*
X14992Y-41170D01*
X14454Y-41170D01*
X14454Y-41608D01*
X14516Y-41670D01*
X14755Y-41669D01*
X14854Y-41669D01*
X14945Y-41631D01*
X15015Y-41561D01*
X15053Y-41469D01*
X15054Y-41232D01*
X15054Y-45972D01*
X14794Y-45972D01*
X14758Y-45972D01*
X14421Y-46112D01*
X14354Y-46178D01*
X14354Y-41608D01*
X14354Y-41170D01*
X14354Y-41070D01*
X14354Y-40632D01*
X14292Y-40570D01*
X14053Y-40571D01*
X13954Y-40571D01*
X13863Y-40609D01*
X13793Y-40679D01*
X13755Y-40771D01*
X13754Y-41008D01*
X13816Y-41070D01*
X14354Y-41070D01*
X14354Y-41170D01*
X13816Y-41170D01*
X13754Y-41232D01*
X13755Y-41469D01*
X13793Y-41561D01*
X13863Y-41631D01*
X13954Y-41669D01*
X14053Y-41669D01*
X14292Y-41670D01*
X14354Y-41608D01*
X14354Y-46178D01*
X14162Y-46370D01*
X14022Y-46707D01*
X14022Y-47072D01*
X14162Y-47409D01*
X14420Y-47668D01*
X14757Y-47808D01*
X15122Y-47808D01*
X15158Y-47808D01*
X15495Y-47668D01*
X15754Y-47410D01*
X15894Y-47073D01*
X15894Y-49227D01*
X13746Y-49227D01*
X13746Y-41222D01*
X13684Y-41160D01*
X13054Y-41160D01*
X13054Y-41682D01*
X13116Y-41744D01*
X13447Y-41743D01*
X13546Y-41743D01*
X13637Y-41705D01*
X13707Y-41635D01*
X13745Y-41543D01*
X13746Y-41222D01*
X13746Y-49227D01*
X12954Y-49227D01*
X12954Y-41682D01*
X12954Y-41160D01*
X12324Y-41160D01*
X12262Y-41222D01*
X12263Y-41543D01*
X12301Y-41635D01*
X12371Y-41705D01*
X12462Y-41743D01*
X12561Y-41743D01*
X12892Y-41744D01*
X12954Y-41682D01*
X12954Y-49227D01*
X11748Y-49227D01*
X11748Y-48392D01*
X11745Y-47982D01*
X11595Y-47620D01*
X11451Y-47534D01*
X11380Y-47605D01*
X11380Y-47463D01*
X11294Y-47319D01*
X10914Y-47166D01*
X10504Y-47169D01*
X10142Y-47319D01*
X10056Y-47463D01*
X10718Y-48125D01*
X11380Y-47463D01*
X11380Y-47605D01*
X10789Y-48196D01*
X11451Y-48858D01*
X11595Y-48772D01*
X11748Y-48392D01*
X11748Y-49227D01*
X11380Y-49227D01*
X11380Y-48929D01*
X10718Y-48267D01*
X10056Y-48929D01*
X10142Y-49073D01*
X10522Y-49226D01*
X10932Y-49223D01*
X11294Y-49073D01*
X11380Y-48929D01*
X11380Y-49227D01*
X09789Y-49227D01*
X09789Y-48646D01*
X09841Y-48772D01*
X09985Y-48858D01*
X10647Y-48196D01*
X09985Y-47534D01*
X09841Y-47620D01*
X09789Y-47749D01*
X09789Y-11620D01*
X09831Y-11722D01*
X09975Y-11808D01*
X10637Y-11146D01*
X09975Y-10484D01*
X09831Y-10570D01*
X09789Y-10674D01*
X09789Y-10311D01*
X10106Y-10311D01*
X10046Y-10413D01*
X10708Y-11075D01*
X11370Y-10413D01*
X11309Y-10311D01*
X28523Y-10311D01*
X28490Y-10367D01*
X29152Y-11029D01*
X29814Y-10367D01*
X29780Y-10311D01*
X29929Y-10311D01*
X29929Y-10464D01*
X29885Y-10438D01*
X29223Y-11100D01*
X29885Y-11762D01*
X29929Y-11735D01*
X29929Y-47558D01*
X29814Y-47489D01*
X29814Y-11833D01*
X29152Y-11171D01*
X29081Y-11242D01*
X29081Y-11100D01*
X28419Y-10438D01*
X28275Y-10524D01*
X28122Y-10904D01*
X28125Y-11314D01*
X28275Y-11676D01*
X28419Y-11762D01*
X29081Y-11100D01*
X29081Y-11242D01*
X28490Y-11833D01*
X28576Y-11977D01*
X28956Y-12130D01*
X29366Y-12127D01*
X29728Y-11977D01*
X29814Y-11833D01*
X29814Y-47489D01*
X29811Y-47488D01*
X29740Y-47559D01*
X29740Y-47417D01*
X29654Y-47273D01*
X29396Y-47169D01*
X29396Y-24353D01*
X29395Y-24351D01*
X29396Y-24350D01*
X29396Y-23412D01*
X29395Y-23409D01*
X29394Y-23406D01*
X29342Y-13353D01*
X29330Y-13296D01*
X29329Y-13242D01*
X29310Y-13201D01*
X29301Y-13153D01*
X29267Y-13103D01*
X29246Y-13055D01*
X28843Y-12483D01*
X28810Y-12452D01*
X28784Y-12413D01*
X28733Y-12379D01*
X28695Y-12343D01*
X28656Y-12328D01*
X28614Y-12300D01*
X28551Y-12287D01*
X28505Y-12270D01*
X28465Y-12270D01*
X28414Y-12261D01*
X25204Y-12272D01*
X25204Y-12000D01*
X25164Y-11800D01*
X25051Y-11631D01*
X25051Y-11630D01*
X24977Y-11557D01*
X24808Y-11444D01*
X24608Y-11404D01*
X18208Y-11404D01*
X18008Y-11444D01*
X17838Y-11557D01*
X17531Y-11865D01*
X17418Y-12034D01*
X17378Y-12234D01*
X17378Y-12293D01*
X17236Y-12235D01*
X17143Y-12235D01*
X17072Y-12189D01*
X17042Y-12183D01*
X17009Y-12166D01*
X16907Y-12157D01*
X16812Y-12140D01*
X15684Y-12153D01*
X15662Y-12131D01*
X15355Y-12003D01*
X15022Y-12003D01*
X14714Y-12130D01*
X14532Y-12311D01*
X14514Y-12293D01*
X14476Y-12330D01*
X14458Y-12278D01*
X14222Y-12191D01*
X13972Y-12201D01*
X13786Y-12278D01*
X13749Y-12382D01*
X14087Y-12720D01*
X14122Y-12755D01*
X14193Y-12826D01*
X14122Y-12897D01*
X14087Y-12932D01*
X14051Y-12968D01*
X14051Y-12826D01*
X13678Y-12453D01*
X13574Y-12490D01*
X13487Y-12726D01*
X13497Y-12976D01*
X13574Y-13162D01*
X13678Y-13199D01*
X14051Y-12826D01*
X14051Y-12968D01*
X13749Y-13270D01*
X13786Y-13374D01*
X14022Y-13461D01*
X14272Y-13451D01*
X14458Y-13374D01*
X14475Y-13320D01*
X14514Y-13359D01*
X14518Y-13354D01*
X14714Y-13549D01*
X15021Y-13677D01*
X15354Y-13677D01*
X15662Y-13550D01*
X15697Y-13513D01*
X16251Y-13507D01*
X16251Y-13659D01*
X16333Y-13857D01*
X16333Y-13858D01*
X16333Y-13859D01*
X15069Y-15123D01*
X14909Y-15363D01*
X14852Y-15646D01*
X14853Y-15650D01*
X14853Y-15926D01*
X14828Y-15926D01*
X14828Y-15202D01*
X14828Y-14978D01*
X14827Y-14739D01*
X14827Y-14640D01*
X14789Y-14549D01*
X14719Y-14479D01*
X14627Y-14441D01*
X14390Y-14440D01*
X14328Y-14502D01*
X14328Y-15040D01*
X14766Y-15040D01*
X14828Y-14978D01*
X14828Y-15202D01*
X14766Y-15140D01*
X14328Y-15140D01*
X14328Y-15678D01*
X14390Y-15740D01*
X14627Y-15739D01*
X14719Y-15701D01*
X14789Y-15631D01*
X14827Y-15540D01*
X14827Y-15441D01*
X14828Y-15202D01*
X14828Y-15926D01*
X14319Y-15926D01*
X14228Y-15963D01*
X14228Y-15678D01*
X14228Y-15140D01*
X14228Y-15040D01*
X14228Y-14502D01*
X14166Y-14440D01*
X13929Y-14441D01*
X13837Y-14479D01*
X13767Y-14549D01*
X13729Y-14640D01*
X13729Y-14739D01*
X13728Y-14978D01*
X13790Y-15040D01*
X14228Y-15040D01*
X14228Y-15140D01*
X13790Y-15140D01*
X13728Y-15202D01*
X13729Y-15441D01*
X13729Y-15540D01*
X13767Y-15631D01*
X13837Y-15701D01*
X13929Y-15739D01*
X14166Y-15740D01*
X14228Y-15678D01*
X14228Y-15963D01*
X14156Y-15993D01*
X14032Y-16118D01*
X13964Y-16281D01*
X13964Y-16457D01*
X13964Y-17243D01*
X14031Y-17406D01*
X14156Y-17530D01*
X14319Y-17598D01*
X14495Y-17598D01*
X16069Y-17598D01*
X16232Y-17531D01*
X16261Y-17501D01*
X17197Y-17501D01*
X17197Y-17672D01*
X17264Y-17835D01*
X17389Y-17959D01*
X17552Y-18027D01*
X17728Y-18027D01*
X18279Y-18027D01*
X17496Y-18810D01*
X16407Y-18810D01*
X16357Y-18688D01*
X16232Y-18564D01*
X16069Y-18496D01*
X15893Y-18496D01*
X14319Y-18496D01*
X14156Y-18563D01*
X14032Y-18688D01*
X13964Y-18851D01*
X13964Y-19027D01*
X13964Y-19813D01*
X14031Y-19976D01*
X14156Y-20100D01*
X14302Y-20161D01*
X13413Y-20161D01*
X13413Y-20146D01*
X13413Y-19438D01*
X13346Y-19275D01*
X13221Y-19151D01*
X13058Y-19083D01*
X12882Y-19083D01*
X12709Y-19083D01*
X12709Y-15933D01*
X12766Y-15933D01*
X13366Y-15933D01*
X13529Y-15866D01*
X13653Y-15741D01*
X13721Y-15578D01*
X13721Y-15402D01*
X13721Y-14602D01*
X13659Y-14453D01*
X13753Y-14230D01*
X13753Y-13919D01*
X13753Y-13591D01*
X13634Y-13303D01*
X13414Y-13083D01*
X13126Y-12963D01*
X12815Y-12963D01*
X12594Y-13054D01*
X12575Y-13035D01*
X12412Y-12967D01*
X12236Y-12967D01*
X11738Y-12967D01*
X11738Y-11342D01*
X11735Y-10932D01*
X11585Y-10570D01*
X11441Y-10484D01*
X10779Y-11146D01*
X11441Y-11808D01*
X11585Y-11722D01*
X11738Y-11342D01*
X11738Y-12967D01*
X11528Y-12967D01*
X11370Y-13031D01*
X11370Y-11879D01*
X10708Y-11217D01*
X10046Y-11879D01*
X10132Y-12023D01*
X10512Y-12176D01*
X10922Y-12173D01*
X11284Y-12023D01*
X11370Y-11879D01*
X11370Y-13031D01*
X11365Y-13034D01*
X11241Y-13159D01*
X11173Y-13322D01*
X11173Y-13498D01*
X11173Y-14498D01*
X11231Y-14639D01*
X11231Y-18731D01*
X11185Y-18741D01*
X11111Y-18741D01*
X11101Y-18743D01*
X11038Y-18768D01*
X10973Y-18781D01*
X10905Y-18824D01*
X10835Y-18854D01*
X10789Y-18899D01*
X10730Y-18938D01*
X10683Y-19005D01*
X10631Y-19058D01*
X10606Y-19118D01*
X10567Y-19175D01*
X10550Y-19252D01*
X10521Y-19324D01*
X10521Y-19391D01*
X10507Y-19458D01*
X10517Y-19512D01*
X10517Y-24783D01*
X10517Y-24840D01*
X10517Y-24844D01*
X10517Y-24849D01*
X10505Y-24915D01*
X10519Y-24990D01*
X10521Y-25071D01*
X10548Y-25135D01*
X10561Y-25198D01*
X10602Y-25260D01*
X10635Y-25336D01*
X10683Y-25383D01*
X10720Y-25438D01*
X10784Y-25481D01*
X10842Y-25537D01*
X10903Y-25561D01*
X10960Y-25599D01*
X11039Y-25614D01*
X11111Y-25643D01*
X11177Y-25642D01*
X11243Y-25655D01*
X20583Y-25671D01*
X20866Y-25616D01*
X21106Y-25456D01*
X21109Y-25451D01*
X21266Y-25216D01*
X21266Y-25213D01*
X21268Y-25211D01*
X21290Y-25094D01*
X21323Y-24934D01*
X21322Y-24930D01*
X21323Y-24927D01*
X21320Y-24225D01*
X21589Y-23957D01*
X21771Y-23519D01*
X21772Y-23044D01*
X21591Y-22605D01*
X21255Y-22269D01*
X20817Y-22087D01*
X20342Y-22086D01*
X19903Y-22267D01*
X19623Y-22546D01*
X19051Y-22548D01*
X19051Y-20700D01*
X19051Y-20368D01*
X19035Y-20321D01*
X18899Y-20064D01*
X18675Y-19878D01*
X18397Y-19792D01*
X18280Y-19851D01*
X18280Y-20484D01*
X19006Y-20484D01*
X19051Y-20368D01*
X19051Y-20700D01*
X19006Y-20584D01*
X18280Y-20584D01*
X18280Y-21217D01*
X18397Y-21276D01*
X18675Y-21190D01*
X18899Y-21004D01*
X19035Y-20747D01*
X19051Y-20700D01*
X19051Y-22548D01*
X18217Y-22551D01*
X18180Y-22558D01*
X18180Y-21217D01*
X18180Y-20584D01*
X18180Y-20484D01*
X18180Y-19851D01*
X18063Y-19792D01*
X17785Y-19878D01*
X17561Y-20064D01*
X17425Y-20321D01*
X17409Y-20368D01*
X17454Y-20484D01*
X18180Y-20484D01*
X18180Y-20584D01*
X17454Y-20584D01*
X17409Y-20700D01*
X17425Y-20747D01*
X17561Y-21004D01*
X17785Y-21190D01*
X18063Y-21276D01*
X18180Y-21217D01*
X18180Y-22558D01*
X18077Y-22579D01*
X17937Y-22607D01*
X17935Y-22607D01*
X17935Y-22608D01*
X17695Y-22769D01*
X17693Y-22771D01*
X17399Y-23065D01*
X17239Y-23305D01*
X17233Y-23333D01*
X17213Y-23354D01*
X17085Y-23661D01*
X17085Y-23994D01*
X17164Y-24187D01*
X16629Y-24186D01*
X16629Y-24131D01*
X16630Y-23892D01*
X16630Y-23668D01*
X16629Y-23429D01*
X16629Y-23330D01*
X16591Y-23239D01*
X16521Y-23169D01*
X16429Y-23131D01*
X16192Y-23130D01*
X16130Y-23192D01*
X16130Y-23730D01*
X16568Y-23730D01*
X16630Y-23668D01*
X16630Y-23892D01*
X16568Y-23830D01*
X16180Y-23830D01*
X16130Y-23830D01*
X16030Y-23830D01*
X16030Y-23730D01*
X16030Y-23192D01*
X15968Y-23130D01*
X15731Y-23131D01*
X15639Y-23169D01*
X15569Y-23239D01*
X15531Y-23330D01*
X15531Y-23429D01*
X15530Y-23668D01*
X15592Y-23730D01*
X16030Y-23730D01*
X16030Y-23830D01*
X15980Y-23830D01*
X15592Y-23830D01*
X15530Y-23892D01*
X15531Y-24131D01*
X15531Y-24184D01*
X15523Y-24184D01*
X15523Y-24092D01*
X15523Y-23292D01*
X15456Y-23129D01*
X15331Y-23005D01*
X15168Y-22937D01*
X14992Y-22937D01*
X14392Y-22937D01*
X14229Y-23004D01*
X14190Y-23043D01*
X14032Y-22977D01*
X13856Y-22977D01*
X13256Y-22977D01*
X13093Y-23044D01*
X12994Y-23143D01*
X12902Y-23051D01*
X12902Y-22617D01*
X13079Y-22544D01*
X13147Y-22475D01*
X13168Y-22527D01*
X13293Y-22651D01*
X13456Y-22719D01*
X13632Y-22719D01*
X14232Y-22719D01*
X14395Y-22652D01*
X14493Y-22552D01*
X14593Y-22651D01*
X14756Y-22719D01*
X14932Y-22719D01*
X15532Y-22719D01*
X15695Y-22652D01*
X15819Y-22527D01*
X15887Y-22364D01*
X15887Y-22188D01*
X15887Y-21388D01*
X15830Y-21249D01*
X15873Y-21183D01*
X15877Y-21179D01*
X15933Y-20896D01*
X15933Y-20168D01*
X16069Y-20168D01*
X16232Y-20101D01*
X16356Y-19976D01*
X16406Y-19854D01*
X17712Y-19854D01*
X17911Y-19814D01*
X17912Y-19814D01*
X18081Y-19701D01*
X19562Y-18220D01*
X19562Y-18219D01*
X19563Y-18219D01*
X19676Y-18050D01*
X19715Y-17851D01*
X19716Y-17850D01*
X19716Y-15880D01*
X19715Y-15879D01*
X19676Y-15680D01*
X19640Y-15626D01*
X19640Y-13526D01*
X19640Y-13326D01*
X19047Y-13326D01*
X19047Y-14054D01*
X19147Y-14101D01*
X19197Y-14089D01*
X19416Y-13966D01*
X19572Y-13768D01*
X19640Y-13526D01*
X19640Y-15626D01*
X19563Y-15511D01*
X19562Y-15510D01*
X18422Y-14370D01*
X18422Y-13768D01*
X18578Y-13966D01*
X18797Y-14089D01*
X18847Y-14101D01*
X18947Y-14054D01*
X18947Y-13376D01*
X18947Y-13326D01*
X18947Y-13226D01*
X19047Y-13226D01*
X19097Y-13226D01*
X19640Y-13226D01*
X19640Y-13026D01*
X19572Y-12784D01*
X19416Y-12586D01*
X19197Y-12463D01*
X19147Y-12451D01*
X19097Y-12474D01*
X19097Y-12448D01*
X20101Y-12448D01*
X20046Y-12581D01*
X20046Y-12898D01*
X20167Y-13191D01*
X20322Y-13346D01*
X20322Y-14020D01*
X20362Y-14220D01*
X20475Y-14389D01*
X20581Y-14495D01*
X20509Y-14569D01*
X20441Y-14732D01*
X20441Y-14908D01*
X20441Y-15508D01*
X20508Y-15671D01*
X20607Y-15769D01*
X20509Y-15869D01*
X20441Y-16032D01*
X20441Y-16208D01*
X20441Y-16808D01*
X20508Y-16971D01*
X20633Y-17095D01*
X20698Y-17122D01*
X20650Y-17239D01*
X20650Y-17415D01*
X20650Y-18201D01*
X20717Y-18364D01*
X20842Y-18488D01*
X21005Y-18556D01*
X21181Y-18556D01*
X21575Y-18556D01*
X21738Y-18489D01*
X21790Y-18436D01*
X21842Y-18488D01*
X22005Y-18556D01*
X22181Y-18556D01*
X22575Y-18556D01*
X22730Y-18492D01*
X23241Y-18783D01*
X23272Y-18793D01*
X23300Y-18812D01*
X23366Y-18825D01*
X23434Y-18848D01*
X23467Y-18845D01*
X23500Y-18852D01*
X25180Y-18852D01*
X25195Y-18848D01*
X25210Y-18851D01*
X25294Y-18829D01*
X25380Y-18812D01*
X25392Y-18803D01*
X25407Y-18800D01*
X25517Y-18746D01*
X25531Y-18740D01*
X25602Y-18686D01*
X25683Y-18629D01*
X25688Y-18620D01*
X25693Y-18617D01*
X25729Y-18554D01*
X25740Y-18537D01*
X26182Y-18847D01*
X26233Y-18869D01*
X26282Y-18902D01*
X26328Y-18911D01*
X26369Y-18929D01*
X26423Y-18930D01*
X26482Y-18942D01*
X28122Y-18942D01*
X28190Y-18949D01*
X28214Y-18946D01*
X28239Y-18952D01*
X28317Y-18937D01*
X28327Y-18936D01*
X28329Y-19280D01*
X27967Y-19280D01*
X27804Y-19347D01*
X27751Y-19399D01*
X27700Y-19348D01*
X27537Y-19280D01*
X27361Y-19280D01*
X26967Y-19280D01*
X26804Y-19347D01*
X26753Y-19397D01*
X26228Y-19039D01*
X26176Y-19017D01*
X26135Y-18989D01*
X26088Y-18979D01*
X26040Y-18959D01*
X25982Y-18958D01*
X25935Y-18949D01*
X24277Y-18946D01*
X24267Y-18948D01*
X21314Y-18948D01*
X21216Y-18967D01*
X21145Y-18977D01*
X21132Y-18984D01*
X21114Y-18988D01*
X21035Y-19040D01*
X20969Y-19079D01*
X20959Y-19091D01*
X20945Y-19101D01*
X20894Y-19176D01*
X20846Y-19240D01*
X20841Y-19255D01*
X20832Y-19270D01*
X20814Y-19355D01*
X20806Y-19386D01*
X20718Y-19476D01*
X20650Y-19639D01*
X20650Y-19815D01*
X20650Y-20601D01*
X20717Y-20764D01*
X20842Y-20888D01*
X21005Y-20956D01*
X21082Y-20956D01*
X21082Y-21254D01*
X21200Y-21540D01*
X21419Y-21759D01*
X21705Y-21878D01*
X22014Y-21878D01*
X22300Y-21760D01*
X22519Y-21541D01*
X22536Y-21497D01*
X22651Y-21611D01*
X22814Y-21679D01*
X22990Y-21679D01*
X23768Y-21679D01*
X23768Y-21693D01*
X23752Y-21687D01*
X23653Y-21687D01*
X23414Y-21686D01*
X23352Y-21748D01*
X23352Y-22136D01*
X23352Y-22186D01*
X23352Y-22286D01*
X23352Y-22336D01*
X23352Y-22724D01*
X23414Y-22786D01*
X23653Y-22785D01*
X23752Y-22785D01*
X23768Y-22778D01*
X23768Y-24478D01*
X23252Y-24994D01*
X23252Y-22724D01*
X23252Y-22286D01*
X23252Y-22186D01*
X23252Y-21748D01*
X23190Y-21686D01*
X22951Y-21687D01*
X22852Y-21687D01*
X22761Y-21725D01*
X22691Y-21795D01*
X22653Y-21887D01*
X22652Y-22124D01*
X22714Y-22186D01*
X23252Y-22186D01*
X23252Y-22286D01*
X22714Y-22286D01*
X22652Y-22348D01*
X22653Y-22585D01*
X22691Y-22677D01*
X22761Y-22747D01*
X22852Y-22785D01*
X22951Y-22785D01*
X23190Y-22786D01*
X23252Y-22724D01*
X23252Y-24994D01*
X22195Y-26051D01*
X22082Y-26220D01*
X22042Y-26420D01*
X22042Y-28070D01*
X22082Y-28270D01*
X22195Y-28439D01*
X22339Y-28535D01*
X22339Y-28592D01*
X22356Y-28634D01*
X22262Y-28634D01*
X22262Y-28633D01*
X22137Y-28509D01*
X21974Y-28441D01*
X21798Y-28441D01*
X21198Y-28441D01*
X21035Y-28508D01*
X20936Y-28607D01*
X20837Y-28509D01*
X20674Y-28441D01*
X20498Y-28441D01*
X19898Y-28441D01*
X19735Y-28508D01*
X19611Y-28633D01*
X19543Y-28796D01*
X19543Y-28972D01*
X19543Y-29674D01*
X19430Y-29674D01*
X19427Y-29674D01*
X19425Y-29674D01*
X19325Y-29695D01*
X19230Y-29714D01*
X19227Y-29715D01*
X19225Y-29716D01*
X19140Y-29773D01*
X19061Y-29827D01*
X19059Y-29829D01*
X19057Y-29831D01*
X19001Y-29915D01*
X18948Y-29996D01*
X18947Y-29998D01*
X18946Y-30001D01*
X18927Y-30101D01*
X18908Y-30196D01*
X18908Y-30198D01*
X18908Y-30201D01*
X18914Y-30771D01*
X18914Y-31800D01*
X18915Y-31809D01*
X18914Y-31822D01*
X18940Y-32429D01*
X18940Y-32430D01*
X18941Y-32451D01*
X18959Y-32526D01*
X18980Y-32630D01*
X18986Y-32640D01*
X18989Y-32649D01*
X19034Y-32712D01*
X19093Y-32799D01*
X19102Y-32805D01*
X19109Y-32814D01*
X19174Y-32853D01*
X19262Y-32912D01*
X19276Y-32914D01*
X19283Y-32919D01*
X19351Y-32929D01*
X19462Y-32952D01*
X23890Y-32952D01*
X23890Y-36154D01*
X23847Y-36154D01*
X23847Y-35782D01*
X23780Y-35619D01*
X23655Y-35495D01*
X23654Y-35494D01*
X23654Y-34982D01*
X23654Y-34758D01*
X23653Y-34521D01*
X23615Y-34429D01*
X23545Y-34359D01*
X23454Y-34321D01*
X23355Y-34321D01*
X23116Y-34320D01*
X23054Y-34382D01*
X23054Y-34820D01*
X23592Y-34820D01*
X23654Y-34758D01*
X23654Y-34982D01*
X23592Y-34920D01*
X23054Y-34920D01*
X23054Y-35358D01*
X23116Y-35420D01*
X23355Y-35419D01*
X23454Y-35419D01*
X23545Y-35381D01*
X23615Y-35311D01*
X23653Y-35219D01*
X23654Y-34982D01*
X23654Y-35494D01*
X23492Y-35427D01*
X23316Y-35427D01*
X22954Y-35427D01*
X22954Y-35358D01*
X22954Y-34920D01*
X22954Y-34820D01*
X22954Y-34382D01*
X22892Y-34320D01*
X22653Y-34321D01*
X22554Y-34321D01*
X22463Y-34359D01*
X22393Y-34429D01*
X22355Y-34521D01*
X22354Y-34758D01*
X22416Y-34820D01*
X22954Y-34820D01*
X22954Y-34920D01*
X22416Y-34920D01*
X22354Y-34982D01*
X22355Y-35219D01*
X22393Y-35311D01*
X22463Y-35381D01*
X22554Y-35419D01*
X22653Y-35419D01*
X22892Y-35420D01*
X22954Y-35358D01*
X22954Y-35427D01*
X22516Y-35427D01*
X22353Y-35494D01*
X22229Y-35619D01*
X22161Y-35782D01*
X22161Y-35958D01*
X22161Y-36281D01*
X22123Y-36307D01*
X22122Y-36308D01*
X22121Y-36309D01*
X21877Y-36555D01*
X21877Y-36552D01*
X21877Y-35752D01*
X21810Y-35589D01*
X21685Y-35465D01*
X21583Y-35422D01*
X21763Y-35321D01*
X21918Y-35123D01*
X21985Y-34881D01*
X21985Y-34686D01*
X21985Y-34586D01*
X21985Y-34391D01*
X21918Y-34149D01*
X21763Y-33951D01*
X21544Y-33827D01*
X21492Y-33814D01*
X21392Y-33861D01*
X21392Y-34586D01*
X21985Y-34586D01*
X21985Y-34686D01*
X21442Y-34686D01*
X21392Y-34686D01*
X21292Y-34686D01*
X21292Y-34586D01*
X21292Y-33861D01*
X21192Y-33814D01*
X21140Y-33827D01*
X20921Y-33951D01*
X20766Y-34149D01*
X20699Y-34391D01*
X20699Y-34586D01*
X21292Y-34586D01*
X21292Y-34686D01*
X21242Y-34686D01*
X20699Y-34686D01*
X20699Y-34881D01*
X20766Y-35123D01*
X20921Y-35321D01*
X21055Y-35397D01*
X20746Y-35397D01*
X20583Y-35464D01*
X20459Y-35589D01*
X20391Y-35752D01*
X20391Y-35928D01*
X20391Y-36728D01*
X20395Y-36737D01*
X20367Y-36726D01*
X20383Y-36690D01*
X20383Y-36591D01*
X20384Y-36352D01*
X20322Y-36290D01*
X19934Y-36290D01*
X19884Y-36290D01*
X19784Y-36290D01*
X19784Y-36190D01*
X19884Y-36190D01*
X19934Y-36190D01*
X20322Y-36190D01*
X20384Y-36128D01*
X20383Y-35889D01*
X20383Y-35790D01*
X20345Y-35699D01*
X20275Y-35629D01*
X20183Y-35591D01*
X19997Y-35590D01*
X20110Y-35477D01*
X20178Y-35314D01*
X20178Y-35138D01*
X20178Y-33958D01*
X20111Y-33795D01*
X19986Y-33671D01*
X19823Y-33603D01*
X19647Y-33603D01*
X18861Y-33603D01*
X18698Y-33670D01*
X18574Y-33795D01*
X18506Y-33958D01*
X18506Y-34134D01*
X18506Y-34632D01*
X18408Y-34779D01*
X18359Y-35024D01*
X18359Y-36723D01*
X18141Y-36633D01*
X18141Y-36108D01*
X18180Y-36052D01*
X18239Y-35770D01*
X18251Y-34644D01*
X18250Y-34639D01*
X18251Y-34636D01*
X18224Y-34503D01*
X18198Y-34360D01*
X18195Y-34356D01*
X18195Y-34353D01*
X18099Y-34209D01*
X18040Y-34119D01*
X18038Y-34117D01*
X18035Y-34113D01*
X17893Y-34018D01*
X17802Y-33956D01*
X17798Y-33955D01*
X17795Y-33953D01*
X17774Y-33948D01*
X17711Y-33795D01*
X17586Y-33671D01*
X17423Y-33603D01*
X17247Y-33603D01*
X16461Y-33603D01*
X16298Y-33670D01*
X16174Y-33795D01*
X16106Y-33958D01*
X16106Y-34134D01*
X16106Y-35314D01*
X16173Y-35477D01*
X16298Y-35601D01*
X16461Y-35669D01*
X16637Y-35669D01*
X16761Y-35669D01*
X16761Y-35754D01*
X16814Y-36038D01*
X16859Y-36106D01*
X16859Y-36826D01*
X16863Y-36848D01*
X16852Y-36849D01*
X16669Y-36944D01*
X16622Y-36999D01*
X16598Y-36939D01*
X16400Y-36740D01*
X16140Y-36633D01*
X15860Y-36633D01*
X15601Y-36740D01*
X15585Y-36755D01*
X15585Y-34881D01*
X15585Y-34686D01*
X15585Y-34586D01*
X15585Y-34391D01*
X15518Y-34149D01*
X15363Y-33951D01*
X15144Y-33827D01*
X15092Y-33814D01*
X14992Y-33861D01*
X14992Y-34586D01*
X15585Y-34586D01*
X15585Y-34686D01*
X14992Y-34686D01*
X14992Y-35411D01*
X15092Y-35458D01*
X15144Y-35445D01*
X15363Y-35321D01*
X15518Y-35123D01*
X15585Y-34881D01*
X15585Y-36755D01*
X15499Y-36840D01*
X15400Y-36740D01*
X15140Y-36633D01*
X14892Y-36633D01*
X14892Y-35411D01*
X14892Y-34686D01*
X14892Y-34586D01*
X14892Y-33861D01*
X14792Y-33814D01*
X14740Y-33827D01*
X14521Y-33951D01*
X14366Y-34149D01*
X14299Y-34391D01*
X14299Y-34586D01*
X14892Y-34586D01*
X14892Y-34686D01*
X14299Y-34686D01*
X14299Y-34881D01*
X14366Y-35123D01*
X14521Y-35321D01*
X14740Y-35445D01*
X14792Y-35458D01*
X14892Y-35411D01*
X14892Y-36633D01*
X14860Y-36633D01*
X14601Y-36740D01*
X14499Y-36840D01*
X14400Y-36740D01*
X14140Y-36633D01*
X14022Y-36633D01*
X14022Y-33216D01*
X15306Y-31931D01*
X15372Y-31959D01*
X15647Y-31959D01*
X15728Y-31925D01*
X15714Y-31961D01*
X15714Y-32270D01*
X15832Y-32556D01*
X16051Y-32775D01*
X16337Y-32894D01*
X16646Y-32894D01*
X16932Y-32776D01*
X16958Y-32750D01*
X16967Y-32759D01*
X17253Y-32878D01*
X17562Y-32878D01*
X17848Y-32760D01*
X18067Y-32541D01*
X18186Y-32255D01*
X18186Y-31946D01*
X18075Y-31679D01*
X18095Y-31660D01*
X18201Y-31406D01*
X18201Y-31131D01*
X18201Y-30575D01*
X18096Y-30321D01*
X17902Y-30127D01*
X17822Y-30093D01*
X17947Y-29969D01*
X18066Y-29683D01*
X18066Y-29374D01*
X17948Y-29088D01*
X17768Y-28908D01*
X17901Y-28854D01*
X18095Y-28660D01*
X18201Y-28406D01*
X18201Y-28131D01*
X18201Y-27575D01*
X18096Y-27321D01*
X17902Y-27127D01*
X17648Y-27021D01*
X17373Y-27021D01*
X17119Y-27126D01*
X17010Y-27235D01*
X16902Y-27127D01*
X16648Y-27021D01*
X16373Y-27021D01*
X16119Y-27126D01*
X16010Y-27235D01*
X15902Y-27127D01*
X15648Y-27021D01*
X15373Y-27021D01*
X15119Y-27126D01*
X15010Y-27235D01*
X14902Y-27127D01*
X14648Y-27021D01*
X14373Y-27021D01*
X14119Y-27126D01*
X14010Y-27235D01*
X13902Y-27127D01*
X13648Y-27021D01*
X13373Y-27021D01*
X13119Y-27126D01*
X13010Y-27235D01*
X12902Y-27127D01*
X12648Y-27021D01*
X12373Y-27021D01*
X12119Y-27126D01*
X11925Y-27320D01*
X11819Y-27574D01*
X11819Y-27849D01*
X11819Y-28405D01*
X11924Y-28659D01*
X12118Y-28853D01*
X12081Y-28942D01*
X12081Y-29118D01*
X12081Y-29417D01*
X11824Y-29662D01*
X11820Y-29667D01*
X11815Y-29671D01*
X11003Y-30483D01*
X10890Y-30652D01*
X10850Y-30852D01*
X10850Y-38690D01*
X10890Y-38890D01*
X11003Y-39059D01*
X11912Y-39968D01*
X11913Y-39969D01*
X12069Y-40073D01*
X12069Y-40382D01*
X12136Y-40545D01*
X12261Y-40669D01*
X12265Y-40670D01*
X12263Y-40677D01*
X12262Y-40998D01*
X12324Y-41060D01*
X12904Y-41060D01*
X12954Y-41060D01*
X13054Y-41060D01*
X13104Y-41060D01*
X13684Y-41060D01*
X13746Y-40998D01*
X13745Y-40677D01*
X13742Y-40671D01*
X13747Y-40670D01*
X13871Y-40545D01*
X13871Y-40544D01*
X13916Y-40563D01*
X14092Y-40563D01*
X14892Y-40563D01*
X14946Y-40540D01*
X14977Y-40587D01*
X16011Y-41620D01*
X16013Y-41623D01*
X16253Y-41783D01*
X16536Y-41840D01*
X16536Y-41839D01*
X16540Y-41839D01*
X20403Y-41839D01*
X20408Y-41840D01*
X20408Y-41839D01*
X20691Y-41783D01*
X20931Y-41623D01*
X20998Y-41555D01*
X21087Y-41555D01*
X21326Y-41556D01*
X21388Y-41494D01*
X21388Y-41106D01*
X21388Y-41056D01*
X21388Y-40956D01*
X21388Y-40906D01*
X21388Y-40518D01*
X21326Y-40456D01*
X21239Y-40456D01*
X21239Y-40449D01*
X21926Y-40449D01*
X22089Y-40382D01*
X22100Y-40370D01*
X22134Y-40370D01*
X24670Y-40370D01*
X24930Y-40318D01*
X25151Y-40171D01*
X25818Y-39502D01*
X25820Y-39501D01*
X25821Y-39501D01*
X25908Y-39368D01*
X25968Y-39281D01*
X25968Y-39280D01*
X26020Y-39020D01*
X26020Y-37314D01*
X26020Y-36787D01*
X26154Y-36788D01*
X26216Y-36726D01*
X26216Y-36138D01*
X26216Y-36088D01*
X26216Y-35988D01*
X26216Y-35938D01*
X26216Y-35350D01*
X26154Y-35288D01*
X26020Y-35288D01*
X26020Y-32838D01*
X26108Y-33052D01*
X26300Y-33244D01*
X26269Y-33255D01*
X26192Y-33469D01*
X26202Y-33696D01*
X26269Y-33857D01*
X26366Y-33888D01*
X26662Y-33591D01*
X26697Y-33556D01*
X26768Y-33485D01*
X26839Y-33556D01*
X26874Y-33591D01*
X27170Y-33888D01*
X27267Y-33857D01*
X27344Y-33643D01*
X27334Y-33416D01*
X27267Y-33255D01*
X27235Y-33244D01*
X27427Y-33053D01*
X27546Y-32767D01*
X27546Y-32458D01*
X27428Y-32172D01*
X27290Y-32034D01*
X27290Y-31998D01*
X27326Y-31998D01*
X27489Y-31931D01*
X27613Y-31806D01*
X27681Y-31643D01*
X27681Y-31467D01*
X27681Y-30917D01*
X27614Y-30754D01*
X27559Y-30699D01*
X27579Y-30680D01*
X27686Y-30420D01*
X27686Y-30140D01*
X27579Y-29881D01*
X27466Y-29767D01*
X27491Y-29708D01*
X27491Y-29532D01*
X27491Y-28960D01*
X27498Y-28953D01*
X27498Y-29108D01*
X27560Y-29170D01*
X27998Y-29170D01*
X27998Y-28632D01*
X27936Y-28570D01*
X27699Y-28571D01*
X27658Y-28587D01*
X27658Y-28522D01*
X27658Y-27814D01*
X27591Y-27651D01*
X27466Y-27527D01*
X27319Y-27466D01*
X27466Y-27406D01*
X27590Y-27281D01*
X27658Y-27118D01*
X27658Y-26942D01*
X27658Y-26817D01*
X27751Y-26755D01*
X27864Y-26586D01*
X27904Y-26386D01*
X27904Y-25281D01*
X27968Y-25281D01*
X28131Y-25214D01*
X28255Y-25089D01*
X28323Y-24926D01*
X28323Y-24871D01*
X28872Y-24873D01*
X28874Y-24872D01*
X29072Y-24834D01*
X29074Y-24832D01*
X29242Y-24722D01*
X29243Y-24719D01*
X29355Y-24553D01*
X29355Y-24550D01*
X29356Y-24550D01*
X29371Y-24473D01*
X29396Y-24353D01*
X29396Y-47169D01*
X29274Y-47120D01*
X28864Y-47123D01*
X28598Y-47233D01*
X28598Y-29332D01*
X28598Y-29108D01*
X28597Y-28869D01*
X28597Y-28770D01*
X28559Y-28679D01*
X28489Y-28609D01*
X28397Y-28571D01*
X28160Y-28570D01*
X28098Y-28632D01*
X28098Y-29170D01*
X28536Y-29170D01*
X28598Y-29108D01*
X28598Y-29332D01*
X28536Y-29270D01*
X28098Y-29270D01*
X28098Y-29808D01*
X28160Y-29870D01*
X28397Y-29869D01*
X28489Y-29831D01*
X28559Y-29761D01*
X28597Y-29670D01*
X28597Y-29571D01*
X28598Y-29332D01*
X28598Y-47233D01*
X28502Y-47273D01*
X28416Y-47417D01*
X29078Y-48079D01*
X29740Y-47417D01*
X29740Y-47559D01*
X29149Y-48150D01*
X29811Y-48812D01*
X29929Y-48741D01*
X29929Y-49227D01*
M02*
