G04 (created by PCBNEW-RS274X (2011-07-08 BZR 3044)-stable) date 2012-04-12 22:18:47*
G01*
G70*
G90*
%MOIN*%
G04 Gerber Fmt 3.4, Leading zero omitted, Abs format*
%FSLAX34Y34*%
G04 APERTURE LIST*
%ADD10C,0.006000*%
%ADD11R,0.138100X0.120000*%
%ADD12O,0.138100X0.120000*%
%ADD13C,0.170000*%
%ADD14O,0.118400X0.118400*%
%ADD15O,0.138100X0.098700*%
%ADD16R,0.138100X0.098700*%
%ADD17O,0.138100X0.090900*%
%ADD18R,0.138100X0.090900*%
%ADD19O,0.098700X0.138700*%
%ADD20R,0.098700X0.177500*%
%ADD21R,0.085000X0.120000*%
%ADD22O,0.085000X0.120000*%
%ADD23R,0.120000X0.075000*%
%ADD24O,0.120000X0.075000*%
%ADD25R,0.090900X0.120000*%
%ADD26O,0.090900X0.120000*%
%ADD27C,0.086900*%
%ADD28C,0.098700*%
%ADD29C,0.180000*%
%ADD30O,0.075100X0.118400*%
%ADD31R,0.098700X0.138100*%
%ADD32O,0.098700X0.138100*%
%ADD33O,0.072000X0.124000*%
%ADD34R,0.080000X0.080000*%
%ADD35C,0.090900*%
G04 APERTURE END LIST*
G54D10*
G54D11*
X18230Y-17084D03*
G54D12*
X18230Y-20534D03*
G54D13*
X20578Y-23280D03*
X20578Y-31280D03*
G54D14*
X21033Y-46890D03*
X18983Y-46890D03*
X17008Y-46890D03*
X14958Y-46890D03*
G54D15*
X24734Y-26546D03*
X24734Y-27546D03*
G54D16*
X24734Y-28546D03*
G54D17*
X12380Y-21880D03*
X12380Y-20880D03*
G54D18*
X12380Y-19880D03*
G54D19*
X17072Y-13276D03*
X18997Y-13276D03*
G54D20*
X22502Y-41250D03*
X25072Y-41250D03*
X18752Y-41220D03*
X21322Y-41220D03*
X22502Y-43906D03*
X25072Y-43906D03*
X18752Y-43890D03*
X21322Y-43890D03*
X13724Y-43920D03*
X11154Y-43920D03*
X17458Y-43906D03*
X14888Y-43906D03*
X13724Y-41266D03*
X11154Y-41266D03*
X17488Y-41250D03*
X14918Y-41250D03*
G54D21*
X26266Y-36038D03*
G54D22*
X25066Y-36038D03*
G54D23*
X26738Y-31280D03*
G54D24*
X26738Y-30280D03*
G54D25*
X11970Y-13910D03*
G54D26*
X12970Y-13910D03*
G54D27*
X26768Y-32612D03*
G54D28*
X15188Y-12840D03*
X14122Y-12826D03*
G54D27*
X26768Y-33556D03*
G54D29*
X10708Y-11146D03*
X29152Y-11100D03*
X29078Y-48150D03*
X10718Y-48196D03*
G54D30*
X12000Y-37573D03*
X12500Y-38687D03*
X13000Y-37573D03*
X13500Y-38687D03*
X14000Y-37573D03*
X14500Y-38687D03*
X15000Y-37573D03*
X15500Y-38687D03*
X16000Y-37573D03*
X16500Y-38687D03*
X17000Y-37573D03*
X17500Y-38687D03*
X18000Y-37573D03*
X18500Y-38687D03*
X19000Y-37573D03*
X19500Y-38687D03*
X20000Y-37573D03*
X20500Y-38687D03*
X21000Y-37573D03*
X21500Y-38687D03*
X22000Y-37573D03*
X22500Y-38687D03*
X23000Y-37573D03*
X23500Y-38687D03*
X24000Y-37573D03*
G54D31*
X16942Y-34636D03*
G54D32*
X14942Y-34636D03*
G54D31*
X19342Y-34636D03*
G54D32*
X21342Y-34636D03*
G54D33*
X12510Y-30990D03*
X13510Y-30990D03*
X14510Y-30990D03*
X15510Y-30990D03*
X16510Y-30990D03*
X17510Y-30990D03*
X17510Y-27990D03*
X16510Y-27990D03*
X15510Y-27990D03*
X14510Y-27990D03*
X13510Y-27990D03*
X12510Y-27990D03*
G54D28*
X17922Y-23828D03*
G54D34*
X23844Y-12740D03*
G54D35*
X22844Y-12740D03*
X21844Y-12740D03*
X20844Y-12740D03*
G54D27*
X26168Y-22110D03*
X21860Y-21100D03*
X19342Y-34636D03*
X18158Y-42600D03*
X16492Y-32116D03*
X27382Y-22134D03*
X17408Y-32100D03*
X17288Y-29528D03*
M02*
