G04 (created by PCBNEW-RS274X (2011-07-08 BZR 3044)-stable) date 2012-09-13 22:13:04*
G01*
G70*
G90*
%MOIN*%
G04 Gerber Fmt 3.4, Leading zero omitted, Abs format*
%FSLAX34Y34*%
G04 APERTURE LIST*
%ADD10C,0.006000*%
%ADD11C,0.007900*%
%ADD12C,0.160000*%
%ADD13O,0.070900X0.118700*%
%ADD14R,0.070900X0.070900*%
%ADD15O,0.070900X0.090000*%
%ADD16C,0.070900*%
%ADD17R,0.070000X0.070000*%
%ADD18R,0.070900X0.090000*%
%ADD19C,0.059100*%
%ADD20C,0.019700*%
%ADD21C,0.010000*%
G04 APERTURE END LIST*
G54D10*
G54D11*
X26216Y-33898D02*
X25972Y-33898D01*
X26103Y-34123D01*
X26047Y-34123D01*
X26009Y-34151D01*
X25991Y-34179D01*
X25972Y-34235D01*
X25972Y-34376D01*
X25991Y-34432D01*
X26009Y-34461D01*
X26047Y-34489D01*
X26159Y-34489D01*
X26197Y-34461D01*
X26216Y-34432D01*
X25803Y-34489D02*
X25803Y-33898D01*
X25709Y-33898D01*
X25653Y-33926D01*
X25616Y-33982D01*
X25597Y-34038D01*
X25578Y-34151D01*
X25578Y-34235D01*
X25597Y-34348D01*
X25616Y-34404D01*
X25653Y-34461D01*
X25709Y-34489D01*
X25803Y-34489D01*
X25409Y-34489D02*
X25409Y-33898D01*
X25278Y-34320D01*
X25147Y-33898D01*
X25147Y-34489D01*
X24790Y-34489D02*
X24790Y-34179D01*
X24809Y-34123D01*
X24847Y-34095D01*
X24922Y-34095D01*
X24959Y-34123D01*
X24790Y-34461D02*
X24828Y-34489D01*
X24922Y-34489D01*
X24959Y-34461D01*
X24978Y-34404D01*
X24978Y-34348D01*
X24959Y-34292D01*
X24922Y-34264D01*
X24828Y-34264D01*
X24790Y-34235D01*
X24603Y-34489D02*
X24603Y-33898D01*
X24566Y-34264D02*
X24453Y-34489D01*
X24453Y-34095D02*
X24603Y-34320D01*
X24134Y-34461D02*
X24172Y-34489D01*
X24247Y-34489D01*
X24284Y-34461D01*
X24303Y-34404D01*
X24303Y-34179D01*
X24284Y-34123D01*
X24247Y-34095D01*
X24172Y-34095D01*
X24134Y-34123D01*
X24115Y-34179D01*
X24115Y-34235D01*
X24303Y-34292D01*
X23946Y-34489D02*
X23946Y-34095D01*
X23946Y-34207D02*
X23927Y-34151D01*
X23909Y-34123D01*
X23871Y-34095D01*
X23834Y-34095D01*
X23721Y-34461D02*
X23683Y-34489D01*
X23608Y-34489D01*
X23571Y-34461D01*
X23552Y-34404D01*
X23552Y-34376D01*
X23571Y-34320D01*
X23608Y-34292D01*
X23665Y-34292D01*
X23702Y-34264D01*
X23721Y-34207D01*
X23721Y-34179D01*
X23702Y-34123D01*
X23665Y-34095D01*
X23608Y-34095D01*
X23571Y-34123D01*
X23383Y-34432D02*
X23364Y-34461D01*
X23383Y-34489D01*
X23402Y-34461D01*
X23383Y-34432D01*
X23383Y-34489D01*
X23195Y-34095D02*
X23195Y-34686D01*
X23195Y-34123D02*
X23158Y-34095D01*
X23083Y-34095D01*
X23045Y-34123D01*
X23026Y-34151D01*
X23008Y-34207D01*
X23008Y-34376D01*
X23026Y-34432D01*
X23045Y-34461D01*
X23083Y-34489D01*
X23158Y-34489D01*
X23195Y-34461D01*
X22783Y-34489D02*
X22820Y-34461D01*
X22839Y-34404D01*
X22839Y-33898D01*
G54D12*
X15750Y-26000D03*
X27750Y-26000D03*
X27750Y-34250D03*
X15750Y-34250D03*
G54D13*
X23350Y-26700D03*
X24350Y-26700D03*
G54D14*
X17350Y-33800D03*
G54D15*
X18350Y-33800D03*
X19350Y-33800D03*
X20350Y-33800D03*
X21350Y-33800D03*
G54D14*
X17350Y-26700D03*
G54D15*
X18350Y-26700D03*
X19350Y-26700D03*
X20350Y-26700D03*
X21350Y-26700D03*
G54D16*
X26250Y-30700D03*
G54D17*
X26250Y-26700D03*
G54D18*
X16750Y-31750D03*
G54D15*
X17750Y-31750D03*
X18750Y-31750D03*
X19750Y-31750D03*
X20750Y-31750D03*
X21750Y-31750D03*
X22750Y-31750D03*
X23750Y-31750D03*
X24750Y-31750D03*
X24750Y-28750D03*
X23750Y-28750D03*
X22750Y-28750D03*
X21750Y-28750D03*
X20750Y-28750D03*
X19750Y-28750D03*
X18750Y-28750D03*
X17750Y-28750D03*
X16750Y-28750D03*
G54D19*
X27400Y-29700D02*
X24400Y-26700D01*
X27400Y-31600D02*
X27400Y-29700D01*
X27250Y-31750D02*
X27400Y-31600D01*
X24750Y-31750D02*
X27250Y-31750D01*
X24400Y-26700D02*
X24350Y-26700D01*
X24750Y-29200D02*
X26250Y-30700D01*
X24750Y-28750D02*
X24750Y-29200D01*
G54D20*
X22750Y-31750D02*
X22750Y-31950D01*
X20350Y-33150D02*
X20350Y-33800D01*
X20700Y-32800D02*
X20350Y-33150D01*
X21900Y-32800D02*
X20700Y-32800D01*
X22750Y-31950D02*
X21900Y-32800D01*
X22750Y-31750D02*
X23750Y-31750D01*
X16750Y-31750D02*
X16750Y-33200D01*
X16750Y-33200D02*
X17350Y-33800D01*
X16750Y-31750D02*
X17750Y-31750D01*
X19400Y-33750D02*
X19350Y-33800D01*
X19400Y-33100D02*
X19400Y-33750D01*
X20750Y-31750D02*
X21750Y-31750D01*
X20750Y-31750D02*
X19400Y-33100D01*
X18750Y-32550D02*
X18350Y-32950D01*
X18750Y-31750D02*
X19750Y-31750D01*
X18750Y-31750D02*
X18750Y-32550D01*
X18350Y-32950D02*
X18350Y-33800D01*
G54D19*
X20350Y-26700D02*
X20350Y-26950D01*
X22750Y-27950D02*
X22750Y-28750D01*
X22400Y-27600D02*
X22750Y-27950D01*
X21000Y-27600D02*
X22400Y-27600D01*
X20350Y-26950D02*
X21000Y-27600D01*
X23750Y-28750D02*
X22750Y-28750D01*
X20750Y-28750D02*
X21750Y-28750D01*
X20750Y-28750D02*
X20750Y-28450D01*
X19350Y-27050D02*
X19350Y-26700D01*
X20750Y-28450D02*
X19350Y-27050D01*
X18750Y-28000D02*
X18350Y-27600D01*
X18750Y-28750D02*
X19750Y-28750D01*
X18750Y-28750D02*
X18750Y-28000D01*
X18350Y-27600D02*
X18350Y-26700D01*
X17350Y-26900D02*
X17350Y-26700D01*
X16750Y-27500D02*
X17350Y-26900D01*
X16750Y-28750D02*
X17750Y-28750D01*
X16750Y-28750D02*
X16750Y-27500D01*
X25840Y-25580D02*
X26250Y-25990D01*
X23860Y-25580D02*
X25840Y-25580D01*
X23350Y-26090D02*
X23860Y-25580D01*
X21350Y-26700D02*
X23350Y-26700D01*
X23350Y-26700D02*
X23350Y-26090D01*
X26250Y-25990D02*
X26250Y-26700D01*
G54D10*
G36*
X28950Y-35450D02*
X28710Y-35450D01*
X28710Y-34370D01*
X28710Y-26120D01*
X28683Y-25744D01*
X28591Y-25521D01*
X28475Y-25426D01*
X28324Y-25577D01*
X28324Y-25275D01*
X28229Y-25159D01*
X27870Y-25040D01*
X27494Y-25067D01*
X27271Y-25159D01*
X27176Y-25275D01*
X27750Y-25849D01*
X28324Y-25275D01*
X28324Y-25577D01*
X27901Y-26000D01*
X28475Y-26574D01*
X28591Y-26479D01*
X28710Y-26120D01*
X28710Y-34370D01*
X28683Y-33994D01*
X28591Y-33771D01*
X28475Y-33676D01*
X28324Y-33827D01*
X28324Y-33525D01*
X28324Y-26725D01*
X27750Y-26151D01*
X27599Y-26302D01*
X27599Y-26000D01*
X27025Y-25426D01*
X26909Y-25521D01*
X26875Y-25621D01*
X26773Y-25467D01*
X26770Y-25465D01*
X26363Y-25057D01*
X26123Y-24897D01*
X25840Y-24840D01*
X25835Y-24841D01*
X23860Y-24841D01*
X23577Y-24897D01*
X23337Y-25057D01*
X23335Y-25059D01*
X22827Y-25567D01*
X22667Y-25807D01*
X22635Y-25961D01*
X21831Y-25961D01*
X21794Y-25924D01*
X21506Y-25804D01*
X21195Y-25804D01*
X20907Y-25923D01*
X20850Y-25980D01*
X20794Y-25924D01*
X20506Y-25804D01*
X20195Y-25804D01*
X19907Y-25923D01*
X19850Y-25980D01*
X19794Y-25924D01*
X19506Y-25804D01*
X19195Y-25804D01*
X18907Y-25923D01*
X18850Y-25980D01*
X18794Y-25924D01*
X18506Y-25804D01*
X18195Y-25804D01*
X17907Y-25923D01*
X17887Y-25942D01*
X17792Y-25903D01*
X17616Y-25903D01*
X16908Y-25903D01*
X16745Y-25970D01*
X16702Y-26013D01*
X16683Y-25744D01*
X16591Y-25521D01*
X16475Y-25426D01*
X16324Y-25577D01*
X16324Y-25275D01*
X16229Y-25159D01*
X15870Y-25040D01*
X15494Y-25067D01*
X15271Y-25159D01*
X15176Y-25275D01*
X15750Y-25849D01*
X16324Y-25275D01*
X16324Y-25577D01*
X15901Y-26000D01*
X16475Y-26574D01*
X16553Y-26510D01*
X16553Y-26651D01*
X16324Y-26880D01*
X16324Y-26725D01*
X15750Y-26151D01*
X15599Y-26302D01*
X15599Y-26000D01*
X15025Y-25426D01*
X14909Y-25521D01*
X14790Y-25880D01*
X14817Y-26256D01*
X14909Y-26479D01*
X15025Y-26574D01*
X15599Y-26000D01*
X15599Y-26302D01*
X15176Y-26725D01*
X15271Y-26841D01*
X15630Y-26960D01*
X16006Y-26933D01*
X16229Y-26841D01*
X16324Y-26725D01*
X16324Y-26880D01*
X16227Y-26977D01*
X16067Y-27217D01*
X16010Y-27500D01*
X16011Y-27504D01*
X16011Y-28375D01*
X15967Y-28481D01*
X15967Y-28792D01*
X15967Y-29018D01*
X16086Y-29306D01*
X16306Y-29526D01*
X16594Y-29646D01*
X16905Y-29646D01*
X17193Y-29527D01*
X17231Y-29489D01*
X17269Y-29489D01*
X17306Y-29526D01*
X17594Y-29646D01*
X17905Y-29646D01*
X18193Y-29527D01*
X18250Y-29470D01*
X18306Y-29526D01*
X18594Y-29646D01*
X18905Y-29646D01*
X19193Y-29527D01*
X19231Y-29489D01*
X19269Y-29489D01*
X19306Y-29526D01*
X19594Y-29646D01*
X19905Y-29646D01*
X20193Y-29527D01*
X20250Y-29470D01*
X20306Y-29526D01*
X20594Y-29646D01*
X20905Y-29646D01*
X21193Y-29527D01*
X21231Y-29489D01*
X21269Y-29489D01*
X21306Y-29526D01*
X21594Y-29646D01*
X21905Y-29646D01*
X22193Y-29527D01*
X22250Y-29470D01*
X22306Y-29526D01*
X22594Y-29646D01*
X22905Y-29646D01*
X23193Y-29527D01*
X23231Y-29489D01*
X23269Y-29489D01*
X23306Y-29526D01*
X23594Y-29646D01*
X23905Y-29646D01*
X24117Y-29558D01*
X24227Y-29723D01*
X25514Y-31009D01*
X25573Y-31151D01*
X25797Y-31376D01*
X26091Y-31498D01*
X26408Y-31498D01*
X26701Y-31377D01*
X26926Y-31153D01*
X27048Y-30859D01*
X27048Y-30542D01*
X26927Y-30249D01*
X26703Y-30024D01*
X26559Y-29964D01*
X25533Y-28937D01*
X25533Y-28708D01*
X25533Y-28482D01*
X25414Y-28194D01*
X25194Y-27974D01*
X24906Y-27854D01*
X24872Y-27854D01*
X24872Y-26951D01*
X24872Y-26807D01*
X24457Y-26807D01*
X24457Y-27406D01*
X24535Y-27426D01*
X24711Y-27317D01*
X24828Y-27150D01*
X24872Y-26951D01*
X24872Y-27854D01*
X24595Y-27854D01*
X24307Y-27973D01*
X24250Y-28030D01*
X24194Y-27974D01*
X23906Y-27854D01*
X23595Y-27854D01*
X23479Y-27901D01*
X23477Y-27893D01*
X23447Y-27742D01*
X23505Y-27742D01*
X23793Y-27623D01*
X24013Y-27403D01*
X24036Y-27346D01*
X24165Y-27426D01*
X24243Y-27406D01*
X24243Y-26857D01*
X24243Y-26807D01*
X24243Y-26593D01*
X24457Y-26593D01*
X24507Y-26593D01*
X24872Y-26593D01*
X24872Y-26449D01*
X24843Y-26319D01*
X25457Y-26319D01*
X25457Y-26438D01*
X25457Y-27138D01*
X25524Y-27301D01*
X25649Y-27425D01*
X25812Y-27493D01*
X25988Y-27493D01*
X26688Y-27493D01*
X26851Y-27426D01*
X26975Y-27301D01*
X27043Y-27138D01*
X27043Y-26962D01*
X27043Y-26556D01*
X27599Y-26000D01*
X27599Y-26302D01*
X27176Y-26725D01*
X27271Y-26841D01*
X27630Y-26960D01*
X28006Y-26933D01*
X28229Y-26841D01*
X28324Y-26725D01*
X28324Y-33525D01*
X28229Y-33409D01*
X27870Y-33290D01*
X27494Y-33317D01*
X27271Y-33409D01*
X27176Y-33525D01*
X27750Y-34099D01*
X28324Y-33525D01*
X28324Y-33827D01*
X27901Y-34250D01*
X28475Y-34824D01*
X28591Y-34729D01*
X28710Y-34370D01*
X28710Y-35450D01*
X28324Y-35450D01*
X28324Y-34975D01*
X27750Y-34401D01*
X27599Y-34552D01*
X27599Y-34250D01*
X27025Y-33676D01*
X26909Y-33771D01*
X26790Y-34130D01*
X26817Y-34506D01*
X26909Y-34729D01*
X27025Y-34824D01*
X27599Y-34250D01*
X27599Y-34552D01*
X27176Y-34975D01*
X27271Y-35091D01*
X27630Y-35210D01*
X28006Y-35183D01*
X28229Y-35091D01*
X28324Y-34975D01*
X28324Y-35450D01*
X26756Y-35450D01*
X26756Y-35147D01*
X26756Y-33275D01*
X25265Y-33275D01*
X25265Y-31939D01*
X25265Y-31561D01*
X25190Y-31371D01*
X25048Y-31224D01*
X24935Y-31167D01*
X24857Y-31187D01*
X24857Y-31643D01*
X25231Y-31643D01*
X25265Y-31561D01*
X25265Y-31939D01*
X25231Y-31857D01*
X24857Y-31857D01*
X24857Y-32313D01*
X24935Y-32333D01*
X25048Y-32276D01*
X25190Y-32129D01*
X25265Y-31939D01*
X25265Y-33275D01*
X24643Y-33275D01*
X24643Y-32313D01*
X24643Y-31907D01*
X24643Y-31857D01*
X24643Y-31643D01*
X24643Y-31593D01*
X24643Y-31187D01*
X24565Y-31167D01*
X24452Y-31224D01*
X24434Y-31242D01*
X24414Y-31194D01*
X24194Y-30974D01*
X23906Y-30854D01*
X23595Y-30854D01*
X23307Y-30973D01*
X23250Y-31030D01*
X23194Y-30974D01*
X22906Y-30854D01*
X22595Y-30854D01*
X22307Y-30973D01*
X22250Y-31030D01*
X22194Y-30974D01*
X21906Y-30854D01*
X21595Y-30854D01*
X21307Y-30973D01*
X21250Y-31030D01*
X21194Y-30974D01*
X20906Y-30854D01*
X20595Y-30854D01*
X20307Y-30973D01*
X20250Y-31030D01*
X20194Y-30974D01*
X19906Y-30854D01*
X19595Y-30854D01*
X19307Y-30973D01*
X19250Y-31030D01*
X19194Y-30974D01*
X18906Y-30854D01*
X18595Y-30854D01*
X18307Y-30973D01*
X18250Y-31030D01*
X18194Y-30974D01*
X17906Y-30854D01*
X17595Y-30854D01*
X17375Y-30944D01*
X17355Y-30925D01*
X17192Y-30857D01*
X17016Y-30857D01*
X16308Y-30857D01*
X16145Y-30924D01*
X16021Y-31049D01*
X15953Y-31212D01*
X15953Y-31388D01*
X15953Y-32288D01*
X16020Y-32451D01*
X16145Y-32575D01*
X16208Y-32601D01*
X16208Y-33200D01*
X16249Y-33408D01*
X16297Y-33479D01*
X16291Y-33485D01*
X16229Y-33409D01*
X15870Y-33290D01*
X15494Y-33317D01*
X15271Y-33409D01*
X15176Y-33525D01*
X15750Y-34099D01*
X15750Y-34098D01*
X15901Y-34249D01*
X15901Y-34250D01*
X16475Y-34824D01*
X16591Y-34729D01*
X16678Y-34463D01*
X16745Y-34529D01*
X16908Y-34597D01*
X17084Y-34597D01*
X17792Y-34597D01*
X17887Y-34557D01*
X17906Y-34576D01*
X18194Y-34696D01*
X18505Y-34696D01*
X18793Y-34577D01*
X18850Y-34520D01*
X18906Y-34576D01*
X19194Y-34696D01*
X19505Y-34696D01*
X19793Y-34577D01*
X19850Y-34520D01*
X19906Y-34576D01*
X20194Y-34696D01*
X20505Y-34696D01*
X20793Y-34577D01*
X21013Y-34357D01*
X21033Y-34307D01*
X21052Y-34326D01*
X21165Y-34383D01*
X21243Y-34363D01*
X21243Y-33957D01*
X21243Y-33907D01*
X21243Y-33693D01*
X21457Y-33693D01*
X21507Y-33693D01*
X21831Y-33693D01*
X21865Y-33611D01*
X21790Y-33421D01*
X21713Y-33342D01*
X21900Y-33342D01*
X22107Y-33301D01*
X22108Y-33301D01*
X22283Y-33183D01*
X22820Y-32646D01*
X22905Y-32646D01*
X23193Y-32527D01*
X23250Y-32470D01*
X23306Y-32526D01*
X23594Y-32646D01*
X23905Y-32646D01*
X24193Y-32527D01*
X24413Y-32307D01*
X24433Y-32257D01*
X24452Y-32276D01*
X24565Y-32333D01*
X24643Y-32313D01*
X24643Y-33275D01*
X22245Y-33275D01*
X22245Y-35147D01*
X26756Y-35147D01*
X26756Y-35450D01*
X21865Y-35450D01*
X21865Y-33989D01*
X21831Y-33907D01*
X21457Y-33907D01*
X21457Y-34363D01*
X21535Y-34383D01*
X21648Y-34326D01*
X21790Y-34179D01*
X21865Y-33989D01*
X21865Y-35450D01*
X16324Y-35450D01*
X16324Y-34975D01*
X15750Y-34401D01*
X15599Y-34552D01*
X15599Y-34250D01*
X15025Y-33676D01*
X14909Y-33771D01*
X14790Y-34130D01*
X14817Y-34506D01*
X14909Y-34729D01*
X15025Y-34824D01*
X15599Y-34250D01*
X15599Y-34552D01*
X15176Y-34975D01*
X15271Y-35091D01*
X15630Y-35210D01*
X16006Y-35183D01*
X16229Y-35091D01*
X16324Y-34975D01*
X16324Y-35450D01*
X14550Y-35450D01*
X14550Y-24800D01*
X28950Y-24800D01*
X28950Y-35450D01*
X28950Y-35450D01*
G37*
G54D21*
X28950Y-35450D02*
X28710Y-35450D01*
X28710Y-34370D01*
X28710Y-26120D01*
X28683Y-25744D01*
X28591Y-25521D01*
X28475Y-25426D01*
X28324Y-25577D01*
X28324Y-25275D01*
X28229Y-25159D01*
X27870Y-25040D01*
X27494Y-25067D01*
X27271Y-25159D01*
X27176Y-25275D01*
X27750Y-25849D01*
X28324Y-25275D01*
X28324Y-25577D01*
X27901Y-26000D01*
X28475Y-26574D01*
X28591Y-26479D01*
X28710Y-26120D01*
X28710Y-34370D01*
X28683Y-33994D01*
X28591Y-33771D01*
X28475Y-33676D01*
X28324Y-33827D01*
X28324Y-33525D01*
X28324Y-26725D01*
X27750Y-26151D01*
X27599Y-26302D01*
X27599Y-26000D01*
X27025Y-25426D01*
X26909Y-25521D01*
X26875Y-25621D01*
X26773Y-25467D01*
X26770Y-25465D01*
X26363Y-25057D01*
X26123Y-24897D01*
X25840Y-24840D01*
X25835Y-24841D01*
X23860Y-24841D01*
X23577Y-24897D01*
X23337Y-25057D01*
X23335Y-25059D01*
X22827Y-25567D01*
X22667Y-25807D01*
X22635Y-25961D01*
X21831Y-25961D01*
X21794Y-25924D01*
X21506Y-25804D01*
X21195Y-25804D01*
X20907Y-25923D01*
X20850Y-25980D01*
X20794Y-25924D01*
X20506Y-25804D01*
X20195Y-25804D01*
X19907Y-25923D01*
X19850Y-25980D01*
X19794Y-25924D01*
X19506Y-25804D01*
X19195Y-25804D01*
X18907Y-25923D01*
X18850Y-25980D01*
X18794Y-25924D01*
X18506Y-25804D01*
X18195Y-25804D01*
X17907Y-25923D01*
X17887Y-25942D01*
X17792Y-25903D01*
X17616Y-25903D01*
X16908Y-25903D01*
X16745Y-25970D01*
X16702Y-26013D01*
X16683Y-25744D01*
X16591Y-25521D01*
X16475Y-25426D01*
X16324Y-25577D01*
X16324Y-25275D01*
X16229Y-25159D01*
X15870Y-25040D01*
X15494Y-25067D01*
X15271Y-25159D01*
X15176Y-25275D01*
X15750Y-25849D01*
X16324Y-25275D01*
X16324Y-25577D01*
X15901Y-26000D01*
X16475Y-26574D01*
X16553Y-26510D01*
X16553Y-26651D01*
X16324Y-26880D01*
X16324Y-26725D01*
X15750Y-26151D01*
X15599Y-26302D01*
X15599Y-26000D01*
X15025Y-25426D01*
X14909Y-25521D01*
X14790Y-25880D01*
X14817Y-26256D01*
X14909Y-26479D01*
X15025Y-26574D01*
X15599Y-26000D01*
X15599Y-26302D01*
X15176Y-26725D01*
X15271Y-26841D01*
X15630Y-26960D01*
X16006Y-26933D01*
X16229Y-26841D01*
X16324Y-26725D01*
X16324Y-26880D01*
X16227Y-26977D01*
X16067Y-27217D01*
X16010Y-27500D01*
X16011Y-27504D01*
X16011Y-28375D01*
X15967Y-28481D01*
X15967Y-28792D01*
X15967Y-29018D01*
X16086Y-29306D01*
X16306Y-29526D01*
X16594Y-29646D01*
X16905Y-29646D01*
X17193Y-29527D01*
X17231Y-29489D01*
X17269Y-29489D01*
X17306Y-29526D01*
X17594Y-29646D01*
X17905Y-29646D01*
X18193Y-29527D01*
X18250Y-29470D01*
X18306Y-29526D01*
X18594Y-29646D01*
X18905Y-29646D01*
X19193Y-29527D01*
X19231Y-29489D01*
X19269Y-29489D01*
X19306Y-29526D01*
X19594Y-29646D01*
X19905Y-29646D01*
X20193Y-29527D01*
X20250Y-29470D01*
X20306Y-29526D01*
X20594Y-29646D01*
X20905Y-29646D01*
X21193Y-29527D01*
X21231Y-29489D01*
X21269Y-29489D01*
X21306Y-29526D01*
X21594Y-29646D01*
X21905Y-29646D01*
X22193Y-29527D01*
X22250Y-29470D01*
X22306Y-29526D01*
X22594Y-29646D01*
X22905Y-29646D01*
X23193Y-29527D01*
X23231Y-29489D01*
X23269Y-29489D01*
X23306Y-29526D01*
X23594Y-29646D01*
X23905Y-29646D01*
X24117Y-29558D01*
X24227Y-29723D01*
X25514Y-31009D01*
X25573Y-31151D01*
X25797Y-31376D01*
X26091Y-31498D01*
X26408Y-31498D01*
X26701Y-31377D01*
X26926Y-31153D01*
X27048Y-30859D01*
X27048Y-30542D01*
X26927Y-30249D01*
X26703Y-30024D01*
X26559Y-29964D01*
X25533Y-28937D01*
X25533Y-28708D01*
X25533Y-28482D01*
X25414Y-28194D01*
X25194Y-27974D01*
X24906Y-27854D01*
X24872Y-27854D01*
X24872Y-26951D01*
X24872Y-26807D01*
X24457Y-26807D01*
X24457Y-27406D01*
X24535Y-27426D01*
X24711Y-27317D01*
X24828Y-27150D01*
X24872Y-26951D01*
X24872Y-27854D01*
X24595Y-27854D01*
X24307Y-27973D01*
X24250Y-28030D01*
X24194Y-27974D01*
X23906Y-27854D01*
X23595Y-27854D01*
X23479Y-27901D01*
X23477Y-27893D01*
X23447Y-27742D01*
X23505Y-27742D01*
X23793Y-27623D01*
X24013Y-27403D01*
X24036Y-27346D01*
X24165Y-27426D01*
X24243Y-27406D01*
X24243Y-26857D01*
X24243Y-26807D01*
X24243Y-26593D01*
X24457Y-26593D01*
X24507Y-26593D01*
X24872Y-26593D01*
X24872Y-26449D01*
X24843Y-26319D01*
X25457Y-26319D01*
X25457Y-26438D01*
X25457Y-27138D01*
X25524Y-27301D01*
X25649Y-27425D01*
X25812Y-27493D01*
X25988Y-27493D01*
X26688Y-27493D01*
X26851Y-27426D01*
X26975Y-27301D01*
X27043Y-27138D01*
X27043Y-26962D01*
X27043Y-26556D01*
X27599Y-26000D01*
X27599Y-26302D01*
X27176Y-26725D01*
X27271Y-26841D01*
X27630Y-26960D01*
X28006Y-26933D01*
X28229Y-26841D01*
X28324Y-26725D01*
X28324Y-33525D01*
X28229Y-33409D01*
X27870Y-33290D01*
X27494Y-33317D01*
X27271Y-33409D01*
X27176Y-33525D01*
X27750Y-34099D01*
X28324Y-33525D01*
X28324Y-33827D01*
X27901Y-34250D01*
X28475Y-34824D01*
X28591Y-34729D01*
X28710Y-34370D01*
X28710Y-35450D01*
X28324Y-35450D01*
X28324Y-34975D01*
X27750Y-34401D01*
X27599Y-34552D01*
X27599Y-34250D01*
X27025Y-33676D01*
X26909Y-33771D01*
X26790Y-34130D01*
X26817Y-34506D01*
X26909Y-34729D01*
X27025Y-34824D01*
X27599Y-34250D01*
X27599Y-34552D01*
X27176Y-34975D01*
X27271Y-35091D01*
X27630Y-35210D01*
X28006Y-35183D01*
X28229Y-35091D01*
X28324Y-34975D01*
X28324Y-35450D01*
X26756Y-35450D01*
X26756Y-35147D01*
X26756Y-33275D01*
X25265Y-33275D01*
X25265Y-31939D01*
X25265Y-31561D01*
X25190Y-31371D01*
X25048Y-31224D01*
X24935Y-31167D01*
X24857Y-31187D01*
X24857Y-31643D01*
X25231Y-31643D01*
X25265Y-31561D01*
X25265Y-31939D01*
X25231Y-31857D01*
X24857Y-31857D01*
X24857Y-32313D01*
X24935Y-32333D01*
X25048Y-32276D01*
X25190Y-32129D01*
X25265Y-31939D01*
X25265Y-33275D01*
X24643Y-33275D01*
X24643Y-32313D01*
X24643Y-31907D01*
X24643Y-31857D01*
X24643Y-31643D01*
X24643Y-31593D01*
X24643Y-31187D01*
X24565Y-31167D01*
X24452Y-31224D01*
X24434Y-31242D01*
X24414Y-31194D01*
X24194Y-30974D01*
X23906Y-30854D01*
X23595Y-30854D01*
X23307Y-30973D01*
X23250Y-31030D01*
X23194Y-30974D01*
X22906Y-30854D01*
X22595Y-30854D01*
X22307Y-30973D01*
X22250Y-31030D01*
X22194Y-30974D01*
X21906Y-30854D01*
X21595Y-30854D01*
X21307Y-30973D01*
X21250Y-31030D01*
X21194Y-30974D01*
X20906Y-30854D01*
X20595Y-30854D01*
X20307Y-30973D01*
X20250Y-31030D01*
X20194Y-30974D01*
X19906Y-30854D01*
X19595Y-30854D01*
X19307Y-30973D01*
X19250Y-31030D01*
X19194Y-30974D01*
X18906Y-30854D01*
X18595Y-30854D01*
X18307Y-30973D01*
X18250Y-31030D01*
X18194Y-30974D01*
X17906Y-30854D01*
X17595Y-30854D01*
X17375Y-30944D01*
X17355Y-30925D01*
X17192Y-30857D01*
X17016Y-30857D01*
X16308Y-30857D01*
X16145Y-30924D01*
X16021Y-31049D01*
X15953Y-31212D01*
X15953Y-31388D01*
X15953Y-32288D01*
X16020Y-32451D01*
X16145Y-32575D01*
X16208Y-32601D01*
X16208Y-33200D01*
X16249Y-33408D01*
X16297Y-33479D01*
X16291Y-33485D01*
X16229Y-33409D01*
X15870Y-33290D01*
X15494Y-33317D01*
X15271Y-33409D01*
X15176Y-33525D01*
X15750Y-34099D01*
X15750Y-34098D01*
X15901Y-34249D01*
X15901Y-34250D01*
X16475Y-34824D01*
X16591Y-34729D01*
X16678Y-34463D01*
X16745Y-34529D01*
X16908Y-34597D01*
X17084Y-34597D01*
X17792Y-34597D01*
X17887Y-34557D01*
X17906Y-34576D01*
X18194Y-34696D01*
X18505Y-34696D01*
X18793Y-34577D01*
X18850Y-34520D01*
X18906Y-34576D01*
X19194Y-34696D01*
X19505Y-34696D01*
X19793Y-34577D01*
X19850Y-34520D01*
X19906Y-34576D01*
X20194Y-34696D01*
X20505Y-34696D01*
X20793Y-34577D01*
X21013Y-34357D01*
X21033Y-34307D01*
X21052Y-34326D01*
X21165Y-34383D01*
X21243Y-34363D01*
X21243Y-33957D01*
X21243Y-33907D01*
X21243Y-33693D01*
X21457Y-33693D01*
X21507Y-33693D01*
X21831Y-33693D01*
X21865Y-33611D01*
X21790Y-33421D01*
X21713Y-33342D01*
X21900Y-33342D01*
X22107Y-33301D01*
X22108Y-33301D01*
X22283Y-33183D01*
X22820Y-32646D01*
X22905Y-32646D01*
X23193Y-32527D01*
X23250Y-32470D01*
X23306Y-32526D01*
X23594Y-32646D01*
X23905Y-32646D01*
X24193Y-32527D01*
X24413Y-32307D01*
X24433Y-32257D01*
X24452Y-32276D01*
X24565Y-32333D01*
X24643Y-32313D01*
X24643Y-33275D01*
X22245Y-33275D01*
X22245Y-35147D01*
X26756Y-35147D01*
X26756Y-35450D01*
X21865Y-35450D01*
X21865Y-33989D01*
X21831Y-33907D01*
X21457Y-33907D01*
X21457Y-34363D01*
X21535Y-34383D01*
X21648Y-34326D01*
X21790Y-34179D01*
X21865Y-33989D01*
X21865Y-35450D01*
X16324Y-35450D01*
X16324Y-34975D01*
X15750Y-34401D01*
X15599Y-34552D01*
X15599Y-34250D01*
X15025Y-33676D01*
X14909Y-33771D01*
X14790Y-34130D01*
X14817Y-34506D01*
X14909Y-34729D01*
X15025Y-34824D01*
X15599Y-34250D01*
X15599Y-34552D01*
X15176Y-34975D01*
X15271Y-35091D01*
X15630Y-35210D01*
X16006Y-35183D01*
X16229Y-35091D01*
X16324Y-34975D01*
X16324Y-35450D01*
X14550Y-35450D01*
X14550Y-24800D01*
X28950Y-24800D01*
X28950Y-35450D01*
M02*
