G04 (created by PCBNEW-RS274X (2011-07-08 BZR 3044)-stable) date 2012-09-13 22:13:04*
G01*
G70*
G90*
%MOIN*%
G04 Gerber Fmt 3.4, Leading zero omitted, Abs format*
%FSLAX34Y34*%
G04 APERTURE LIST*
%ADD10C,0.006000*%
%ADD11C,0.007900*%
%ADD12C,0.015000*%
%ADD13C,0.010000*%
%ADD14C,0.012000*%
%ADD15C,0.003500*%
%ADD16C,0.008000*%
%ADD17C,0.011300*%
G04 APERTURE END LIST*
G54D10*
G54D11*
X17018Y-35239D02*
X16793Y-35239D01*
X16906Y-35239D02*
X16906Y-34648D01*
X16868Y-34732D01*
X16831Y-34788D01*
X16793Y-34817D01*
X17168Y-35070D02*
X17356Y-35070D01*
X17131Y-35239D02*
X17262Y-34648D01*
X17393Y-35239D01*
X17806Y-34704D02*
X17825Y-34676D01*
X17862Y-34648D01*
X17956Y-34648D01*
X17994Y-34676D01*
X18012Y-34704D01*
X18031Y-34760D01*
X18031Y-34817D01*
X18012Y-34901D01*
X17787Y-35239D01*
X18031Y-35239D01*
X18181Y-35070D02*
X18369Y-35070D01*
X18144Y-35239D02*
X18275Y-34648D01*
X18406Y-35239D01*
X19044Y-35239D02*
X18819Y-35239D01*
X18932Y-35239D02*
X18932Y-34648D01*
X18894Y-34732D01*
X18857Y-34788D01*
X18819Y-34817D01*
X19344Y-34929D02*
X19400Y-34957D01*
X19419Y-34985D01*
X19438Y-35042D01*
X19438Y-35126D01*
X19419Y-35182D01*
X19400Y-35211D01*
X19363Y-35239D01*
X19213Y-35239D01*
X19213Y-34648D01*
X19344Y-34648D01*
X19382Y-34676D01*
X19400Y-34704D01*
X19419Y-34760D01*
X19419Y-34817D01*
X19400Y-34873D01*
X19382Y-34901D01*
X19344Y-34929D01*
X19213Y-34929D01*
X19888Y-34704D02*
X19907Y-34676D01*
X19944Y-34648D01*
X20038Y-34648D01*
X20076Y-34676D01*
X20094Y-34704D01*
X20113Y-34760D01*
X20113Y-34817D01*
X20094Y-34901D01*
X19869Y-35239D01*
X20113Y-35239D01*
X20413Y-34929D02*
X20469Y-34957D01*
X20488Y-34985D01*
X20507Y-35042D01*
X20507Y-35126D01*
X20488Y-35182D01*
X20469Y-35211D01*
X20432Y-35239D01*
X20282Y-35239D01*
X20282Y-34648D01*
X20413Y-34648D01*
X20451Y-34676D01*
X20469Y-34704D01*
X20488Y-34760D01*
X20488Y-34817D01*
X20469Y-34873D01*
X20451Y-34901D01*
X20413Y-34929D01*
X20282Y-34929D01*
X21182Y-34676D02*
X21145Y-34648D01*
X21088Y-34648D01*
X21032Y-34676D01*
X20995Y-34732D01*
X20976Y-34788D01*
X20957Y-34901D01*
X20957Y-34985D01*
X20976Y-35098D01*
X20995Y-35154D01*
X21032Y-35211D01*
X21088Y-35239D01*
X21126Y-35239D01*
X21182Y-35211D01*
X21201Y-35182D01*
X21201Y-34985D01*
X21126Y-34985D01*
X21370Y-35239D02*
X21370Y-34648D01*
X21595Y-35239D01*
X21595Y-34648D01*
X21783Y-35239D02*
X21783Y-34648D01*
X21877Y-34648D01*
X21933Y-34676D01*
X21970Y-34732D01*
X21989Y-34788D01*
X22008Y-34901D01*
X22008Y-34985D01*
X21989Y-35098D01*
X21970Y-35154D01*
X21933Y-35211D01*
X21877Y-35239D01*
X21783Y-35239D01*
X22525Y-25043D02*
X22656Y-25643D01*
X22787Y-25043D01*
X23144Y-25586D02*
X23125Y-25614D01*
X23069Y-25643D01*
X23031Y-25643D01*
X22975Y-25614D01*
X22938Y-25557D01*
X22919Y-25500D01*
X22900Y-25386D01*
X22900Y-25300D01*
X22919Y-25186D01*
X22938Y-25129D01*
X22975Y-25071D01*
X23031Y-25043D01*
X23069Y-25043D01*
X23125Y-25071D01*
X23144Y-25100D01*
X23538Y-25586D02*
X23519Y-25614D01*
X23463Y-25643D01*
X23425Y-25643D01*
X23369Y-25614D01*
X23332Y-25557D01*
X23313Y-25500D01*
X23294Y-25386D01*
X23294Y-25300D01*
X23313Y-25186D01*
X23332Y-25129D01*
X23369Y-25071D01*
X23425Y-25043D01*
X23463Y-25043D01*
X23519Y-25071D01*
X23538Y-25100D01*
X24213Y-25071D02*
X24176Y-25043D01*
X24119Y-25043D01*
X24063Y-25071D01*
X24026Y-25129D01*
X24007Y-25186D01*
X23988Y-25300D01*
X23988Y-25386D01*
X24007Y-25500D01*
X24026Y-25557D01*
X24063Y-25614D01*
X24119Y-25643D01*
X24157Y-25643D01*
X24213Y-25614D01*
X24232Y-25586D01*
X24232Y-25386D01*
X24157Y-25386D01*
X24401Y-25643D02*
X24401Y-25043D01*
X24626Y-25643D01*
X24626Y-25043D01*
X24814Y-25643D02*
X24814Y-25043D01*
X24908Y-25043D01*
X24964Y-25071D01*
X25001Y-25129D01*
X25020Y-25186D01*
X25039Y-25300D01*
X25039Y-25386D01*
X25020Y-25500D01*
X25001Y-25557D01*
X24964Y-25614D01*
X24908Y-25643D01*
X24814Y-25643D01*
X17055Y-25643D02*
X16830Y-25643D01*
X16943Y-25643D02*
X16943Y-25043D01*
X16905Y-25129D01*
X16868Y-25186D01*
X16830Y-25214D01*
X17205Y-25471D02*
X17393Y-25471D01*
X17168Y-25643D02*
X17299Y-25043D01*
X17430Y-25643D01*
X17843Y-25100D02*
X17862Y-25071D01*
X17899Y-25043D01*
X17993Y-25043D01*
X18031Y-25071D01*
X18049Y-25100D01*
X18068Y-25157D01*
X18068Y-25214D01*
X18049Y-25300D01*
X17824Y-25643D01*
X18068Y-25643D01*
X18218Y-25471D02*
X18406Y-25471D01*
X18181Y-25643D02*
X18312Y-25043D01*
X18443Y-25643D01*
X19081Y-25643D02*
X18856Y-25643D01*
X18969Y-25643D02*
X18969Y-25043D01*
X18931Y-25129D01*
X18894Y-25186D01*
X18856Y-25214D01*
X19381Y-25329D02*
X19437Y-25357D01*
X19456Y-25386D01*
X19475Y-25443D01*
X19475Y-25529D01*
X19456Y-25586D01*
X19437Y-25614D01*
X19400Y-25643D01*
X19250Y-25643D01*
X19250Y-25043D01*
X19381Y-25043D01*
X19419Y-25071D01*
X19437Y-25100D01*
X19456Y-25157D01*
X19456Y-25214D01*
X19437Y-25271D01*
X19419Y-25300D01*
X19381Y-25329D01*
X19250Y-25329D01*
X19925Y-25100D02*
X19944Y-25071D01*
X19981Y-25043D01*
X20075Y-25043D01*
X20113Y-25071D01*
X20131Y-25100D01*
X20150Y-25157D01*
X20150Y-25214D01*
X20131Y-25300D01*
X19906Y-25643D01*
X20150Y-25643D01*
X20450Y-25329D02*
X20506Y-25357D01*
X20525Y-25386D01*
X20544Y-25443D01*
X20544Y-25529D01*
X20525Y-25586D01*
X20506Y-25614D01*
X20469Y-25643D01*
X20319Y-25643D01*
X20319Y-25043D01*
X20450Y-25043D01*
X20488Y-25071D01*
X20506Y-25100D01*
X20525Y-25157D01*
X20525Y-25214D01*
X20506Y-25271D01*
X20488Y-25300D01*
X20450Y-25329D01*
X20319Y-25329D01*
X20957Y-25043D02*
X21088Y-25643D01*
X21219Y-25043D01*
X21576Y-25586D02*
X21557Y-25614D01*
X21501Y-25643D01*
X21463Y-25643D01*
X21407Y-25614D01*
X21370Y-25557D01*
X21351Y-25500D01*
X21332Y-25386D01*
X21332Y-25300D01*
X21351Y-25186D01*
X21370Y-25129D01*
X21407Y-25071D01*
X21463Y-25043D01*
X21501Y-25043D01*
X21557Y-25071D01*
X21576Y-25100D01*
X21970Y-25586D02*
X21951Y-25614D01*
X21895Y-25643D01*
X21857Y-25643D01*
X21801Y-25614D01*
X21764Y-25557D01*
X21745Y-25500D01*
X21726Y-25386D01*
X21726Y-25300D01*
X21745Y-25186D01*
X21764Y-25129D01*
X21801Y-25071D01*
X21857Y-25043D01*
X21895Y-25043D01*
X21951Y-25071D01*
X21970Y-25100D01*
G54D12*
X16650Y-26000D02*
X16632Y-26174D01*
X16582Y-26342D01*
X16499Y-26498D01*
X16388Y-26634D01*
X16253Y-26746D01*
X16098Y-26829D01*
X15930Y-26881D01*
X15756Y-26899D01*
X15582Y-26884D01*
X15413Y-26834D01*
X15258Y-26753D01*
X15121Y-26643D01*
X15008Y-26508D01*
X14923Y-26354D01*
X14870Y-26187D01*
X14851Y-26012D01*
X14865Y-25838D01*
X14914Y-25669D01*
X14994Y-25513D01*
X15103Y-25375D01*
X15237Y-25261D01*
X15390Y-25176D01*
X15557Y-25121D01*
X15732Y-25101D01*
X15906Y-25114D01*
X16075Y-25161D01*
X16232Y-25241D01*
X16370Y-25349D01*
X16485Y-25482D01*
X16572Y-25634D01*
X16627Y-25801D01*
X16649Y-25975D01*
X16650Y-26000D01*
X28650Y-26000D02*
X28632Y-26174D01*
X28582Y-26342D01*
X28499Y-26498D01*
X28388Y-26634D01*
X28253Y-26746D01*
X28098Y-26829D01*
X27930Y-26881D01*
X27756Y-26899D01*
X27582Y-26884D01*
X27413Y-26834D01*
X27258Y-26753D01*
X27121Y-26643D01*
X27008Y-26508D01*
X26923Y-26354D01*
X26870Y-26187D01*
X26851Y-26012D01*
X26865Y-25838D01*
X26914Y-25669D01*
X26994Y-25513D01*
X27103Y-25375D01*
X27237Y-25261D01*
X27390Y-25176D01*
X27557Y-25121D01*
X27732Y-25101D01*
X27906Y-25114D01*
X28075Y-25161D01*
X28232Y-25241D01*
X28370Y-25349D01*
X28485Y-25482D01*
X28572Y-25634D01*
X28627Y-25801D01*
X28649Y-25975D01*
X28650Y-26000D01*
X28650Y-34250D02*
X28632Y-34424D01*
X28582Y-34592D01*
X28499Y-34748D01*
X28388Y-34884D01*
X28253Y-34996D01*
X28098Y-35079D01*
X27930Y-35131D01*
X27756Y-35149D01*
X27582Y-35134D01*
X27413Y-35084D01*
X27258Y-35003D01*
X27121Y-34893D01*
X27008Y-34758D01*
X26923Y-34604D01*
X26870Y-34437D01*
X26851Y-34262D01*
X26865Y-34088D01*
X26914Y-33919D01*
X26994Y-33763D01*
X27103Y-33625D01*
X27237Y-33511D01*
X27390Y-33426D01*
X27557Y-33371D01*
X27732Y-33351D01*
X27906Y-33364D01*
X28075Y-33411D01*
X28232Y-33491D01*
X28370Y-33599D01*
X28485Y-33732D01*
X28572Y-33884D01*
X28627Y-34051D01*
X28649Y-34225D01*
X28650Y-34250D01*
X16650Y-34250D02*
X16632Y-34424D01*
X16582Y-34592D01*
X16499Y-34748D01*
X16388Y-34884D01*
X16253Y-34996D01*
X16098Y-35079D01*
X15930Y-35131D01*
X15756Y-35149D01*
X15582Y-35134D01*
X15413Y-35084D01*
X15258Y-35003D01*
X15121Y-34893D01*
X15008Y-34758D01*
X14923Y-34604D01*
X14870Y-34437D01*
X14851Y-34262D01*
X14865Y-34088D01*
X14914Y-33919D01*
X14994Y-33763D01*
X15103Y-33625D01*
X15237Y-33511D01*
X15390Y-33426D01*
X15557Y-33371D01*
X15732Y-33351D01*
X15906Y-33364D01*
X16075Y-33411D01*
X16232Y-33491D01*
X16370Y-33599D01*
X16485Y-33732D01*
X16572Y-33884D01*
X16627Y-34051D01*
X16649Y-34225D01*
X16650Y-34250D01*
G54D13*
X24850Y-26200D02*
X22850Y-26200D01*
X24850Y-27950D02*
X22850Y-27950D01*
X22850Y-25450D02*
X24850Y-25450D01*
X22850Y-25450D02*
X22850Y-27950D01*
X24850Y-25450D02*
X24850Y-27950D01*
G54D14*
X16850Y-33300D02*
X16850Y-34300D01*
X21850Y-34300D02*
X21850Y-33300D01*
X16850Y-33300D02*
X21850Y-33300D01*
X21850Y-34300D02*
X16850Y-34300D01*
X16850Y-26200D02*
X16850Y-27200D01*
X21850Y-27200D02*
X21850Y-26200D01*
X16850Y-26200D02*
X21850Y-26200D01*
X21850Y-27200D02*
X16850Y-27200D01*
X25750Y-30200D02*
X25750Y-27200D01*
X25750Y-27200D02*
X26750Y-27200D01*
X26750Y-27200D02*
X26750Y-30200D01*
X26750Y-30200D02*
X25750Y-30200D01*
X25750Y-27450D02*
X26750Y-27450D01*
X26750Y-27700D02*
X25750Y-27700D01*
X26250Y-30200D02*
X26250Y-30700D01*
X26250Y-27200D02*
X26250Y-26700D01*
G54D12*
X15750Y-29750D02*
X16250Y-29750D01*
X16250Y-29750D02*
X16250Y-30750D01*
X16250Y-30750D02*
X15750Y-30750D01*
X15750Y-29250D02*
X25750Y-29250D01*
X25750Y-29250D02*
X25750Y-31250D01*
X25750Y-31250D02*
X15750Y-31250D01*
X15750Y-31250D02*
X15750Y-29250D01*
G54D10*
X16520Y-26000D02*
X16505Y-26149D01*
X16461Y-26293D01*
X16391Y-26426D01*
X16296Y-26542D01*
X16180Y-26638D01*
X16048Y-26709D01*
X15904Y-26754D01*
X15755Y-26769D01*
X15606Y-26756D01*
X15462Y-26713D01*
X15329Y-26644D01*
X15212Y-26550D01*
X15115Y-26435D01*
X15043Y-26303D01*
X14997Y-26160D01*
X14981Y-26010D01*
X14993Y-25862D01*
X15035Y-25717D01*
X15103Y-25583D01*
X15197Y-25466D01*
X15311Y-25368D01*
X15442Y-25295D01*
X15585Y-25248D01*
X15734Y-25231D01*
X15883Y-25242D01*
X16028Y-25283D01*
X16162Y-25350D01*
X16281Y-25443D01*
X16379Y-25557D01*
X16453Y-25687D01*
X16500Y-25830D01*
X16519Y-25979D01*
X16520Y-26000D01*
X28520Y-34250D02*
X28505Y-34399D01*
X28461Y-34543D01*
X28391Y-34676D01*
X28296Y-34792D01*
X28180Y-34888D01*
X28048Y-34959D01*
X27904Y-35004D01*
X27755Y-35019D01*
X27606Y-35006D01*
X27462Y-34963D01*
X27329Y-34894D01*
X27212Y-34800D01*
X27115Y-34685D01*
X27043Y-34553D01*
X26997Y-34410D01*
X26981Y-34260D01*
X26993Y-34112D01*
X27035Y-33967D01*
X27103Y-33833D01*
X27197Y-33716D01*
X27311Y-33618D01*
X27442Y-33545D01*
X27585Y-33498D01*
X27734Y-33481D01*
X27883Y-33492D01*
X28028Y-33533D01*
X28162Y-33600D01*
X28281Y-33693D01*
X28379Y-33807D01*
X28453Y-33937D01*
X28500Y-34080D01*
X28519Y-34229D01*
X28520Y-34250D01*
X16520Y-34250D02*
X16505Y-34399D01*
X16461Y-34543D01*
X16391Y-34676D01*
X16296Y-34792D01*
X16180Y-34888D01*
X16048Y-34959D01*
X15904Y-35004D01*
X15755Y-35019D01*
X15606Y-35006D01*
X15462Y-34963D01*
X15329Y-34894D01*
X15212Y-34800D01*
X15115Y-34685D01*
X15043Y-34553D01*
X14997Y-34410D01*
X14981Y-34260D01*
X14993Y-34112D01*
X15035Y-33967D01*
X15103Y-33833D01*
X15197Y-33716D01*
X15311Y-33618D01*
X15442Y-33545D01*
X15585Y-33498D01*
X15734Y-33481D01*
X15883Y-33492D01*
X16028Y-33533D01*
X16162Y-33600D01*
X16281Y-33693D01*
X16379Y-33807D01*
X16453Y-33937D01*
X16500Y-34080D01*
X16519Y-34229D01*
X16520Y-34250D01*
X23026Y-26461D02*
X23026Y-26939D01*
X23674Y-26461D02*
X23674Y-26939D01*
X23026Y-26939D02*
X23028Y-26967D01*
X23031Y-26995D01*
X23038Y-27022D01*
X23046Y-27049D01*
X23057Y-27075D01*
X23070Y-27100D01*
X23085Y-27124D01*
X23102Y-27147D01*
X23121Y-27168D01*
X23142Y-27187D01*
X23165Y-27204D01*
X23188Y-27219D01*
X23214Y-27232D01*
X23240Y-27243D01*
X23267Y-27251D01*
X23294Y-27258D01*
X23322Y-27261D01*
X23350Y-27263D01*
X23378Y-27261D01*
X23406Y-27258D01*
X23433Y-27251D01*
X23460Y-27243D01*
X23486Y-27232D01*
X23512Y-27219D01*
X23535Y-27204D01*
X23558Y-27187D01*
X23579Y-27168D01*
X23598Y-27147D01*
X23615Y-27124D01*
X23630Y-27101D01*
X23643Y-27075D01*
X23654Y-27049D01*
X23662Y-27022D01*
X23669Y-26995D01*
X23672Y-26967D01*
X23674Y-26939D01*
X23674Y-26461D02*
X23672Y-26433D01*
X23669Y-26405D01*
X23662Y-26378D01*
X23654Y-26351D01*
X23643Y-26325D01*
X23630Y-26300D01*
X23615Y-26276D01*
X23598Y-26253D01*
X23579Y-26232D01*
X23558Y-26213D01*
X23535Y-26196D01*
X23512Y-26181D01*
X23486Y-26168D01*
X23460Y-26157D01*
X23433Y-26149D01*
X23406Y-26142D01*
X23378Y-26139D01*
X23350Y-26137D01*
X23322Y-26139D01*
X23294Y-26142D01*
X23267Y-26149D01*
X23240Y-26157D01*
X23214Y-26168D01*
X23189Y-26181D01*
X23165Y-26196D01*
X23142Y-26213D01*
X23121Y-26232D01*
X23102Y-26253D01*
X23085Y-26276D01*
X23070Y-26300D01*
X23057Y-26325D01*
X23046Y-26351D01*
X23038Y-26378D01*
X23031Y-26405D01*
X23028Y-26433D01*
X23026Y-26461D01*
X24026Y-26461D02*
X24026Y-26939D01*
X24674Y-26461D02*
X24674Y-26939D01*
X24026Y-26939D02*
X24028Y-26967D01*
X24031Y-26995D01*
X24038Y-27022D01*
X24046Y-27049D01*
X24057Y-27075D01*
X24070Y-27100D01*
X24085Y-27124D01*
X24102Y-27147D01*
X24121Y-27168D01*
X24142Y-27187D01*
X24165Y-27204D01*
X24188Y-27219D01*
X24214Y-27232D01*
X24240Y-27243D01*
X24267Y-27251D01*
X24294Y-27258D01*
X24322Y-27261D01*
X24350Y-27263D01*
X24378Y-27261D01*
X24406Y-27258D01*
X24433Y-27251D01*
X24460Y-27243D01*
X24486Y-27232D01*
X24512Y-27219D01*
X24535Y-27204D01*
X24558Y-27187D01*
X24579Y-27168D01*
X24598Y-27147D01*
X24615Y-27124D01*
X24630Y-27101D01*
X24643Y-27075D01*
X24654Y-27049D01*
X24662Y-27022D01*
X24669Y-26995D01*
X24672Y-26967D01*
X24674Y-26939D01*
X24674Y-26461D02*
X24672Y-26433D01*
X24669Y-26405D01*
X24662Y-26378D01*
X24654Y-26351D01*
X24643Y-26325D01*
X24630Y-26300D01*
X24615Y-26276D01*
X24598Y-26253D01*
X24579Y-26232D01*
X24558Y-26213D01*
X24535Y-26196D01*
X24512Y-26181D01*
X24486Y-26168D01*
X24460Y-26157D01*
X24433Y-26149D01*
X24406Y-26142D01*
X24378Y-26139D01*
X24350Y-26137D01*
X24322Y-26139D01*
X24294Y-26142D01*
X24267Y-26149D01*
X24240Y-26157D01*
X24214Y-26168D01*
X24189Y-26181D01*
X24165Y-26196D01*
X24142Y-26213D01*
X24121Y-26232D01*
X24102Y-26253D01*
X24085Y-26276D01*
X24070Y-26300D01*
X24057Y-26325D01*
X24046Y-26351D01*
X24038Y-26378D01*
X24031Y-26405D01*
X24028Y-26433D01*
X24026Y-26461D01*
X17026Y-33476D02*
X17026Y-34124D01*
X17674Y-34124D01*
X17674Y-33476D01*
X17026Y-33476D01*
X18026Y-33705D02*
X18026Y-33895D01*
X18674Y-33705D02*
X18674Y-33895D01*
X18026Y-33895D02*
X18028Y-33923D01*
X18031Y-33951D01*
X18038Y-33978D01*
X18046Y-34005D01*
X18057Y-34031D01*
X18070Y-34056D01*
X18085Y-34080D01*
X18102Y-34103D01*
X18121Y-34124D01*
X18142Y-34143D01*
X18165Y-34160D01*
X18188Y-34175D01*
X18214Y-34188D01*
X18240Y-34199D01*
X18267Y-34207D01*
X18294Y-34214D01*
X18322Y-34217D01*
X18350Y-34219D01*
X18378Y-34217D01*
X18406Y-34214D01*
X18433Y-34207D01*
X18460Y-34199D01*
X18486Y-34188D01*
X18512Y-34175D01*
X18535Y-34160D01*
X18558Y-34143D01*
X18579Y-34124D01*
X18598Y-34103D01*
X18615Y-34080D01*
X18630Y-34057D01*
X18643Y-34031D01*
X18654Y-34005D01*
X18662Y-33978D01*
X18669Y-33951D01*
X18672Y-33923D01*
X18674Y-33895D01*
X18674Y-33705D02*
X18672Y-33677D01*
X18669Y-33649D01*
X18662Y-33622D01*
X18654Y-33595D01*
X18643Y-33569D01*
X18630Y-33544D01*
X18615Y-33520D01*
X18598Y-33497D01*
X18579Y-33476D01*
X18558Y-33457D01*
X18535Y-33440D01*
X18512Y-33425D01*
X18486Y-33412D01*
X18460Y-33401D01*
X18433Y-33393D01*
X18406Y-33386D01*
X18378Y-33383D01*
X18350Y-33381D01*
X18322Y-33383D01*
X18294Y-33386D01*
X18267Y-33393D01*
X18240Y-33401D01*
X18214Y-33412D01*
X18189Y-33425D01*
X18165Y-33440D01*
X18142Y-33457D01*
X18121Y-33476D01*
X18102Y-33497D01*
X18085Y-33520D01*
X18070Y-33544D01*
X18057Y-33569D01*
X18046Y-33595D01*
X18038Y-33622D01*
X18031Y-33649D01*
X18028Y-33677D01*
X18026Y-33705D01*
X19026Y-33705D02*
X19026Y-33895D01*
X19674Y-33705D02*
X19674Y-33895D01*
X19026Y-33895D02*
X19028Y-33923D01*
X19031Y-33951D01*
X19038Y-33978D01*
X19046Y-34005D01*
X19057Y-34031D01*
X19070Y-34056D01*
X19085Y-34080D01*
X19102Y-34103D01*
X19121Y-34124D01*
X19142Y-34143D01*
X19165Y-34160D01*
X19188Y-34175D01*
X19214Y-34188D01*
X19240Y-34199D01*
X19267Y-34207D01*
X19294Y-34214D01*
X19322Y-34217D01*
X19350Y-34219D01*
X19378Y-34217D01*
X19406Y-34214D01*
X19433Y-34207D01*
X19460Y-34199D01*
X19486Y-34188D01*
X19512Y-34175D01*
X19535Y-34160D01*
X19558Y-34143D01*
X19579Y-34124D01*
X19598Y-34103D01*
X19615Y-34080D01*
X19630Y-34057D01*
X19643Y-34031D01*
X19654Y-34005D01*
X19662Y-33978D01*
X19669Y-33951D01*
X19672Y-33923D01*
X19674Y-33895D01*
X19674Y-33705D02*
X19672Y-33677D01*
X19669Y-33649D01*
X19662Y-33622D01*
X19654Y-33595D01*
X19643Y-33569D01*
X19630Y-33544D01*
X19615Y-33520D01*
X19598Y-33497D01*
X19579Y-33476D01*
X19558Y-33457D01*
X19535Y-33440D01*
X19512Y-33425D01*
X19486Y-33412D01*
X19460Y-33401D01*
X19433Y-33393D01*
X19406Y-33386D01*
X19378Y-33383D01*
X19350Y-33381D01*
X19322Y-33383D01*
X19294Y-33386D01*
X19267Y-33393D01*
X19240Y-33401D01*
X19214Y-33412D01*
X19189Y-33425D01*
X19165Y-33440D01*
X19142Y-33457D01*
X19121Y-33476D01*
X19102Y-33497D01*
X19085Y-33520D01*
X19070Y-33544D01*
X19057Y-33569D01*
X19046Y-33595D01*
X19038Y-33622D01*
X19031Y-33649D01*
X19028Y-33677D01*
X19026Y-33705D01*
X20026Y-33705D02*
X20026Y-33895D01*
X20674Y-33705D02*
X20674Y-33895D01*
X20026Y-33895D02*
X20028Y-33923D01*
X20031Y-33951D01*
X20038Y-33978D01*
X20046Y-34005D01*
X20057Y-34031D01*
X20070Y-34056D01*
X20085Y-34080D01*
X20102Y-34103D01*
X20121Y-34124D01*
X20142Y-34143D01*
X20165Y-34160D01*
X20188Y-34175D01*
X20214Y-34188D01*
X20240Y-34199D01*
X20267Y-34207D01*
X20294Y-34214D01*
X20322Y-34217D01*
X20350Y-34219D01*
X20378Y-34217D01*
X20406Y-34214D01*
X20433Y-34207D01*
X20460Y-34199D01*
X20486Y-34188D01*
X20512Y-34175D01*
X20535Y-34160D01*
X20558Y-34143D01*
X20579Y-34124D01*
X20598Y-34103D01*
X20615Y-34080D01*
X20630Y-34057D01*
X20643Y-34031D01*
X20654Y-34005D01*
X20662Y-33978D01*
X20669Y-33951D01*
X20672Y-33923D01*
X20674Y-33895D01*
X20674Y-33705D02*
X20672Y-33677D01*
X20669Y-33649D01*
X20662Y-33622D01*
X20654Y-33595D01*
X20643Y-33569D01*
X20630Y-33544D01*
X20615Y-33520D01*
X20598Y-33497D01*
X20579Y-33476D01*
X20558Y-33457D01*
X20535Y-33440D01*
X20512Y-33425D01*
X20486Y-33412D01*
X20460Y-33401D01*
X20433Y-33393D01*
X20406Y-33386D01*
X20378Y-33383D01*
X20350Y-33381D01*
X20322Y-33383D01*
X20294Y-33386D01*
X20267Y-33393D01*
X20240Y-33401D01*
X20214Y-33412D01*
X20189Y-33425D01*
X20165Y-33440D01*
X20142Y-33457D01*
X20121Y-33476D01*
X20102Y-33497D01*
X20085Y-33520D01*
X20070Y-33544D01*
X20057Y-33569D01*
X20046Y-33595D01*
X20038Y-33622D01*
X20031Y-33649D01*
X20028Y-33677D01*
X20026Y-33705D01*
X21026Y-33705D02*
X21026Y-33895D01*
X21674Y-33705D02*
X21674Y-33895D01*
X21026Y-33895D02*
X21028Y-33923D01*
X21031Y-33951D01*
X21038Y-33978D01*
X21046Y-34005D01*
X21057Y-34031D01*
X21070Y-34056D01*
X21085Y-34080D01*
X21102Y-34103D01*
X21121Y-34124D01*
X21142Y-34143D01*
X21165Y-34160D01*
X21188Y-34175D01*
X21214Y-34188D01*
X21240Y-34199D01*
X21267Y-34207D01*
X21294Y-34214D01*
X21322Y-34217D01*
X21350Y-34219D01*
X21378Y-34217D01*
X21406Y-34214D01*
X21433Y-34207D01*
X21460Y-34199D01*
X21486Y-34188D01*
X21512Y-34175D01*
X21535Y-34160D01*
X21558Y-34143D01*
X21579Y-34124D01*
X21598Y-34103D01*
X21615Y-34080D01*
X21630Y-34057D01*
X21643Y-34031D01*
X21654Y-34005D01*
X21662Y-33978D01*
X21669Y-33951D01*
X21672Y-33923D01*
X21674Y-33895D01*
X21674Y-33705D02*
X21672Y-33677D01*
X21669Y-33649D01*
X21662Y-33622D01*
X21654Y-33595D01*
X21643Y-33569D01*
X21630Y-33544D01*
X21615Y-33520D01*
X21598Y-33497D01*
X21579Y-33476D01*
X21558Y-33457D01*
X21535Y-33440D01*
X21512Y-33425D01*
X21486Y-33412D01*
X21460Y-33401D01*
X21433Y-33393D01*
X21406Y-33386D01*
X21378Y-33383D01*
X21350Y-33381D01*
X21322Y-33383D01*
X21294Y-33386D01*
X21267Y-33393D01*
X21240Y-33401D01*
X21214Y-33412D01*
X21189Y-33425D01*
X21165Y-33440D01*
X21142Y-33457D01*
X21121Y-33476D01*
X21102Y-33497D01*
X21085Y-33520D01*
X21070Y-33544D01*
X21057Y-33569D01*
X21046Y-33595D01*
X21038Y-33622D01*
X21031Y-33649D01*
X21028Y-33677D01*
X21026Y-33705D01*
X17026Y-26376D02*
X17026Y-27024D01*
X17674Y-27024D01*
X17674Y-26376D01*
X17026Y-26376D01*
X18026Y-26605D02*
X18026Y-26795D01*
X18674Y-26605D02*
X18674Y-26795D01*
X18026Y-26795D02*
X18028Y-26823D01*
X18031Y-26851D01*
X18038Y-26878D01*
X18046Y-26905D01*
X18057Y-26931D01*
X18070Y-26956D01*
X18085Y-26980D01*
X18102Y-27003D01*
X18121Y-27024D01*
X18142Y-27043D01*
X18165Y-27060D01*
X18188Y-27075D01*
X18214Y-27088D01*
X18240Y-27099D01*
X18267Y-27107D01*
X18294Y-27114D01*
X18322Y-27117D01*
X18350Y-27119D01*
X18378Y-27117D01*
X18406Y-27114D01*
X18433Y-27107D01*
X18460Y-27099D01*
X18486Y-27088D01*
X18512Y-27075D01*
X18535Y-27060D01*
X18558Y-27043D01*
X18579Y-27024D01*
X18598Y-27003D01*
X18615Y-26980D01*
X18630Y-26957D01*
X18643Y-26931D01*
X18654Y-26905D01*
X18662Y-26878D01*
X18669Y-26851D01*
X18672Y-26823D01*
X18674Y-26795D01*
X18674Y-26605D02*
X18672Y-26577D01*
X18669Y-26549D01*
X18662Y-26522D01*
X18654Y-26495D01*
X18643Y-26469D01*
X18630Y-26444D01*
X18615Y-26420D01*
X18598Y-26397D01*
X18579Y-26376D01*
X18558Y-26357D01*
X18535Y-26340D01*
X18512Y-26325D01*
X18486Y-26312D01*
X18460Y-26301D01*
X18433Y-26293D01*
X18406Y-26286D01*
X18378Y-26283D01*
X18350Y-26281D01*
X18322Y-26283D01*
X18294Y-26286D01*
X18267Y-26293D01*
X18240Y-26301D01*
X18214Y-26312D01*
X18189Y-26325D01*
X18165Y-26340D01*
X18142Y-26357D01*
X18121Y-26376D01*
X18102Y-26397D01*
X18085Y-26420D01*
X18070Y-26444D01*
X18057Y-26469D01*
X18046Y-26495D01*
X18038Y-26522D01*
X18031Y-26549D01*
X18028Y-26577D01*
X18026Y-26605D01*
X19026Y-26605D02*
X19026Y-26795D01*
X19674Y-26605D02*
X19674Y-26795D01*
X19026Y-26795D02*
X19028Y-26823D01*
X19031Y-26851D01*
X19038Y-26878D01*
X19046Y-26905D01*
X19057Y-26931D01*
X19070Y-26956D01*
X19085Y-26980D01*
X19102Y-27003D01*
X19121Y-27024D01*
X19142Y-27043D01*
X19165Y-27060D01*
X19188Y-27075D01*
X19214Y-27088D01*
X19240Y-27099D01*
X19267Y-27107D01*
X19294Y-27114D01*
X19322Y-27117D01*
X19350Y-27119D01*
X19378Y-27117D01*
X19406Y-27114D01*
X19433Y-27107D01*
X19460Y-27099D01*
X19486Y-27088D01*
X19512Y-27075D01*
X19535Y-27060D01*
X19558Y-27043D01*
X19579Y-27024D01*
X19598Y-27003D01*
X19615Y-26980D01*
X19630Y-26957D01*
X19643Y-26931D01*
X19654Y-26905D01*
X19662Y-26878D01*
X19669Y-26851D01*
X19672Y-26823D01*
X19674Y-26795D01*
X19674Y-26605D02*
X19672Y-26577D01*
X19669Y-26549D01*
X19662Y-26522D01*
X19654Y-26495D01*
X19643Y-26469D01*
X19630Y-26444D01*
X19615Y-26420D01*
X19598Y-26397D01*
X19579Y-26376D01*
X19558Y-26357D01*
X19535Y-26340D01*
X19512Y-26325D01*
X19486Y-26312D01*
X19460Y-26301D01*
X19433Y-26293D01*
X19406Y-26286D01*
X19378Y-26283D01*
X19350Y-26281D01*
X19322Y-26283D01*
X19294Y-26286D01*
X19267Y-26293D01*
X19240Y-26301D01*
X19214Y-26312D01*
X19189Y-26325D01*
X19165Y-26340D01*
X19142Y-26357D01*
X19121Y-26376D01*
X19102Y-26397D01*
X19085Y-26420D01*
X19070Y-26444D01*
X19057Y-26469D01*
X19046Y-26495D01*
X19038Y-26522D01*
X19031Y-26549D01*
X19028Y-26577D01*
X19026Y-26605D01*
X20026Y-26605D02*
X20026Y-26795D01*
X20674Y-26605D02*
X20674Y-26795D01*
X20026Y-26795D02*
X20028Y-26823D01*
X20031Y-26851D01*
X20038Y-26878D01*
X20046Y-26905D01*
X20057Y-26931D01*
X20070Y-26956D01*
X20085Y-26980D01*
X20102Y-27003D01*
X20121Y-27024D01*
X20142Y-27043D01*
X20165Y-27060D01*
X20188Y-27075D01*
X20214Y-27088D01*
X20240Y-27099D01*
X20267Y-27107D01*
X20294Y-27114D01*
X20322Y-27117D01*
X20350Y-27119D01*
X20378Y-27117D01*
X20406Y-27114D01*
X20433Y-27107D01*
X20460Y-27099D01*
X20486Y-27088D01*
X20512Y-27075D01*
X20535Y-27060D01*
X20558Y-27043D01*
X20579Y-27024D01*
X20598Y-27003D01*
X20615Y-26980D01*
X20630Y-26957D01*
X20643Y-26931D01*
X20654Y-26905D01*
X20662Y-26878D01*
X20669Y-26851D01*
X20672Y-26823D01*
X20674Y-26795D01*
X20674Y-26605D02*
X20672Y-26577D01*
X20669Y-26549D01*
X20662Y-26522D01*
X20654Y-26495D01*
X20643Y-26469D01*
X20630Y-26444D01*
X20615Y-26420D01*
X20598Y-26397D01*
X20579Y-26376D01*
X20558Y-26357D01*
X20535Y-26340D01*
X20512Y-26325D01*
X20486Y-26312D01*
X20460Y-26301D01*
X20433Y-26293D01*
X20406Y-26286D01*
X20378Y-26283D01*
X20350Y-26281D01*
X20322Y-26283D01*
X20294Y-26286D01*
X20267Y-26293D01*
X20240Y-26301D01*
X20214Y-26312D01*
X20189Y-26325D01*
X20165Y-26340D01*
X20142Y-26357D01*
X20121Y-26376D01*
X20102Y-26397D01*
X20085Y-26420D01*
X20070Y-26444D01*
X20057Y-26469D01*
X20046Y-26495D01*
X20038Y-26522D01*
X20031Y-26549D01*
X20028Y-26577D01*
X20026Y-26605D01*
X21026Y-26605D02*
X21026Y-26795D01*
X21674Y-26605D02*
X21674Y-26795D01*
X21026Y-26795D02*
X21028Y-26823D01*
X21031Y-26851D01*
X21038Y-26878D01*
X21046Y-26905D01*
X21057Y-26931D01*
X21070Y-26956D01*
X21085Y-26980D01*
X21102Y-27003D01*
X21121Y-27024D01*
X21142Y-27043D01*
X21165Y-27060D01*
X21188Y-27075D01*
X21214Y-27088D01*
X21240Y-27099D01*
X21267Y-27107D01*
X21294Y-27114D01*
X21322Y-27117D01*
X21350Y-27119D01*
X21378Y-27117D01*
X21406Y-27114D01*
X21433Y-27107D01*
X21460Y-27099D01*
X21486Y-27088D01*
X21512Y-27075D01*
X21535Y-27060D01*
X21558Y-27043D01*
X21579Y-27024D01*
X21598Y-27003D01*
X21615Y-26980D01*
X21630Y-26957D01*
X21643Y-26931D01*
X21654Y-26905D01*
X21662Y-26878D01*
X21669Y-26851D01*
X21672Y-26823D01*
X21674Y-26795D01*
X21674Y-26605D02*
X21672Y-26577D01*
X21669Y-26549D01*
X21662Y-26522D01*
X21654Y-26495D01*
X21643Y-26469D01*
X21630Y-26444D01*
X21615Y-26420D01*
X21598Y-26397D01*
X21579Y-26376D01*
X21558Y-26357D01*
X21535Y-26340D01*
X21512Y-26325D01*
X21486Y-26312D01*
X21460Y-26301D01*
X21433Y-26293D01*
X21406Y-26286D01*
X21378Y-26283D01*
X21350Y-26281D01*
X21322Y-26283D01*
X21294Y-26286D01*
X21267Y-26293D01*
X21240Y-26301D01*
X21214Y-26312D01*
X21189Y-26325D01*
X21165Y-26340D01*
X21142Y-26357D01*
X21121Y-26376D01*
X21102Y-26397D01*
X21085Y-26420D01*
X21070Y-26444D01*
X21057Y-26469D01*
X21046Y-26495D01*
X21038Y-26522D01*
X21031Y-26549D01*
X21028Y-26577D01*
X21026Y-26605D01*
X26574Y-30700D02*
X26567Y-30762D01*
X26549Y-30823D01*
X26519Y-30879D01*
X26479Y-30928D01*
X26431Y-30968D01*
X26375Y-30998D01*
X26315Y-31017D01*
X26252Y-31023D01*
X26190Y-31018D01*
X26129Y-31000D01*
X26073Y-30971D01*
X26024Y-30931D01*
X25983Y-30883D01*
X25953Y-30827D01*
X25934Y-30767D01*
X25927Y-30704D01*
X25932Y-30642D01*
X25949Y-30581D01*
X25978Y-30525D01*
X26017Y-30475D01*
X26066Y-30434D01*
X26121Y-30404D01*
X26181Y-30384D01*
X26244Y-30377D01*
X26306Y-30381D01*
X26367Y-30398D01*
X26423Y-30427D01*
X26473Y-30466D01*
X26514Y-30514D01*
X26545Y-30569D01*
X26565Y-30629D01*
X26573Y-30691D01*
X26574Y-30700D01*
X25930Y-26380D02*
X25930Y-27020D01*
X26570Y-27020D01*
X26570Y-26380D01*
X25930Y-26380D01*
X16426Y-31330D02*
X16426Y-32170D01*
X17074Y-32170D01*
X17074Y-31330D01*
X16426Y-31330D01*
X17426Y-31655D02*
X17426Y-31845D01*
X18074Y-31655D02*
X18074Y-31845D01*
X17426Y-31845D02*
X17428Y-31873D01*
X17431Y-31901D01*
X17438Y-31928D01*
X17446Y-31955D01*
X17457Y-31981D01*
X17470Y-32006D01*
X17485Y-32030D01*
X17502Y-32053D01*
X17521Y-32074D01*
X17542Y-32093D01*
X17565Y-32110D01*
X17588Y-32125D01*
X17614Y-32138D01*
X17640Y-32149D01*
X17667Y-32157D01*
X17694Y-32164D01*
X17722Y-32167D01*
X17750Y-32169D01*
X17778Y-32167D01*
X17806Y-32164D01*
X17833Y-32157D01*
X17860Y-32149D01*
X17886Y-32138D01*
X17912Y-32125D01*
X17935Y-32110D01*
X17958Y-32093D01*
X17979Y-32074D01*
X17998Y-32053D01*
X18015Y-32030D01*
X18030Y-32007D01*
X18043Y-31981D01*
X18054Y-31955D01*
X18062Y-31928D01*
X18069Y-31901D01*
X18072Y-31873D01*
X18074Y-31845D01*
X18074Y-31655D02*
X18072Y-31627D01*
X18069Y-31599D01*
X18062Y-31572D01*
X18054Y-31545D01*
X18043Y-31519D01*
X18030Y-31494D01*
X18015Y-31470D01*
X17998Y-31447D01*
X17979Y-31426D01*
X17958Y-31407D01*
X17935Y-31390D01*
X17912Y-31375D01*
X17886Y-31362D01*
X17860Y-31351D01*
X17833Y-31343D01*
X17806Y-31336D01*
X17778Y-31333D01*
X17750Y-31331D01*
X17722Y-31333D01*
X17694Y-31336D01*
X17667Y-31343D01*
X17640Y-31351D01*
X17614Y-31362D01*
X17589Y-31375D01*
X17565Y-31390D01*
X17542Y-31407D01*
X17521Y-31426D01*
X17502Y-31447D01*
X17485Y-31470D01*
X17470Y-31494D01*
X17457Y-31519D01*
X17446Y-31545D01*
X17438Y-31572D01*
X17431Y-31599D01*
X17428Y-31627D01*
X17426Y-31655D01*
X18426Y-31655D02*
X18426Y-31845D01*
X19074Y-31655D02*
X19074Y-31845D01*
X18426Y-31845D02*
X18428Y-31873D01*
X18431Y-31901D01*
X18438Y-31928D01*
X18446Y-31955D01*
X18457Y-31981D01*
X18470Y-32006D01*
X18485Y-32030D01*
X18502Y-32053D01*
X18521Y-32074D01*
X18542Y-32093D01*
X18565Y-32110D01*
X18588Y-32125D01*
X18614Y-32138D01*
X18640Y-32149D01*
X18667Y-32157D01*
X18694Y-32164D01*
X18722Y-32167D01*
X18750Y-32169D01*
X18778Y-32167D01*
X18806Y-32164D01*
X18833Y-32157D01*
X18860Y-32149D01*
X18886Y-32138D01*
X18912Y-32125D01*
X18935Y-32110D01*
X18958Y-32093D01*
X18979Y-32074D01*
X18998Y-32053D01*
X19015Y-32030D01*
X19030Y-32007D01*
X19043Y-31981D01*
X19054Y-31955D01*
X19062Y-31928D01*
X19069Y-31901D01*
X19072Y-31873D01*
X19074Y-31845D01*
X19074Y-31655D02*
X19072Y-31627D01*
X19069Y-31599D01*
X19062Y-31572D01*
X19054Y-31545D01*
X19043Y-31519D01*
X19030Y-31494D01*
X19015Y-31470D01*
X18998Y-31447D01*
X18979Y-31426D01*
X18958Y-31407D01*
X18935Y-31390D01*
X18912Y-31375D01*
X18886Y-31362D01*
X18860Y-31351D01*
X18833Y-31343D01*
X18806Y-31336D01*
X18778Y-31333D01*
X18750Y-31331D01*
X18722Y-31333D01*
X18694Y-31336D01*
X18667Y-31343D01*
X18640Y-31351D01*
X18614Y-31362D01*
X18589Y-31375D01*
X18565Y-31390D01*
X18542Y-31407D01*
X18521Y-31426D01*
X18502Y-31447D01*
X18485Y-31470D01*
X18470Y-31494D01*
X18457Y-31519D01*
X18446Y-31545D01*
X18438Y-31572D01*
X18431Y-31599D01*
X18428Y-31627D01*
X18426Y-31655D01*
X19426Y-31655D02*
X19426Y-31845D01*
X20074Y-31655D02*
X20074Y-31845D01*
X19426Y-31845D02*
X19428Y-31873D01*
X19431Y-31901D01*
X19438Y-31928D01*
X19446Y-31955D01*
X19457Y-31981D01*
X19470Y-32006D01*
X19485Y-32030D01*
X19502Y-32053D01*
X19521Y-32074D01*
X19542Y-32093D01*
X19565Y-32110D01*
X19588Y-32125D01*
X19614Y-32138D01*
X19640Y-32149D01*
X19667Y-32157D01*
X19694Y-32164D01*
X19722Y-32167D01*
X19750Y-32169D01*
X19778Y-32167D01*
X19806Y-32164D01*
X19833Y-32157D01*
X19860Y-32149D01*
X19886Y-32138D01*
X19912Y-32125D01*
X19935Y-32110D01*
X19958Y-32093D01*
X19979Y-32074D01*
X19998Y-32053D01*
X20015Y-32030D01*
X20030Y-32007D01*
X20043Y-31981D01*
X20054Y-31955D01*
X20062Y-31928D01*
X20069Y-31901D01*
X20072Y-31873D01*
X20074Y-31845D01*
X20074Y-31655D02*
X20072Y-31627D01*
X20069Y-31599D01*
X20062Y-31572D01*
X20054Y-31545D01*
X20043Y-31519D01*
X20030Y-31494D01*
X20015Y-31470D01*
X19998Y-31447D01*
X19979Y-31426D01*
X19958Y-31407D01*
X19935Y-31390D01*
X19912Y-31375D01*
X19886Y-31362D01*
X19860Y-31351D01*
X19833Y-31343D01*
X19806Y-31336D01*
X19778Y-31333D01*
X19750Y-31331D01*
X19722Y-31333D01*
X19694Y-31336D01*
X19667Y-31343D01*
X19640Y-31351D01*
X19614Y-31362D01*
X19589Y-31375D01*
X19565Y-31390D01*
X19542Y-31407D01*
X19521Y-31426D01*
X19502Y-31447D01*
X19485Y-31470D01*
X19470Y-31494D01*
X19457Y-31519D01*
X19446Y-31545D01*
X19438Y-31572D01*
X19431Y-31599D01*
X19428Y-31627D01*
X19426Y-31655D01*
X20426Y-31655D02*
X20426Y-31845D01*
X21074Y-31655D02*
X21074Y-31845D01*
X20426Y-31845D02*
X20428Y-31873D01*
X20431Y-31901D01*
X20438Y-31928D01*
X20446Y-31955D01*
X20457Y-31981D01*
X20470Y-32006D01*
X20485Y-32030D01*
X20502Y-32053D01*
X20521Y-32074D01*
X20542Y-32093D01*
X20565Y-32110D01*
X20588Y-32125D01*
X20614Y-32138D01*
X20640Y-32149D01*
X20667Y-32157D01*
X20694Y-32164D01*
X20722Y-32167D01*
X20750Y-32169D01*
X20778Y-32167D01*
X20806Y-32164D01*
X20833Y-32157D01*
X20860Y-32149D01*
X20886Y-32138D01*
X20912Y-32125D01*
X20935Y-32110D01*
X20958Y-32093D01*
X20979Y-32074D01*
X20998Y-32053D01*
X21015Y-32030D01*
X21030Y-32007D01*
X21043Y-31981D01*
X21054Y-31955D01*
X21062Y-31928D01*
X21069Y-31901D01*
X21072Y-31873D01*
X21074Y-31845D01*
X21074Y-31655D02*
X21072Y-31627D01*
X21069Y-31599D01*
X21062Y-31572D01*
X21054Y-31545D01*
X21043Y-31519D01*
X21030Y-31494D01*
X21015Y-31470D01*
X20998Y-31447D01*
X20979Y-31426D01*
X20958Y-31407D01*
X20935Y-31390D01*
X20912Y-31375D01*
X20886Y-31362D01*
X20860Y-31351D01*
X20833Y-31343D01*
X20806Y-31336D01*
X20778Y-31333D01*
X20750Y-31331D01*
X20722Y-31333D01*
X20694Y-31336D01*
X20667Y-31343D01*
X20640Y-31351D01*
X20614Y-31362D01*
X20589Y-31375D01*
X20565Y-31390D01*
X20542Y-31407D01*
X20521Y-31426D01*
X20502Y-31447D01*
X20485Y-31470D01*
X20470Y-31494D01*
X20457Y-31519D01*
X20446Y-31545D01*
X20438Y-31572D01*
X20431Y-31599D01*
X20428Y-31627D01*
X20426Y-31655D01*
X21426Y-31655D02*
X21426Y-31845D01*
X22074Y-31655D02*
X22074Y-31845D01*
X21426Y-31845D02*
X21428Y-31873D01*
X21431Y-31901D01*
X21438Y-31928D01*
X21446Y-31955D01*
X21457Y-31981D01*
X21470Y-32006D01*
X21485Y-32030D01*
X21502Y-32053D01*
X21521Y-32074D01*
X21542Y-32093D01*
X21565Y-32110D01*
X21588Y-32125D01*
X21614Y-32138D01*
X21640Y-32149D01*
X21667Y-32157D01*
X21694Y-32164D01*
X21722Y-32167D01*
X21750Y-32169D01*
X21778Y-32167D01*
X21806Y-32164D01*
X21833Y-32157D01*
X21860Y-32149D01*
X21886Y-32138D01*
X21912Y-32125D01*
X21935Y-32110D01*
X21958Y-32093D01*
X21979Y-32074D01*
X21998Y-32053D01*
X22015Y-32030D01*
X22030Y-32007D01*
X22043Y-31981D01*
X22054Y-31955D01*
X22062Y-31928D01*
X22069Y-31901D01*
X22072Y-31873D01*
X22074Y-31845D01*
X22074Y-31655D02*
X22072Y-31627D01*
X22069Y-31599D01*
X22062Y-31572D01*
X22054Y-31545D01*
X22043Y-31519D01*
X22030Y-31494D01*
X22015Y-31470D01*
X21998Y-31447D01*
X21979Y-31426D01*
X21958Y-31407D01*
X21935Y-31390D01*
X21912Y-31375D01*
X21886Y-31362D01*
X21860Y-31351D01*
X21833Y-31343D01*
X21806Y-31336D01*
X21778Y-31333D01*
X21750Y-31331D01*
X21722Y-31333D01*
X21694Y-31336D01*
X21667Y-31343D01*
X21640Y-31351D01*
X21614Y-31362D01*
X21589Y-31375D01*
X21565Y-31390D01*
X21542Y-31407D01*
X21521Y-31426D01*
X21502Y-31447D01*
X21485Y-31470D01*
X21470Y-31494D01*
X21457Y-31519D01*
X21446Y-31545D01*
X21438Y-31572D01*
X21431Y-31599D01*
X21428Y-31627D01*
X21426Y-31655D01*
X22426Y-31655D02*
X22426Y-31845D01*
X23074Y-31655D02*
X23074Y-31845D01*
X22426Y-31845D02*
X22428Y-31873D01*
X22431Y-31901D01*
X22438Y-31928D01*
X22446Y-31955D01*
X22457Y-31981D01*
X22470Y-32006D01*
X22485Y-32030D01*
X22502Y-32053D01*
X22521Y-32074D01*
X22542Y-32093D01*
X22565Y-32110D01*
X22588Y-32125D01*
X22614Y-32138D01*
X22640Y-32149D01*
X22667Y-32157D01*
X22694Y-32164D01*
X22722Y-32167D01*
X22750Y-32169D01*
X22778Y-32167D01*
X22806Y-32164D01*
X22833Y-32157D01*
X22860Y-32149D01*
X22886Y-32138D01*
X22912Y-32125D01*
X22935Y-32110D01*
X22958Y-32093D01*
X22979Y-32074D01*
X22998Y-32053D01*
X23015Y-32030D01*
X23030Y-32007D01*
X23043Y-31981D01*
X23054Y-31955D01*
X23062Y-31928D01*
X23069Y-31901D01*
X23072Y-31873D01*
X23074Y-31845D01*
X23074Y-31655D02*
X23072Y-31627D01*
X23069Y-31599D01*
X23062Y-31572D01*
X23054Y-31545D01*
X23043Y-31519D01*
X23030Y-31494D01*
X23015Y-31470D01*
X22998Y-31447D01*
X22979Y-31426D01*
X22958Y-31407D01*
X22935Y-31390D01*
X22912Y-31375D01*
X22886Y-31362D01*
X22860Y-31351D01*
X22833Y-31343D01*
X22806Y-31336D01*
X22778Y-31333D01*
X22750Y-31331D01*
X22722Y-31333D01*
X22694Y-31336D01*
X22667Y-31343D01*
X22640Y-31351D01*
X22614Y-31362D01*
X22589Y-31375D01*
X22565Y-31390D01*
X22542Y-31407D01*
X22521Y-31426D01*
X22502Y-31447D01*
X22485Y-31470D01*
X22470Y-31494D01*
X22457Y-31519D01*
X22446Y-31545D01*
X22438Y-31572D01*
X22431Y-31599D01*
X22428Y-31627D01*
X22426Y-31655D01*
X23426Y-31655D02*
X23426Y-31845D01*
X24074Y-31655D02*
X24074Y-31845D01*
X23426Y-31845D02*
X23428Y-31873D01*
X23431Y-31901D01*
X23438Y-31928D01*
X23446Y-31955D01*
X23457Y-31981D01*
X23470Y-32006D01*
X23485Y-32030D01*
X23502Y-32053D01*
X23521Y-32074D01*
X23542Y-32093D01*
X23565Y-32110D01*
X23588Y-32125D01*
X23614Y-32138D01*
X23640Y-32149D01*
X23667Y-32157D01*
X23694Y-32164D01*
X23722Y-32167D01*
X23750Y-32169D01*
X23778Y-32167D01*
X23806Y-32164D01*
X23833Y-32157D01*
X23860Y-32149D01*
X23886Y-32138D01*
X23912Y-32125D01*
X23935Y-32110D01*
X23958Y-32093D01*
X23979Y-32074D01*
X23998Y-32053D01*
X24015Y-32030D01*
X24030Y-32007D01*
X24043Y-31981D01*
X24054Y-31955D01*
X24062Y-31928D01*
X24069Y-31901D01*
X24072Y-31873D01*
X24074Y-31845D01*
X24074Y-31655D02*
X24072Y-31627D01*
X24069Y-31599D01*
X24062Y-31572D01*
X24054Y-31545D01*
X24043Y-31519D01*
X24030Y-31494D01*
X24015Y-31470D01*
X23998Y-31447D01*
X23979Y-31426D01*
X23958Y-31407D01*
X23935Y-31390D01*
X23912Y-31375D01*
X23886Y-31362D01*
X23860Y-31351D01*
X23833Y-31343D01*
X23806Y-31336D01*
X23778Y-31333D01*
X23750Y-31331D01*
X23722Y-31333D01*
X23694Y-31336D01*
X23667Y-31343D01*
X23640Y-31351D01*
X23614Y-31362D01*
X23589Y-31375D01*
X23565Y-31390D01*
X23542Y-31407D01*
X23521Y-31426D01*
X23502Y-31447D01*
X23485Y-31470D01*
X23470Y-31494D01*
X23457Y-31519D01*
X23446Y-31545D01*
X23438Y-31572D01*
X23431Y-31599D01*
X23428Y-31627D01*
X23426Y-31655D01*
X24426Y-31655D02*
X24426Y-31845D01*
X25074Y-31655D02*
X25074Y-31845D01*
X24426Y-31845D02*
X24428Y-31873D01*
X24431Y-31901D01*
X24438Y-31928D01*
X24446Y-31955D01*
X24457Y-31981D01*
X24470Y-32006D01*
X24485Y-32030D01*
X24502Y-32053D01*
X24521Y-32074D01*
X24542Y-32093D01*
X24565Y-32110D01*
X24588Y-32125D01*
X24614Y-32138D01*
X24640Y-32149D01*
X24667Y-32157D01*
X24694Y-32164D01*
X24722Y-32167D01*
X24750Y-32169D01*
X24778Y-32167D01*
X24806Y-32164D01*
X24833Y-32157D01*
X24860Y-32149D01*
X24886Y-32138D01*
X24912Y-32125D01*
X24935Y-32110D01*
X24958Y-32093D01*
X24979Y-32074D01*
X24998Y-32053D01*
X25015Y-32030D01*
X25030Y-32007D01*
X25043Y-31981D01*
X25054Y-31955D01*
X25062Y-31928D01*
X25069Y-31901D01*
X25072Y-31873D01*
X25074Y-31845D01*
X25074Y-31655D02*
X25072Y-31627D01*
X25069Y-31599D01*
X25062Y-31572D01*
X25054Y-31545D01*
X25043Y-31519D01*
X25030Y-31494D01*
X25015Y-31470D01*
X24998Y-31447D01*
X24979Y-31426D01*
X24958Y-31407D01*
X24935Y-31390D01*
X24912Y-31375D01*
X24886Y-31362D01*
X24860Y-31351D01*
X24833Y-31343D01*
X24806Y-31336D01*
X24778Y-31333D01*
X24750Y-31331D01*
X24722Y-31333D01*
X24694Y-31336D01*
X24667Y-31343D01*
X24640Y-31351D01*
X24614Y-31362D01*
X24589Y-31375D01*
X24565Y-31390D01*
X24542Y-31407D01*
X24521Y-31426D01*
X24502Y-31447D01*
X24485Y-31470D01*
X24470Y-31494D01*
X24457Y-31519D01*
X24446Y-31545D01*
X24438Y-31572D01*
X24431Y-31599D01*
X24428Y-31627D01*
X24426Y-31655D01*
X24426Y-28655D02*
X24426Y-28845D01*
X25074Y-28655D02*
X25074Y-28845D01*
X24426Y-28845D02*
X24428Y-28873D01*
X24431Y-28901D01*
X24438Y-28928D01*
X24446Y-28955D01*
X24457Y-28981D01*
X24470Y-29006D01*
X24485Y-29030D01*
X24502Y-29053D01*
X24521Y-29074D01*
X24542Y-29093D01*
X24565Y-29110D01*
X24588Y-29125D01*
X24614Y-29138D01*
X24640Y-29149D01*
X24667Y-29157D01*
X24694Y-29164D01*
X24722Y-29167D01*
X24750Y-29169D01*
X24778Y-29167D01*
X24806Y-29164D01*
X24833Y-29157D01*
X24860Y-29149D01*
X24886Y-29138D01*
X24912Y-29125D01*
X24935Y-29110D01*
X24958Y-29093D01*
X24979Y-29074D01*
X24998Y-29053D01*
X25015Y-29030D01*
X25030Y-29007D01*
X25043Y-28981D01*
X25054Y-28955D01*
X25062Y-28928D01*
X25069Y-28901D01*
X25072Y-28873D01*
X25074Y-28845D01*
X25074Y-28655D02*
X25072Y-28627D01*
X25069Y-28599D01*
X25062Y-28572D01*
X25054Y-28545D01*
X25043Y-28519D01*
X25030Y-28494D01*
X25015Y-28470D01*
X24998Y-28447D01*
X24979Y-28426D01*
X24958Y-28407D01*
X24935Y-28390D01*
X24912Y-28375D01*
X24886Y-28362D01*
X24860Y-28351D01*
X24833Y-28343D01*
X24806Y-28336D01*
X24778Y-28333D01*
X24750Y-28331D01*
X24722Y-28333D01*
X24694Y-28336D01*
X24667Y-28343D01*
X24640Y-28351D01*
X24614Y-28362D01*
X24589Y-28375D01*
X24565Y-28390D01*
X24542Y-28407D01*
X24521Y-28426D01*
X24502Y-28447D01*
X24485Y-28470D01*
X24470Y-28494D01*
X24457Y-28519D01*
X24446Y-28545D01*
X24438Y-28572D01*
X24431Y-28599D01*
X24428Y-28627D01*
X24426Y-28655D01*
X23426Y-28655D02*
X23426Y-28845D01*
X24074Y-28655D02*
X24074Y-28845D01*
X23426Y-28845D02*
X23428Y-28873D01*
X23431Y-28901D01*
X23438Y-28928D01*
X23446Y-28955D01*
X23457Y-28981D01*
X23470Y-29006D01*
X23485Y-29030D01*
X23502Y-29053D01*
X23521Y-29074D01*
X23542Y-29093D01*
X23565Y-29110D01*
X23588Y-29125D01*
X23614Y-29138D01*
X23640Y-29149D01*
X23667Y-29157D01*
X23694Y-29164D01*
X23722Y-29167D01*
X23750Y-29169D01*
X23778Y-29167D01*
X23806Y-29164D01*
X23833Y-29157D01*
X23860Y-29149D01*
X23886Y-29138D01*
X23912Y-29125D01*
X23935Y-29110D01*
X23958Y-29093D01*
X23979Y-29074D01*
X23998Y-29053D01*
X24015Y-29030D01*
X24030Y-29007D01*
X24043Y-28981D01*
X24054Y-28955D01*
X24062Y-28928D01*
X24069Y-28901D01*
X24072Y-28873D01*
X24074Y-28845D01*
X24074Y-28655D02*
X24072Y-28627D01*
X24069Y-28599D01*
X24062Y-28572D01*
X24054Y-28545D01*
X24043Y-28519D01*
X24030Y-28494D01*
X24015Y-28470D01*
X23998Y-28447D01*
X23979Y-28426D01*
X23958Y-28407D01*
X23935Y-28390D01*
X23912Y-28375D01*
X23886Y-28362D01*
X23860Y-28351D01*
X23833Y-28343D01*
X23806Y-28336D01*
X23778Y-28333D01*
X23750Y-28331D01*
X23722Y-28333D01*
X23694Y-28336D01*
X23667Y-28343D01*
X23640Y-28351D01*
X23614Y-28362D01*
X23589Y-28375D01*
X23565Y-28390D01*
X23542Y-28407D01*
X23521Y-28426D01*
X23502Y-28447D01*
X23485Y-28470D01*
X23470Y-28494D01*
X23457Y-28519D01*
X23446Y-28545D01*
X23438Y-28572D01*
X23431Y-28599D01*
X23428Y-28627D01*
X23426Y-28655D01*
X22426Y-28655D02*
X22426Y-28845D01*
X23074Y-28655D02*
X23074Y-28845D01*
X22426Y-28845D02*
X22428Y-28873D01*
X22431Y-28901D01*
X22438Y-28928D01*
X22446Y-28955D01*
X22457Y-28981D01*
X22470Y-29006D01*
X22485Y-29030D01*
X22502Y-29053D01*
X22521Y-29074D01*
X22542Y-29093D01*
X22565Y-29110D01*
X22588Y-29125D01*
X22614Y-29138D01*
X22640Y-29149D01*
X22667Y-29157D01*
X22694Y-29164D01*
X22722Y-29167D01*
X22750Y-29169D01*
X22778Y-29167D01*
X22806Y-29164D01*
X22833Y-29157D01*
X22860Y-29149D01*
X22886Y-29138D01*
X22912Y-29125D01*
X22935Y-29110D01*
X22958Y-29093D01*
X22979Y-29074D01*
X22998Y-29053D01*
X23015Y-29030D01*
X23030Y-29007D01*
X23043Y-28981D01*
X23054Y-28955D01*
X23062Y-28928D01*
X23069Y-28901D01*
X23072Y-28873D01*
X23074Y-28845D01*
X23074Y-28655D02*
X23072Y-28627D01*
X23069Y-28599D01*
X23062Y-28572D01*
X23054Y-28545D01*
X23043Y-28519D01*
X23030Y-28494D01*
X23015Y-28470D01*
X22998Y-28447D01*
X22979Y-28426D01*
X22958Y-28407D01*
X22935Y-28390D01*
X22912Y-28375D01*
X22886Y-28362D01*
X22860Y-28351D01*
X22833Y-28343D01*
X22806Y-28336D01*
X22778Y-28333D01*
X22750Y-28331D01*
X22722Y-28333D01*
X22694Y-28336D01*
X22667Y-28343D01*
X22640Y-28351D01*
X22614Y-28362D01*
X22589Y-28375D01*
X22565Y-28390D01*
X22542Y-28407D01*
X22521Y-28426D01*
X22502Y-28447D01*
X22485Y-28470D01*
X22470Y-28494D01*
X22457Y-28519D01*
X22446Y-28545D01*
X22438Y-28572D01*
X22431Y-28599D01*
X22428Y-28627D01*
X22426Y-28655D01*
X21426Y-28655D02*
X21426Y-28845D01*
X22074Y-28655D02*
X22074Y-28845D01*
X21426Y-28845D02*
X21428Y-28873D01*
X21431Y-28901D01*
X21438Y-28928D01*
X21446Y-28955D01*
X21457Y-28981D01*
X21470Y-29006D01*
X21485Y-29030D01*
X21502Y-29053D01*
X21521Y-29074D01*
X21542Y-29093D01*
X21565Y-29110D01*
X21588Y-29125D01*
X21614Y-29138D01*
X21640Y-29149D01*
X21667Y-29157D01*
X21694Y-29164D01*
X21722Y-29167D01*
X21750Y-29169D01*
X21778Y-29167D01*
X21806Y-29164D01*
X21833Y-29157D01*
X21860Y-29149D01*
X21886Y-29138D01*
X21912Y-29125D01*
X21935Y-29110D01*
X21958Y-29093D01*
X21979Y-29074D01*
X21998Y-29053D01*
X22015Y-29030D01*
X22030Y-29007D01*
X22043Y-28981D01*
X22054Y-28955D01*
X22062Y-28928D01*
X22069Y-28901D01*
X22072Y-28873D01*
X22074Y-28845D01*
X22074Y-28655D02*
X22072Y-28627D01*
X22069Y-28599D01*
X22062Y-28572D01*
X22054Y-28545D01*
X22043Y-28519D01*
X22030Y-28494D01*
X22015Y-28470D01*
X21998Y-28447D01*
X21979Y-28426D01*
X21958Y-28407D01*
X21935Y-28390D01*
X21912Y-28375D01*
X21886Y-28362D01*
X21860Y-28351D01*
X21833Y-28343D01*
X21806Y-28336D01*
X21778Y-28333D01*
X21750Y-28331D01*
X21722Y-28333D01*
X21694Y-28336D01*
X21667Y-28343D01*
X21640Y-28351D01*
X21614Y-28362D01*
X21589Y-28375D01*
X21565Y-28390D01*
X21542Y-28407D01*
X21521Y-28426D01*
X21502Y-28447D01*
X21485Y-28470D01*
X21470Y-28494D01*
X21457Y-28519D01*
X21446Y-28545D01*
X21438Y-28572D01*
X21431Y-28599D01*
X21428Y-28627D01*
X21426Y-28655D01*
X20426Y-28655D02*
X20426Y-28845D01*
X21074Y-28655D02*
X21074Y-28845D01*
X20426Y-28845D02*
X20428Y-28873D01*
X20431Y-28901D01*
X20438Y-28928D01*
X20446Y-28955D01*
X20457Y-28981D01*
X20470Y-29006D01*
X20485Y-29030D01*
X20502Y-29053D01*
X20521Y-29074D01*
X20542Y-29093D01*
X20565Y-29110D01*
X20588Y-29125D01*
X20614Y-29138D01*
X20640Y-29149D01*
X20667Y-29157D01*
X20694Y-29164D01*
X20722Y-29167D01*
X20750Y-29169D01*
X20778Y-29167D01*
X20806Y-29164D01*
X20833Y-29157D01*
X20860Y-29149D01*
X20886Y-29138D01*
X20912Y-29125D01*
X20935Y-29110D01*
X20958Y-29093D01*
X20979Y-29074D01*
X20998Y-29053D01*
X21015Y-29030D01*
X21030Y-29007D01*
X21043Y-28981D01*
X21054Y-28955D01*
X21062Y-28928D01*
X21069Y-28901D01*
X21072Y-28873D01*
X21074Y-28845D01*
X21074Y-28655D02*
X21072Y-28627D01*
X21069Y-28599D01*
X21062Y-28572D01*
X21054Y-28545D01*
X21043Y-28519D01*
X21030Y-28494D01*
X21015Y-28470D01*
X20998Y-28447D01*
X20979Y-28426D01*
X20958Y-28407D01*
X20935Y-28390D01*
X20912Y-28375D01*
X20886Y-28362D01*
X20860Y-28351D01*
X20833Y-28343D01*
X20806Y-28336D01*
X20778Y-28333D01*
X20750Y-28331D01*
X20722Y-28333D01*
X20694Y-28336D01*
X20667Y-28343D01*
X20640Y-28351D01*
X20614Y-28362D01*
X20589Y-28375D01*
X20565Y-28390D01*
X20542Y-28407D01*
X20521Y-28426D01*
X20502Y-28447D01*
X20485Y-28470D01*
X20470Y-28494D01*
X20457Y-28519D01*
X20446Y-28545D01*
X20438Y-28572D01*
X20431Y-28599D01*
X20428Y-28627D01*
X20426Y-28655D01*
X19426Y-28655D02*
X19426Y-28845D01*
X20074Y-28655D02*
X20074Y-28845D01*
X19426Y-28845D02*
X19428Y-28873D01*
X19431Y-28901D01*
X19438Y-28928D01*
X19446Y-28955D01*
X19457Y-28981D01*
X19470Y-29006D01*
X19485Y-29030D01*
X19502Y-29053D01*
X19521Y-29074D01*
X19542Y-29093D01*
X19565Y-29110D01*
X19588Y-29125D01*
X19614Y-29138D01*
X19640Y-29149D01*
X19667Y-29157D01*
X19694Y-29164D01*
X19722Y-29167D01*
X19750Y-29169D01*
X19778Y-29167D01*
X19806Y-29164D01*
X19833Y-29157D01*
X19860Y-29149D01*
X19886Y-29138D01*
X19912Y-29125D01*
X19935Y-29110D01*
X19958Y-29093D01*
X19979Y-29074D01*
X19998Y-29053D01*
X20015Y-29030D01*
X20030Y-29007D01*
X20043Y-28981D01*
X20054Y-28955D01*
X20062Y-28928D01*
X20069Y-28901D01*
X20072Y-28873D01*
X20074Y-28845D01*
X20074Y-28655D02*
X20072Y-28627D01*
X20069Y-28599D01*
X20062Y-28572D01*
X20054Y-28545D01*
X20043Y-28519D01*
X20030Y-28494D01*
X20015Y-28470D01*
X19998Y-28447D01*
X19979Y-28426D01*
X19958Y-28407D01*
X19935Y-28390D01*
X19912Y-28375D01*
X19886Y-28362D01*
X19860Y-28351D01*
X19833Y-28343D01*
X19806Y-28336D01*
X19778Y-28333D01*
X19750Y-28331D01*
X19722Y-28333D01*
X19694Y-28336D01*
X19667Y-28343D01*
X19640Y-28351D01*
X19614Y-28362D01*
X19589Y-28375D01*
X19565Y-28390D01*
X19542Y-28407D01*
X19521Y-28426D01*
X19502Y-28447D01*
X19485Y-28470D01*
X19470Y-28494D01*
X19457Y-28519D01*
X19446Y-28545D01*
X19438Y-28572D01*
X19431Y-28599D01*
X19428Y-28627D01*
X19426Y-28655D01*
X18426Y-28655D02*
X18426Y-28845D01*
X19074Y-28655D02*
X19074Y-28845D01*
X18426Y-28845D02*
X18428Y-28873D01*
X18431Y-28901D01*
X18438Y-28928D01*
X18446Y-28955D01*
X18457Y-28981D01*
X18470Y-29006D01*
X18485Y-29030D01*
X18502Y-29053D01*
X18521Y-29074D01*
X18542Y-29093D01*
X18565Y-29110D01*
X18588Y-29125D01*
X18614Y-29138D01*
X18640Y-29149D01*
X18667Y-29157D01*
X18694Y-29164D01*
X18722Y-29167D01*
X18750Y-29169D01*
X18778Y-29167D01*
X18806Y-29164D01*
X18833Y-29157D01*
X18860Y-29149D01*
X18886Y-29138D01*
X18912Y-29125D01*
X18935Y-29110D01*
X18958Y-29093D01*
X18979Y-29074D01*
X18998Y-29053D01*
X19015Y-29030D01*
X19030Y-29007D01*
X19043Y-28981D01*
X19054Y-28955D01*
X19062Y-28928D01*
X19069Y-28901D01*
X19072Y-28873D01*
X19074Y-28845D01*
X19074Y-28655D02*
X19072Y-28627D01*
X19069Y-28599D01*
X19062Y-28572D01*
X19054Y-28545D01*
X19043Y-28519D01*
X19030Y-28494D01*
X19015Y-28470D01*
X18998Y-28447D01*
X18979Y-28426D01*
X18958Y-28407D01*
X18935Y-28390D01*
X18912Y-28375D01*
X18886Y-28362D01*
X18860Y-28351D01*
X18833Y-28343D01*
X18806Y-28336D01*
X18778Y-28333D01*
X18750Y-28331D01*
X18722Y-28333D01*
X18694Y-28336D01*
X18667Y-28343D01*
X18640Y-28351D01*
X18614Y-28362D01*
X18589Y-28375D01*
X18565Y-28390D01*
X18542Y-28407D01*
X18521Y-28426D01*
X18502Y-28447D01*
X18485Y-28470D01*
X18470Y-28494D01*
X18457Y-28519D01*
X18446Y-28545D01*
X18438Y-28572D01*
X18431Y-28599D01*
X18428Y-28627D01*
X18426Y-28655D01*
X17426Y-28655D02*
X17426Y-28845D01*
X18074Y-28655D02*
X18074Y-28845D01*
X17426Y-28845D02*
X17428Y-28873D01*
X17431Y-28901D01*
X17438Y-28928D01*
X17446Y-28955D01*
X17457Y-28981D01*
X17470Y-29006D01*
X17485Y-29030D01*
X17502Y-29053D01*
X17521Y-29074D01*
X17542Y-29093D01*
X17565Y-29110D01*
X17588Y-29125D01*
X17614Y-29138D01*
X17640Y-29149D01*
X17667Y-29157D01*
X17694Y-29164D01*
X17722Y-29167D01*
X17750Y-29169D01*
X17778Y-29167D01*
X17806Y-29164D01*
X17833Y-29157D01*
X17860Y-29149D01*
X17886Y-29138D01*
X17912Y-29125D01*
X17935Y-29110D01*
X17958Y-29093D01*
X17979Y-29074D01*
X17998Y-29053D01*
X18015Y-29030D01*
X18030Y-29007D01*
X18043Y-28981D01*
X18054Y-28955D01*
X18062Y-28928D01*
X18069Y-28901D01*
X18072Y-28873D01*
X18074Y-28845D01*
X18074Y-28655D02*
X18072Y-28627D01*
X18069Y-28599D01*
X18062Y-28572D01*
X18054Y-28545D01*
X18043Y-28519D01*
X18030Y-28494D01*
X18015Y-28470D01*
X17998Y-28447D01*
X17979Y-28426D01*
X17958Y-28407D01*
X17935Y-28390D01*
X17912Y-28375D01*
X17886Y-28362D01*
X17860Y-28351D01*
X17833Y-28343D01*
X17806Y-28336D01*
X17778Y-28333D01*
X17750Y-28331D01*
X17722Y-28333D01*
X17694Y-28336D01*
X17667Y-28343D01*
X17640Y-28351D01*
X17614Y-28362D01*
X17589Y-28375D01*
X17565Y-28390D01*
X17542Y-28407D01*
X17521Y-28426D01*
X17502Y-28447D01*
X17485Y-28470D01*
X17470Y-28494D01*
X17457Y-28519D01*
X17446Y-28545D01*
X17438Y-28572D01*
X17431Y-28599D01*
X17428Y-28627D01*
X17426Y-28655D01*
X16426Y-28655D02*
X16426Y-28845D01*
X17074Y-28655D02*
X17074Y-28845D01*
X16426Y-28845D02*
X16428Y-28873D01*
X16431Y-28901D01*
X16438Y-28928D01*
X16446Y-28955D01*
X16457Y-28981D01*
X16470Y-29006D01*
X16485Y-29030D01*
X16502Y-29053D01*
X16521Y-29074D01*
X16542Y-29093D01*
X16565Y-29110D01*
X16588Y-29125D01*
X16614Y-29138D01*
X16640Y-29149D01*
X16667Y-29157D01*
X16694Y-29164D01*
X16722Y-29167D01*
X16750Y-29169D01*
X16778Y-29167D01*
X16806Y-29164D01*
X16833Y-29157D01*
X16860Y-29149D01*
X16886Y-29138D01*
X16912Y-29125D01*
X16935Y-29110D01*
X16958Y-29093D01*
X16979Y-29074D01*
X16998Y-29053D01*
X17015Y-29030D01*
X17030Y-29007D01*
X17043Y-28981D01*
X17054Y-28955D01*
X17062Y-28928D01*
X17069Y-28901D01*
X17072Y-28873D01*
X17074Y-28845D01*
X17074Y-28655D02*
X17072Y-28627D01*
X17069Y-28599D01*
X17062Y-28572D01*
X17054Y-28545D01*
X17043Y-28519D01*
X17030Y-28494D01*
X17015Y-28470D01*
X16998Y-28447D01*
X16979Y-28426D01*
X16958Y-28407D01*
X16935Y-28390D01*
X16912Y-28375D01*
X16886Y-28362D01*
X16860Y-28351D01*
X16833Y-28343D01*
X16806Y-28336D01*
X16778Y-28333D01*
X16750Y-28331D01*
X16722Y-28333D01*
X16694Y-28336D01*
X16667Y-28343D01*
X16640Y-28351D01*
X16614Y-28362D01*
X16589Y-28375D01*
X16565Y-28390D01*
X16542Y-28407D01*
X16521Y-28426D01*
X16502Y-28447D01*
X16485Y-28470D01*
X16470Y-28494D01*
X16457Y-28519D01*
X16446Y-28545D01*
X16438Y-28572D01*
X16431Y-28599D01*
X16428Y-28627D01*
X16426Y-28655D01*
G54D13*
X15445Y-24962D02*
X15445Y-24562D01*
X15445Y-24752D02*
X15674Y-24752D01*
X15674Y-24962D02*
X15674Y-24562D01*
X16074Y-24962D02*
X15845Y-24962D01*
X15959Y-24962D02*
X15959Y-24562D01*
X15921Y-24619D01*
X15883Y-24657D01*
X15845Y-24676D01*
X27445Y-24962D02*
X27445Y-24562D01*
X27445Y-24752D02*
X27674Y-24752D01*
X27674Y-24962D02*
X27674Y-24562D01*
X27845Y-24600D02*
X27864Y-24581D01*
X27902Y-24562D01*
X27998Y-24562D01*
X28036Y-24581D01*
X28055Y-24600D01*
X28074Y-24638D01*
X28074Y-24676D01*
X28055Y-24733D01*
X27826Y-24962D01*
X28074Y-24962D01*
X27445Y-33212D02*
X27445Y-32812D01*
X27445Y-33002D02*
X27674Y-33002D01*
X27674Y-33212D02*
X27674Y-32812D01*
X27826Y-32812D02*
X28074Y-32812D01*
X27940Y-32964D01*
X27998Y-32964D01*
X28036Y-32983D01*
X28055Y-33002D01*
X28074Y-33040D01*
X28074Y-33136D01*
X28055Y-33174D01*
X28036Y-33193D01*
X27998Y-33212D01*
X27883Y-33212D01*
X27845Y-33193D01*
X27826Y-33174D01*
X15445Y-33212D02*
X15445Y-32812D01*
X15445Y-33002D02*
X15674Y-33002D01*
X15674Y-33212D02*
X15674Y-32812D01*
X16036Y-32945D02*
X16036Y-33212D01*
X15940Y-32793D02*
X15845Y-33079D01*
X16093Y-33079D01*
G54D15*
X23555Y-26062D02*
X23555Y-25662D01*
X23708Y-25662D01*
X23746Y-25681D01*
X23765Y-25700D01*
X23784Y-25738D01*
X23784Y-25795D01*
X23765Y-25833D01*
X23746Y-25852D01*
X23708Y-25871D01*
X23555Y-25871D01*
X23936Y-25700D02*
X23955Y-25681D01*
X23993Y-25662D01*
X24089Y-25662D01*
X24127Y-25681D01*
X24146Y-25700D01*
X24165Y-25738D01*
X24165Y-25776D01*
X24146Y-25833D01*
X23917Y-26062D01*
X24165Y-26062D01*
X21993Y-28362D02*
X21764Y-28362D01*
X21878Y-28362D02*
X21878Y-27962D01*
X21840Y-28019D01*
X21802Y-28057D01*
X21764Y-28076D01*
X22145Y-28000D02*
X22164Y-27981D01*
X22202Y-27962D01*
X22298Y-27962D01*
X22336Y-27981D01*
X22355Y-28000D01*
X22374Y-28038D01*
X22374Y-28076D01*
X22355Y-28133D01*
X22126Y-28362D01*
X22374Y-28362D01*
X22831Y-27943D02*
X22488Y-28457D01*
X22945Y-28000D02*
X22964Y-27981D01*
X23002Y-27962D01*
X23098Y-27962D01*
X23136Y-27981D01*
X23155Y-28000D01*
X23174Y-28038D01*
X23174Y-28076D01*
X23155Y-28133D01*
X22926Y-28362D01*
X23174Y-28362D01*
X23517Y-28095D02*
X23517Y-28362D01*
X23421Y-27943D02*
X23326Y-28229D01*
X23574Y-28229D01*
X23688Y-28095D02*
X23783Y-28362D01*
X23879Y-28095D01*
X23936Y-28400D02*
X24241Y-28400D01*
X24336Y-28362D02*
X24336Y-27962D01*
X24489Y-27962D01*
X24527Y-27981D01*
X24546Y-28000D01*
X24565Y-28038D01*
X24565Y-28095D01*
X24546Y-28133D01*
X24527Y-28152D01*
X24489Y-28171D01*
X24336Y-28171D01*
X24793Y-28362D02*
X24755Y-28343D01*
X24736Y-28324D01*
X24717Y-28286D01*
X24717Y-28171D01*
X24736Y-28133D01*
X24755Y-28114D01*
X24793Y-28095D01*
X24851Y-28095D01*
X24889Y-28114D01*
X24908Y-28133D01*
X24927Y-28171D01*
X24927Y-28286D01*
X24908Y-28324D01*
X24889Y-28343D01*
X24851Y-28362D01*
X24793Y-28362D01*
X25060Y-28095D02*
X25136Y-28362D01*
X25213Y-28171D01*
X25289Y-28362D01*
X25365Y-28095D01*
X25670Y-28343D02*
X25632Y-28362D01*
X25555Y-28362D01*
X25517Y-28343D01*
X25498Y-28305D01*
X25498Y-28152D01*
X25517Y-28114D01*
X25555Y-28095D01*
X25632Y-28095D01*
X25670Y-28114D01*
X25689Y-28152D01*
X25689Y-28190D01*
X25498Y-28229D01*
X25860Y-28362D02*
X25860Y-28095D01*
X25860Y-28171D02*
X25879Y-28133D01*
X25898Y-28114D01*
X25936Y-28095D01*
X25975Y-28095D01*
G54D16*
X19055Y-32962D02*
X19055Y-32562D01*
X19208Y-32562D01*
X19246Y-32581D01*
X19265Y-32600D01*
X19284Y-32638D01*
X19284Y-32695D01*
X19265Y-32733D01*
X19246Y-32752D01*
X19208Y-32771D01*
X19055Y-32771D01*
X19665Y-32962D02*
X19436Y-32962D01*
X19550Y-32962D02*
X19550Y-32562D01*
X19512Y-32619D01*
X19474Y-32657D01*
X19436Y-32676D01*
X19055Y-25862D02*
X19055Y-25462D01*
X19208Y-25462D01*
X19246Y-25481D01*
X19265Y-25500D01*
X19284Y-25538D01*
X19284Y-25595D01*
X19265Y-25633D01*
X19246Y-25652D01*
X19208Y-25671D01*
X19055Y-25671D01*
X19417Y-25462D02*
X19665Y-25462D01*
X19531Y-25614D01*
X19589Y-25614D01*
X19627Y-25633D01*
X19646Y-25652D01*
X19665Y-25690D01*
X19665Y-25786D01*
X19646Y-25824D01*
X19627Y-25843D01*
X19589Y-25862D01*
X19474Y-25862D01*
X19436Y-25843D01*
X19417Y-25824D01*
X26452Y-28995D02*
X25952Y-28995D01*
X25952Y-28900D01*
X25976Y-28842D01*
X26024Y-28804D01*
X26071Y-28785D01*
X26167Y-28766D01*
X26238Y-28766D01*
X26333Y-28785D01*
X26381Y-28804D01*
X26429Y-28842D01*
X26452Y-28900D01*
X26452Y-28995D01*
X26452Y-28385D02*
X26452Y-28614D01*
X26452Y-28500D02*
X25952Y-28500D01*
X26024Y-28538D01*
X26071Y-28576D01*
X26095Y-28614D01*
G54D17*
X17407Y-29333D02*
X17407Y-29900D01*
X17429Y-29967D01*
X17450Y-30000D01*
X17493Y-30033D01*
X17579Y-30033D01*
X17621Y-30000D01*
X17643Y-29967D01*
X17664Y-29900D01*
X17664Y-29333D01*
X18114Y-30033D02*
X17857Y-30033D01*
X17985Y-30033D02*
X17985Y-29333D01*
X17942Y-29433D01*
X17900Y-29500D01*
X17857Y-29533D01*
X19946Y-30233D02*
X19946Y-30800D01*
X19968Y-30867D01*
X19989Y-30900D01*
X20032Y-30933D01*
X20118Y-30933D01*
X20160Y-30900D01*
X20182Y-30867D01*
X20203Y-30800D01*
X20203Y-30233D01*
X20631Y-30933D02*
X20417Y-30933D01*
X20417Y-30233D01*
X20781Y-30933D02*
X20781Y-30233D01*
X21038Y-30933D01*
X21038Y-30233D01*
X21231Y-30300D02*
X21252Y-30267D01*
X21295Y-30233D01*
X21402Y-30233D01*
X21445Y-30267D01*
X21466Y-30300D01*
X21488Y-30367D01*
X21488Y-30433D01*
X21466Y-30533D01*
X21209Y-30933D01*
X21488Y-30933D01*
X21745Y-30533D02*
X21703Y-30500D01*
X21681Y-30467D01*
X21660Y-30400D01*
X21660Y-30367D01*
X21681Y-30300D01*
X21703Y-30267D01*
X21745Y-30233D01*
X21831Y-30233D01*
X21874Y-30267D01*
X21895Y-30300D01*
X21917Y-30367D01*
X21917Y-30400D01*
X21895Y-30467D01*
X21874Y-30500D01*
X21831Y-30533D01*
X21745Y-30533D01*
X21703Y-30567D01*
X21681Y-30600D01*
X21660Y-30667D01*
X21660Y-30800D01*
X21681Y-30867D01*
X21703Y-30900D01*
X21745Y-30933D01*
X21831Y-30933D01*
X21874Y-30900D01*
X21895Y-30867D01*
X21917Y-30800D01*
X21917Y-30667D01*
X21895Y-30600D01*
X21874Y-30567D01*
X21831Y-30533D01*
X22196Y-30233D02*
X22239Y-30233D01*
X22282Y-30267D01*
X22303Y-30300D01*
X22324Y-30367D01*
X22346Y-30500D01*
X22346Y-30667D01*
X22324Y-30800D01*
X22303Y-30867D01*
X22282Y-30900D01*
X22239Y-30933D01*
X22196Y-30933D01*
X22153Y-30900D01*
X22132Y-30867D01*
X22110Y-30800D01*
X22089Y-30667D01*
X22089Y-30500D01*
X22110Y-30367D01*
X22132Y-30300D01*
X22153Y-30267D01*
X22196Y-30233D01*
X22496Y-30233D02*
X22775Y-30233D01*
X22625Y-30500D01*
X22689Y-30500D01*
X22732Y-30533D01*
X22753Y-30567D01*
X22775Y-30633D01*
X22775Y-30800D01*
X22753Y-30867D01*
X22732Y-30900D01*
X22689Y-30933D01*
X22561Y-30933D01*
X22518Y-30900D01*
X22496Y-30867D01*
M02*
