M48
INCH,TZ
T1C0.039
T2C0.039
T3C0.040
T4C0.120
%
G90
G05
T1
X2.335Y-2.670
X2.435Y-2.670
T2
X1.675Y-2.875
X1.675Y-3.175
X1.775Y-2.875
X1.775Y-3.175
X1.835Y-2.670
X1.835Y-3.380
X1.875Y-2.875
X1.875Y-3.175
X1.935Y-2.670
X1.935Y-3.380
X1.975Y-2.875
X1.975Y-3.175
X2.035Y-2.670
X2.035Y-3.380
X2.075Y-2.875
X2.075Y-3.175
X2.135Y-2.670
X2.135Y-3.380
X2.175Y-2.875
X2.175Y-3.175
X2.275Y-2.875
X2.275Y-3.175
X2.375Y-2.875
X2.375Y-3.175
X2.475Y-2.875
X2.475Y-3.175
T3
X1.735Y-2.670
X1.735Y-3.380
X2.625Y-2.670
X2.625Y-3.070
T4
X1.575Y-2.600
X1.575Y-3.425
X2.775Y-2.600
X2.775Y-3.425
T0
M30
