M48
INCH,TZ
T1C0.025
T2C0.032
T3C0.032
T4C0.040
T5C0.043
T6C0.045
T7C0.055
T8C0.110
%
G90
G05
T1
X3.632Y-3.583
T2
X2.725Y-2.583
X2.725Y-2.783
T3
X2.264Y-2.530
X2.264Y-2.630
X2.264Y-2.730
X2.264Y-2.830
X2.364Y-2.530
X2.364Y-2.630
X2.364Y-2.730
X2.364Y-2.830
X2.364Y-2.930
X2.624Y-2.145
X2.624Y-2.445
X2.693Y-1.675
X2.793Y-1.675
X2.824Y-2.145
X2.824Y-2.445
X2.961Y-2.059
X2.962Y-2.173
X2.962Y-2.273
X2.962Y-2.373
X2.962Y-2.473
X2.962Y-2.776
X2.962Y-2.876
X2.962Y-2.976
X2.962Y-3.076
X2.962Y-3.178
X2.966Y-3.658
X2.966Y-3.758
X3.061Y-2.059
X3.062Y-3.178
X3.161Y-2.059
X3.162Y-3.178
X3.261Y-2.059
X3.262Y-3.178
X3.361Y-2.059
X3.362Y-3.178
X3.429Y-1.666
X3.529Y-1.666
X3.548Y-3.178
X3.549Y-2.059
X3.648Y-3.178
X3.649Y-2.059
X3.748Y-3.178
X3.749Y-2.059
X3.847Y-2.735
X3.847Y-2.835
X3.847Y-2.935
X3.847Y-3.035
X3.848Y-3.178
X3.849Y-2.059
X3.849Y-2.215
X3.849Y-2.315
X3.849Y-2.415
X3.849Y-2.515
X4.314Y-3.664
X4.314Y-3.764
T4
X2.264Y-2.930
X3.054Y-1.881
X3.118Y-3.714
X3.154Y-1.881
X3.218Y-3.714
X3.254Y-1.881
X3.318Y-3.714
X3.418Y-3.714
X3.690Y-1.878
X3.790Y-1.878
X3.833Y-3.703
X3.890Y-1.878
X3.933Y-3.703
X4.033Y-3.703
X4.133Y-3.703
X4.266Y-2.943
X4.266Y-3.196
X4.267Y-3.067
X4.270Y-2.628
X4.270Y-2.782
X4.366Y-2.943
X4.366Y-3.196
X4.367Y-3.067
X4.370Y-2.628
X4.370Y-2.782
X4.466Y-2.943
X4.466Y-3.196
X4.467Y-3.067
X4.468Y-2.323
X4.468Y-2.423
X4.469Y-2.066
X4.469Y-2.166
X4.470Y-2.628
X4.470Y-2.782
T5
X2.340Y-3.903
X2.540Y-3.903
T6
X3.221Y-3.435
X3.321Y-3.435
X3.421Y-3.435
X3.926Y-3.432
X4.026Y-3.432
X4.126Y-3.432
T7
X2.086Y-3.493
X2.302Y-3.494
X2.702Y-3.494
X2.925Y-3.494
T8
X2.050Y-1.575
X2.075Y-4.050
X4.600Y-1.575
X4.600Y-4.050
T0
M30
