G04 (created by PCBNEW-RS274X (2011-07-08 BZR 3044)-stable) date 2012-09-13 22:14:24*
G01*
G70*
G90*
%MOIN*%
G04 Gerber Fmt 3.4, Leading zero omitted, Abs format*
%FSLAX34Y34*%
G04 APERTURE LIST*
%ADD10C,0.006000*%
%ADD11C,0.012000*%
%ADD12C,0.015000*%
%ADD13C,0.010000*%
%ADD14C,0.010700*%
%ADD15C,0.003500*%
G04 APERTURE END LIST*
G54D10*
G54D11*
X41750Y-36274D02*
X41864Y-36274D01*
X41922Y-36312D01*
X41979Y-36388D01*
X42007Y-36540D01*
X42007Y-36807D01*
X41979Y-36960D01*
X41922Y-37036D01*
X41864Y-37074D01*
X41750Y-37074D01*
X41693Y-37036D01*
X41636Y-36960D01*
X41607Y-36807D01*
X41607Y-36540D01*
X41636Y-36388D01*
X41693Y-36312D01*
X41750Y-36274D01*
X42522Y-36540D02*
X42522Y-37074D01*
X42265Y-36540D02*
X42265Y-36960D01*
X42293Y-37036D01*
X42351Y-37074D01*
X42436Y-37074D01*
X42493Y-37036D01*
X42522Y-36998D01*
X42722Y-36540D02*
X42951Y-36540D01*
X42808Y-36274D02*
X42808Y-36960D01*
X42836Y-37036D01*
X42894Y-37074D01*
X42951Y-37074D01*
X48686Y-32324D02*
X48686Y-31524D01*
X48972Y-32324D02*
X48972Y-31524D01*
X49315Y-32324D01*
X49315Y-31524D01*
G54D12*
X49900Y-36750D02*
X49882Y-36924D01*
X49832Y-37092D01*
X49749Y-37248D01*
X49638Y-37384D01*
X49503Y-37496D01*
X49348Y-37579D01*
X49180Y-37631D01*
X49006Y-37649D01*
X48832Y-37634D01*
X48663Y-37584D01*
X48508Y-37503D01*
X48371Y-37393D01*
X48258Y-37258D01*
X48173Y-37104D01*
X48120Y-36937D01*
X48101Y-36762D01*
X48115Y-36588D01*
X48164Y-36419D01*
X48244Y-36263D01*
X48353Y-36125D01*
X48487Y-36011D01*
X48640Y-35926D01*
X48807Y-35871D01*
X48982Y-35851D01*
X49156Y-35864D01*
X49325Y-35911D01*
X49482Y-35991D01*
X49620Y-36099D01*
X49735Y-36232D01*
X49822Y-36384D01*
X49877Y-36551D01*
X49899Y-36725D01*
X49900Y-36750D01*
X37900Y-30500D02*
X37882Y-30674D01*
X37832Y-30842D01*
X37749Y-30998D01*
X37638Y-31134D01*
X37503Y-31246D01*
X37348Y-31329D01*
X37180Y-31381D01*
X37006Y-31399D01*
X36832Y-31384D01*
X36663Y-31334D01*
X36508Y-31253D01*
X36371Y-31143D01*
X36258Y-31008D01*
X36173Y-30854D01*
X36120Y-30687D01*
X36101Y-30512D01*
X36115Y-30338D01*
X36164Y-30169D01*
X36244Y-30013D01*
X36353Y-29875D01*
X36487Y-29761D01*
X36640Y-29676D01*
X36807Y-29621D01*
X36982Y-29601D01*
X37156Y-29614D01*
X37325Y-29661D01*
X37482Y-29741D01*
X37620Y-29849D01*
X37735Y-29982D01*
X37822Y-30134D01*
X37877Y-30301D01*
X37899Y-30475D01*
X37900Y-30500D01*
X37900Y-36750D02*
X37882Y-36924D01*
X37832Y-37092D01*
X37749Y-37248D01*
X37638Y-37384D01*
X37503Y-37496D01*
X37348Y-37579D01*
X37180Y-37631D01*
X37006Y-37649D01*
X36832Y-37634D01*
X36663Y-37584D01*
X36508Y-37503D01*
X36371Y-37393D01*
X36258Y-37258D01*
X36173Y-37104D01*
X36120Y-36937D01*
X36101Y-36762D01*
X36115Y-36588D01*
X36164Y-36419D01*
X36244Y-36263D01*
X36353Y-36125D01*
X36487Y-36011D01*
X36640Y-35926D01*
X36807Y-35871D01*
X36982Y-35851D01*
X37156Y-35864D01*
X37325Y-35911D01*
X37482Y-35991D01*
X37620Y-36099D01*
X37735Y-36232D01*
X37822Y-36384D01*
X37877Y-36551D01*
X37899Y-36725D01*
X37900Y-36750D01*
X49900Y-30250D02*
X49882Y-30424D01*
X49832Y-30592D01*
X49749Y-30748D01*
X49638Y-30884D01*
X49503Y-30996D01*
X49348Y-31079D01*
X49180Y-31131D01*
X49006Y-31149D01*
X48832Y-31134D01*
X48663Y-31084D01*
X48508Y-31003D01*
X48371Y-30893D01*
X48258Y-30758D01*
X48173Y-30604D01*
X48120Y-30437D01*
X48101Y-30262D01*
X48115Y-30088D01*
X48164Y-29919D01*
X48244Y-29763D01*
X48353Y-29625D01*
X48487Y-29511D01*
X48640Y-29426D01*
X48807Y-29371D01*
X48982Y-29351D01*
X49156Y-29364D01*
X49325Y-29411D01*
X49482Y-29491D01*
X49620Y-29599D01*
X49735Y-29732D01*
X49822Y-29884D01*
X49877Y-30051D01*
X49899Y-30225D01*
X49900Y-30250D01*
G54D11*
X37764Y-32564D02*
X37764Y-31564D01*
X37764Y-31564D02*
X47764Y-31564D01*
X47764Y-31564D02*
X47764Y-32564D01*
X47764Y-32564D02*
X37764Y-32564D01*
X38764Y-32564D02*
X38764Y-31564D01*
G54D13*
X37907Y-35510D02*
X40907Y-35510D01*
X37907Y-33760D02*
X40907Y-33760D01*
X37907Y-33010D02*
X40907Y-33010D01*
X36382Y-33010D02*
X36382Y-35510D01*
X40907Y-33010D02*
X40907Y-35510D01*
X39432Y-33760D02*
X36432Y-33760D01*
X36382Y-33010D02*
X39382Y-33010D01*
X39382Y-35510D02*
X36382Y-35510D01*
X43037Y-35510D02*
X46037Y-35510D01*
X43037Y-33760D02*
X46037Y-33760D01*
X43037Y-33010D02*
X46037Y-33010D01*
X41512Y-33010D02*
X41512Y-35510D01*
X46037Y-33010D02*
X46037Y-35510D01*
X44562Y-33760D02*
X41562Y-33760D01*
X41512Y-33010D02*
X44512Y-33010D01*
X44512Y-35510D02*
X41512Y-35510D01*
X48854Y-33749D02*
X46854Y-33749D01*
X48854Y-35499D02*
X46854Y-35499D01*
X46854Y-32999D02*
X48854Y-32999D01*
X46854Y-32999D02*
X46854Y-35499D01*
X48854Y-32999D02*
X48854Y-35499D01*
G54D10*
X49770Y-36750D02*
X49755Y-36899D01*
X49711Y-37043D01*
X49641Y-37176D01*
X49546Y-37292D01*
X49430Y-37388D01*
X49298Y-37459D01*
X49154Y-37504D01*
X49005Y-37519D01*
X48856Y-37506D01*
X48712Y-37463D01*
X48579Y-37394D01*
X48462Y-37300D01*
X48365Y-37185D01*
X48293Y-37053D01*
X48247Y-36910D01*
X48231Y-36760D01*
X48243Y-36612D01*
X48285Y-36467D01*
X48353Y-36333D01*
X48447Y-36216D01*
X48561Y-36118D01*
X48692Y-36045D01*
X48835Y-35998D01*
X48984Y-35981D01*
X49133Y-35992D01*
X49278Y-36033D01*
X49412Y-36100D01*
X49531Y-36193D01*
X49629Y-36307D01*
X49703Y-36437D01*
X49750Y-36580D01*
X49769Y-36729D01*
X49770Y-36750D01*
X37770Y-30500D02*
X37755Y-30649D01*
X37711Y-30793D01*
X37641Y-30926D01*
X37546Y-31042D01*
X37430Y-31138D01*
X37298Y-31209D01*
X37154Y-31254D01*
X37005Y-31269D01*
X36856Y-31256D01*
X36712Y-31213D01*
X36579Y-31144D01*
X36462Y-31050D01*
X36365Y-30935D01*
X36293Y-30803D01*
X36247Y-30660D01*
X36231Y-30510D01*
X36243Y-30362D01*
X36285Y-30217D01*
X36353Y-30083D01*
X36447Y-29966D01*
X36561Y-29868D01*
X36692Y-29795D01*
X36835Y-29748D01*
X36984Y-29731D01*
X37133Y-29742D01*
X37278Y-29783D01*
X37412Y-29850D01*
X37531Y-29943D01*
X37629Y-30057D01*
X37703Y-30187D01*
X37750Y-30330D01*
X37769Y-30479D01*
X37770Y-30500D01*
X37770Y-36750D02*
X37755Y-36899D01*
X37711Y-37043D01*
X37641Y-37176D01*
X37546Y-37292D01*
X37430Y-37388D01*
X37298Y-37459D01*
X37154Y-37504D01*
X37005Y-37519D01*
X36856Y-37506D01*
X36712Y-37463D01*
X36579Y-37394D01*
X36462Y-37300D01*
X36365Y-37185D01*
X36293Y-37053D01*
X36247Y-36910D01*
X36231Y-36760D01*
X36243Y-36612D01*
X36285Y-36467D01*
X36353Y-36333D01*
X36447Y-36216D01*
X36561Y-36118D01*
X36692Y-36045D01*
X36835Y-35998D01*
X36984Y-35981D01*
X37133Y-35992D01*
X37278Y-36033D01*
X37412Y-36100D01*
X37531Y-36193D01*
X37629Y-36307D01*
X37703Y-36437D01*
X37750Y-36580D01*
X37769Y-36729D01*
X37770Y-36750D01*
X49770Y-30250D02*
X49755Y-30399D01*
X49711Y-30543D01*
X49641Y-30676D01*
X49546Y-30792D01*
X49430Y-30888D01*
X49298Y-30959D01*
X49154Y-31004D01*
X49005Y-31019D01*
X48856Y-31006D01*
X48712Y-30963D01*
X48579Y-30894D01*
X48462Y-30800D01*
X48365Y-30685D01*
X48293Y-30553D01*
X48247Y-30410D01*
X48231Y-30260D01*
X48243Y-30112D01*
X48285Y-29967D01*
X48353Y-29833D01*
X48447Y-29716D01*
X48561Y-29618D01*
X48692Y-29545D01*
X48835Y-29498D01*
X48984Y-29481D01*
X49133Y-29492D01*
X49278Y-29533D01*
X49412Y-29600D01*
X49531Y-29693D01*
X49629Y-29807D01*
X49703Y-29937D01*
X49750Y-30080D01*
X49769Y-30229D01*
X49770Y-30250D01*
X37901Y-31867D02*
X37901Y-32261D01*
X38627Y-31867D02*
X38627Y-32261D01*
X37901Y-32261D02*
X37903Y-32292D01*
X37907Y-32324D01*
X37914Y-32354D01*
X37923Y-32385D01*
X37936Y-32414D01*
X37950Y-32442D01*
X37967Y-32469D01*
X37986Y-32494D01*
X38008Y-32517D01*
X38031Y-32539D01*
X38056Y-32558D01*
X38083Y-32575D01*
X38111Y-32589D01*
X38140Y-32602D01*
X38171Y-32611D01*
X38201Y-32618D01*
X38233Y-32622D01*
X38264Y-32624D01*
X38295Y-32622D01*
X38327Y-32618D01*
X38357Y-32611D01*
X38388Y-32602D01*
X38417Y-32589D01*
X38445Y-32575D01*
X38472Y-32558D01*
X38497Y-32539D01*
X38520Y-32517D01*
X38542Y-32494D01*
X38561Y-32469D01*
X38578Y-32442D01*
X38592Y-32414D01*
X38605Y-32385D01*
X38614Y-32354D01*
X38621Y-32324D01*
X38625Y-32292D01*
X38627Y-32261D01*
X38627Y-31867D02*
X38625Y-31836D01*
X38621Y-31804D01*
X38614Y-31774D01*
X38605Y-31743D01*
X38592Y-31714D01*
X38578Y-31686D01*
X38561Y-31659D01*
X38542Y-31634D01*
X38520Y-31611D01*
X38497Y-31589D01*
X38472Y-31570D01*
X38445Y-31553D01*
X38417Y-31539D01*
X38388Y-31526D01*
X38357Y-31517D01*
X38327Y-31510D01*
X38295Y-31506D01*
X38264Y-31504D01*
X38233Y-31506D01*
X38201Y-31510D01*
X38171Y-31517D01*
X38140Y-31526D01*
X38111Y-31539D01*
X38083Y-31553D01*
X38056Y-31570D01*
X38031Y-31589D01*
X38008Y-31611D01*
X37986Y-31634D01*
X37967Y-31659D01*
X37950Y-31686D01*
X37936Y-31714D01*
X37923Y-31743D01*
X37914Y-31774D01*
X37907Y-31804D01*
X37903Y-31836D01*
X37901Y-31867D01*
X38901Y-31867D02*
X38901Y-32261D01*
X39627Y-31867D02*
X39627Y-32261D01*
X38901Y-32261D02*
X38903Y-32292D01*
X38907Y-32324D01*
X38914Y-32354D01*
X38923Y-32385D01*
X38936Y-32414D01*
X38950Y-32442D01*
X38967Y-32469D01*
X38986Y-32494D01*
X39008Y-32517D01*
X39031Y-32539D01*
X39056Y-32558D01*
X39083Y-32575D01*
X39111Y-32589D01*
X39140Y-32602D01*
X39171Y-32611D01*
X39201Y-32618D01*
X39233Y-32622D01*
X39264Y-32624D01*
X39295Y-32622D01*
X39327Y-32618D01*
X39357Y-32611D01*
X39388Y-32602D01*
X39417Y-32589D01*
X39445Y-32575D01*
X39472Y-32558D01*
X39497Y-32539D01*
X39520Y-32517D01*
X39542Y-32494D01*
X39561Y-32469D01*
X39578Y-32442D01*
X39592Y-32414D01*
X39605Y-32385D01*
X39614Y-32354D01*
X39621Y-32324D01*
X39625Y-32292D01*
X39627Y-32261D01*
X39627Y-31867D02*
X39625Y-31836D01*
X39621Y-31804D01*
X39614Y-31774D01*
X39605Y-31743D01*
X39592Y-31714D01*
X39578Y-31686D01*
X39561Y-31659D01*
X39542Y-31634D01*
X39520Y-31611D01*
X39497Y-31589D01*
X39472Y-31570D01*
X39445Y-31553D01*
X39417Y-31539D01*
X39388Y-31526D01*
X39357Y-31517D01*
X39327Y-31510D01*
X39295Y-31506D01*
X39264Y-31504D01*
X39233Y-31506D01*
X39201Y-31510D01*
X39171Y-31517D01*
X39140Y-31526D01*
X39111Y-31539D01*
X39083Y-31553D01*
X39056Y-31570D01*
X39031Y-31589D01*
X39008Y-31611D01*
X38986Y-31634D01*
X38967Y-31659D01*
X38950Y-31686D01*
X38936Y-31714D01*
X38923Y-31743D01*
X38914Y-31774D01*
X38907Y-31804D01*
X38903Y-31836D01*
X38901Y-31867D01*
X39901Y-31867D02*
X39901Y-32261D01*
X40627Y-31867D02*
X40627Y-32261D01*
X39901Y-32261D02*
X39903Y-32292D01*
X39907Y-32324D01*
X39914Y-32354D01*
X39923Y-32385D01*
X39936Y-32414D01*
X39950Y-32442D01*
X39967Y-32469D01*
X39986Y-32494D01*
X40008Y-32517D01*
X40031Y-32539D01*
X40056Y-32558D01*
X40083Y-32575D01*
X40111Y-32589D01*
X40140Y-32602D01*
X40171Y-32611D01*
X40201Y-32618D01*
X40233Y-32622D01*
X40264Y-32624D01*
X40295Y-32622D01*
X40327Y-32618D01*
X40357Y-32611D01*
X40388Y-32602D01*
X40417Y-32589D01*
X40445Y-32575D01*
X40472Y-32558D01*
X40497Y-32539D01*
X40520Y-32517D01*
X40542Y-32494D01*
X40561Y-32469D01*
X40578Y-32442D01*
X40592Y-32414D01*
X40605Y-32385D01*
X40614Y-32354D01*
X40621Y-32324D01*
X40625Y-32292D01*
X40627Y-32261D01*
X40627Y-31867D02*
X40625Y-31836D01*
X40621Y-31804D01*
X40614Y-31774D01*
X40605Y-31743D01*
X40592Y-31714D01*
X40578Y-31686D01*
X40561Y-31659D01*
X40542Y-31634D01*
X40520Y-31611D01*
X40497Y-31589D01*
X40472Y-31570D01*
X40445Y-31553D01*
X40417Y-31539D01*
X40388Y-31526D01*
X40357Y-31517D01*
X40327Y-31510D01*
X40295Y-31506D01*
X40264Y-31504D01*
X40233Y-31506D01*
X40201Y-31510D01*
X40171Y-31517D01*
X40140Y-31526D01*
X40111Y-31539D01*
X40083Y-31553D01*
X40056Y-31570D01*
X40031Y-31589D01*
X40008Y-31611D01*
X39986Y-31634D01*
X39967Y-31659D01*
X39950Y-31686D01*
X39936Y-31714D01*
X39923Y-31743D01*
X39914Y-31774D01*
X39907Y-31804D01*
X39903Y-31836D01*
X39901Y-31867D01*
X40901Y-31867D02*
X40901Y-32261D01*
X41627Y-31867D02*
X41627Y-32261D01*
X40901Y-32261D02*
X40903Y-32292D01*
X40907Y-32324D01*
X40914Y-32354D01*
X40923Y-32385D01*
X40936Y-32414D01*
X40950Y-32442D01*
X40967Y-32469D01*
X40986Y-32494D01*
X41008Y-32517D01*
X41031Y-32539D01*
X41056Y-32558D01*
X41083Y-32575D01*
X41111Y-32589D01*
X41140Y-32602D01*
X41171Y-32611D01*
X41201Y-32618D01*
X41233Y-32622D01*
X41264Y-32624D01*
X41295Y-32622D01*
X41327Y-32618D01*
X41357Y-32611D01*
X41388Y-32602D01*
X41417Y-32589D01*
X41445Y-32575D01*
X41472Y-32558D01*
X41497Y-32539D01*
X41520Y-32517D01*
X41542Y-32494D01*
X41561Y-32469D01*
X41578Y-32442D01*
X41592Y-32414D01*
X41605Y-32385D01*
X41614Y-32354D01*
X41621Y-32324D01*
X41625Y-32292D01*
X41627Y-32261D01*
X41627Y-31867D02*
X41625Y-31836D01*
X41621Y-31804D01*
X41614Y-31774D01*
X41605Y-31743D01*
X41592Y-31714D01*
X41578Y-31686D01*
X41561Y-31659D01*
X41542Y-31634D01*
X41520Y-31611D01*
X41497Y-31589D01*
X41472Y-31570D01*
X41445Y-31553D01*
X41417Y-31539D01*
X41388Y-31526D01*
X41357Y-31517D01*
X41327Y-31510D01*
X41295Y-31506D01*
X41264Y-31504D01*
X41233Y-31506D01*
X41201Y-31510D01*
X41171Y-31517D01*
X41140Y-31526D01*
X41111Y-31539D01*
X41083Y-31553D01*
X41056Y-31570D01*
X41031Y-31589D01*
X41008Y-31611D01*
X40986Y-31634D01*
X40967Y-31659D01*
X40950Y-31686D01*
X40936Y-31714D01*
X40923Y-31743D01*
X40914Y-31774D01*
X40907Y-31804D01*
X40903Y-31836D01*
X40901Y-31867D01*
X41901Y-31867D02*
X41901Y-32261D01*
X42627Y-31867D02*
X42627Y-32261D01*
X41901Y-32261D02*
X41903Y-32292D01*
X41907Y-32324D01*
X41914Y-32354D01*
X41923Y-32385D01*
X41936Y-32414D01*
X41950Y-32442D01*
X41967Y-32469D01*
X41986Y-32494D01*
X42008Y-32517D01*
X42031Y-32539D01*
X42056Y-32558D01*
X42083Y-32575D01*
X42111Y-32589D01*
X42140Y-32602D01*
X42171Y-32611D01*
X42201Y-32618D01*
X42233Y-32622D01*
X42264Y-32624D01*
X42295Y-32622D01*
X42327Y-32618D01*
X42357Y-32611D01*
X42388Y-32602D01*
X42417Y-32589D01*
X42445Y-32575D01*
X42472Y-32558D01*
X42497Y-32539D01*
X42520Y-32517D01*
X42542Y-32494D01*
X42561Y-32469D01*
X42578Y-32442D01*
X42592Y-32414D01*
X42605Y-32385D01*
X42614Y-32354D01*
X42621Y-32324D01*
X42625Y-32292D01*
X42627Y-32261D01*
X42627Y-31867D02*
X42625Y-31836D01*
X42621Y-31804D01*
X42614Y-31774D01*
X42605Y-31743D01*
X42592Y-31714D01*
X42578Y-31686D01*
X42561Y-31659D01*
X42542Y-31634D01*
X42520Y-31611D01*
X42497Y-31589D01*
X42472Y-31570D01*
X42445Y-31553D01*
X42417Y-31539D01*
X42388Y-31526D01*
X42357Y-31517D01*
X42327Y-31510D01*
X42295Y-31506D01*
X42264Y-31504D01*
X42233Y-31506D01*
X42201Y-31510D01*
X42171Y-31517D01*
X42140Y-31526D01*
X42111Y-31539D01*
X42083Y-31553D01*
X42056Y-31570D01*
X42031Y-31589D01*
X42008Y-31611D01*
X41986Y-31634D01*
X41967Y-31659D01*
X41950Y-31686D01*
X41936Y-31714D01*
X41923Y-31743D01*
X41914Y-31774D01*
X41907Y-31804D01*
X41903Y-31836D01*
X41901Y-31867D01*
X42901Y-31867D02*
X42901Y-32261D01*
X43627Y-31867D02*
X43627Y-32261D01*
X42901Y-32261D02*
X42903Y-32292D01*
X42907Y-32324D01*
X42914Y-32354D01*
X42923Y-32385D01*
X42936Y-32414D01*
X42950Y-32442D01*
X42967Y-32469D01*
X42986Y-32494D01*
X43008Y-32517D01*
X43031Y-32539D01*
X43056Y-32558D01*
X43083Y-32575D01*
X43111Y-32589D01*
X43140Y-32602D01*
X43171Y-32611D01*
X43201Y-32618D01*
X43233Y-32622D01*
X43264Y-32624D01*
X43295Y-32622D01*
X43327Y-32618D01*
X43357Y-32611D01*
X43388Y-32602D01*
X43417Y-32589D01*
X43445Y-32575D01*
X43472Y-32558D01*
X43497Y-32539D01*
X43520Y-32517D01*
X43542Y-32494D01*
X43561Y-32469D01*
X43578Y-32442D01*
X43592Y-32414D01*
X43605Y-32385D01*
X43614Y-32354D01*
X43621Y-32324D01*
X43625Y-32292D01*
X43627Y-32261D01*
X43627Y-31867D02*
X43625Y-31836D01*
X43621Y-31804D01*
X43614Y-31774D01*
X43605Y-31743D01*
X43592Y-31714D01*
X43578Y-31686D01*
X43561Y-31659D01*
X43542Y-31634D01*
X43520Y-31611D01*
X43497Y-31589D01*
X43472Y-31570D01*
X43445Y-31553D01*
X43417Y-31539D01*
X43388Y-31526D01*
X43357Y-31517D01*
X43327Y-31510D01*
X43295Y-31506D01*
X43264Y-31504D01*
X43233Y-31506D01*
X43201Y-31510D01*
X43171Y-31517D01*
X43140Y-31526D01*
X43111Y-31539D01*
X43083Y-31553D01*
X43056Y-31570D01*
X43031Y-31589D01*
X43008Y-31611D01*
X42986Y-31634D01*
X42967Y-31659D01*
X42950Y-31686D01*
X42936Y-31714D01*
X42923Y-31743D01*
X42914Y-31774D01*
X42907Y-31804D01*
X42903Y-31836D01*
X42901Y-31867D01*
X43901Y-31867D02*
X43901Y-32261D01*
X44627Y-31867D02*
X44627Y-32261D01*
X43901Y-32261D02*
X43903Y-32292D01*
X43907Y-32324D01*
X43914Y-32354D01*
X43923Y-32385D01*
X43936Y-32414D01*
X43950Y-32442D01*
X43967Y-32469D01*
X43986Y-32494D01*
X44008Y-32517D01*
X44031Y-32539D01*
X44056Y-32558D01*
X44083Y-32575D01*
X44111Y-32589D01*
X44140Y-32602D01*
X44171Y-32611D01*
X44201Y-32618D01*
X44233Y-32622D01*
X44264Y-32624D01*
X44295Y-32622D01*
X44327Y-32618D01*
X44357Y-32611D01*
X44388Y-32602D01*
X44417Y-32589D01*
X44445Y-32575D01*
X44472Y-32558D01*
X44497Y-32539D01*
X44520Y-32517D01*
X44542Y-32494D01*
X44561Y-32469D01*
X44578Y-32442D01*
X44592Y-32414D01*
X44605Y-32385D01*
X44614Y-32354D01*
X44621Y-32324D01*
X44625Y-32292D01*
X44627Y-32261D01*
X44627Y-31867D02*
X44625Y-31836D01*
X44621Y-31804D01*
X44614Y-31774D01*
X44605Y-31743D01*
X44592Y-31714D01*
X44578Y-31686D01*
X44561Y-31659D01*
X44542Y-31634D01*
X44520Y-31611D01*
X44497Y-31589D01*
X44472Y-31570D01*
X44445Y-31553D01*
X44417Y-31539D01*
X44388Y-31526D01*
X44357Y-31517D01*
X44327Y-31510D01*
X44295Y-31506D01*
X44264Y-31504D01*
X44233Y-31506D01*
X44201Y-31510D01*
X44171Y-31517D01*
X44140Y-31526D01*
X44111Y-31539D01*
X44083Y-31553D01*
X44056Y-31570D01*
X44031Y-31589D01*
X44008Y-31611D01*
X43986Y-31634D01*
X43967Y-31659D01*
X43950Y-31686D01*
X43936Y-31714D01*
X43923Y-31743D01*
X43914Y-31774D01*
X43907Y-31804D01*
X43903Y-31836D01*
X43901Y-31867D01*
X44901Y-31867D02*
X44901Y-32261D01*
X45627Y-31867D02*
X45627Y-32261D01*
X44901Y-32261D02*
X44903Y-32292D01*
X44907Y-32324D01*
X44914Y-32354D01*
X44923Y-32385D01*
X44936Y-32414D01*
X44950Y-32442D01*
X44967Y-32469D01*
X44986Y-32494D01*
X45008Y-32517D01*
X45031Y-32539D01*
X45056Y-32558D01*
X45083Y-32575D01*
X45111Y-32589D01*
X45140Y-32602D01*
X45171Y-32611D01*
X45201Y-32618D01*
X45233Y-32622D01*
X45264Y-32624D01*
X45295Y-32622D01*
X45327Y-32618D01*
X45357Y-32611D01*
X45388Y-32602D01*
X45417Y-32589D01*
X45445Y-32575D01*
X45472Y-32558D01*
X45497Y-32539D01*
X45520Y-32517D01*
X45542Y-32494D01*
X45561Y-32469D01*
X45578Y-32442D01*
X45592Y-32414D01*
X45605Y-32385D01*
X45614Y-32354D01*
X45621Y-32324D01*
X45625Y-32292D01*
X45627Y-32261D01*
X45627Y-31867D02*
X45625Y-31836D01*
X45621Y-31804D01*
X45614Y-31774D01*
X45605Y-31743D01*
X45592Y-31714D01*
X45578Y-31686D01*
X45561Y-31659D01*
X45542Y-31634D01*
X45520Y-31611D01*
X45497Y-31589D01*
X45472Y-31570D01*
X45445Y-31553D01*
X45417Y-31539D01*
X45388Y-31526D01*
X45357Y-31517D01*
X45327Y-31510D01*
X45295Y-31506D01*
X45264Y-31504D01*
X45233Y-31506D01*
X45201Y-31510D01*
X45171Y-31517D01*
X45140Y-31526D01*
X45111Y-31539D01*
X45083Y-31553D01*
X45056Y-31570D01*
X45031Y-31589D01*
X45008Y-31611D01*
X44986Y-31634D01*
X44967Y-31659D01*
X44950Y-31686D01*
X44936Y-31714D01*
X44923Y-31743D01*
X44914Y-31774D01*
X44907Y-31804D01*
X44903Y-31836D01*
X44901Y-31867D01*
X45940Y-31828D02*
X45940Y-32300D01*
X46588Y-31828D02*
X46588Y-32300D01*
X45940Y-32300D02*
X45942Y-32328D01*
X45945Y-32356D01*
X45952Y-32383D01*
X45960Y-32410D01*
X45971Y-32436D01*
X45984Y-32461D01*
X45999Y-32485D01*
X46016Y-32508D01*
X46035Y-32529D01*
X46056Y-32548D01*
X46079Y-32565D01*
X46102Y-32580D01*
X46128Y-32593D01*
X46154Y-32604D01*
X46181Y-32612D01*
X46208Y-32619D01*
X46236Y-32622D01*
X46264Y-32624D01*
X46292Y-32622D01*
X46320Y-32619D01*
X46347Y-32612D01*
X46374Y-32604D01*
X46400Y-32593D01*
X46426Y-32580D01*
X46449Y-32565D01*
X46472Y-32548D01*
X46493Y-32529D01*
X46512Y-32508D01*
X46529Y-32485D01*
X46544Y-32462D01*
X46557Y-32436D01*
X46568Y-32410D01*
X46576Y-32383D01*
X46583Y-32356D01*
X46586Y-32328D01*
X46588Y-32300D01*
X46588Y-31828D02*
X46586Y-31800D01*
X46583Y-31772D01*
X46576Y-31745D01*
X46568Y-31718D01*
X46557Y-31692D01*
X46544Y-31667D01*
X46529Y-31643D01*
X46512Y-31620D01*
X46493Y-31599D01*
X46472Y-31580D01*
X46449Y-31563D01*
X46426Y-31548D01*
X46400Y-31535D01*
X46374Y-31524D01*
X46347Y-31516D01*
X46320Y-31509D01*
X46292Y-31506D01*
X46264Y-31504D01*
X46236Y-31506D01*
X46208Y-31509D01*
X46181Y-31516D01*
X46154Y-31524D01*
X46128Y-31535D01*
X46103Y-31548D01*
X46079Y-31563D01*
X46056Y-31580D01*
X46035Y-31599D01*
X46016Y-31620D01*
X45999Y-31643D01*
X45984Y-31667D01*
X45971Y-31692D01*
X45960Y-31718D01*
X45952Y-31745D01*
X45945Y-31772D01*
X45942Y-31800D01*
X45940Y-31828D01*
X46940Y-31828D02*
X46940Y-32300D01*
X47588Y-31828D02*
X47588Y-32300D01*
X46940Y-32300D02*
X46942Y-32328D01*
X46945Y-32356D01*
X46952Y-32383D01*
X46960Y-32410D01*
X46971Y-32436D01*
X46984Y-32461D01*
X46999Y-32485D01*
X47016Y-32508D01*
X47035Y-32529D01*
X47056Y-32548D01*
X47079Y-32565D01*
X47102Y-32580D01*
X47128Y-32593D01*
X47154Y-32604D01*
X47181Y-32612D01*
X47208Y-32619D01*
X47236Y-32622D01*
X47264Y-32624D01*
X47292Y-32622D01*
X47320Y-32619D01*
X47347Y-32612D01*
X47374Y-32604D01*
X47400Y-32593D01*
X47426Y-32580D01*
X47449Y-32565D01*
X47472Y-32548D01*
X47493Y-32529D01*
X47512Y-32508D01*
X47529Y-32485D01*
X47544Y-32462D01*
X47557Y-32436D01*
X47568Y-32410D01*
X47576Y-32383D01*
X47583Y-32356D01*
X47586Y-32328D01*
X47588Y-32300D01*
X47588Y-31828D02*
X47586Y-31800D01*
X47583Y-31772D01*
X47576Y-31745D01*
X47568Y-31718D01*
X47557Y-31692D01*
X47544Y-31667D01*
X47529Y-31643D01*
X47512Y-31620D01*
X47493Y-31599D01*
X47472Y-31580D01*
X47449Y-31563D01*
X47426Y-31548D01*
X47400Y-31535D01*
X47374Y-31524D01*
X47347Y-31516D01*
X47320Y-31509D01*
X47292Y-31506D01*
X47264Y-31504D01*
X47236Y-31506D01*
X47208Y-31509D01*
X47181Y-31516D01*
X47154Y-31524D01*
X47128Y-31535D01*
X47103Y-31548D01*
X47079Y-31563D01*
X47056Y-31580D01*
X47035Y-31599D01*
X47016Y-31620D01*
X46999Y-31643D01*
X46984Y-31667D01*
X46971Y-31692D01*
X46960Y-31718D01*
X46952Y-31745D01*
X46945Y-31772D01*
X46942Y-31800D01*
X46940Y-31828D01*
X36808Y-34021D02*
X36808Y-34499D01*
X37456Y-34021D02*
X37456Y-34499D01*
X36808Y-34499D02*
X36810Y-34527D01*
X36813Y-34555D01*
X36820Y-34582D01*
X36828Y-34609D01*
X36839Y-34635D01*
X36852Y-34660D01*
X36867Y-34684D01*
X36884Y-34707D01*
X36903Y-34728D01*
X36924Y-34747D01*
X36947Y-34764D01*
X36970Y-34779D01*
X36996Y-34792D01*
X37022Y-34803D01*
X37049Y-34811D01*
X37076Y-34818D01*
X37104Y-34821D01*
X37132Y-34823D01*
X37160Y-34821D01*
X37188Y-34818D01*
X37215Y-34811D01*
X37242Y-34803D01*
X37268Y-34792D01*
X37294Y-34779D01*
X37317Y-34764D01*
X37340Y-34747D01*
X37361Y-34728D01*
X37380Y-34707D01*
X37397Y-34684D01*
X37412Y-34661D01*
X37425Y-34635D01*
X37436Y-34609D01*
X37444Y-34582D01*
X37451Y-34555D01*
X37454Y-34527D01*
X37456Y-34499D01*
X37456Y-34021D02*
X37454Y-33993D01*
X37451Y-33965D01*
X37444Y-33938D01*
X37436Y-33911D01*
X37425Y-33885D01*
X37412Y-33860D01*
X37397Y-33836D01*
X37380Y-33813D01*
X37361Y-33792D01*
X37340Y-33773D01*
X37317Y-33756D01*
X37294Y-33741D01*
X37268Y-33728D01*
X37242Y-33717D01*
X37215Y-33709D01*
X37188Y-33702D01*
X37160Y-33699D01*
X37132Y-33697D01*
X37104Y-33699D01*
X37076Y-33702D01*
X37049Y-33709D01*
X37022Y-33717D01*
X36996Y-33728D01*
X36971Y-33741D01*
X36947Y-33756D01*
X36924Y-33773D01*
X36903Y-33792D01*
X36884Y-33813D01*
X36867Y-33836D01*
X36852Y-33860D01*
X36839Y-33885D01*
X36828Y-33911D01*
X36820Y-33938D01*
X36813Y-33965D01*
X36810Y-33993D01*
X36808Y-34021D01*
X37808Y-34021D02*
X37808Y-34499D01*
X38456Y-34021D02*
X38456Y-34499D01*
X37808Y-34499D02*
X37810Y-34527D01*
X37813Y-34555D01*
X37820Y-34582D01*
X37828Y-34609D01*
X37839Y-34635D01*
X37852Y-34660D01*
X37867Y-34684D01*
X37884Y-34707D01*
X37903Y-34728D01*
X37924Y-34747D01*
X37947Y-34764D01*
X37970Y-34779D01*
X37996Y-34792D01*
X38022Y-34803D01*
X38049Y-34811D01*
X38076Y-34818D01*
X38104Y-34821D01*
X38132Y-34823D01*
X38160Y-34821D01*
X38188Y-34818D01*
X38215Y-34811D01*
X38242Y-34803D01*
X38268Y-34792D01*
X38294Y-34779D01*
X38317Y-34764D01*
X38340Y-34747D01*
X38361Y-34728D01*
X38380Y-34707D01*
X38397Y-34684D01*
X38412Y-34661D01*
X38425Y-34635D01*
X38436Y-34609D01*
X38444Y-34582D01*
X38451Y-34555D01*
X38454Y-34527D01*
X38456Y-34499D01*
X38456Y-34021D02*
X38454Y-33993D01*
X38451Y-33965D01*
X38444Y-33938D01*
X38436Y-33911D01*
X38425Y-33885D01*
X38412Y-33860D01*
X38397Y-33836D01*
X38380Y-33813D01*
X38361Y-33792D01*
X38340Y-33773D01*
X38317Y-33756D01*
X38294Y-33741D01*
X38268Y-33728D01*
X38242Y-33717D01*
X38215Y-33709D01*
X38188Y-33702D01*
X38160Y-33699D01*
X38132Y-33697D01*
X38104Y-33699D01*
X38076Y-33702D01*
X38049Y-33709D01*
X38022Y-33717D01*
X37996Y-33728D01*
X37971Y-33741D01*
X37947Y-33756D01*
X37924Y-33773D01*
X37903Y-33792D01*
X37884Y-33813D01*
X37867Y-33836D01*
X37852Y-33860D01*
X37839Y-33885D01*
X37828Y-33911D01*
X37820Y-33938D01*
X37813Y-33965D01*
X37810Y-33993D01*
X37808Y-34021D01*
X38808Y-34021D02*
X38808Y-34499D01*
X39456Y-34021D02*
X39456Y-34499D01*
X38808Y-34499D02*
X38810Y-34527D01*
X38813Y-34555D01*
X38820Y-34582D01*
X38828Y-34609D01*
X38839Y-34635D01*
X38852Y-34660D01*
X38867Y-34684D01*
X38884Y-34707D01*
X38903Y-34728D01*
X38924Y-34747D01*
X38947Y-34764D01*
X38970Y-34779D01*
X38996Y-34792D01*
X39022Y-34803D01*
X39049Y-34811D01*
X39076Y-34818D01*
X39104Y-34821D01*
X39132Y-34823D01*
X39160Y-34821D01*
X39188Y-34818D01*
X39215Y-34811D01*
X39242Y-34803D01*
X39268Y-34792D01*
X39294Y-34779D01*
X39317Y-34764D01*
X39340Y-34747D01*
X39361Y-34728D01*
X39380Y-34707D01*
X39397Y-34684D01*
X39412Y-34661D01*
X39425Y-34635D01*
X39436Y-34609D01*
X39444Y-34582D01*
X39451Y-34555D01*
X39454Y-34527D01*
X39456Y-34499D01*
X39456Y-34021D02*
X39454Y-33993D01*
X39451Y-33965D01*
X39444Y-33938D01*
X39436Y-33911D01*
X39425Y-33885D01*
X39412Y-33860D01*
X39397Y-33836D01*
X39380Y-33813D01*
X39361Y-33792D01*
X39340Y-33773D01*
X39317Y-33756D01*
X39294Y-33741D01*
X39268Y-33728D01*
X39242Y-33717D01*
X39215Y-33709D01*
X39188Y-33702D01*
X39160Y-33699D01*
X39132Y-33697D01*
X39104Y-33699D01*
X39076Y-33702D01*
X39049Y-33709D01*
X39022Y-33717D01*
X38996Y-33728D01*
X38971Y-33741D01*
X38947Y-33756D01*
X38924Y-33773D01*
X38903Y-33792D01*
X38884Y-33813D01*
X38867Y-33836D01*
X38852Y-33860D01*
X38839Y-33885D01*
X38828Y-33911D01*
X38820Y-33938D01*
X38813Y-33965D01*
X38810Y-33993D01*
X38808Y-34021D01*
X39808Y-34021D02*
X39808Y-34499D01*
X40456Y-34021D02*
X40456Y-34499D01*
X39808Y-34499D02*
X39810Y-34527D01*
X39813Y-34555D01*
X39820Y-34582D01*
X39828Y-34609D01*
X39839Y-34635D01*
X39852Y-34660D01*
X39867Y-34684D01*
X39884Y-34707D01*
X39903Y-34728D01*
X39924Y-34747D01*
X39947Y-34764D01*
X39970Y-34779D01*
X39996Y-34792D01*
X40022Y-34803D01*
X40049Y-34811D01*
X40076Y-34818D01*
X40104Y-34821D01*
X40132Y-34823D01*
X40160Y-34821D01*
X40188Y-34818D01*
X40215Y-34811D01*
X40242Y-34803D01*
X40268Y-34792D01*
X40294Y-34779D01*
X40317Y-34764D01*
X40340Y-34747D01*
X40361Y-34728D01*
X40380Y-34707D01*
X40397Y-34684D01*
X40412Y-34661D01*
X40425Y-34635D01*
X40436Y-34609D01*
X40444Y-34582D01*
X40451Y-34555D01*
X40454Y-34527D01*
X40456Y-34499D01*
X40456Y-34021D02*
X40454Y-33993D01*
X40451Y-33965D01*
X40444Y-33938D01*
X40436Y-33911D01*
X40425Y-33885D01*
X40412Y-33860D01*
X40397Y-33836D01*
X40380Y-33813D01*
X40361Y-33792D01*
X40340Y-33773D01*
X40317Y-33756D01*
X40294Y-33741D01*
X40268Y-33728D01*
X40242Y-33717D01*
X40215Y-33709D01*
X40188Y-33702D01*
X40160Y-33699D01*
X40132Y-33697D01*
X40104Y-33699D01*
X40076Y-33702D01*
X40049Y-33709D01*
X40022Y-33717D01*
X39996Y-33728D01*
X39971Y-33741D01*
X39947Y-33756D01*
X39924Y-33773D01*
X39903Y-33792D01*
X39884Y-33813D01*
X39867Y-33836D01*
X39852Y-33860D01*
X39839Y-33885D01*
X39828Y-33911D01*
X39820Y-33938D01*
X39813Y-33965D01*
X39810Y-33993D01*
X39808Y-34021D01*
X41938Y-34021D02*
X41938Y-34499D01*
X42586Y-34021D02*
X42586Y-34499D01*
X41938Y-34499D02*
X41940Y-34527D01*
X41943Y-34555D01*
X41950Y-34582D01*
X41958Y-34609D01*
X41969Y-34635D01*
X41982Y-34660D01*
X41997Y-34684D01*
X42014Y-34707D01*
X42033Y-34728D01*
X42054Y-34747D01*
X42077Y-34764D01*
X42100Y-34779D01*
X42126Y-34792D01*
X42152Y-34803D01*
X42179Y-34811D01*
X42206Y-34818D01*
X42234Y-34821D01*
X42262Y-34823D01*
X42290Y-34821D01*
X42318Y-34818D01*
X42345Y-34811D01*
X42372Y-34803D01*
X42398Y-34792D01*
X42424Y-34779D01*
X42447Y-34764D01*
X42470Y-34747D01*
X42491Y-34728D01*
X42510Y-34707D01*
X42527Y-34684D01*
X42542Y-34661D01*
X42555Y-34635D01*
X42566Y-34609D01*
X42574Y-34582D01*
X42581Y-34555D01*
X42584Y-34527D01*
X42586Y-34499D01*
X42586Y-34021D02*
X42584Y-33993D01*
X42581Y-33965D01*
X42574Y-33938D01*
X42566Y-33911D01*
X42555Y-33885D01*
X42542Y-33860D01*
X42527Y-33836D01*
X42510Y-33813D01*
X42491Y-33792D01*
X42470Y-33773D01*
X42447Y-33756D01*
X42424Y-33741D01*
X42398Y-33728D01*
X42372Y-33717D01*
X42345Y-33709D01*
X42318Y-33702D01*
X42290Y-33699D01*
X42262Y-33697D01*
X42234Y-33699D01*
X42206Y-33702D01*
X42179Y-33709D01*
X42152Y-33717D01*
X42126Y-33728D01*
X42101Y-33741D01*
X42077Y-33756D01*
X42054Y-33773D01*
X42033Y-33792D01*
X42014Y-33813D01*
X41997Y-33836D01*
X41982Y-33860D01*
X41969Y-33885D01*
X41958Y-33911D01*
X41950Y-33938D01*
X41943Y-33965D01*
X41940Y-33993D01*
X41938Y-34021D01*
X42938Y-34021D02*
X42938Y-34499D01*
X43586Y-34021D02*
X43586Y-34499D01*
X42938Y-34499D02*
X42940Y-34527D01*
X42943Y-34555D01*
X42950Y-34582D01*
X42958Y-34609D01*
X42969Y-34635D01*
X42982Y-34660D01*
X42997Y-34684D01*
X43014Y-34707D01*
X43033Y-34728D01*
X43054Y-34747D01*
X43077Y-34764D01*
X43100Y-34779D01*
X43126Y-34792D01*
X43152Y-34803D01*
X43179Y-34811D01*
X43206Y-34818D01*
X43234Y-34821D01*
X43262Y-34823D01*
X43290Y-34821D01*
X43318Y-34818D01*
X43345Y-34811D01*
X43372Y-34803D01*
X43398Y-34792D01*
X43424Y-34779D01*
X43447Y-34764D01*
X43470Y-34747D01*
X43491Y-34728D01*
X43510Y-34707D01*
X43527Y-34684D01*
X43542Y-34661D01*
X43555Y-34635D01*
X43566Y-34609D01*
X43574Y-34582D01*
X43581Y-34555D01*
X43584Y-34527D01*
X43586Y-34499D01*
X43586Y-34021D02*
X43584Y-33993D01*
X43581Y-33965D01*
X43574Y-33938D01*
X43566Y-33911D01*
X43555Y-33885D01*
X43542Y-33860D01*
X43527Y-33836D01*
X43510Y-33813D01*
X43491Y-33792D01*
X43470Y-33773D01*
X43447Y-33756D01*
X43424Y-33741D01*
X43398Y-33728D01*
X43372Y-33717D01*
X43345Y-33709D01*
X43318Y-33702D01*
X43290Y-33699D01*
X43262Y-33697D01*
X43234Y-33699D01*
X43206Y-33702D01*
X43179Y-33709D01*
X43152Y-33717D01*
X43126Y-33728D01*
X43101Y-33741D01*
X43077Y-33756D01*
X43054Y-33773D01*
X43033Y-33792D01*
X43014Y-33813D01*
X42997Y-33836D01*
X42982Y-33860D01*
X42969Y-33885D01*
X42958Y-33911D01*
X42950Y-33938D01*
X42943Y-33965D01*
X42940Y-33993D01*
X42938Y-34021D01*
X43938Y-34021D02*
X43938Y-34499D01*
X44586Y-34021D02*
X44586Y-34499D01*
X43938Y-34499D02*
X43940Y-34527D01*
X43943Y-34555D01*
X43950Y-34582D01*
X43958Y-34609D01*
X43969Y-34635D01*
X43982Y-34660D01*
X43997Y-34684D01*
X44014Y-34707D01*
X44033Y-34728D01*
X44054Y-34747D01*
X44077Y-34764D01*
X44100Y-34779D01*
X44126Y-34792D01*
X44152Y-34803D01*
X44179Y-34811D01*
X44206Y-34818D01*
X44234Y-34821D01*
X44262Y-34823D01*
X44290Y-34821D01*
X44318Y-34818D01*
X44345Y-34811D01*
X44372Y-34803D01*
X44398Y-34792D01*
X44424Y-34779D01*
X44447Y-34764D01*
X44470Y-34747D01*
X44491Y-34728D01*
X44510Y-34707D01*
X44527Y-34684D01*
X44542Y-34661D01*
X44555Y-34635D01*
X44566Y-34609D01*
X44574Y-34582D01*
X44581Y-34555D01*
X44584Y-34527D01*
X44586Y-34499D01*
X44586Y-34021D02*
X44584Y-33993D01*
X44581Y-33965D01*
X44574Y-33938D01*
X44566Y-33911D01*
X44555Y-33885D01*
X44542Y-33860D01*
X44527Y-33836D01*
X44510Y-33813D01*
X44491Y-33792D01*
X44470Y-33773D01*
X44447Y-33756D01*
X44424Y-33741D01*
X44398Y-33728D01*
X44372Y-33717D01*
X44345Y-33709D01*
X44318Y-33702D01*
X44290Y-33699D01*
X44262Y-33697D01*
X44234Y-33699D01*
X44206Y-33702D01*
X44179Y-33709D01*
X44152Y-33717D01*
X44126Y-33728D01*
X44101Y-33741D01*
X44077Y-33756D01*
X44054Y-33773D01*
X44033Y-33792D01*
X44014Y-33813D01*
X43997Y-33836D01*
X43982Y-33860D01*
X43969Y-33885D01*
X43958Y-33911D01*
X43950Y-33938D01*
X43943Y-33965D01*
X43940Y-33993D01*
X43938Y-34021D01*
X44938Y-34021D02*
X44938Y-34499D01*
X45586Y-34021D02*
X45586Y-34499D01*
X44938Y-34499D02*
X44940Y-34527D01*
X44943Y-34555D01*
X44950Y-34582D01*
X44958Y-34609D01*
X44969Y-34635D01*
X44982Y-34660D01*
X44997Y-34684D01*
X45014Y-34707D01*
X45033Y-34728D01*
X45054Y-34747D01*
X45077Y-34764D01*
X45100Y-34779D01*
X45126Y-34792D01*
X45152Y-34803D01*
X45179Y-34811D01*
X45206Y-34818D01*
X45234Y-34821D01*
X45262Y-34823D01*
X45290Y-34821D01*
X45318Y-34818D01*
X45345Y-34811D01*
X45372Y-34803D01*
X45398Y-34792D01*
X45424Y-34779D01*
X45447Y-34764D01*
X45470Y-34747D01*
X45491Y-34728D01*
X45510Y-34707D01*
X45527Y-34684D01*
X45542Y-34661D01*
X45555Y-34635D01*
X45566Y-34609D01*
X45574Y-34582D01*
X45581Y-34555D01*
X45584Y-34527D01*
X45586Y-34499D01*
X45586Y-34021D02*
X45584Y-33993D01*
X45581Y-33965D01*
X45574Y-33938D01*
X45566Y-33911D01*
X45555Y-33885D01*
X45542Y-33860D01*
X45527Y-33836D01*
X45510Y-33813D01*
X45491Y-33792D01*
X45470Y-33773D01*
X45447Y-33756D01*
X45424Y-33741D01*
X45398Y-33728D01*
X45372Y-33717D01*
X45345Y-33709D01*
X45318Y-33702D01*
X45290Y-33699D01*
X45262Y-33697D01*
X45234Y-33699D01*
X45206Y-33702D01*
X45179Y-33709D01*
X45152Y-33717D01*
X45126Y-33728D01*
X45101Y-33741D01*
X45077Y-33756D01*
X45054Y-33773D01*
X45033Y-33792D01*
X45014Y-33813D01*
X44997Y-33836D01*
X44982Y-33860D01*
X44969Y-33885D01*
X44958Y-33911D01*
X44950Y-33938D01*
X44943Y-33965D01*
X44940Y-33993D01*
X44938Y-34021D01*
X47030Y-34010D02*
X47030Y-34488D01*
X47678Y-34010D02*
X47678Y-34488D01*
X47030Y-34488D02*
X47032Y-34516D01*
X47035Y-34544D01*
X47042Y-34571D01*
X47050Y-34598D01*
X47061Y-34624D01*
X47074Y-34649D01*
X47089Y-34673D01*
X47106Y-34696D01*
X47125Y-34717D01*
X47146Y-34736D01*
X47169Y-34753D01*
X47192Y-34768D01*
X47218Y-34781D01*
X47244Y-34792D01*
X47271Y-34800D01*
X47298Y-34807D01*
X47326Y-34810D01*
X47354Y-34812D01*
X47382Y-34810D01*
X47410Y-34807D01*
X47437Y-34800D01*
X47464Y-34792D01*
X47490Y-34781D01*
X47516Y-34768D01*
X47539Y-34753D01*
X47562Y-34736D01*
X47583Y-34717D01*
X47602Y-34696D01*
X47619Y-34673D01*
X47634Y-34650D01*
X47647Y-34624D01*
X47658Y-34598D01*
X47666Y-34571D01*
X47673Y-34544D01*
X47676Y-34516D01*
X47678Y-34488D01*
X47678Y-34010D02*
X47676Y-33982D01*
X47673Y-33954D01*
X47666Y-33927D01*
X47658Y-33900D01*
X47647Y-33874D01*
X47634Y-33849D01*
X47619Y-33825D01*
X47602Y-33802D01*
X47583Y-33781D01*
X47562Y-33762D01*
X47539Y-33745D01*
X47516Y-33730D01*
X47490Y-33717D01*
X47464Y-33706D01*
X47437Y-33698D01*
X47410Y-33691D01*
X47382Y-33688D01*
X47354Y-33686D01*
X47326Y-33688D01*
X47298Y-33691D01*
X47271Y-33698D01*
X47244Y-33706D01*
X47218Y-33717D01*
X47193Y-33730D01*
X47169Y-33745D01*
X47146Y-33762D01*
X47125Y-33781D01*
X47106Y-33802D01*
X47089Y-33825D01*
X47074Y-33849D01*
X47061Y-33874D01*
X47050Y-33900D01*
X47042Y-33927D01*
X47035Y-33954D01*
X47032Y-33982D01*
X47030Y-34010D01*
X48030Y-34010D02*
X48030Y-34488D01*
X48678Y-34010D02*
X48678Y-34488D01*
X48030Y-34488D02*
X48032Y-34516D01*
X48035Y-34544D01*
X48042Y-34571D01*
X48050Y-34598D01*
X48061Y-34624D01*
X48074Y-34649D01*
X48089Y-34673D01*
X48106Y-34696D01*
X48125Y-34717D01*
X48146Y-34736D01*
X48169Y-34753D01*
X48192Y-34768D01*
X48218Y-34781D01*
X48244Y-34792D01*
X48271Y-34800D01*
X48298Y-34807D01*
X48326Y-34810D01*
X48354Y-34812D01*
X48382Y-34810D01*
X48410Y-34807D01*
X48437Y-34800D01*
X48464Y-34792D01*
X48490Y-34781D01*
X48516Y-34768D01*
X48539Y-34753D01*
X48562Y-34736D01*
X48583Y-34717D01*
X48602Y-34696D01*
X48619Y-34673D01*
X48634Y-34650D01*
X48647Y-34624D01*
X48658Y-34598D01*
X48666Y-34571D01*
X48673Y-34544D01*
X48676Y-34516D01*
X48678Y-34488D01*
X48678Y-34010D02*
X48676Y-33982D01*
X48673Y-33954D01*
X48666Y-33927D01*
X48658Y-33900D01*
X48647Y-33874D01*
X48634Y-33849D01*
X48619Y-33825D01*
X48602Y-33802D01*
X48583Y-33781D01*
X48562Y-33762D01*
X48539Y-33745D01*
X48516Y-33730D01*
X48490Y-33717D01*
X48464Y-33706D01*
X48437Y-33698D01*
X48410Y-33691D01*
X48382Y-33688D01*
X48354Y-33686D01*
X48326Y-33688D01*
X48298Y-33691D01*
X48271Y-33698D01*
X48244Y-33706D01*
X48218Y-33717D01*
X48193Y-33730D01*
X48169Y-33745D01*
X48146Y-33762D01*
X48125Y-33781D01*
X48106Y-33802D01*
X48089Y-33825D01*
X48074Y-33849D01*
X48061Y-33874D01*
X48050Y-33900D01*
X48042Y-33927D01*
X48035Y-33954D01*
X48032Y-33982D01*
X48030Y-34010D01*
G54D13*
X48695Y-35712D02*
X48695Y-35312D01*
X48695Y-35502D02*
X48924Y-35502D01*
X48924Y-35712D02*
X48924Y-35312D01*
X49324Y-35712D02*
X49095Y-35712D01*
X49209Y-35712D02*
X49209Y-35312D01*
X49171Y-35369D01*
X49133Y-35407D01*
X49095Y-35426D01*
X36695Y-29462D02*
X36695Y-29062D01*
X36695Y-29252D02*
X36924Y-29252D01*
X36924Y-29462D02*
X36924Y-29062D01*
X37095Y-29100D02*
X37114Y-29081D01*
X37152Y-29062D01*
X37248Y-29062D01*
X37286Y-29081D01*
X37305Y-29100D01*
X37324Y-29138D01*
X37324Y-29176D01*
X37305Y-29233D01*
X37076Y-29462D01*
X37324Y-29462D01*
X36695Y-35712D02*
X36695Y-35312D01*
X36695Y-35502D02*
X36924Y-35502D01*
X36924Y-35712D02*
X36924Y-35312D01*
X37076Y-35312D02*
X37324Y-35312D01*
X37190Y-35464D01*
X37248Y-35464D01*
X37286Y-35483D01*
X37305Y-35502D01*
X37324Y-35540D01*
X37324Y-35636D01*
X37305Y-35674D01*
X37286Y-35693D01*
X37248Y-35712D01*
X37133Y-35712D01*
X37095Y-35693D01*
X37076Y-35674D01*
X48695Y-29212D02*
X48695Y-28812D01*
X48695Y-29002D02*
X48924Y-29002D01*
X48924Y-29212D02*
X48924Y-28812D01*
X49286Y-28945D02*
X49286Y-29212D01*
X49190Y-28793D02*
X49095Y-29079D01*
X49343Y-29079D01*
G54D14*
X39948Y-31339D02*
X39948Y-30658D01*
X40111Y-30658D01*
X40152Y-30691D01*
X40172Y-30723D01*
X40192Y-30788D01*
X40192Y-30885D01*
X40172Y-30950D01*
X40152Y-30982D01*
X40111Y-31015D01*
X39948Y-31015D01*
X40356Y-30723D02*
X40376Y-30691D01*
X40417Y-30658D01*
X40519Y-30658D01*
X40559Y-30691D01*
X40580Y-30723D01*
X40600Y-30788D01*
X40600Y-30853D01*
X40580Y-30950D01*
X40335Y-31339D01*
X40600Y-31339D01*
G54D13*
X44607Y-31307D02*
X44607Y-30707D01*
X44797Y-30907D02*
X44797Y-31307D01*
X44797Y-30964D02*
X44816Y-30935D01*
X44854Y-30907D01*
X44912Y-30907D01*
X44950Y-30935D01*
X44969Y-30993D01*
X44969Y-31307D01*
X45159Y-30907D02*
X45159Y-31507D01*
X45159Y-30935D02*
X45197Y-30907D01*
X45274Y-30907D01*
X45312Y-30935D01*
X45331Y-30964D01*
X45350Y-31021D01*
X45350Y-31193D01*
X45331Y-31250D01*
X45312Y-31278D01*
X45274Y-31307D01*
X45197Y-31307D01*
X45159Y-31278D01*
X45693Y-30907D02*
X45693Y-31307D01*
X45521Y-30907D02*
X45521Y-31221D01*
X45540Y-31278D01*
X45578Y-31307D01*
X45636Y-31307D01*
X45674Y-31278D01*
X45693Y-31250D01*
X45826Y-30907D02*
X45978Y-30907D01*
X45883Y-30707D02*
X45883Y-31221D01*
X45902Y-31278D01*
X45940Y-31307D01*
X45978Y-31307D01*
G54D15*
X38337Y-32797D02*
X38337Y-32397D01*
X38490Y-32397D01*
X38528Y-32416D01*
X38547Y-32435D01*
X38566Y-32473D01*
X38566Y-32530D01*
X38547Y-32568D01*
X38528Y-32587D01*
X38490Y-32606D01*
X38337Y-32606D01*
X38699Y-32397D02*
X38947Y-32397D01*
X38813Y-32549D01*
X38871Y-32549D01*
X38909Y-32568D01*
X38928Y-32587D01*
X38947Y-32625D01*
X38947Y-32721D01*
X38928Y-32759D01*
X38909Y-32778D01*
X38871Y-32797D01*
X38756Y-32797D01*
X38718Y-32778D01*
X38699Y-32759D01*
X37898Y-35922D02*
X37898Y-35522D01*
X38032Y-35808D01*
X38165Y-35522D01*
X38165Y-35922D01*
X38412Y-35922D02*
X38374Y-35903D01*
X38355Y-35884D01*
X38336Y-35846D01*
X38336Y-35731D01*
X38355Y-35693D01*
X38374Y-35674D01*
X38412Y-35655D01*
X38470Y-35655D01*
X38508Y-35674D01*
X38527Y-35693D01*
X38546Y-35731D01*
X38546Y-35846D01*
X38527Y-35884D01*
X38508Y-35903D01*
X38470Y-35922D01*
X38412Y-35922D01*
X38660Y-35655D02*
X38812Y-35655D01*
X38717Y-35522D02*
X38717Y-35865D01*
X38736Y-35903D01*
X38774Y-35922D01*
X38812Y-35922D01*
X39003Y-35922D02*
X38965Y-35903D01*
X38946Y-35884D01*
X38927Y-35846D01*
X38927Y-35731D01*
X38946Y-35693D01*
X38965Y-35674D01*
X39003Y-35655D01*
X39061Y-35655D01*
X39099Y-35674D01*
X39118Y-35693D01*
X39137Y-35731D01*
X39137Y-35846D01*
X39118Y-35884D01*
X39099Y-35903D01*
X39061Y-35922D01*
X39003Y-35922D01*
X39308Y-35922D02*
X39308Y-35655D01*
X39308Y-35731D02*
X39327Y-35693D01*
X39346Y-35674D01*
X39384Y-35655D01*
X39423Y-35655D01*
X43467Y-32797D02*
X43467Y-32397D01*
X43620Y-32397D01*
X43658Y-32416D01*
X43677Y-32435D01*
X43696Y-32473D01*
X43696Y-32530D01*
X43677Y-32568D01*
X43658Y-32587D01*
X43620Y-32606D01*
X43467Y-32606D01*
X44039Y-32530D02*
X44039Y-32797D01*
X43943Y-32378D02*
X43848Y-32664D01*
X44096Y-32664D01*
X42333Y-35712D02*
X42199Y-35712D01*
X42199Y-35922D02*
X42199Y-35522D01*
X42390Y-35522D01*
X42714Y-35922D02*
X42714Y-35712D01*
X42695Y-35674D01*
X42657Y-35655D01*
X42580Y-35655D01*
X42542Y-35674D01*
X42714Y-35903D02*
X42676Y-35922D01*
X42580Y-35922D01*
X42542Y-35903D01*
X42523Y-35865D01*
X42523Y-35827D01*
X42542Y-35789D01*
X42580Y-35770D01*
X42676Y-35770D01*
X42714Y-35750D01*
X42904Y-35655D02*
X42904Y-35922D01*
X42904Y-35693D02*
X42923Y-35674D01*
X42961Y-35655D01*
X43019Y-35655D01*
X43057Y-35674D01*
X43076Y-35712D01*
X43076Y-35922D01*
X43171Y-35960D02*
X43476Y-35960D01*
X43571Y-35922D02*
X43571Y-35522D01*
X43571Y-35712D02*
X43800Y-35712D01*
X43800Y-35922D02*
X43800Y-35522D01*
X44143Y-35903D02*
X44105Y-35922D01*
X44028Y-35922D01*
X43990Y-35903D01*
X43971Y-35865D01*
X43971Y-35712D01*
X43990Y-35674D01*
X44028Y-35655D01*
X44105Y-35655D01*
X44143Y-35674D01*
X44162Y-35712D01*
X44162Y-35750D01*
X43971Y-35789D01*
X44505Y-35922D02*
X44505Y-35712D01*
X44486Y-35674D01*
X44448Y-35655D01*
X44371Y-35655D01*
X44333Y-35674D01*
X44505Y-35903D02*
X44467Y-35922D01*
X44371Y-35922D01*
X44333Y-35903D01*
X44314Y-35865D01*
X44314Y-35827D01*
X44333Y-35789D01*
X44371Y-35770D01*
X44467Y-35770D01*
X44505Y-35750D01*
X44638Y-35655D02*
X44790Y-35655D01*
X44695Y-35522D02*
X44695Y-35865D01*
X44714Y-35903D01*
X44752Y-35922D01*
X44790Y-35922D01*
X45077Y-35903D02*
X45039Y-35922D01*
X44962Y-35922D01*
X44924Y-35903D01*
X44905Y-35865D01*
X44905Y-35712D01*
X44924Y-35674D01*
X44962Y-35655D01*
X45039Y-35655D01*
X45077Y-35674D01*
X45096Y-35712D01*
X45096Y-35750D01*
X44905Y-35789D01*
X45267Y-35922D02*
X45267Y-35655D01*
X45267Y-35731D02*
X45286Y-35693D01*
X45305Y-35674D01*
X45343Y-35655D01*
X45382Y-35655D01*
X46809Y-32911D02*
X46809Y-32511D01*
X46962Y-32511D01*
X47000Y-32530D01*
X47019Y-32549D01*
X47038Y-32587D01*
X47038Y-32644D01*
X47019Y-32682D01*
X47000Y-32701D01*
X46962Y-32720D01*
X46809Y-32720D01*
X47400Y-32511D02*
X47209Y-32511D01*
X47190Y-32701D01*
X47209Y-32682D01*
X47247Y-32663D01*
X47343Y-32663D01*
X47381Y-32682D01*
X47400Y-32701D01*
X47419Y-32739D01*
X47419Y-32835D01*
X47400Y-32873D01*
X47381Y-32892D01*
X47343Y-32911D01*
X47247Y-32911D01*
X47209Y-32892D01*
X47190Y-32873D01*
X46920Y-35892D02*
X46977Y-35911D01*
X47073Y-35911D01*
X47111Y-35892D01*
X47130Y-35873D01*
X47149Y-35835D01*
X47149Y-35797D01*
X47130Y-35759D01*
X47111Y-35739D01*
X47073Y-35720D01*
X46996Y-35701D01*
X46958Y-35682D01*
X46939Y-35663D01*
X46920Y-35625D01*
X46920Y-35587D01*
X46939Y-35549D01*
X46958Y-35530D01*
X46996Y-35511D01*
X47092Y-35511D01*
X47149Y-35530D01*
X47473Y-35892D02*
X47435Y-35911D01*
X47358Y-35911D01*
X47320Y-35892D01*
X47301Y-35854D01*
X47301Y-35701D01*
X47320Y-35663D01*
X47358Y-35644D01*
X47435Y-35644D01*
X47473Y-35663D01*
X47492Y-35701D01*
X47492Y-35739D01*
X47301Y-35778D01*
X47663Y-35644D02*
X47663Y-35911D01*
X47663Y-35682D02*
X47682Y-35663D01*
X47720Y-35644D01*
X47778Y-35644D01*
X47816Y-35663D01*
X47835Y-35701D01*
X47835Y-35911D01*
X48006Y-35892D02*
X48044Y-35911D01*
X48120Y-35911D01*
X48159Y-35892D01*
X48178Y-35854D01*
X48178Y-35835D01*
X48159Y-35797D01*
X48120Y-35778D01*
X48063Y-35778D01*
X48025Y-35759D01*
X48006Y-35720D01*
X48006Y-35701D01*
X48025Y-35663D01*
X48063Y-35644D01*
X48120Y-35644D01*
X48159Y-35663D01*
X48406Y-35911D02*
X48368Y-35892D01*
X48349Y-35873D01*
X48330Y-35835D01*
X48330Y-35720D01*
X48349Y-35682D01*
X48368Y-35663D01*
X48406Y-35644D01*
X48464Y-35644D01*
X48502Y-35663D01*
X48521Y-35682D01*
X48540Y-35720D01*
X48540Y-35835D01*
X48521Y-35873D01*
X48502Y-35892D01*
X48464Y-35911D01*
X48406Y-35911D01*
X48711Y-35911D02*
X48711Y-35644D01*
X48711Y-35720D02*
X48730Y-35682D01*
X48749Y-35663D01*
X48787Y-35644D01*
X48826Y-35644D01*
M02*
