M48
INCH,TZ
T1C0.039
T2C0.039
T3C0.059
T4C0.120
%
G90
G05
T1
X3.713Y-3.426
X3.813Y-3.426
X3.913Y-3.426
X4.013Y-3.426
X4.226Y-3.426
X4.326Y-3.426
X4.426Y-3.426
X4.526Y-3.426
X4.735Y-3.425
X4.835Y-3.425
T2
X4.626Y-3.206
X4.726Y-3.206
T3
X3.826Y-3.206
X3.926Y-3.206
X4.026Y-3.206
X4.126Y-3.206
X4.226Y-3.206
X4.326Y-3.206
X4.426Y-3.206
X4.526Y-3.206
T4
X3.700Y-3.050
X3.700Y-3.675
X4.900Y-3.025
X4.900Y-3.675
T0
M30
