G04 (created by PCBNEW-RS274X (2011-07-08 BZR 3044)-stable) date 2012-09-13 22:12:05*
G01*
G70*
G90*
%MOIN*%
G04 Gerber Fmt 3.4, Leading zero omitted, Abs format*
%FSLAX34Y34*%
G04 APERTURE LIST*
%ADD10C,0.006000*%
%ADD11R,0.160000X0.100000*%
%ADD12R,0.100000X0.080000*%
%ADD13R,0.080000X0.100000*%
%ADD14R,0.059400X0.098700*%
%ADD15R,0.098700X0.059400*%
%ADD16R,0.085000X0.120000*%
%ADD17O,0.085000X0.120000*%
%ADD18C,0.180000*%
%ADD19O,0.075100X0.118400*%
%ADD20R,0.138100X0.098700*%
%ADD21O,0.138100X0.098700*%
%ADD22R,0.118400X0.096800*%
%ADD23R,0.080000X0.080000*%
%ADD24C,0.090900*%
%ADD25R,0.106600X0.090900*%
%ADD26R,0.090900X0.090900*%
%ADD27O,0.090900X0.138700*%
%ADD28O,0.079300X0.138700*%
G04 APERTURE END LIST*
G54D10*
G54D11*
X13000Y-21800D03*
X13000Y-23800D03*
G54D12*
X25700Y-25150D03*
X25700Y-26450D03*
X22824Y-26444D03*
X22824Y-25144D03*
X24100Y-26450D03*
X24100Y-25150D03*
G54D13*
X17550Y-20500D03*
X16250Y-20500D03*
X18650Y-20500D03*
X19950Y-20500D03*
X25950Y-20500D03*
X27250Y-20500D03*
G54D12*
X28500Y-28850D03*
X28500Y-30150D03*
X24100Y-22750D03*
X24100Y-24050D03*
G54D13*
X16450Y-26000D03*
X17750Y-26000D03*
G54D14*
X28200Y-20100D03*
X29200Y-20100D03*
X29200Y-22500D03*
X28200Y-22500D03*
G54D15*
X21700Y-21700D03*
X21700Y-20700D03*
X24100Y-20700D03*
X24100Y-21700D03*
G54D14*
X14300Y-21400D03*
X15300Y-21400D03*
X15300Y-23800D03*
X14300Y-23800D03*
G54D16*
X30000Y-31500D03*
G54D17*
X28800Y-31500D03*
G54D18*
X10600Y-19800D03*
X30700Y-19800D03*
X30700Y-38700D03*
X10700Y-38700D03*
G54D19*
X13840Y-27813D03*
X14340Y-28927D03*
X14840Y-27813D03*
X15340Y-28927D03*
X15840Y-27813D03*
X16340Y-28927D03*
X17340Y-28927D03*
X18340Y-28927D03*
X18761Y-27813D03*
X19261Y-28927D03*
X19840Y-27930D03*
X20419Y-28927D03*
X20801Y-27813D03*
X21261Y-28848D03*
X21840Y-27892D03*
X22419Y-28927D03*
X22840Y-27813D03*
X23340Y-28848D03*
X23840Y-27813D03*
X24340Y-28927D03*
X24840Y-27813D03*
X25340Y-28927D03*
X25840Y-27813D03*
G54D20*
X19100Y-25900D03*
G54D21*
X19100Y-23900D03*
G54D20*
X21100Y-25900D03*
G54D21*
X21100Y-23900D03*
G54D22*
X13500Y-30100D03*
X13500Y-31300D03*
G54D23*
X20600Y-21800D03*
G54D24*
X19600Y-21800D03*
X18600Y-21800D03*
X17600Y-21800D03*
G54D12*
X12500Y-26550D03*
X12500Y-25250D03*
G54D13*
X30050Y-32800D03*
X28750Y-32800D03*
G54D12*
X14800Y-30050D03*
X14800Y-31350D03*
G54D25*
X25100Y-38790D03*
X25100Y-37210D03*
X27000Y-36410D03*
X27000Y-37990D03*
X21300Y-36410D03*
X21300Y-37990D03*
X19300Y-36410D03*
X19300Y-37990D03*
X17500Y-38790D03*
X17500Y-37210D03*
X13700Y-36410D03*
X13700Y-37990D03*
X15600Y-38790D03*
X15600Y-37210D03*
X23100Y-37210D03*
X23100Y-38790D03*
G54D26*
X13900Y-25300D03*
G54D24*
X13900Y-26300D03*
G54D26*
X15300Y-25300D03*
G54D24*
X15300Y-26300D03*
G54D26*
X28500Y-25400D03*
G54D24*
X28500Y-26400D03*
G54D26*
X27000Y-25400D03*
G54D24*
X27000Y-26400D03*
G54D13*
X27850Y-24000D03*
X29150Y-24000D03*
X25550Y-24000D03*
X26850Y-24000D03*
G54D12*
X11300Y-25250D03*
X11300Y-26550D03*
G54D27*
X28800Y-35000D03*
X29800Y-35000D03*
X10100Y-34900D03*
X11100Y-34900D03*
G54D28*
X16307Y-34935D03*
X17307Y-34935D03*
X23186Y-34959D03*
X24186Y-34959D03*
M02*
