G04 (created by PCBNEW-RS274X (2011-07-08 BZR 3044)-stable) date 2012-09-13 22:12:05*
G01*
G70*
G90*
%MOIN*%
G04 Gerber Fmt 3.4, Leading zero omitted, Abs format*
%FSLAX34Y34*%
G04 APERTURE LIST*
%ADD10C,0.006000*%
%ADD11C,0.007900*%
%ADD12R,0.140000X0.080000*%
%ADD13R,0.080000X0.060000*%
%ADD14R,0.060000X0.080000*%
%ADD15R,0.039400X0.078700*%
%ADD16R,0.078700X0.039400*%
%ADD17R,0.065000X0.100000*%
%ADD18O,0.065000X0.100000*%
%ADD19C,0.160000*%
%ADD20O,0.055100X0.098400*%
%ADD21O,0.039400X0.039400*%
%ADD22R,0.118100X0.078700*%
%ADD23O,0.118100X0.078700*%
%ADD24R,0.098400X0.076800*%
%ADD25R,0.060000X0.060000*%
%ADD26C,0.070900*%
%ADD27R,0.086600X0.070900*%
%ADD28R,0.070900X0.070900*%
%ADD29O,0.070900X0.118700*%
%ADD30O,0.059300X0.118700*%
%ADD31C,0.039400*%
%ADD32C,0.051200*%
%ADD33C,0.019700*%
%ADD34C,0.059100*%
%ADD35C,0.031500*%
%ADD36C,0.023600*%
%ADD37C,0.047200*%
%ADD38C,0.010000*%
G04 APERTURE END LIST*
G54D10*
G54D11*
X11339Y-31148D02*
X11339Y-30904D01*
X11114Y-31035D01*
X11114Y-30979D01*
X11086Y-30941D01*
X11058Y-30923D01*
X11002Y-30904D01*
X10861Y-30904D01*
X10805Y-30923D01*
X10776Y-30941D01*
X10748Y-30979D01*
X10748Y-31091D01*
X10776Y-31129D01*
X10805Y-31148D01*
X10748Y-30735D02*
X11339Y-30735D01*
X11339Y-30641D01*
X11311Y-30585D01*
X11255Y-30548D01*
X11199Y-30529D01*
X11086Y-30510D01*
X11002Y-30510D01*
X10889Y-30529D01*
X10833Y-30548D01*
X10776Y-30585D01*
X10748Y-30641D01*
X10748Y-30735D01*
X10748Y-30341D02*
X11339Y-30341D01*
X10917Y-30210D01*
X11339Y-30079D01*
X10748Y-30079D01*
X10748Y-29722D02*
X11058Y-29722D01*
X11114Y-29741D01*
X11142Y-29779D01*
X11142Y-29854D01*
X11114Y-29891D01*
X10776Y-29722D02*
X10748Y-29760D01*
X10748Y-29854D01*
X10776Y-29891D01*
X10833Y-29910D01*
X10889Y-29910D01*
X10945Y-29891D01*
X10973Y-29854D01*
X10973Y-29760D01*
X11002Y-29722D01*
X10748Y-29535D02*
X11339Y-29535D01*
X10973Y-29498D02*
X10748Y-29385D01*
X11142Y-29385D02*
X10917Y-29535D01*
X10776Y-29066D02*
X10748Y-29104D01*
X10748Y-29179D01*
X10776Y-29216D01*
X10833Y-29235D01*
X11058Y-29235D01*
X11114Y-29216D01*
X11142Y-29179D01*
X11142Y-29104D01*
X11114Y-29066D01*
X11058Y-29047D01*
X11002Y-29047D01*
X10945Y-29235D01*
X10748Y-28878D02*
X11142Y-28878D01*
X11030Y-28878D02*
X11086Y-28859D01*
X11114Y-28841D01*
X11142Y-28803D01*
X11142Y-28766D01*
X10776Y-28653D02*
X10748Y-28615D01*
X10748Y-28540D01*
X10776Y-28503D01*
X10833Y-28484D01*
X10861Y-28484D01*
X10917Y-28503D01*
X10945Y-28540D01*
X10945Y-28597D01*
X10973Y-28634D01*
X11030Y-28653D01*
X11058Y-28653D01*
X11114Y-28634D01*
X11142Y-28597D01*
X11142Y-28540D01*
X11114Y-28503D01*
X10805Y-28315D02*
X10776Y-28296D01*
X10748Y-28315D01*
X10776Y-28334D01*
X10805Y-28315D01*
X10748Y-28315D01*
X11142Y-28127D02*
X10551Y-28127D01*
X11114Y-28127D02*
X11142Y-28090D01*
X11142Y-28015D01*
X11114Y-27977D01*
X11086Y-27958D01*
X11030Y-27940D01*
X10861Y-27940D01*
X10805Y-27958D01*
X10776Y-27977D01*
X10748Y-28015D01*
X10748Y-28090D01*
X10776Y-28127D01*
X10748Y-27715D02*
X10776Y-27752D01*
X10833Y-27771D01*
X11339Y-27771D01*
G54D12*
X13000Y-21800D03*
X13000Y-23800D03*
G54D13*
X25700Y-25150D03*
X25700Y-26450D03*
X22824Y-26444D03*
X22824Y-25144D03*
X24100Y-26450D03*
X24100Y-25150D03*
G54D14*
X17550Y-20500D03*
X16250Y-20500D03*
X18650Y-20500D03*
X19950Y-20500D03*
X25950Y-20500D03*
X27250Y-20500D03*
G54D13*
X28500Y-28850D03*
X28500Y-30150D03*
X24100Y-22750D03*
X24100Y-24050D03*
G54D14*
X16450Y-26000D03*
X17750Y-26000D03*
G54D15*
X28200Y-20100D03*
X29200Y-20100D03*
X29200Y-22500D03*
X28200Y-22500D03*
G54D16*
X21700Y-21700D03*
X21700Y-20700D03*
X24100Y-20700D03*
X24100Y-21700D03*
G54D15*
X14300Y-21400D03*
X15300Y-21400D03*
X15300Y-23800D03*
X14300Y-23800D03*
G54D17*
X30000Y-31500D03*
G54D18*
X28800Y-31500D03*
G54D19*
X10600Y-19800D03*
X30700Y-19800D03*
X30700Y-38700D03*
X10700Y-38700D03*
G54D20*
X13840Y-27813D03*
X14340Y-28927D03*
X14840Y-27813D03*
X15340Y-28927D03*
X15840Y-27813D03*
X16340Y-28927D03*
G54D21*
X16840Y-27970D03*
G54D20*
X17340Y-28927D03*
G54D21*
X17840Y-27970D03*
G54D20*
X18340Y-28927D03*
X18761Y-27813D03*
X19261Y-28927D03*
X19840Y-27930D03*
X20419Y-28927D03*
X20801Y-27813D03*
X21261Y-28848D03*
X21840Y-27892D03*
X22419Y-28927D03*
X22840Y-27813D03*
X23340Y-28848D03*
X23840Y-27813D03*
X24340Y-28927D03*
X24840Y-27813D03*
X25340Y-28927D03*
X25840Y-27813D03*
G54D22*
X19100Y-25900D03*
G54D23*
X19100Y-23900D03*
G54D22*
X21100Y-25900D03*
G54D23*
X21100Y-23900D03*
G54D24*
X13500Y-30100D03*
X13500Y-31300D03*
G54D25*
X20600Y-21800D03*
G54D26*
X19600Y-21800D03*
X18600Y-21800D03*
X17600Y-21800D03*
G54D13*
X12500Y-26550D03*
X12500Y-25250D03*
G54D14*
X30050Y-32800D03*
X28750Y-32800D03*
G54D13*
X14800Y-30050D03*
X14800Y-31350D03*
G54D27*
X25100Y-38790D03*
X25100Y-37210D03*
X27000Y-36410D03*
X27000Y-37990D03*
X21300Y-36410D03*
X21300Y-37990D03*
X19300Y-36410D03*
X19300Y-37990D03*
X17500Y-38790D03*
X17500Y-37210D03*
X13700Y-36410D03*
X13700Y-37990D03*
X15600Y-38790D03*
X15600Y-37210D03*
X23100Y-37210D03*
X23100Y-38790D03*
G54D28*
X13900Y-25300D03*
G54D26*
X13900Y-26300D03*
G54D28*
X15300Y-25300D03*
G54D26*
X15300Y-26300D03*
G54D28*
X28500Y-25400D03*
G54D26*
X28500Y-26400D03*
G54D28*
X27000Y-25400D03*
G54D26*
X27000Y-26400D03*
G54D14*
X27850Y-24000D03*
X29150Y-24000D03*
X25550Y-24000D03*
X26850Y-24000D03*
G54D13*
X11300Y-25250D03*
X11300Y-26550D03*
G54D29*
X28800Y-35000D03*
X29800Y-35000D03*
X10100Y-34900D03*
X11100Y-34900D03*
G54D30*
X16307Y-34935D03*
X17307Y-34935D03*
X23186Y-34959D03*
X24186Y-34959D03*
G54D31*
X22340Y-28770D02*
X22340Y-29220D01*
G54D32*
X22340Y-29220D02*
X22594Y-29474D01*
X22594Y-29474D02*
X22594Y-31024D01*
X22594Y-31024D02*
X22824Y-31254D01*
X22824Y-31254D02*
X28554Y-31254D01*
X28554Y-31254D02*
X28800Y-31500D01*
G54D33*
X28800Y-35000D02*
X28800Y-36000D01*
X28800Y-36000D02*
X28750Y-36000D01*
G54D34*
X19300Y-37990D02*
X13700Y-37990D01*
X28410Y-37990D02*
X27000Y-37990D01*
X28750Y-37650D02*
X28410Y-37990D01*
X28750Y-32800D02*
X28750Y-34950D01*
X28750Y-34950D02*
X28800Y-31500D01*
X28800Y-31500D02*
X28800Y-31500D01*
X12690Y-37990D02*
X13700Y-37990D01*
X12400Y-37700D02*
X12690Y-37990D01*
X12400Y-34200D02*
X12400Y-37700D01*
X12700Y-33900D02*
X12400Y-34200D01*
X13600Y-33900D02*
X12700Y-33900D01*
X27000Y-37990D02*
X21300Y-37990D01*
X21300Y-37990D02*
X19300Y-37990D01*
X17340Y-28770D02*
X17340Y-30160D01*
X17340Y-30160D02*
X13600Y-33900D01*
X28750Y-32800D02*
X28750Y-36000D01*
X28750Y-36000D02*
X28750Y-37650D01*
X17307Y-34935D02*
X17307Y-36127D01*
X17307Y-36127D02*
X17590Y-36410D01*
G54D32*
X19695Y-29705D02*
X19200Y-30200D01*
G54D34*
X17500Y-36500D02*
X17590Y-36410D01*
X17500Y-37210D02*
X17500Y-36500D01*
X17590Y-36410D02*
X18010Y-36410D01*
X18010Y-36410D02*
X19300Y-36410D01*
G54D31*
X19836Y-28400D02*
X19840Y-28400D01*
X19800Y-29600D02*
X19695Y-29705D01*
X19840Y-28396D02*
X19836Y-28400D01*
G54D35*
X19840Y-28400D02*
X19840Y-29560D01*
G54D31*
X19840Y-27970D02*
X19840Y-28396D01*
G54D36*
X19840Y-29560D02*
X19800Y-29600D01*
G54D34*
X18200Y-36220D02*
X18010Y-36410D01*
X18200Y-33900D02*
X18200Y-36220D01*
X19200Y-32900D02*
X18200Y-33900D01*
X19200Y-30200D02*
X19200Y-32900D01*
X16307Y-34935D02*
X15635Y-34935D01*
X15635Y-34935D02*
X15600Y-34900D01*
X14600Y-34200D02*
X14600Y-34900D01*
X18340Y-30460D02*
X14600Y-34200D01*
X18340Y-28770D02*
X18340Y-30460D01*
X15600Y-34900D02*
X15600Y-35000D01*
X15600Y-35000D02*
X15600Y-34900D01*
X15600Y-34900D02*
X14600Y-34900D01*
X14600Y-34900D02*
X13700Y-34900D01*
X13700Y-34900D02*
X13700Y-36410D01*
X15600Y-37210D02*
X15600Y-34900D01*
X25000Y-34935D02*
X24210Y-34935D01*
X24210Y-34935D02*
X24186Y-34959D01*
X21799Y-30099D02*
X21799Y-31893D01*
X21799Y-31893D02*
X21796Y-31896D01*
X21796Y-31896D02*
X23300Y-33400D01*
G54D35*
X21840Y-28400D02*
X21799Y-30216D01*
G54D34*
X25400Y-33400D02*
X25900Y-33900D01*
G54D31*
X21840Y-28400D02*
X21840Y-27970D01*
G54D34*
X25900Y-33900D02*
X25900Y-34900D01*
G54D35*
X21800Y-29500D02*
X21799Y-30099D01*
G54D34*
X23300Y-33400D02*
X25400Y-33400D01*
G54D35*
X21799Y-30216D02*
X21800Y-29500D01*
G54D34*
X25900Y-34900D02*
X27000Y-34900D01*
X27000Y-34900D02*
X27000Y-36410D01*
X25000Y-37110D02*
X25100Y-37210D01*
X25000Y-34900D02*
X25000Y-34935D01*
X25000Y-34935D02*
X25000Y-37110D01*
X25000Y-34900D02*
X25900Y-34900D01*
X23186Y-34959D02*
X23186Y-36075D01*
X23186Y-36075D02*
X22851Y-36410D01*
X22300Y-34100D02*
X22300Y-36410D01*
X22300Y-36410D02*
X22851Y-36410D01*
X22851Y-36410D02*
X23090Y-36410D01*
X23090Y-36410D02*
X23100Y-36420D01*
X23100Y-36420D02*
X23100Y-37210D01*
X21300Y-36410D02*
X22300Y-36410D01*
X20340Y-32140D02*
X20340Y-30008D01*
G54D37*
X20340Y-28770D02*
X20340Y-30008D01*
G54D34*
X20340Y-32140D02*
X22300Y-34100D01*
G54D33*
X24840Y-27160D02*
X24900Y-27100D01*
X24900Y-25700D02*
X24900Y-23300D01*
X26400Y-26100D02*
X26100Y-25800D01*
X26100Y-25800D02*
X25000Y-25800D01*
X25000Y-25800D02*
X24900Y-25700D01*
X26400Y-27000D02*
X26400Y-26100D01*
X24900Y-23300D02*
X24350Y-22750D01*
X24350Y-22750D02*
X24100Y-22750D01*
X24840Y-27970D02*
X24840Y-27160D01*
X23500Y-20700D02*
X23400Y-20800D01*
X23400Y-20800D02*
X23400Y-22050D01*
X23400Y-22050D02*
X24100Y-22750D01*
X24100Y-20700D02*
X23500Y-20700D01*
X24900Y-27100D02*
X26300Y-27100D01*
X26300Y-27100D02*
X26400Y-27000D01*
X15300Y-23800D02*
X15600Y-23900D01*
X15840Y-27970D02*
X15840Y-27560D01*
X15600Y-23900D02*
X16450Y-24750D01*
X16450Y-26950D02*
X16450Y-26000D01*
X15840Y-27560D02*
X16450Y-26950D01*
X16450Y-24750D02*
X16450Y-26000D01*
G54D32*
X19296Y-27228D02*
X19296Y-26096D01*
G54D35*
X19340Y-28494D02*
X19296Y-28450D01*
X19296Y-28450D02*
X19296Y-27228D01*
X19340Y-28770D02*
X19340Y-28494D01*
G54D32*
X19296Y-26096D02*
X19100Y-25900D01*
G54D35*
X19296Y-26096D02*
X19100Y-25900D01*
G54D34*
X19340Y-26140D02*
X19100Y-25900D01*
G54D31*
X19340Y-26140D02*
X19100Y-25900D01*
X19340Y-26140D02*
X19100Y-25900D01*
G54D32*
X20840Y-27970D02*
X20840Y-27730D01*
X20840Y-27730D02*
X20644Y-27534D01*
G54D34*
X20644Y-27534D02*
X20644Y-26356D01*
X20644Y-26356D02*
X21100Y-25900D01*
G54D33*
X21000Y-22200D02*
X20600Y-21800D01*
X29200Y-20100D02*
X29200Y-20300D01*
X15900Y-21400D02*
X17100Y-22600D01*
X22500Y-20000D02*
X22400Y-20100D01*
X22400Y-20900D02*
X22400Y-22000D01*
X22300Y-20700D02*
X22400Y-20800D01*
X25400Y-21200D02*
X25300Y-21100D01*
X25300Y-20100D02*
X25200Y-20000D01*
X22400Y-20800D02*
X22400Y-20900D01*
X22400Y-22000D02*
X22200Y-22200D01*
X22400Y-20100D02*
X22400Y-20900D01*
X22200Y-22200D02*
X21000Y-22200D01*
X19800Y-22600D02*
X20600Y-21800D01*
X21700Y-20700D02*
X22300Y-20700D01*
X15300Y-21400D02*
X15900Y-21400D01*
X29200Y-20300D02*
X28300Y-21200D01*
X28300Y-21200D02*
X25400Y-21200D01*
X17100Y-22600D02*
X19800Y-22600D01*
X25300Y-21100D02*
X25300Y-20100D01*
X25200Y-20000D02*
X22500Y-20000D01*
G54D32*
X17750Y-26000D02*
X17750Y-27010D01*
X18484Y-27744D02*
X18484Y-27724D01*
X17750Y-27010D02*
X18484Y-27744D01*
G54D31*
X18840Y-27970D02*
X18730Y-27970D01*
X18730Y-27970D02*
X18484Y-27724D01*
G54D32*
X23340Y-28770D02*
X23340Y-28428D01*
X23336Y-28424D02*
X23340Y-28424D01*
X23340Y-28428D02*
X23336Y-28424D01*
G54D31*
X14800Y-31350D02*
X15039Y-31350D01*
X16745Y-29644D02*
X16745Y-29585D01*
X15039Y-31350D02*
X16745Y-29644D01*
G54D33*
X16842Y-28492D02*
X16816Y-28492D01*
X17044Y-26934D02*
X17044Y-23744D01*
X16400Y-27578D02*
X17044Y-26934D01*
X16400Y-28106D02*
X16400Y-27578D01*
X16610Y-28316D02*
X16400Y-28106D01*
X16640Y-28316D02*
X16610Y-28316D01*
X16816Y-28492D02*
X16640Y-28316D01*
X16842Y-28612D02*
X16842Y-28492D01*
X16842Y-29488D02*
X16842Y-28612D01*
X16745Y-29585D02*
X16842Y-29488D01*
X17308Y-26442D02*
X17750Y-26000D01*
X17308Y-28068D02*
X17308Y-26442D01*
X17040Y-28336D02*
X17308Y-28068D01*
X16998Y-28336D02*
X17040Y-28336D01*
X16842Y-28492D02*
X16998Y-28336D01*
X23340Y-28424D02*
X23340Y-27226D01*
X23462Y-27104D02*
X23462Y-25142D01*
X23340Y-27226D02*
X23462Y-27104D01*
X14800Y-31350D02*
X13550Y-31350D01*
G54D31*
X11803Y-36897D02*
X11250Y-37550D01*
X11803Y-33597D02*
X11803Y-36897D01*
X13400Y-32100D02*
X11803Y-33597D01*
G54D33*
X13400Y-31500D02*
X13400Y-32100D01*
X13550Y-31350D02*
X13400Y-31500D01*
G54D31*
X12100Y-22600D02*
X10200Y-22600D01*
X10200Y-22600D02*
X10000Y-22800D01*
X10000Y-22800D02*
X10000Y-27100D01*
X10000Y-27100D02*
X10000Y-31800D01*
X12490Y-38790D02*
X15600Y-38790D01*
X10000Y-31800D02*
X10000Y-36300D01*
X10000Y-36300D02*
X11250Y-37550D01*
X11250Y-37550D02*
X12490Y-38790D01*
X24100Y-25150D02*
X23462Y-25142D01*
X23462Y-25142D02*
X22824Y-25144D01*
X22824Y-25144D02*
X22950Y-25200D01*
X22950Y-25200D02*
X22060Y-25170D01*
X11300Y-26550D02*
X10550Y-26550D01*
X29150Y-24000D02*
X29800Y-24000D01*
X29800Y-24000D02*
X29900Y-24100D01*
X29900Y-24100D02*
X29900Y-30500D01*
X21340Y-27300D02*
X21340Y-26960D01*
X21340Y-26960D02*
X21500Y-26800D01*
X21340Y-28400D02*
X21340Y-28770D01*
G54D36*
X21340Y-28400D02*
X21340Y-27300D01*
X21340Y-26960D02*
X21500Y-26800D01*
G54D37*
X21500Y-26800D02*
X21900Y-26800D01*
X21900Y-26800D02*
X22060Y-26570D01*
X22060Y-26570D02*
X22060Y-25170D01*
X22060Y-25170D02*
X22034Y-24374D01*
X22034Y-24374D02*
X21600Y-23900D01*
X21600Y-23900D02*
X21100Y-23900D01*
X12100Y-22600D02*
X12100Y-22600D01*
X15900Y-22600D02*
X17044Y-23744D01*
X12100Y-22600D02*
X13800Y-22600D01*
X13800Y-22600D02*
X15900Y-22600D01*
X17044Y-23744D02*
X17750Y-24450D01*
X17750Y-26000D02*
X17750Y-24450D01*
X17750Y-24450D02*
X17750Y-24050D01*
X15600Y-38790D02*
X17500Y-38790D01*
X17500Y-38790D02*
X23100Y-38790D01*
X23100Y-38790D02*
X25100Y-38790D01*
X19100Y-23900D02*
X21100Y-23900D01*
X17750Y-24050D02*
X17900Y-23900D01*
G54D31*
X29310Y-38790D02*
X30050Y-38050D01*
X25100Y-38790D02*
X29310Y-38790D01*
X30050Y-34950D02*
X30000Y-31500D01*
X30050Y-32800D02*
X30050Y-34950D01*
X29900Y-34800D02*
X30000Y-31500D01*
X29900Y-30500D02*
X29900Y-34800D01*
G54D37*
X23500Y-30500D02*
X29900Y-30500D01*
X23340Y-28770D02*
X23340Y-30340D01*
X23340Y-30340D02*
X23500Y-30500D01*
G54D31*
X24100Y-24050D02*
X24100Y-25150D01*
X10550Y-26550D02*
X10000Y-27100D01*
X30050Y-38050D02*
X30050Y-32800D01*
G54D37*
X17900Y-23900D02*
X19100Y-23900D01*
G54D33*
X15340Y-28770D02*
X15340Y-26340D01*
X15340Y-26340D02*
X15300Y-26300D01*
X19300Y-20000D02*
X19300Y-21500D01*
X19300Y-21500D02*
X19600Y-21800D01*
X19600Y-19700D02*
X19300Y-20000D01*
X25950Y-20500D02*
X25950Y-19650D01*
X25900Y-19700D02*
X19600Y-19700D01*
X25950Y-19650D02*
X25900Y-19700D01*
X17550Y-20500D02*
X17550Y-21750D01*
X17550Y-21750D02*
X17600Y-21800D01*
X14840Y-27240D02*
X13900Y-26300D01*
X14840Y-27970D02*
X14840Y-27240D01*
X11300Y-25250D02*
X12500Y-25250D01*
X13850Y-25250D02*
X13900Y-25300D01*
X12500Y-25250D02*
X13850Y-25250D01*
X15300Y-25300D02*
X13900Y-25300D01*
X26830Y-27970D02*
X27000Y-27800D01*
X27000Y-27800D02*
X27000Y-26400D01*
X25840Y-27970D02*
X26830Y-27970D01*
X22778Y-27908D02*
X22840Y-27970D01*
X22824Y-26444D02*
X22778Y-27908D01*
X29200Y-28150D02*
X28500Y-28850D01*
X24500Y-29900D02*
X27000Y-29900D01*
X29100Y-24800D02*
X29200Y-24900D01*
X28700Y-24800D02*
X29100Y-24800D01*
X24340Y-29740D02*
X24500Y-29900D01*
X28500Y-23400D02*
X28500Y-24600D01*
X29200Y-22700D02*
X28500Y-23400D01*
X27000Y-29900D02*
X28050Y-28850D01*
X24340Y-28770D02*
X24340Y-29740D01*
X29200Y-24900D02*
X29200Y-28150D01*
X28050Y-28850D02*
X28500Y-28850D01*
X28500Y-24600D02*
X28700Y-24800D01*
X29200Y-22500D02*
X29200Y-22700D01*
X19950Y-20500D02*
X20400Y-20500D01*
X20400Y-20500D02*
X21200Y-21300D01*
X21200Y-21300D02*
X21300Y-21300D01*
X21300Y-21300D02*
X21700Y-21700D01*
X27250Y-20500D02*
X27900Y-20500D01*
X28200Y-20200D02*
X28200Y-20100D01*
X27900Y-20500D02*
X28200Y-20200D01*
X28500Y-27500D02*
X28500Y-26400D01*
X27230Y-28770D02*
X28500Y-27500D01*
X25340Y-28770D02*
X27230Y-28770D01*
X18600Y-20550D02*
X18650Y-20500D01*
X18600Y-21800D02*
X18600Y-20550D01*
X14300Y-20500D02*
X14300Y-21400D01*
X16250Y-20500D02*
X14300Y-20500D01*
X27000Y-25400D02*
X28500Y-25400D01*
X26850Y-24000D02*
X26850Y-25250D01*
X27850Y-24000D02*
X26850Y-24000D01*
X26850Y-25250D02*
X27000Y-25400D01*
X23840Y-26810D02*
X23840Y-27970D01*
X24100Y-26450D02*
X23840Y-26810D01*
X25700Y-26450D02*
X24100Y-26450D01*
X13500Y-22100D02*
X13000Y-21800D01*
X13500Y-30100D02*
X12600Y-30100D01*
X12600Y-30100D02*
X12500Y-30000D01*
X14800Y-30050D02*
X13550Y-30050D01*
X13550Y-30050D02*
X13500Y-30100D01*
X16340Y-28770D02*
X16340Y-29360D01*
X15650Y-30050D02*
X14800Y-30050D01*
X16340Y-29360D02*
X15650Y-30050D01*
X12500Y-30000D02*
X12500Y-32100D01*
X12500Y-32100D02*
X11100Y-33500D01*
X11100Y-33500D02*
X11100Y-34900D01*
X25800Y-22500D02*
X25550Y-22250D01*
X24100Y-21700D02*
X24900Y-21700D01*
X24900Y-21700D02*
X25100Y-21700D01*
X12500Y-26550D02*
X12500Y-30000D01*
X25550Y-22250D02*
X25550Y-24000D01*
X25100Y-21700D02*
X25550Y-22150D01*
X25550Y-24000D02*
X25550Y-25000D01*
X25550Y-25000D02*
X25700Y-25150D01*
X28200Y-22500D02*
X25800Y-22500D01*
X22900Y-20300D02*
X22900Y-22800D01*
X22900Y-22800D02*
X22700Y-23000D01*
X22700Y-23000D02*
X17000Y-23000D01*
X17000Y-23000D02*
X16100Y-22100D01*
X24900Y-21700D02*
X24900Y-20300D01*
X12500Y-26000D02*
X12400Y-25900D01*
X12400Y-25900D02*
X10800Y-25900D01*
X10800Y-25900D02*
X10600Y-25700D01*
X10600Y-25700D02*
X10600Y-24700D01*
X10600Y-24700D02*
X10800Y-24500D01*
X10800Y-24500D02*
X12300Y-24500D01*
X12300Y-24500D02*
X13000Y-23800D01*
X12500Y-26550D02*
X12500Y-26000D01*
X13200Y-23800D02*
X13000Y-23800D01*
X14300Y-23800D02*
X13200Y-23800D01*
X24900Y-20300D02*
X22900Y-20300D01*
X25550Y-22150D02*
X25550Y-22250D01*
X16100Y-22100D02*
X13500Y-22100D01*
G54D10*
G36*
X15998Y-30456D02*
X15368Y-31086D01*
X15368Y-31017D01*
X15343Y-30955D01*
X15295Y-30908D01*
X15234Y-30882D01*
X15167Y-30882D01*
X14949Y-30882D01*
X14907Y-30924D01*
X14907Y-31193D01*
X14907Y-31243D01*
X14907Y-31457D01*
X14693Y-31457D01*
X14693Y-31243D01*
X14693Y-30924D01*
X14651Y-30882D01*
X14433Y-30882D01*
X14366Y-30882D01*
X14305Y-30908D01*
X14257Y-30955D01*
X14232Y-31017D01*
X14232Y-31201D01*
X14274Y-31243D01*
X14693Y-31243D01*
X14693Y-31457D01*
X14643Y-31457D01*
X14274Y-31457D01*
X14232Y-31499D01*
X14232Y-31683D01*
X14257Y-31745D01*
X14305Y-31792D01*
X14366Y-31818D01*
X14433Y-31818D01*
X14636Y-31818D01*
X14160Y-32294D01*
X14160Y-31717D01*
X14160Y-31449D01*
X14118Y-31407D01*
X13607Y-31407D01*
X13607Y-31810D01*
X13649Y-31852D01*
X13959Y-31852D01*
X14026Y-31852D01*
X14087Y-31826D01*
X14135Y-31779D01*
X14160Y-31717D01*
X14160Y-32294D01*
X13293Y-33161D01*
X12700Y-33161D01*
X12417Y-33217D01*
X12177Y-33377D01*
X12175Y-33379D01*
X11877Y-33677D01*
X11717Y-33917D01*
X11677Y-34111D01*
X11642Y-34076D01*
X11642Y-33724D01*
X12883Y-32484D01*
X12883Y-32483D01*
X13000Y-32309D01*
X13000Y-32308D01*
X13001Y-32307D01*
X13041Y-32101D01*
X13042Y-32100D01*
X13042Y-31852D01*
X13351Y-31852D01*
X13393Y-31810D01*
X13393Y-31457D01*
X13393Y-31407D01*
X13393Y-31193D01*
X13607Y-31193D01*
X13657Y-31193D01*
X14118Y-31193D01*
X14160Y-31151D01*
X14160Y-30894D01*
X14243Y-30860D01*
X14310Y-30792D01*
X14312Y-30793D01*
X14488Y-30793D01*
X15288Y-30793D01*
X15451Y-30726D01*
X15575Y-30601D01*
X15578Y-30592D01*
X15650Y-30592D01*
X15857Y-30551D01*
X15858Y-30551D01*
X15998Y-30456D01*
X15998Y-30456D01*
G37*
G54D38*
X15998Y-30456D02*
X15368Y-31086D01*
X15368Y-31017D01*
X15343Y-30955D01*
X15295Y-30908D01*
X15234Y-30882D01*
X15167Y-30882D01*
X14949Y-30882D01*
X14907Y-30924D01*
X14907Y-31193D01*
X14907Y-31243D01*
X14907Y-31457D01*
X14693Y-31457D01*
X14693Y-31243D01*
X14693Y-30924D01*
X14651Y-30882D01*
X14433Y-30882D01*
X14366Y-30882D01*
X14305Y-30908D01*
X14257Y-30955D01*
X14232Y-31017D01*
X14232Y-31201D01*
X14274Y-31243D01*
X14693Y-31243D01*
X14693Y-31457D01*
X14643Y-31457D01*
X14274Y-31457D01*
X14232Y-31499D01*
X14232Y-31683D01*
X14257Y-31745D01*
X14305Y-31792D01*
X14366Y-31818D01*
X14433Y-31818D01*
X14636Y-31818D01*
X14160Y-32294D01*
X14160Y-31717D01*
X14160Y-31449D01*
X14118Y-31407D01*
X13607Y-31407D01*
X13607Y-31810D01*
X13649Y-31852D01*
X13959Y-31852D01*
X14026Y-31852D01*
X14087Y-31826D01*
X14135Y-31779D01*
X14160Y-31717D01*
X14160Y-32294D01*
X13293Y-33161D01*
X12700Y-33161D01*
X12417Y-33217D01*
X12177Y-33377D01*
X12175Y-33379D01*
X11877Y-33677D01*
X11717Y-33917D01*
X11677Y-34111D01*
X11642Y-34076D01*
X11642Y-33724D01*
X12883Y-32484D01*
X12883Y-32483D01*
X13000Y-32309D01*
X13000Y-32308D01*
X13001Y-32307D01*
X13041Y-32101D01*
X13042Y-32100D01*
X13042Y-31852D01*
X13351Y-31852D01*
X13393Y-31810D01*
X13393Y-31457D01*
X13393Y-31407D01*
X13393Y-31193D01*
X13607Y-31193D01*
X13657Y-31193D01*
X14118Y-31193D01*
X14160Y-31151D01*
X14160Y-30894D01*
X14243Y-30860D01*
X14310Y-30792D01*
X14312Y-30793D01*
X14488Y-30793D01*
X15288Y-30793D01*
X15451Y-30726D01*
X15575Y-30601D01*
X15578Y-30592D01*
X15650Y-30592D01*
X15857Y-30551D01*
X15858Y-30551D01*
X15998Y-30456D01*
G54D10*
G36*
X22040Y-26976D02*
X21980Y-26952D01*
X21700Y-26952D01*
X21441Y-27059D01*
X21383Y-27116D01*
X21383Y-26736D01*
X21778Y-26736D01*
X21941Y-26669D01*
X21981Y-26628D01*
X21981Y-26832D01*
X22040Y-26976D01*
X22040Y-26976D01*
G37*
G54D38*
X22040Y-26976D02*
X21980Y-26952D01*
X21700Y-26952D01*
X21441Y-27059D01*
X21383Y-27116D01*
X21383Y-26736D01*
X21778Y-26736D01*
X21941Y-26669D01*
X21981Y-26628D01*
X21981Y-26832D01*
X22040Y-26976D01*
G54D10*
G36*
X31950Y-39950D02*
X31660Y-39950D01*
X31660Y-38820D01*
X31660Y-19920D01*
X31633Y-19544D01*
X31541Y-19321D01*
X31425Y-19226D01*
X31274Y-19377D01*
X31274Y-19075D01*
X31179Y-18959D01*
X30820Y-18840D01*
X30444Y-18867D01*
X30221Y-18959D01*
X30126Y-19075D01*
X30700Y-19649D01*
X31274Y-19075D01*
X31274Y-19377D01*
X30851Y-19800D01*
X31425Y-20374D01*
X31541Y-20279D01*
X31660Y-19920D01*
X31660Y-38820D01*
X31633Y-38444D01*
X31541Y-38221D01*
X31425Y-38126D01*
X31274Y-38277D01*
X31274Y-37975D01*
X31274Y-20525D01*
X30700Y-19951D01*
X30549Y-20102D01*
X30549Y-19800D01*
X29975Y-19226D01*
X29859Y-19321D01*
X29795Y-19511D01*
X29773Y-19456D01*
X29648Y-19332D01*
X29485Y-19264D01*
X29309Y-19264D01*
X28915Y-19264D01*
X28752Y-19331D01*
X28699Y-19383D01*
X28648Y-19332D01*
X28485Y-19264D01*
X28309Y-19264D01*
X27915Y-19264D01*
X27752Y-19331D01*
X27628Y-19456D01*
X27560Y-19619D01*
X27560Y-19657D01*
X27462Y-19657D01*
X26862Y-19657D01*
X26699Y-19724D01*
X26600Y-19823D01*
X26501Y-19725D01*
X26492Y-19721D01*
X26492Y-19650D01*
X26451Y-19443D01*
X26333Y-19267D01*
X26157Y-19149D01*
X25950Y-19108D01*
X25743Y-19149D01*
X25729Y-19158D01*
X19600Y-19158D01*
X19393Y-19199D01*
X19217Y-19317D01*
X18917Y-19617D01*
X18890Y-19657D01*
X18862Y-19657D01*
X18262Y-19657D01*
X18099Y-19724D01*
X18098Y-19724D01*
X17938Y-19657D01*
X17762Y-19657D01*
X17162Y-19657D01*
X16999Y-19724D01*
X16900Y-19823D01*
X16801Y-19725D01*
X16638Y-19657D01*
X16462Y-19657D01*
X15862Y-19657D01*
X15699Y-19724D01*
X15575Y-19849D01*
X15529Y-19958D01*
X14300Y-19958D01*
X14093Y-19999D01*
X13917Y-20117D01*
X13799Y-20293D01*
X13758Y-20500D01*
X13758Y-20725D01*
X13728Y-20756D01*
X13660Y-20919D01*
X13660Y-20957D01*
X13612Y-20957D01*
X12212Y-20957D01*
X12049Y-21024D01*
X11925Y-21149D01*
X11857Y-21312D01*
X11857Y-21488D01*
X11857Y-22288D01*
X11924Y-22451D01*
X12049Y-22575D01*
X12212Y-22643D01*
X12388Y-22643D01*
X13788Y-22643D01*
X13790Y-22642D01*
X15875Y-22642D01*
X16616Y-23383D01*
X16617Y-23383D01*
X16734Y-23461D01*
X16792Y-23500D01*
X16793Y-23501D01*
X16999Y-23541D01*
X17000Y-23542D01*
X18483Y-23542D01*
X18388Y-23684D01*
X18377Y-23708D01*
X18396Y-23793D01*
X18943Y-23793D01*
X18993Y-23793D01*
X19207Y-23793D01*
X19257Y-23793D01*
X19804Y-23793D01*
X19823Y-23708D01*
X19812Y-23684D01*
X19716Y-23542D01*
X20483Y-23542D01*
X20388Y-23684D01*
X20377Y-23708D01*
X20396Y-23793D01*
X20943Y-23793D01*
X20993Y-23793D01*
X21207Y-23793D01*
X21257Y-23793D01*
X21804Y-23793D01*
X21823Y-23708D01*
X21812Y-23684D01*
X21716Y-23542D01*
X22700Y-23542D01*
X22907Y-23501D01*
X22908Y-23501D01*
X23083Y-23383D01*
X23277Y-23189D01*
X23324Y-23301D01*
X23449Y-23425D01*
X23612Y-23493D01*
X23788Y-23493D01*
X24326Y-23493D01*
X24358Y-23524D01*
X24358Y-23582D01*
X24249Y-23582D01*
X24207Y-23624D01*
X24207Y-23893D01*
X24207Y-23943D01*
X24207Y-24157D01*
X24207Y-24207D01*
X24207Y-24476D01*
X24249Y-24518D01*
X24358Y-24518D01*
X24358Y-24682D01*
X24249Y-24682D01*
X24207Y-24724D01*
X24207Y-24993D01*
X24207Y-25043D01*
X24207Y-25257D01*
X24207Y-25307D01*
X24207Y-25576D01*
X24249Y-25618D01*
X24358Y-25618D01*
X24358Y-25700D01*
X24359Y-25707D01*
X23993Y-25707D01*
X23993Y-25576D01*
X23993Y-25257D01*
X23993Y-25043D01*
X23993Y-24724D01*
X23993Y-24476D01*
X23993Y-24157D01*
X23993Y-23943D01*
X23993Y-23624D01*
X23951Y-23582D01*
X23733Y-23582D01*
X23666Y-23582D01*
X23605Y-23608D01*
X23557Y-23655D01*
X23532Y-23717D01*
X23532Y-23901D01*
X23574Y-23943D01*
X23993Y-23943D01*
X23993Y-24157D01*
X23574Y-24157D01*
X23532Y-24199D01*
X23532Y-24383D01*
X23557Y-24445D01*
X23605Y-24492D01*
X23666Y-24518D01*
X23733Y-24518D01*
X23951Y-24518D01*
X23993Y-24476D01*
X23993Y-24724D01*
X23951Y-24682D01*
X23733Y-24682D01*
X23666Y-24682D01*
X23605Y-24708D01*
X23557Y-24755D01*
X23532Y-24817D01*
X23532Y-25001D01*
X23574Y-25043D01*
X23993Y-25043D01*
X23993Y-25257D01*
X23574Y-25257D01*
X23532Y-25299D01*
X23532Y-25483D01*
X23557Y-25545D01*
X23605Y-25592D01*
X23666Y-25618D01*
X23733Y-25618D01*
X23951Y-25618D01*
X23993Y-25576D01*
X23993Y-25707D01*
X23612Y-25707D01*
X23468Y-25766D01*
X23392Y-25734D01*
X23392Y-25477D01*
X23392Y-25293D01*
X23392Y-24995D01*
X23392Y-24811D01*
X23367Y-24749D01*
X23319Y-24702D01*
X23258Y-24676D01*
X23191Y-24676D01*
X22973Y-24676D01*
X22931Y-24718D01*
X22931Y-25037D01*
X23350Y-25037D01*
X23392Y-24995D01*
X23392Y-25293D01*
X23350Y-25251D01*
X22931Y-25251D01*
X22931Y-25570D01*
X22973Y-25612D01*
X23191Y-25612D01*
X23258Y-25612D01*
X23319Y-25586D01*
X23367Y-25539D01*
X23392Y-25477D01*
X23392Y-25734D01*
X23312Y-25701D01*
X23136Y-25701D01*
X22717Y-25701D01*
X22717Y-25570D01*
X22717Y-25251D01*
X22717Y-25037D01*
X22717Y-24718D01*
X22675Y-24676D01*
X22457Y-24676D01*
X22390Y-24676D01*
X22329Y-24702D01*
X22281Y-24749D01*
X22256Y-24811D01*
X22256Y-24995D01*
X22298Y-25037D01*
X22717Y-25037D01*
X22717Y-25251D01*
X22298Y-25251D01*
X22256Y-25293D01*
X22256Y-25477D01*
X22281Y-25539D01*
X22329Y-25586D01*
X22390Y-25612D01*
X22457Y-25612D01*
X22675Y-25612D01*
X22717Y-25570D01*
X22717Y-25701D01*
X22336Y-25701D01*
X22173Y-25768D01*
X22133Y-25808D01*
X22133Y-25419D01*
X22066Y-25256D01*
X21941Y-25132D01*
X21823Y-25082D01*
X21823Y-24092D01*
X21804Y-24007D01*
X21207Y-24007D01*
X21207Y-24409D01*
X21294Y-24458D01*
X21508Y-24417D01*
X21690Y-24297D01*
X21812Y-24116D01*
X21823Y-24092D01*
X21823Y-25082D01*
X21778Y-25064D01*
X21602Y-25064D01*
X20993Y-25064D01*
X20993Y-24409D01*
X20993Y-24007D01*
X20396Y-24007D01*
X20377Y-24092D01*
X20388Y-24116D01*
X20510Y-24297D01*
X20692Y-24417D01*
X20906Y-24458D01*
X20993Y-24409D01*
X20993Y-25064D01*
X20422Y-25064D01*
X20259Y-25131D01*
X20135Y-25256D01*
X20100Y-25339D01*
X20066Y-25256D01*
X19941Y-25132D01*
X19823Y-25082D01*
X19823Y-24092D01*
X19804Y-24007D01*
X19207Y-24007D01*
X19207Y-24409D01*
X19294Y-24458D01*
X19508Y-24417D01*
X19690Y-24297D01*
X19812Y-24116D01*
X19823Y-24092D01*
X19823Y-25082D01*
X19778Y-25064D01*
X19602Y-25064D01*
X18993Y-25064D01*
X18993Y-24409D01*
X18993Y-24007D01*
X18396Y-24007D01*
X18377Y-24092D01*
X18388Y-24116D01*
X18510Y-24297D01*
X18692Y-24417D01*
X18906Y-24458D01*
X18993Y-24409D01*
X18993Y-25064D01*
X18422Y-25064D01*
X18259Y-25131D01*
X18135Y-25256D01*
X18067Y-25419D01*
X18067Y-25432D01*
X17899Y-25432D01*
X17857Y-25474D01*
X17857Y-25843D01*
X17857Y-25893D01*
X17857Y-26107D01*
X17857Y-26157D01*
X17857Y-26526D01*
X17899Y-26568D01*
X18083Y-26568D01*
X18136Y-26546D01*
X18259Y-26668D01*
X18422Y-26736D01*
X18596Y-26736D01*
X18596Y-27191D01*
X18588Y-27189D01*
X18448Y-27282D01*
X18352Y-27426D01*
X18326Y-27555D01*
X18208Y-27437D01*
X17977Y-27341D01*
X17727Y-27341D01*
X17703Y-27341D01*
X17643Y-27365D01*
X17643Y-26526D01*
X17643Y-26107D01*
X17643Y-25893D01*
X17643Y-25474D01*
X17601Y-25432D01*
X17417Y-25432D01*
X17355Y-25457D01*
X17308Y-25505D01*
X17282Y-25566D01*
X17282Y-25633D01*
X17282Y-25851D01*
X17324Y-25893D01*
X17643Y-25893D01*
X17643Y-26107D01*
X17324Y-26107D01*
X17282Y-26149D01*
X17282Y-26367D01*
X17282Y-26434D01*
X17308Y-26495D01*
X17355Y-26543D01*
X17417Y-26568D01*
X17601Y-26568D01*
X17643Y-26526D01*
X17643Y-27365D01*
X17472Y-27437D01*
X17340Y-27569D01*
X17208Y-27437D01*
X16977Y-27341D01*
X16825Y-27341D01*
X16833Y-27334D01*
X16833Y-27333D01*
X16911Y-27216D01*
X16950Y-27158D01*
X16951Y-27157D01*
X16991Y-26950D01*
X16992Y-26950D01*
X16992Y-26779D01*
X17001Y-26776D01*
X17125Y-26651D01*
X17193Y-26488D01*
X17193Y-26312D01*
X17193Y-25512D01*
X17126Y-25349D01*
X17001Y-25225D01*
X16992Y-25221D01*
X16992Y-24750D01*
X16951Y-24543D01*
X16951Y-24542D01*
X16833Y-24367D01*
X15983Y-23517D01*
X15966Y-23505D01*
X15954Y-23490D01*
X15940Y-23481D01*
X15940Y-23319D01*
X15873Y-23156D01*
X15748Y-23032D01*
X15585Y-22964D01*
X15409Y-22964D01*
X15015Y-22964D01*
X14852Y-23031D01*
X14799Y-23083D01*
X14748Y-23032D01*
X14585Y-22964D01*
X14409Y-22964D01*
X14015Y-22964D01*
X13909Y-23007D01*
X13788Y-22957D01*
X13612Y-22957D01*
X12212Y-22957D01*
X12049Y-23024D01*
X11925Y-23149D01*
X11857Y-23312D01*
X11857Y-23488D01*
X11857Y-23958D01*
X11560Y-23958D01*
X11560Y-19920D01*
X11533Y-19544D01*
X11441Y-19321D01*
X11325Y-19226D01*
X11174Y-19377D01*
X11174Y-19075D01*
X11079Y-18959D01*
X10720Y-18840D01*
X10344Y-18867D01*
X10121Y-18959D01*
X10026Y-19075D01*
X10600Y-19649D01*
X11174Y-19075D01*
X11174Y-19377D01*
X10751Y-19800D01*
X11325Y-20374D01*
X11441Y-20279D01*
X11560Y-19920D01*
X11560Y-23958D01*
X11174Y-23958D01*
X11174Y-20525D01*
X10600Y-19951D01*
X10449Y-20102D01*
X10449Y-19800D01*
X09875Y-19226D01*
X09759Y-19321D01*
X09640Y-19680D01*
X09667Y-20056D01*
X09759Y-20279D01*
X09875Y-20374D01*
X10449Y-19800D01*
X10449Y-20102D01*
X10026Y-20525D01*
X10121Y-20641D01*
X10480Y-20760D01*
X10856Y-20733D01*
X11079Y-20641D01*
X11174Y-20525D01*
X11174Y-23958D01*
X10800Y-23958D01*
X10593Y-23999D01*
X10534Y-24038D01*
X10416Y-24117D01*
X10217Y-24317D01*
X10099Y-24492D01*
X10058Y-24700D01*
X10058Y-25700D01*
X10099Y-25908D01*
X10217Y-26083D01*
X10416Y-26283D01*
X10417Y-26283D01*
X10534Y-26361D01*
X10592Y-26400D01*
X10593Y-26401D01*
X10766Y-26435D01*
X10774Y-26443D01*
X11143Y-26443D01*
X11193Y-26443D01*
X11407Y-26443D01*
X11407Y-26657D01*
X11407Y-26707D01*
X11407Y-26976D01*
X11449Y-27018D01*
X11667Y-27018D01*
X11689Y-27018D01*
X11724Y-27101D01*
X11800Y-27177D01*
X11193Y-27177D01*
X11193Y-26976D01*
X11193Y-26657D01*
X10774Y-26657D01*
X10732Y-26699D01*
X10732Y-26883D01*
X10757Y-26945D01*
X10805Y-26992D01*
X10866Y-27018D01*
X10933Y-27018D01*
X11151Y-27018D01*
X11193Y-26976D01*
X11193Y-27177D01*
X10090Y-27177D01*
X10090Y-31688D01*
X11958Y-31688D01*
X11958Y-31875D01*
X10717Y-33117D01*
X10599Y-33292D01*
X10558Y-33500D01*
X10558Y-34076D01*
X10437Y-34197D01*
X10413Y-34253D01*
X10285Y-34174D01*
X10207Y-34194D01*
X10207Y-34743D01*
X10207Y-34793D01*
X10207Y-35007D01*
X10207Y-35057D01*
X10207Y-35606D01*
X10285Y-35626D01*
X10413Y-35546D01*
X10436Y-35602D01*
X10656Y-35822D01*
X10944Y-35942D01*
X11255Y-35942D01*
X11543Y-35823D01*
X11661Y-35705D01*
X11661Y-37695D01*
X11660Y-37700D01*
X11717Y-37983D01*
X11877Y-38223D01*
X12165Y-38510D01*
X12167Y-38513D01*
X12407Y-38673D01*
X12690Y-38730D01*
X12690Y-38729D01*
X12694Y-38729D01*
X13039Y-38729D01*
X13179Y-38787D01*
X13355Y-38787D01*
X14221Y-38787D01*
X14362Y-38729D01*
X18639Y-38729D01*
X18779Y-38787D01*
X18955Y-38787D01*
X19821Y-38787D01*
X19962Y-38729D01*
X20639Y-38729D01*
X20779Y-38787D01*
X20955Y-38787D01*
X21821Y-38787D01*
X21962Y-38729D01*
X26339Y-38729D01*
X26479Y-38787D01*
X26655Y-38787D01*
X27521Y-38787D01*
X27662Y-38729D01*
X28405Y-38729D01*
X28410Y-38730D01*
X28410Y-38729D01*
X28693Y-38673D01*
X28933Y-38513D01*
X29270Y-38174D01*
X29272Y-38173D01*
X29273Y-38173D01*
X29432Y-37933D01*
X29433Y-37933D01*
X29479Y-37697D01*
X29489Y-37651D01*
X29488Y-37650D01*
X29489Y-37650D01*
X29489Y-36000D01*
X29489Y-35647D01*
X29615Y-35726D01*
X29693Y-35706D01*
X29693Y-35157D01*
X29693Y-35107D01*
X29693Y-34893D01*
X29693Y-34843D01*
X29693Y-34294D01*
X29615Y-34274D01*
X29497Y-34346D01*
X29529Y-32085D01*
X29533Y-32095D01*
X29580Y-32143D01*
X29642Y-32168D01*
X29851Y-32168D01*
X29893Y-32126D01*
X29893Y-31657D01*
X29893Y-31607D01*
X29893Y-31393D01*
X29893Y-31343D01*
X29893Y-30874D01*
X29851Y-30832D01*
X29642Y-30832D01*
X29580Y-30857D01*
X29533Y-30905D01*
X29507Y-30966D01*
X29507Y-31033D01*
X29507Y-31043D01*
X29440Y-30881D01*
X29228Y-30668D01*
X29009Y-30577D01*
X29043Y-30545D01*
X29068Y-30483D01*
X29068Y-30299D01*
X29068Y-30001D01*
X29068Y-29817D01*
X29043Y-29755D01*
X28995Y-29708D01*
X28934Y-29682D01*
X28867Y-29682D01*
X28649Y-29682D01*
X28607Y-29724D01*
X28607Y-30043D01*
X29026Y-30043D01*
X29068Y-30001D01*
X29068Y-30299D01*
X29026Y-30257D01*
X28657Y-30257D01*
X28607Y-30257D01*
X28393Y-30257D01*
X28393Y-30043D01*
X28393Y-29724D01*
X28351Y-29682D01*
X28133Y-29682D01*
X28066Y-29682D01*
X28005Y-29708D01*
X27957Y-29755D01*
X27932Y-29817D01*
X27932Y-30001D01*
X27974Y-30043D01*
X28393Y-30043D01*
X28393Y-30257D01*
X28343Y-30257D01*
X27974Y-30257D01*
X27932Y-30299D01*
X27932Y-30483D01*
X27957Y-30545D01*
X27966Y-30554D01*
X23294Y-30554D01*
X23294Y-29474D01*
X23241Y-29206D01*
X23233Y-29194D01*
X23233Y-29005D01*
X23233Y-28955D01*
X23233Y-28741D01*
X23447Y-28741D01*
X23447Y-28955D01*
X23447Y-29005D01*
X23447Y-29451D01*
X23513Y-29472D01*
X23653Y-29379D01*
X23661Y-29366D01*
X23742Y-29561D01*
X23798Y-29617D01*
X23798Y-29740D01*
X23839Y-29948D01*
X23957Y-30123D01*
X24117Y-30283D01*
X24292Y-30400D01*
X24293Y-30401D01*
X24500Y-30442D01*
X27000Y-30442D01*
X27207Y-30401D01*
X27208Y-30401D01*
X27383Y-30283D01*
X28073Y-29593D01*
X28188Y-29593D01*
X28988Y-29593D01*
X29151Y-29526D01*
X29275Y-29401D01*
X29343Y-29238D01*
X29343Y-29062D01*
X29343Y-28773D01*
X29583Y-28534D01*
X29583Y-28533D01*
X29700Y-28359D01*
X29700Y-28358D01*
X29701Y-28357D01*
X29741Y-28151D01*
X29742Y-28150D01*
X29742Y-24900D01*
X29701Y-24693D01*
X29700Y-24692D01*
X29661Y-24634D01*
X29583Y-24517D01*
X29583Y-24516D01*
X29577Y-24510D01*
X29592Y-24495D01*
X29618Y-24434D01*
X29618Y-24367D01*
X29618Y-24149D01*
X29576Y-24107D01*
X29307Y-24107D01*
X29257Y-24107D01*
X29043Y-24107D01*
X29043Y-23893D01*
X29257Y-23893D01*
X29307Y-23893D01*
X29576Y-23893D01*
X29618Y-23851D01*
X29618Y-23633D01*
X29618Y-23566D01*
X29592Y-23505D01*
X29545Y-23457D01*
X29483Y-23432D01*
X29307Y-23432D01*
X29299Y-23432D01*
X29234Y-23432D01*
X29330Y-23336D01*
X29485Y-23336D01*
X29648Y-23269D01*
X29772Y-23144D01*
X29840Y-22981D01*
X29840Y-22805D01*
X29840Y-22019D01*
X29773Y-21856D01*
X29648Y-21732D01*
X29485Y-21664D01*
X29309Y-21664D01*
X28915Y-21664D01*
X28752Y-21731D01*
X28699Y-21783D01*
X28648Y-21732D01*
X28533Y-21684D01*
X28683Y-21583D01*
X29330Y-20936D01*
X29485Y-20936D01*
X29648Y-20869D01*
X29772Y-20744D01*
X29840Y-20581D01*
X29840Y-20405D01*
X29840Y-20232D01*
X29859Y-20279D01*
X29975Y-20374D01*
X30549Y-19800D01*
X30549Y-20102D01*
X30126Y-20525D01*
X30221Y-20641D01*
X30580Y-20760D01*
X30956Y-20733D01*
X31179Y-20641D01*
X31274Y-20525D01*
X31274Y-37975D01*
X31179Y-37859D01*
X30820Y-37740D01*
X30518Y-37761D01*
X30518Y-33234D01*
X30518Y-33167D01*
X30518Y-32949D01*
X30518Y-32651D01*
X30518Y-32433D01*
X30518Y-32366D01*
X30493Y-32307D01*
X30493Y-32034D01*
X30493Y-31967D01*
X30493Y-31649D01*
X30493Y-31351D01*
X30493Y-31033D01*
X30493Y-30966D01*
X30467Y-30905D01*
X30420Y-30857D01*
X30358Y-30832D01*
X30149Y-30832D01*
X30107Y-30874D01*
X30107Y-31393D01*
X30451Y-31393D01*
X30493Y-31351D01*
X30493Y-31649D01*
X30451Y-31607D01*
X30107Y-31607D01*
X30107Y-32126D01*
X30149Y-32168D01*
X30358Y-32168D01*
X30420Y-32143D01*
X30467Y-32095D01*
X30493Y-32034D01*
X30493Y-32307D01*
X30492Y-32305D01*
X30445Y-32257D01*
X30383Y-32232D01*
X30199Y-32232D01*
X30157Y-32274D01*
X30157Y-32693D01*
X30476Y-32693D01*
X30518Y-32651D01*
X30518Y-32949D01*
X30476Y-32907D01*
X30157Y-32907D01*
X30157Y-33326D01*
X30199Y-33368D01*
X30383Y-33368D01*
X30445Y-33343D01*
X30492Y-33295D01*
X30518Y-33234D01*
X30518Y-37761D01*
X30444Y-37767D01*
X30322Y-37817D01*
X30322Y-35251D01*
X30322Y-35107D01*
X30322Y-34893D01*
X30322Y-34749D01*
X30278Y-34550D01*
X30161Y-34383D01*
X29985Y-34274D01*
X29943Y-34284D01*
X29943Y-33326D01*
X29943Y-32907D01*
X29943Y-32693D01*
X29943Y-32274D01*
X29901Y-32232D01*
X29717Y-32232D01*
X29655Y-32257D01*
X29608Y-32305D01*
X29582Y-32366D01*
X29582Y-32433D01*
X29582Y-32651D01*
X29624Y-32693D01*
X29943Y-32693D01*
X29943Y-32907D01*
X29624Y-32907D01*
X29582Y-32949D01*
X29582Y-33167D01*
X29582Y-33234D01*
X29608Y-33295D01*
X29655Y-33343D01*
X29717Y-33368D01*
X29901Y-33368D01*
X29943Y-33326D01*
X29943Y-34284D01*
X29907Y-34294D01*
X29907Y-34893D01*
X30322Y-34893D01*
X30322Y-35107D01*
X29907Y-35107D01*
X29907Y-35706D01*
X29985Y-35726D01*
X30161Y-35617D01*
X30278Y-35450D01*
X30322Y-35251D01*
X30322Y-37817D01*
X30221Y-37859D01*
X30126Y-37975D01*
X30700Y-38549D01*
X31274Y-37975D01*
X31274Y-38277D01*
X30851Y-38700D01*
X31425Y-39274D01*
X31541Y-39179D01*
X31660Y-38820D01*
X31660Y-39950D01*
X31274Y-39950D01*
X31274Y-39425D01*
X30700Y-38851D01*
X30549Y-39002D01*
X30549Y-38700D01*
X29975Y-38126D01*
X29859Y-38221D01*
X29740Y-38580D01*
X29767Y-38956D01*
X29859Y-39179D01*
X29975Y-39274D01*
X30549Y-38700D01*
X30549Y-39002D01*
X30126Y-39425D01*
X30221Y-39541D01*
X30580Y-39660D01*
X30956Y-39633D01*
X31179Y-39541D01*
X31274Y-39425D01*
X31274Y-39950D01*
X25701Y-39950D01*
X25701Y-39177D01*
X25701Y-38939D01*
X25659Y-38897D01*
X25207Y-38897D01*
X25207Y-39270D01*
X25249Y-39312D01*
X25500Y-39312D01*
X25567Y-39312D01*
X25628Y-39286D01*
X25676Y-39239D01*
X25701Y-39177D01*
X25701Y-39950D01*
X24993Y-39950D01*
X24993Y-39270D01*
X24993Y-38897D01*
X24541Y-38897D01*
X24499Y-38939D01*
X24499Y-39177D01*
X24524Y-39239D01*
X24572Y-39286D01*
X24633Y-39312D01*
X24700Y-39312D01*
X24951Y-39312D01*
X24993Y-39270D01*
X24993Y-39950D01*
X23701Y-39950D01*
X23701Y-39177D01*
X23701Y-38939D01*
X23659Y-38897D01*
X23207Y-38897D01*
X23207Y-39270D01*
X23249Y-39312D01*
X23500Y-39312D01*
X23567Y-39312D01*
X23628Y-39286D01*
X23676Y-39239D01*
X23701Y-39177D01*
X23701Y-39950D01*
X22993Y-39950D01*
X22993Y-39270D01*
X22993Y-38897D01*
X22541Y-38897D01*
X22499Y-38939D01*
X22499Y-39177D01*
X22524Y-39239D01*
X22572Y-39286D01*
X22633Y-39312D01*
X22700Y-39312D01*
X22951Y-39312D01*
X22993Y-39270D01*
X22993Y-39950D01*
X18101Y-39950D01*
X18101Y-39177D01*
X18101Y-38939D01*
X18059Y-38897D01*
X17607Y-38897D01*
X17607Y-39270D01*
X17649Y-39312D01*
X17900Y-39312D01*
X17967Y-39312D01*
X18028Y-39286D01*
X18076Y-39239D01*
X18101Y-39177D01*
X18101Y-39950D01*
X17393Y-39950D01*
X17393Y-39270D01*
X17393Y-38897D01*
X16941Y-38897D01*
X16899Y-38939D01*
X16899Y-39177D01*
X16924Y-39239D01*
X16972Y-39286D01*
X17033Y-39312D01*
X17100Y-39312D01*
X17351Y-39312D01*
X17393Y-39270D01*
X17393Y-39950D01*
X16201Y-39950D01*
X16201Y-39177D01*
X16201Y-38939D01*
X16159Y-38897D01*
X15707Y-38897D01*
X15707Y-39270D01*
X15749Y-39312D01*
X16000Y-39312D01*
X16067Y-39312D01*
X16128Y-39286D01*
X16176Y-39239D01*
X16201Y-39177D01*
X16201Y-39950D01*
X15493Y-39950D01*
X15493Y-39270D01*
X15493Y-38897D01*
X15041Y-38897D01*
X14999Y-38939D01*
X14999Y-39177D01*
X15024Y-39239D01*
X15072Y-39286D01*
X15133Y-39312D01*
X15200Y-39312D01*
X15451Y-39312D01*
X15493Y-39270D01*
X15493Y-39950D01*
X11660Y-39950D01*
X11660Y-38820D01*
X11633Y-38444D01*
X11541Y-38221D01*
X11425Y-38126D01*
X11274Y-38277D01*
X11274Y-37975D01*
X11179Y-37859D01*
X10820Y-37740D01*
X10444Y-37767D01*
X10221Y-37859D01*
X10126Y-37975D01*
X10700Y-38549D01*
X11274Y-37975D01*
X11274Y-38277D01*
X10851Y-38700D01*
X11425Y-39274D01*
X11541Y-39179D01*
X11660Y-38820D01*
X11660Y-39950D01*
X11274Y-39950D01*
X11274Y-39425D01*
X10700Y-38851D01*
X10549Y-39002D01*
X10549Y-38700D01*
X09993Y-38144D01*
X09993Y-35606D01*
X09993Y-35007D01*
X09993Y-34793D01*
X09993Y-34194D01*
X09915Y-34174D01*
X09739Y-34283D01*
X09622Y-34450D01*
X09578Y-34649D01*
X09578Y-34793D01*
X09993Y-34793D01*
X09993Y-35007D01*
X09578Y-35007D01*
X09578Y-35151D01*
X09622Y-35350D01*
X09739Y-35517D01*
X09915Y-35626D01*
X09993Y-35606D01*
X09993Y-38144D01*
X09975Y-38126D01*
X09859Y-38221D01*
X09740Y-38580D01*
X09767Y-38956D01*
X09859Y-39179D01*
X09975Y-39274D01*
X10549Y-38700D01*
X10549Y-39002D01*
X10126Y-39425D01*
X10221Y-39541D01*
X10580Y-39660D01*
X10956Y-39633D01*
X11179Y-39541D01*
X11274Y-39425D01*
X11274Y-39950D01*
X09350Y-39950D01*
X09350Y-18550D01*
X31950Y-18550D01*
X31950Y-39950D01*
X31950Y-39950D01*
G37*
G54D38*
X31950Y-39950D02*
X31660Y-39950D01*
X31660Y-38820D01*
X31660Y-19920D01*
X31633Y-19544D01*
X31541Y-19321D01*
X31425Y-19226D01*
X31274Y-19377D01*
X31274Y-19075D01*
X31179Y-18959D01*
X30820Y-18840D01*
X30444Y-18867D01*
X30221Y-18959D01*
X30126Y-19075D01*
X30700Y-19649D01*
X31274Y-19075D01*
X31274Y-19377D01*
X30851Y-19800D01*
X31425Y-20374D01*
X31541Y-20279D01*
X31660Y-19920D01*
X31660Y-38820D01*
X31633Y-38444D01*
X31541Y-38221D01*
X31425Y-38126D01*
X31274Y-38277D01*
X31274Y-37975D01*
X31274Y-20525D01*
X30700Y-19951D01*
X30549Y-20102D01*
X30549Y-19800D01*
X29975Y-19226D01*
X29859Y-19321D01*
X29795Y-19511D01*
X29773Y-19456D01*
X29648Y-19332D01*
X29485Y-19264D01*
X29309Y-19264D01*
X28915Y-19264D01*
X28752Y-19331D01*
X28699Y-19383D01*
X28648Y-19332D01*
X28485Y-19264D01*
X28309Y-19264D01*
X27915Y-19264D01*
X27752Y-19331D01*
X27628Y-19456D01*
X27560Y-19619D01*
X27560Y-19657D01*
X27462Y-19657D01*
X26862Y-19657D01*
X26699Y-19724D01*
X26600Y-19823D01*
X26501Y-19725D01*
X26492Y-19721D01*
X26492Y-19650D01*
X26451Y-19443D01*
X26333Y-19267D01*
X26157Y-19149D01*
X25950Y-19108D01*
X25743Y-19149D01*
X25729Y-19158D01*
X19600Y-19158D01*
X19393Y-19199D01*
X19217Y-19317D01*
X18917Y-19617D01*
X18890Y-19657D01*
X18862Y-19657D01*
X18262Y-19657D01*
X18099Y-19724D01*
X18098Y-19724D01*
X17938Y-19657D01*
X17762Y-19657D01*
X17162Y-19657D01*
X16999Y-19724D01*
X16900Y-19823D01*
X16801Y-19725D01*
X16638Y-19657D01*
X16462Y-19657D01*
X15862Y-19657D01*
X15699Y-19724D01*
X15575Y-19849D01*
X15529Y-19958D01*
X14300Y-19958D01*
X14093Y-19999D01*
X13917Y-20117D01*
X13799Y-20293D01*
X13758Y-20500D01*
X13758Y-20725D01*
X13728Y-20756D01*
X13660Y-20919D01*
X13660Y-20957D01*
X13612Y-20957D01*
X12212Y-20957D01*
X12049Y-21024D01*
X11925Y-21149D01*
X11857Y-21312D01*
X11857Y-21488D01*
X11857Y-22288D01*
X11924Y-22451D01*
X12049Y-22575D01*
X12212Y-22643D01*
X12388Y-22643D01*
X13788Y-22643D01*
X13790Y-22642D01*
X15875Y-22642D01*
X16616Y-23383D01*
X16617Y-23383D01*
X16734Y-23461D01*
X16792Y-23500D01*
X16793Y-23501D01*
X16999Y-23541D01*
X17000Y-23542D01*
X18483Y-23542D01*
X18388Y-23684D01*
X18377Y-23708D01*
X18396Y-23793D01*
X18943Y-23793D01*
X18993Y-23793D01*
X19207Y-23793D01*
X19257Y-23793D01*
X19804Y-23793D01*
X19823Y-23708D01*
X19812Y-23684D01*
X19716Y-23542D01*
X20483Y-23542D01*
X20388Y-23684D01*
X20377Y-23708D01*
X20396Y-23793D01*
X20943Y-23793D01*
X20993Y-23793D01*
X21207Y-23793D01*
X21257Y-23793D01*
X21804Y-23793D01*
X21823Y-23708D01*
X21812Y-23684D01*
X21716Y-23542D01*
X22700Y-23542D01*
X22907Y-23501D01*
X22908Y-23501D01*
X23083Y-23383D01*
X23277Y-23189D01*
X23324Y-23301D01*
X23449Y-23425D01*
X23612Y-23493D01*
X23788Y-23493D01*
X24326Y-23493D01*
X24358Y-23524D01*
X24358Y-23582D01*
X24249Y-23582D01*
X24207Y-23624D01*
X24207Y-23893D01*
X24207Y-23943D01*
X24207Y-24157D01*
X24207Y-24207D01*
X24207Y-24476D01*
X24249Y-24518D01*
X24358Y-24518D01*
X24358Y-24682D01*
X24249Y-24682D01*
X24207Y-24724D01*
X24207Y-24993D01*
X24207Y-25043D01*
X24207Y-25257D01*
X24207Y-25307D01*
X24207Y-25576D01*
X24249Y-25618D01*
X24358Y-25618D01*
X24358Y-25700D01*
X24359Y-25707D01*
X23993Y-25707D01*
X23993Y-25576D01*
X23993Y-25257D01*
X23993Y-25043D01*
X23993Y-24724D01*
X23993Y-24476D01*
X23993Y-24157D01*
X23993Y-23943D01*
X23993Y-23624D01*
X23951Y-23582D01*
X23733Y-23582D01*
X23666Y-23582D01*
X23605Y-23608D01*
X23557Y-23655D01*
X23532Y-23717D01*
X23532Y-23901D01*
X23574Y-23943D01*
X23993Y-23943D01*
X23993Y-24157D01*
X23574Y-24157D01*
X23532Y-24199D01*
X23532Y-24383D01*
X23557Y-24445D01*
X23605Y-24492D01*
X23666Y-24518D01*
X23733Y-24518D01*
X23951Y-24518D01*
X23993Y-24476D01*
X23993Y-24724D01*
X23951Y-24682D01*
X23733Y-24682D01*
X23666Y-24682D01*
X23605Y-24708D01*
X23557Y-24755D01*
X23532Y-24817D01*
X23532Y-25001D01*
X23574Y-25043D01*
X23993Y-25043D01*
X23993Y-25257D01*
X23574Y-25257D01*
X23532Y-25299D01*
X23532Y-25483D01*
X23557Y-25545D01*
X23605Y-25592D01*
X23666Y-25618D01*
X23733Y-25618D01*
X23951Y-25618D01*
X23993Y-25576D01*
X23993Y-25707D01*
X23612Y-25707D01*
X23468Y-25766D01*
X23392Y-25734D01*
X23392Y-25477D01*
X23392Y-25293D01*
X23392Y-24995D01*
X23392Y-24811D01*
X23367Y-24749D01*
X23319Y-24702D01*
X23258Y-24676D01*
X23191Y-24676D01*
X22973Y-24676D01*
X22931Y-24718D01*
X22931Y-25037D01*
X23350Y-25037D01*
X23392Y-24995D01*
X23392Y-25293D01*
X23350Y-25251D01*
X22931Y-25251D01*
X22931Y-25570D01*
X22973Y-25612D01*
X23191Y-25612D01*
X23258Y-25612D01*
X23319Y-25586D01*
X23367Y-25539D01*
X23392Y-25477D01*
X23392Y-25734D01*
X23312Y-25701D01*
X23136Y-25701D01*
X22717Y-25701D01*
X22717Y-25570D01*
X22717Y-25251D01*
X22717Y-25037D01*
X22717Y-24718D01*
X22675Y-24676D01*
X22457Y-24676D01*
X22390Y-24676D01*
X22329Y-24702D01*
X22281Y-24749D01*
X22256Y-24811D01*
X22256Y-24995D01*
X22298Y-25037D01*
X22717Y-25037D01*
X22717Y-25251D01*
X22298Y-25251D01*
X22256Y-25293D01*
X22256Y-25477D01*
X22281Y-25539D01*
X22329Y-25586D01*
X22390Y-25612D01*
X22457Y-25612D01*
X22675Y-25612D01*
X22717Y-25570D01*
X22717Y-25701D01*
X22336Y-25701D01*
X22173Y-25768D01*
X22133Y-25808D01*
X22133Y-25419D01*
X22066Y-25256D01*
X21941Y-25132D01*
X21823Y-25082D01*
X21823Y-24092D01*
X21804Y-24007D01*
X21207Y-24007D01*
X21207Y-24409D01*
X21294Y-24458D01*
X21508Y-24417D01*
X21690Y-24297D01*
X21812Y-24116D01*
X21823Y-24092D01*
X21823Y-25082D01*
X21778Y-25064D01*
X21602Y-25064D01*
X20993Y-25064D01*
X20993Y-24409D01*
X20993Y-24007D01*
X20396Y-24007D01*
X20377Y-24092D01*
X20388Y-24116D01*
X20510Y-24297D01*
X20692Y-24417D01*
X20906Y-24458D01*
X20993Y-24409D01*
X20993Y-25064D01*
X20422Y-25064D01*
X20259Y-25131D01*
X20135Y-25256D01*
X20100Y-25339D01*
X20066Y-25256D01*
X19941Y-25132D01*
X19823Y-25082D01*
X19823Y-24092D01*
X19804Y-24007D01*
X19207Y-24007D01*
X19207Y-24409D01*
X19294Y-24458D01*
X19508Y-24417D01*
X19690Y-24297D01*
X19812Y-24116D01*
X19823Y-24092D01*
X19823Y-25082D01*
X19778Y-25064D01*
X19602Y-25064D01*
X18993Y-25064D01*
X18993Y-24409D01*
X18993Y-24007D01*
X18396Y-24007D01*
X18377Y-24092D01*
X18388Y-24116D01*
X18510Y-24297D01*
X18692Y-24417D01*
X18906Y-24458D01*
X18993Y-24409D01*
X18993Y-25064D01*
X18422Y-25064D01*
X18259Y-25131D01*
X18135Y-25256D01*
X18067Y-25419D01*
X18067Y-25432D01*
X17899Y-25432D01*
X17857Y-25474D01*
X17857Y-25843D01*
X17857Y-25893D01*
X17857Y-26107D01*
X17857Y-26157D01*
X17857Y-26526D01*
X17899Y-26568D01*
X18083Y-26568D01*
X18136Y-26546D01*
X18259Y-26668D01*
X18422Y-26736D01*
X18596Y-26736D01*
X18596Y-27191D01*
X18588Y-27189D01*
X18448Y-27282D01*
X18352Y-27426D01*
X18326Y-27555D01*
X18208Y-27437D01*
X17977Y-27341D01*
X17727Y-27341D01*
X17703Y-27341D01*
X17643Y-27365D01*
X17643Y-26526D01*
X17643Y-26107D01*
X17643Y-25893D01*
X17643Y-25474D01*
X17601Y-25432D01*
X17417Y-25432D01*
X17355Y-25457D01*
X17308Y-25505D01*
X17282Y-25566D01*
X17282Y-25633D01*
X17282Y-25851D01*
X17324Y-25893D01*
X17643Y-25893D01*
X17643Y-26107D01*
X17324Y-26107D01*
X17282Y-26149D01*
X17282Y-26367D01*
X17282Y-26434D01*
X17308Y-26495D01*
X17355Y-26543D01*
X17417Y-26568D01*
X17601Y-26568D01*
X17643Y-26526D01*
X17643Y-27365D01*
X17472Y-27437D01*
X17340Y-27569D01*
X17208Y-27437D01*
X16977Y-27341D01*
X16825Y-27341D01*
X16833Y-27334D01*
X16833Y-27333D01*
X16911Y-27216D01*
X16950Y-27158D01*
X16951Y-27157D01*
X16991Y-26950D01*
X16992Y-26950D01*
X16992Y-26779D01*
X17001Y-26776D01*
X17125Y-26651D01*
X17193Y-26488D01*
X17193Y-26312D01*
X17193Y-25512D01*
X17126Y-25349D01*
X17001Y-25225D01*
X16992Y-25221D01*
X16992Y-24750D01*
X16951Y-24543D01*
X16951Y-24542D01*
X16833Y-24367D01*
X15983Y-23517D01*
X15966Y-23505D01*
X15954Y-23490D01*
X15940Y-23481D01*
X15940Y-23319D01*
X15873Y-23156D01*
X15748Y-23032D01*
X15585Y-22964D01*
X15409Y-22964D01*
X15015Y-22964D01*
X14852Y-23031D01*
X14799Y-23083D01*
X14748Y-23032D01*
X14585Y-22964D01*
X14409Y-22964D01*
X14015Y-22964D01*
X13909Y-23007D01*
X13788Y-22957D01*
X13612Y-22957D01*
X12212Y-22957D01*
X12049Y-23024D01*
X11925Y-23149D01*
X11857Y-23312D01*
X11857Y-23488D01*
X11857Y-23958D01*
X11560Y-23958D01*
X11560Y-19920D01*
X11533Y-19544D01*
X11441Y-19321D01*
X11325Y-19226D01*
X11174Y-19377D01*
X11174Y-19075D01*
X11079Y-18959D01*
X10720Y-18840D01*
X10344Y-18867D01*
X10121Y-18959D01*
X10026Y-19075D01*
X10600Y-19649D01*
X11174Y-19075D01*
X11174Y-19377D01*
X10751Y-19800D01*
X11325Y-20374D01*
X11441Y-20279D01*
X11560Y-19920D01*
X11560Y-23958D01*
X11174Y-23958D01*
X11174Y-20525D01*
X10600Y-19951D01*
X10449Y-20102D01*
X10449Y-19800D01*
X09875Y-19226D01*
X09759Y-19321D01*
X09640Y-19680D01*
X09667Y-20056D01*
X09759Y-20279D01*
X09875Y-20374D01*
X10449Y-19800D01*
X10449Y-20102D01*
X10026Y-20525D01*
X10121Y-20641D01*
X10480Y-20760D01*
X10856Y-20733D01*
X11079Y-20641D01*
X11174Y-20525D01*
X11174Y-23958D01*
X10800Y-23958D01*
X10593Y-23999D01*
X10534Y-24038D01*
X10416Y-24117D01*
X10217Y-24317D01*
X10099Y-24492D01*
X10058Y-24700D01*
X10058Y-25700D01*
X10099Y-25908D01*
X10217Y-26083D01*
X10416Y-26283D01*
X10417Y-26283D01*
X10534Y-26361D01*
X10592Y-26400D01*
X10593Y-26401D01*
X10766Y-26435D01*
X10774Y-26443D01*
X11143Y-26443D01*
X11193Y-26443D01*
X11407Y-26443D01*
X11407Y-26657D01*
X11407Y-26707D01*
X11407Y-26976D01*
X11449Y-27018D01*
X11667Y-27018D01*
X11689Y-27018D01*
X11724Y-27101D01*
X11800Y-27177D01*
X11193Y-27177D01*
X11193Y-26976D01*
X11193Y-26657D01*
X10774Y-26657D01*
X10732Y-26699D01*
X10732Y-26883D01*
X10757Y-26945D01*
X10805Y-26992D01*
X10866Y-27018D01*
X10933Y-27018D01*
X11151Y-27018D01*
X11193Y-26976D01*
X11193Y-27177D01*
X10090Y-27177D01*
X10090Y-31688D01*
X11958Y-31688D01*
X11958Y-31875D01*
X10717Y-33117D01*
X10599Y-33292D01*
X10558Y-33500D01*
X10558Y-34076D01*
X10437Y-34197D01*
X10413Y-34253D01*
X10285Y-34174D01*
X10207Y-34194D01*
X10207Y-34743D01*
X10207Y-34793D01*
X10207Y-35007D01*
X10207Y-35057D01*
X10207Y-35606D01*
X10285Y-35626D01*
X10413Y-35546D01*
X10436Y-35602D01*
X10656Y-35822D01*
X10944Y-35942D01*
X11255Y-35942D01*
X11543Y-35823D01*
X11661Y-35705D01*
X11661Y-37695D01*
X11660Y-37700D01*
X11717Y-37983D01*
X11877Y-38223D01*
X12165Y-38510D01*
X12167Y-38513D01*
X12407Y-38673D01*
X12690Y-38730D01*
X12690Y-38729D01*
X12694Y-38729D01*
X13039Y-38729D01*
X13179Y-38787D01*
X13355Y-38787D01*
X14221Y-38787D01*
X14362Y-38729D01*
X18639Y-38729D01*
X18779Y-38787D01*
X18955Y-38787D01*
X19821Y-38787D01*
X19962Y-38729D01*
X20639Y-38729D01*
X20779Y-38787D01*
X20955Y-38787D01*
X21821Y-38787D01*
X21962Y-38729D01*
X26339Y-38729D01*
X26479Y-38787D01*
X26655Y-38787D01*
X27521Y-38787D01*
X27662Y-38729D01*
X28405Y-38729D01*
X28410Y-38730D01*
X28410Y-38729D01*
X28693Y-38673D01*
X28933Y-38513D01*
X29270Y-38174D01*
X29272Y-38173D01*
X29273Y-38173D01*
X29432Y-37933D01*
X29433Y-37933D01*
X29479Y-37697D01*
X29489Y-37651D01*
X29488Y-37650D01*
X29489Y-37650D01*
X29489Y-36000D01*
X29489Y-35647D01*
X29615Y-35726D01*
X29693Y-35706D01*
X29693Y-35157D01*
X29693Y-35107D01*
X29693Y-34893D01*
X29693Y-34843D01*
X29693Y-34294D01*
X29615Y-34274D01*
X29497Y-34346D01*
X29529Y-32085D01*
X29533Y-32095D01*
X29580Y-32143D01*
X29642Y-32168D01*
X29851Y-32168D01*
X29893Y-32126D01*
X29893Y-31657D01*
X29893Y-31607D01*
X29893Y-31393D01*
X29893Y-31343D01*
X29893Y-30874D01*
X29851Y-30832D01*
X29642Y-30832D01*
X29580Y-30857D01*
X29533Y-30905D01*
X29507Y-30966D01*
X29507Y-31033D01*
X29507Y-31043D01*
X29440Y-30881D01*
X29228Y-30668D01*
X29009Y-30577D01*
X29043Y-30545D01*
X29068Y-30483D01*
X29068Y-30299D01*
X29068Y-30001D01*
X29068Y-29817D01*
X29043Y-29755D01*
X28995Y-29708D01*
X28934Y-29682D01*
X28867Y-29682D01*
X28649Y-29682D01*
X28607Y-29724D01*
X28607Y-30043D01*
X29026Y-30043D01*
X29068Y-30001D01*
X29068Y-30299D01*
X29026Y-30257D01*
X28657Y-30257D01*
X28607Y-30257D01*
X28393Y-30257D01*
X28393Y-30043D01*
X28393Y-29724D01*
X28351Y-29682D01*
X28133Y-29682D01*
X28066Y-29682D01*
X28005Y-29708D01*
X27957Y-29755D01*
X27932Y-29817D01*
X27932Y-30001D01*
X27974Y-30043D01*
X28393Y-30043D01*
X28393Y-30257D01*
X28343Y-30257D01*
X27974Y-30257D01*
X27932Y-30299D01*
X27932Y-30483D01*
X27957Y-30545D01*
X27966Y-30554D01*
X23294Y-30554D01*
X23294Y-29474D01*
X23241Y-29206D01*
X23233Y-29194D01*
X23233Y-29005D01*
X23233Y-28955D01*
X23233Y-28741D01*
X23447Y-28741D01*
X23447Y-28955D01*
X23447Y-29005D01*
X23447Y-29451D01*
X23513Y-29472D01*
X23653Y-29379D01*
X23661Y-29366D01*
X23742Y-29561D01*
X23798Y-29617D01*
X23798Y-29740D01*
X23839Y-29948D01*
X23957Y-30123D01*
X24117Y-30283D01*
X24292Y-30400D01*
X24293Y-30401D01*
X24500Y-30442D01*
X27000Y-30442D01*
X27207Y-30401D01*
X27208Y-30401D01*
X27383Y-30283D01*
X28073Y-29593D01*
X28188Y-29593D01*
X28988Y-29593D01*
X29151Y-29526D01*
X29275Y-29401D01*
X29343Y-29238D01*
X29343Y-29062D01*
X29343Y-28773D01*
X29583Y-28534D01*
X29583Y-28533D01*
X29700Y-28359D01*
X29700Y-28358D01*
X29701Y-28357D01*
X29741Y-28151D01*
X29742Y-28150D01*
X29742Y-24900D01*
X29701Y-24693D01*
X29700Y-24692D01*
X29661Y-24634D01*
X29583Y-24517D01*
X29583Y-24516D01*
X29577Y-24510D01*
X29592Y-24495D01*
X29618Y-24434D01*
X29618Y-24367D01*
X29618Y-24149D01*
X29576Y-24107D01*
X29307Y-24107D01*
X29257Y-24107D01*
X29043Y-24107D01*
X29043Y-23893D01*
X29257Y-23893D01*
X29307Y-23893D01*
X29576Y-23893D01*
X29618Y-23851D01*
X29618Y-23633D01*
X29618Y-23566D01*
X29592Y-23505D01*
X29545Y-23457D01*
X29483Y-23432D01*
X29307Y-23432D01*
X29299Y-23432D01*
X29234Y-23432D01*
X29330Y-23336D01*
X29485Y-23336D01*
X29648Y-23269D01*
X29772Y-23144D01*
X29840Y-22981D01*
X29840Y-22805D01*
X29840Y-22019D01*
X29773Y-21856D01*
X29648Y-21732D01*
X29485Y-21664D01*
X29309Y-21664D01*
X28915Y-21664D01*
X28752Y-21731D01*
X28699Y-21783D01*
X28648Y-21732D01*
X28533Y-21684D01*
X28683Y-21583D01*
X29330Y-20936D01*
X29485Y-20936D01*
X29648Y-20869D01*
X29772Y-20744D01*
X29840Y-20581D01*
X29840Y-20405D01*
X29840Y-20232D01*
X29859Y-20279D01*
X29975Y-20374D01*
X30549Y-19800D01*
X30549Y-20102D01*
X30126Y-20525D01*
X30221Y-20641D01*
X30580Y-20760D01*
X30956Y-20733D01*
X31179Y-20641D01*
X31274Y-20525D01*
X31274Y-37975D01*
X31179Y-37859D01*
X30820Y-37740D01*
X30518Y-37761D01*
X30518Y-33234D01*
X30518Y-33167D01*
X30518Y-32949D01*
X30518Y-32651D01*
X30518Y-32433D01*
X30518Y-32366D01*
X30493Y-32307D01*
X30493Y-32034D01*
X30493Y-31967D01*
X30493Y-31649D01*
X30493Y-31351D01*
X30493Y-31033D01*
X30493Y-30966D01*
X30467Y-30905D01*
X30420Y-30857D01*
X30358Y-30832D01*
X30149Y-30832D01*
X30107Y-30874D01*
X30107Y-31393D01*
X30451Y-31393D01*
X30493Y-31351D01*
X30493Y-31649D01*
X30451Y-31607D01*
X30107Y-31607D01*
X30107Y-32126D01*
X30149Y-32168D01*
X30358Y-32168D01*
X30420Y-32143D01*
X30467Y-32095D01*
X30493Y-32034D01*
X30493Y-32307D01*
X30492Y-32305D01*
X30445Y-32257D01*
X30383Y-32232D01*
X30199Y-32232D01*
X30157Y-32274D01*
X30157Y-32693D01*
X30476Y-32693D01*
X30518Y-32651D01*
X30518Y-32949D01*
X30476Y-32907D01*
X30157Y-32907D01*
X30157Y-33326D01*
X30199Y-33368D01*
X30383Y-33368D01*
X30445Y-33343D01*
X30492Y-33295D01*
X30518Y-33234D01*
X30518Y-37761D01*
X30444Y-37767D01*
X30322Y-37817D01*
X30322Y-35251D01*
X30322Y-35107D01*
X30322Y-34893D01*
X30322Y-34749D01*
X30278Y-34550D01*
X30161Y-34383D01*
X29985Y-34274D01*
X29943Y-34284D01*
X29943Y-33326D01*
X29943Y-32907D01*
X29943Y-32693D01*
X29943Y-32274D01*
X29901Y-32232D01*
X29717Y-32232D01*
X29655Y-32257D01*
X29608Y-32305D01*
X29582Y-32366D01*
X29582Y-32433D01*
X29582Y-32651D01*
X29624Y-32693D01*
X29943Y-32693D01*
X29943Y-32907D01*
X29624Y-32907D01*
X29582Y-32949D01*
X29582Y-33167D01*
X29582Y-33234D01*
X29608Y-33295D01*
X29655Y-33343D01*
X29717Y-33368D01*
X29901Y-33368D01*
X29943Y-33326D01*
X29943Y-34284D01*
X29907Y-34294D01*
X29907Y-34893D01*
X30322Y-34893D01*
X30322Y-35107D01*
X29907Y-35107D01*
X29907Y-35706D01*
X29985Y-35726D01*
X30161Y-35617D01*
X30278Y-35450D01*
X30322Y-35251D01*
X30322Y-37817D01*
X30221Y-37859D01*
X30126Y-37975D01*
X30700Y-38549D01*
X31274Y-37975D01*
X31274Y-38277D01*
X30851Y-38700D01*
X31425Y-39274D01*
X31541Y-39179D01*
X31660Y-38820D01*
X31660Y-39950D01*
X31274Y-39950D01*
X31274Y-39425D01*
X30700Y-38851D01*
X30549Y-39002D01*
X30549Y-38700D01*
X29975Y-38126D01*
X29859Y-38221D01*
X29740Y-38580D01*
X29767Y-38956D01*
X29859Y-39179D01*
X29975Y-39274D01*
X30549Y-38700D01*
X30549Y-39002D01*
X30126Y-39425D01*
X30221Y-39541D01*
X30580Y-39660D01*
X30956Y-39633D01*
X31179Y-39541D01*
X31274Y-39425D01*
X31274Y-39950D01*
X25701Y-39950D01*
X25701Y-39177D01*
X25701Y-38939D01*
X25659Y-38897D01*
X25207Y-38897D01*
X25207Y-39270D01*
X25249Y-39312D01*
X25500Y-39312D01*
X25567Y-39312D01*
X25628Y-39286D01*
X25676Y-39239D01*
X25701Y-39177D01*
X25701Y-39950D01*
X24993Y-39950D01*
X24993Y-39270D01*
X24993Y-38897D01*
X24541Y-38897D01*
X24499Y-38939D01*
X24499Y-39177D01*
X24524Y-39239D01*
X24572Y-39286D01*
X24633Y-39312D01*
X24700Y-39312D01*
X24951Y-39312D01*
X24993Y-39270D01*
X24993Y-39950D01*
X23701Y-39950D01*
X23701Y-39177D01*
X23701Y-38939D01*
X23659Y-38897D01*
X23207Y-38897D01*
X23207Y-39270D01*
X23249Y-39312D01*
X23500Y-39312D01*
X23567Y-39312D01*
X23628Y-39286D01*
X23676Y-39239D01*
X23701Y-39177D01*
X23701Y-39950D01*
X22993Y-39950D01*
X22993Y-39270D01*
X22993Y-38897D01*
X22541Y-38897D01*
X22499Y-38939D01*
X22499Y-39177D01*
X22524Y-39239D01*
X22572Y-39286D01*
X22633Y-39312D01*
X22700Y-39312D01*
X22951Y-39312D01*
X22993Y-39270D01*
X22993Y-39950D01*
X18101Y-39950D01*
X18101Y-39177D01*
X18101Y-38939D01*
X18059Y-38897D01*
X17607Y-38897D01*
X17607Y-39270D01*
X17649Y-39312D01*
X17900Y-39312D01*
X17967Y-39312D01*
X18028Y-39286D01*
X18076Y-39239D01*
X18101Y-39177D01*
X18101Y-39950D01*
X17393Y-39950D01*
X17393Y-39270D01*
X17393Y-38897D01*
X16941Y-38897D01*
X16899Y-38939D01*
X16899Y-39177D01*
X16924Y-39239D01*
X16972Y-39286D01*
X17033Y-39312D01*
X17100Y-39312D01*
X17351Y-39312D01*
X17393Y-39270D01*
X17393Y-39950D01*
X16201Y-39950D01*
X16201Y-39177D01*
X16201Y-38939D01*
X16159Y-38897D01*
X15707Y-38897D01*
X15707Y-39270D01*
X15749Y-39312D01*
X16000Y-39312D01*
X16067Y-39312D01*
X16128Y-39286D01*
X16176Y-39239D01*
X16201Y-39177D01*
X16201Y-39950D01*
X15493Y-39950D01*
X15493Y-39270D01*
X15493Y-38897D01*
X15041Y-38897D01*
X14999Y-38939D01*
X14999Y-39177D01*
X15024Y-39239D01*
X15072Y-39286D01*
X15133Y-39312D01*
X15200Y-39312D01*
X15451Y-39312D01*
X15493Y-39270D01*
X15493Y-39950D01*
X11660Y-39950D01*
X11660Y-38820D01*
X11633Y-38444D01*
X11541Y-38221D01*
X11425Y-38126D01*
X11274Y-38277D01*
X11274Y-37975D01*
X11179Y-37859D01*
X10820Y-37740D01*
X10444Y-37767D01*
X10221Y-37859D01*
X10126Y-37975D01*
X10700Y-38549D01*
X11274Y-37975D01*
X11274Y-38277D01*
X10851Y-38700D01*
X11425Y-39274D01*
X11541Y-39179D01*
X11660Y-38820D01*
X11660Y-39950D01*
X11274Y-39950D01*
X11274Y-39425D01*
X10700Y-38851D01*
X10549Y-39002D01*
X10549Y-38700D01*
X09993Y-38144D01*
X09993Y-35606D01*
X09993Y-35007D01*
X09993Y-34793D01*
X09993Y-34194D01*
X09915Y-34174D01*
X09739Y-34283D01*
X09622Y-34450D01*
X09578Y-34649D01*
X09578Y-34793D01*
X09993Y-34793D01*
X09993Y-35007D01*
X09578Y-35007D01*
X09578Y-35151D01*
X09622Y-35350D01*
X09739Y-35517D01*
X09915Y-35626D01*
X09993Y-35606D01*
X09993Y-38144D01*
X09975Y-38126D01*
X09859Y-38221D01*
X09740Y-38580D01*
X09767Y-38956D01*
X09859Y-39179D01*
X09975Y-39274D01*
X10549Y-38700D01*
X10549Y-39002D01*
X10126Y-39425D01*
X10221Y-39541D01*
X10580Y-39660D01*
X10956Y-39633D01*
X11179Y-39541D01*
X11274Y-39425D01*
X11274Y-39950D01*
X09350Y-39950D01*
X09350Y-18550D01*
X31950Y-18550D01*
X31950Y-39950D01*
M02*
