M48
INCH,TZ
T1C0.032
T2C0.032
T3C0.039
T4C0.039
T5C0.040
T6C0.043
T7C0.120
%
G90
G05
T1
X1.760Y-2.180
X1.860Y-2.180
X1.960Y-2.180
X2.060Y-2.180
T2
X2.880Y-3.150
X3.000Y-3.150
T3
X1.010Y-3.490
X1.110Y-3.490
X2.880Y-3.500
X2.980Y-3.500
T4
X1.384Y-2.797
X1.434Y-2.877
X1.484Y-2.797
X1.534Y-2.877
X1.584Y-2.797
X1.631Y-3.494
X1.634Y-2.877
X1.684Y-2.797
X1.731Y-3.494
X1.734Y-2.877
X1.784Y-2.797
X1.834Y-2.877
X1.884Y-2.797
X1.934Y-2.877
X1.984Y-2.797
X2.034Y-2.877
X2.084Y-2.797
X2.134Y-2.877
X2.184Y-2.797
X2.234Y-2.877
X2.284Y-2.797
X2.319Y-3.496
X2.334Y-2.877
X2.384Y-2.797
X2.419Y-3.496
X2.434Y-2.877
X2.484Y-2.797
X2.534Y-2.877
X2.584Y-2.797
T5
X1.390Y-2.530
X1.390Y-2.630
X1.530Y-2.530
X1.530Y-2.630
X2.700Y-2.540
X2.700Y-2.640
X2.850Y-2.540
X2.850Y-2.640
T6
X1.910Y-2.390
X1.910Y-2.590
X2.110Y-2.390
X2.110Y-2.590
T7
X1.060Y-1.980
X1.070Y-3.870
X3.070Y-1.980
X3.070Y-3.870
T0
M30
