G04 (created by PCBNEW-RS274X (2011-07-08 BZR 3044)-stable) date 2012-09-13 22:15:06*
G01*
G70*
G90*
%MOIN*%
G04 Gerber Fmt 3.4, Leading zero omitted, Abs format*
%FSLAX34Y34*%
G04 APERTURE LIST*
%ADD10C,0.006000*%
%ADD11O,0.138100X0.090900*%
%ADD12R,0.138100X0.090900*%
%ADD13R,0.080000X0.100000*%
%ADD14R,0.138100X0.120000*%
%ADD15O,0.138100X0.120000*%
%ADD16R,0.090900X0.120000*%
%ADD17O,0.090900X0.120000*%
%ADD18C,0.180000*%
%ADD19R,0.090900X0.090900*%
%ADD20C,0.090900*%
G04 APERTURE END LIST*
G54D10*
G54D11*
X40116Y-34156D03*
X40116Y-33156D03*
G54D12*
X40116Y-32156D03*
G54D13*
X40968Y-28632D03*
X39668Y-28632D03*
X43894Y-35564D03*
X42594Y-35564D03*
G54D14*
X45686Y-35254D03*
G54D15*
X45686Y-31254D03*
G54D16*
X39986Y-29926D03*
G54D17*
X40986Y-29926D03*
G54D13*
X39996Y-35530D03*
X41296Y-35530D03*
X42584Y-34474D03*
X41284Y-34474D03*
G54D18*
X47500Y-38000D03*
X38250Y-25000D03*
X38250Y-40250D03*
X47500Y-28250D03*
G54D19*
X42942Y-37674D03*
G54D20*
X43942Y-37674D03*
G54D19*
X42898Y-28632D03*
G54D20*
X43898Y-28632D03*
G54D19*
X46500Y-25550D03*
G54D20*
X47500Y-25550D03*
G54D19*
X46500Y-24550D03*
G54D20*
X47500Y-24550D03*
G54D19*
X49950Y-40700D03*
G54D20*
X50950Y-40700D03*
G54D19*
X49950Y-39700D03*
G54D20*
X50950Y-39700D03*
G54D19*
X49950Y-38700D03*
G54D20*
X50950Y-38700D03*
G54D19*
X49950Y-37700D03*
G54D20*
X50950Y-37700D03*
G54D19*
X49950Y-36700D03*
G54D20*
X50950Y-36700D03*
G54D19*
X49950Y-35700D03*
G54D20*
X50950Y-35700D03*
G54D19*
X49950Y-34700D03*
G54D20*
X50950Y-34700D03*
G54D19*
X42900Y-27600D03*
G54D20*
X43900Y-27600D03*
G54D19*
X42900Y-26600D03*
G54D20*
X43900Y-26600D03*
G54D19*
X42900Y-25600D03*
G54D20*
X43900Y-25600D03*
G54D19*
X42900Y-24600D03*
G54D20*
X43900Y-24600D03*
G54D19*
X49900Y-30550D03*
G54D20*
X50900Y-30550D03*
G54D19*
X49900Y-29550D03*
G54D20*
X50900Y-29550D03*
G54D19*
X49900Y-28550D03*
G54D20*
X50900Y-28550D03*
G54D19*
X49900Y-27550D03*
G54D20*
X50900Y-27550D03*
G54D19*
X49900Y-26550D03*
G54D20*
X50900Y-26550D03*
G54D19*
X49900Y-25550D03*
G54D20*
X50900Y-25550D03*
G54D19*
X49900Y-24550D03*
G54D20*
X50900Y-24550D03*
G54D19*
X42950Y-39700D03*
G54D20*
X43950Y-39700D03*
G54D19*
X42950Y-40700D03*
G54D20*
X43950Y-40700D03*
G54D19*
X42950Y-38700D03*
G54D20*
X43950Y-38700D03*
M02*
