G04 (created by PCBNEW-RS274X (2011-07-08 BZR 3044)-stable) date 2012-09-13 22:15:06*
G01*
G70*
G90*
%MOIN*%
G04 Gerber Fmt 3.4, Leading zero omitted, Abs format*
%FSLAX34Y34*%
G04 APERTURE LIST*
%ADD10C,0.006000*%
%ADD11C,0.007900*%
%ADD12C,0.015000*%
%ADD13C,0.008000*%
%ADD14C,0.012000*%
%ADD15C,0.010000*%
G04 APERTURE END LIST*
G54D10*
G54D11*
X48731Y-33264D02*
X49031Y-33264D01*
X48881Y-33493D02*
X48881Y-33036D01*
X49181Y-32893D02*
X49425Y-32893D01*
X49294Y-33121D01*
X49350Y-33121D01*
X49388Y-33150D01*
X49406Y-33179D01*
X49425Y-33236D01*
X49425Y-33379D01*
X49406Y-33436D01*
X49388Y-33464D01*
X49350Y-33493D01*
X49238Y-33493D01*
X49200Y-33464D01*
X49181Y-33436D01*
X49594Y-33436D02*
X49613Y-33464D01*
X49594Y-33493D01*
X49575Y-33464D01*
X49594Y-33436D01*
X49594Y-33493D01*
X49744Y-32893D02*
X49988Y-32893D01*
X49857Y-33121D01*
X49913Y-33121D01*
X49951Y-33150D01*
X49969Y-33179D01*
X49988Y-33236D01*
X49988Y-33379D01*
X49969Y-33436D01*
X49951Y-33464D01*
X49913Y-33493D01*
X49801Y-33493D01*
X49763Y-33464D01*
X49744Y-33436D01*
X50119Y-33093D02*
X50213Y-33493D01*
X50307Y-33093D01*
X50963Y-32921D02*
X50926Y-32893D01*
X50869Y-32893D01*
X50813Y-32921D01*
X50776Y-32979D01*
X50757Y-33036D01*
X50738Y-33150D01*
X50738Y-33236D01*
X50757Y-33350D01*
X50776Y-33407D01*
X50813Y-33464D01*
X50869Y-33493D01*
X50907Y-33493D01*
X50963Y-33464D01*
X50982Y-33436D01*
X50982Y-33236D01*
X50907Y-33236D01*
X51151Y-33493D02*
X51151Y-32893D01*
X51376Y-33493D01*
X51376Y-32893D01*
X51564Y-33493D02*
X51564Y-32893D01*
X51658Y-32893D01*
X51714Y-32921D01*
X51751Y-32979D01*
X51770Y-33036D01*
X51789Y-33150D01*
X51789Y-33236D01*
X51770Y-33350D01*
X51751Y-33407D01*
X51714Y-33464D01*
X51658Y-33493D01*
X51564Y-33493D01*
X49012Y-32014D02*
X49312Y-32014D01*
X49162Y-32243D02*
X49162Y-31786D01*
X49687Y-31643D02*
X49500Y-31643D01*
X49481Y-31929D01*
X49500Y-31900D01*
X49537Y-31871D01*
X49631Y-31871D01*
X49669Y-31900D01*
X49687Y-31929D01*
X49706Y-31986D01*
X49706Y-32129D01*
X49687Y-32186D01*
X49669Y-32214D01*
X49631Y-32243D01*
X49537Y-32243D01*
X49500Y-32214D01*
X49481Y-32186D01*
X49837Y-31843D02*
X49931Y-32243D01*
X50025Y-31843D01*
X50681Y-31671D02*
X50644Y-31643D01*
X50587Y-31643D01*
X50531Y-31671D01*
X50494Y-31729D01*
X50475Y-31786D01*
X50456Y-31900D01*
X50456Y-31986D01*
X50475Y-32100D01*
X50494Y-32157D01*
X50531Y-32214D01*
X50587Y-32243D01*
X50625Y-32243D01*
X50681Y-32214D01*
X50700Y-32186D01*
X50700Y-31986D01*
X50625Y-31986D01*
X50869Y-32243D02*
X50869Y-31643D01*
X51094Y-32243D01*
X51094Y-31643D01*
X51282Y-32243D02*
X51282Y-31643D01*
X51376Y-31643D01*
X51432Y-31671D01*
X51469Y-31729D01*
X51488Y-31786D01*
X51507Y-31900D01*
X51507Y-31986D01*
X51488Y-32100D01*
X51469Y-32157D01*
X51432Y-32214D01*
X51376Y-32243D01*
X51282Y-32243D01*
X45725Y-26993D02*
X45725Y-26393D01*
X45875Y-26393D01*
X45912Y-26421D01*
X45931Y-26450D01*
X45950Y-26507D01*
X45950Y-26593D01*
X45931Y-26650D01*
X45912Y-26679D01*
X45875Y-26707D01*
X45725Y-26707D01*
X46081Y-26393D02*
X46175Y-26993D01*
X46250Y-26564D01*
X46325Y-26993D01*
X46419Y-26393D01*
X46794Y-26993D02*
X46663Y-26707D01*
X46569Y-26993D02*
X46569Y-26393D01*
X46719Y-26393D01*
X46756Y-26421D01*
X46775Y-26450D01*
X46794Y-26507D01*
X46794Y-26593D01*
X46775Y-26650D01*
X46756Y-26679D01*
X46719Y-26707D01*
X46569Y-26707D01*
X47469Y-26421D02*
X47432Y-26393D01*
X47375Y-26393D01*
X47319Y-26421D01*
X47282Y-26479D01*
X47263Y-26536D01*
X47244Y-26650D01*
X47244Y-26736D01*
X47263Y-26850D01*
X47282Y-26907D01*
X47319Y-26964D01*
X47375Y-26993D01*
X47413Y-26993D01*
X47469Y-26964D01*
X47488Y-26936D01*
X47488Y-26736D01*
X47413Y-26736D01*
X47657Y-26993D02*
X47657Y-26393D01*
X47882Y-26993D01*
X47882Y-26393D01*
X48070Y-26993D02*
X48070Y-26393D01*
X48164Y-26393D01*
X48220Y-26421D01*
X48257Y-26479D01*
X48276Y-26536D01*
X48295Y-26650D01*
X48295Y-26736D01*
X48276Y-26850D01*
X48257Y-26907D01*
X48220Y-26964D01*
X48164Y-26993D01*
X48070Y-26993D01*
X41507Y-36590D02*
X42107Y-36590D01*
X42107Y-36684D01*
X42079Y-36740D01*
X42021Y-36777D01*
X41964Y-36796D01*
X41850Y-36815D01*
X41764Y-36815D01*
X41650Y-36796D01*
X41593Y-36777D01*
X41536Y-36740D01*
X41507Y-36684D01*
X41507Y-36590D01*
X41536Y-37134D02*
X41507Y-37096D01*
X41507Y-37021D01*
X41536Y-36984D01*
X41593Y-36965D01*
X41821Y-36965D01*
X41879Y-36984D01*
X41907Y-37021D01*
X41907Y-37096D01*
X41879Y-37134D01*
X41821Y-37153D01*
X41764Y-37153D01*
X41707Y-36965D01*
X41507Y-37378D02*
X41536Y-37341D01*
X41593Y-37322D01*
X42107Y-37322D01*
X41507Y-37697D02*
X41821Y-37697D01*
X41879Y-37678D01*
X41907Y-37640D01*
X41907Y-37565D01*
X41879Y-37528D01*
X41536Y-37697D02*
X41507Y-37659D01*
X41507Y-37565D01*
X41536Y-37528D01*
X41593Y-37509D01*
X41650Y-37509D01*
X41707Y-37528D01*
X41736Y-37565D01*
X41736Y-37659D01*
X41764Y-37697D01*
X41907Y-37846D02*
X41507Y-37940D01*
X41907Y-38034D02*
X41507Y-37940D01*
X41364Y-37903D01*
X41336Y-37884D01*
X41307Y-37846D01*
X41536Y-38334D02*
X41507Y-38296D01*
X41507Y-38221D01*
X41536Y-38184D01*
X41593Y-38165D01*
X41821Y-38165D01*
X41879Y-38184D01*
X41907Y-38221D01*
X41907Y-38296D01*
X41879Y-38334D01*
X41821Y-38353D01*
X41764Y-38353D01*
X41707Y-38165D01*
X41507Y-38691D02*
X42107Y-38691D01*
X41536Y-38691D02*
X41507Y-38653D01*
X41507Y-38578D01*
X41536Y-38541D01*
X41564Y-38522D01*
X41621Y-38503D01*
X41793Y-38503D01*
X41850Y-38522D01*
X41879Y-38541D01*
X41907Y-38578D01*
X41907Y-38653D01*
X41879Y-38691D01*
X42107Y-39122D02*
X41507Y-39253D01*
X42107Y-39384D01*
X41564Y-39741D02*
X41536Y-39722D01*
X41507Y-39666D01*
X41507Y-39628D01*
X41536Y-39572D01*
X41593Y-39535D01*
X41650Y-39516D01*
X41764Y-39497D01*
X41850Y-39497D01*
X41964Y-39516D01*
X42021Y-39535D01*
X42079Y-39572D01*
X42107Y-39628D01*
X42107Y-39666D01*
X42079Y-39722D01*
X42050Y-39741D01*
X41564Y-40135D02*
X41536Y-40116D01*
X41507Y-40060D01*
X41507Y-40022D01*
X41536Y-39966D01*
X41593Y-39929D01*
X41650Y-39910D01*
X41764Y-39891D01*
X41850Y-39891D01*
X41964Y-39910D01*
X42021Y-39929D01*
X42079Y-39966D01*
X42107Y-40022D01*
X42107Y-40060D01*
X42079Y-40116D01*
X42050Y-40135D01*
X42107Y-40679D02*
X42107Y-40754D01*
X42079Y-40791D01*
X42021Y-40829D01*
X41907Y-40848D01*
X41707Y-40848D01*
X41593Y-40829D01*
X41536Y-40791D01*
X41507Y-40754D01*
X41507Y-40679D01*
X41536Y-40641D01*
X41593Y-40604D01*
X41707Y-40585D01*
X41907Y-40585D01*
X42021Y-40604D01*
X42079Y-40641D01*
X42107Y-40679D01*
X41907Y-41186D02*
X41507Y-41186D01*
X41907Y-41017D02*
X41593Y-41017D01*
X41536Y-41036D01*
X41507Y-41073D01*
X41507Y-41129D01*
X41536Y-41167D01*
X41564Y-41186D01*
X41907Y-41317D02*
X41907Y-41467D01*
X42107Y-41373D02*
X41593Y-41373D01*
X41536Y-41392D01*
X41507Y-41429D01*
X41507Y-41467D01*
X42225Y-36398D02*
X42356Y-36989D01*
X42487Y-36398D01*
X42844Y-36932D02*
X42825Y-36961D01*
X42769Y-36989D01*
X42731Y-36989D01*
X42675Y-36961D01*
X42638Y-36904D01*
X42619Y-36848D01*
X42600Y-36735D01*
X42600Y-36651D01*
X42619Y-36538D01*
X42638Y-36482D01*
X42675Y-36426D01*
X42731Y-36398D01*
X42769Y-36398D01*
X42825Y-36426D01*
X42844Y-36454D01*
X43238Y-36932D02*
X43219Y-36961D01*
X43163Y-36989D01*
X43125Y-36989D01*
X43069Y-36961D01*
X43032Y-36904D01*
X43013Y-36848D01*
X42994Y-36735D01*
X42994Y-36651D01*
X43013Y-36538D01*
X43032Y-36482D01*
X43069Y-36426D01*
X43125Y-36398D01*
X43163Y-36398D01*
X43219Y-36426D01*
X43238Y-36454D01*
X43913Y-36426D02*
X43876Y-36398D01*
X43819Y-36398D01*
X43763Y-36426D01*
X43726Y-36482D01*
X43707Y-36538D01*
X43688Y-36651D01*
X43688Y-36735D01*
X43707Y-36848D01*
X43726Y-36904D01*
X43763Y-36961D01*
X43819Y-36989D01*
X43857Y-36989D01*
X43913Y-36961D01*
X43932Y-36932D01*
X43932Y-36735D01*
X43857Y-36735D01*
X44101Y-36989D02*
X44101Y-36398D01*
X44326Y-36989D01*
X44326Y-36398D01*
X44514Y-36989D02*
X44514Y-36398D01*
X44608Y-36398D01*
X44664Y-36426D01*
X44701Y-36482D01*
X44720Y-36538D01*
X44739Y-36651D01*
X44739Y-36735D01*
X44720Y-36848D01*
X44701Y-36904D01*
X44664Y-36961D01*
X44608Y-36989D01*
X44514Y-36989D01*
X41857Y-25525D02*
X41257Y-25656D01*
X41857Y-25787D01*
X41314Y-26144D02*
X41286Y-26125D01*
X41257Y-26069D01*
X41257Y-26031D01*
X41286Y-25975D01*
X41343Y-25938D01*
X41400Y-25919D01*
X41514Y-25900D01*
X41600Y-25900D01*
X41714Y-25919D01*
X41771Y-25938D01*
X41829Y-25975D01*
X41857Y-26031D01*
X41857Y-26069D01*
X41829Y-26125D01*
X41800Y-26144D01*
X41314Y-26538D02*
X41286Y-26519D01*
X41257Y-26463D01*
X41257Y-26425D01*
X41286Y-26369D01*
X41343Y-26332D01*
X41400Y-26313D01*
X41514Y-26294D01*
X41600Y-26294D01*
X41714Y-26313D01*
X41771Y-26332D01*
X41829Y-26369D01*
X41857Y-26425D01*
X41857Y-26463D01*
X41829Y-26519D01*
X41800Y-26538D01*
X41257Y-27007D02*
X41857Y-27007D01*
X41257Y-27195D02*
X41857Y-27195D01*
X41257Y-27420D01*
X41857Y-27420D01*
X42225Y-29398D02*
X42356Y-29989D01*
X42487Y-29398D01*
X42844Y-29932D02*
X42825Y-29961D01*
X42769Y-29989D01*
X42731Y-29989D01*
X42675Y-29961D01*
X42638Y-29904D01*
X42619Y-29848D01*
X42600Y-29735D01*
X42600Y-29651D01*
X42619Y-29538D01*
X42638Y-29482D01*
X42675Y-29426D01*
X42731Y-29398D01*
X42769Y-29398D01*
X42825Y-29426D01*
X42844Y-29454D01*
X43238Y-29932D02*
X43219Y-29961D01*
X43163Y-29989D01*
X43125Y-29989D01*
X43069Y-29961D01*
X43032Y-29904D01*
X43013Y-29848D01*
X42994Y-29735D01*
X42994Y-29651D01*
X43013Y-29538D01*
X43032Y-29482D01*
X43069Y-29426D01*
X43125Y-29398D01*
X43163Y-29398D01*
X43219Y-29426D01*
X43238Y-29454D01*
X43913Y-29426D02*
X43876Y-29398D01*
X43819Y-29398D01*
X43763Y-29426D01*
X43726Y-29482D01*
X43707Y-29538D01*
X43688Y-29651D01*
X43688Y-29735D01*
X43707Y-29848D01*
X43726Y-29904D01*
X43763Y-29961D01*
X43819Y-29989D01*
X43857Y-29989D01*
X43913Y-29961D01*
X43932Y-29932D01*
X43932Y-29735D01*
X43857Y-29735D01*
X44101Y-29989D02*
X44101Y-29398D01*
X44326Y-29989D01*
X44326Y-29398D01*
X44514Y-29989D02*
X44514Y-29398D01*
X44608Y-29398D01*
X44664Y-29426D01*
X44701Y-29482D01*
X44720Y-29538D01*
X44739Y-29651D01*
X44739Y-29735D01*
X44720Y-29848D01*
X44701Y-29904D01*
X44664Y-29961D01*
X44608Y-29989D01*
X44514Y-29989D01*
G54D12*
X42116Y-38156D02*
X42116Y-28156D01*
X38916Y-38156D02*
X38916Y-28156D01*
X38916Y-38156D02*
X42116Y-38156D01*
X42116Y-28156D02*
X38916Y-28156D01*
X39366Y-35156D02*
X39116Y-35156D01*
X39116Y-35156D02*
X39116Y-31156D01*
X39116Y-31156D02*
X39366Y-31156D01*
X40866Y-35156D02*
X39366Y-35156D01*
X39366Y-35156D02*
X39366Y-31156D01*
X39366Y-31156D02*
X40866Y-31156D01*
X40866Y-31156D02*
X40866Y-35156D01*
X49186Y-33254D02*
X49119Y-33933D01*
X48921Y-34587D01*
X48601Y-35190D01*
X48169Y-35720D01*
X47643Y-36155D01*
X47042Y-36480D01*
X46389Y-36682D01*
X45710Y-36753D01*
X45031Y-36692D01*
X44375Y-36499D01*
X43770Y-36182D01*
X43238Y-35754D01*
X42799Y-35231D01*
X42470Y-34632D01*
X42263Y-33981D01*
X42187Y-33302D01*
X42244Y-32623D01*
X42432Y-31966D01*
X42745Y-31359D01*
X43169Y-30823D01*
X43689Y-30380D01*
X44285Y-30047D01*
X44935Y-29836D01*
X45613Y-29755D01*
X46293Y-29808D01*
X46951Y-29991D01*
X47561Y-30299D01*
X48099Y-30720D01*
X48546Y-31237D01*
X48883Y-31831D01*
X49099Y-32479D01*
X49184Y-33157D01*
X49186Y-33254D01*
X41486Y-29926D02*
X41466Y-30120D01*
X41410Y-30307D01*
X41318Y-30479D01*
X41195Y-30630D01*
X41045Y-30755D01*
X40873Y-30847D01*
X40687Y-30905D01*
X40492Y-30925D01*
X40299Y-30908D01*
X40112Y-30853D01*
X39939Y-30762D01*
X39787Y-30640D01*
X39661Y-30490D01*
X39567Y-30319D01*
X39508Y-30133D01*
X39487Y-29939D01*
X39503Y-29746D01*
X39557Y-29558D01*
X39646Y-29385D01*
X39767Y-29232D01*
X39916Y-29105D01*
X40086Y-29010D01*
X40272Y-28950D01*
X40466Y-28927D01*
X40659Y-28942D01*
X40847Y-28994D01*
X41021Y-29082D01*
X41175Y-29202D01*
X41303Y-29350D01*
X41399Y-29520D01*
X41461Y-29705D01*
X41485Y-29899D01*
X41486Y-29926D01*
X48400Y-38000D02*
X48382Y-38174D01*
X48332Y-38342D01*
X48249Y-38498D01*
X48138Y-38634D01*
X48003Y-38746D01*
X47848Y-38829D01*
X47680Y-38881D01*
X47506Y-38899D01*
X47332Y-38884D01*
X47163Y-38834D01*
X47008Y-38753D01*
X46871Y-38643D01*
X46758Y-38508D01*
X46673Y-38354D01*
X46620Y-38187D01*
X46601Y-38012D01*
X46615Y-37838D01*
X46664Y-37669D01*
X46744Y-37513D01*
X46853Y-37375D01*
X46987Y-37261D01*
X47140Y-37176D01*
X47307Y-37121D01*
X47482Y-37101D01*
X47656Y-37114D01*
X47825Y-37161D01*
X47982Y-37241D01*
X48120Y-37349D01*
X48235Y-37482D01*
X48322Y-37634D01*
X48377Y-37801D01*
X48399Y-37975D01*
X48400Y-38000D01*
X39150Y-25000D02*
X39132Y-25174D01*
X39082Y-25342D01*
X38999Y-25498D01*
X38888Y-25634D01*
X38753Y-25746D01*
X38598Y-25829D01*
X38430Y-25881D01*
X38256Y-25899D01*
X38082Y-25884D01*
X37913Y-25834D01*
X37758Y-25753D01*
X37621Y-25643D01*
X37508Y-25508D01*
X37423Y-25354D01*
X37370Y-25187D01*
X37351Y-25012D01*
X37365Y-24838D01*
X37414Y-24669D01*
X37494Y-24513D01*
X37603Y-24375D01*
X37737Y-24261D01*
X37890Y-24176D01*
X38057Y-24121D01*
X38232Y-24101D01*
X38406Y-24114D01*
X38575Y-24161D01*
X38732Y-24241D01*
X38870Y-24349D01*
X38985Y-24482D01*
X39072Y-24634D01*
X39127Y-24801D01*
X39149Y-24975D01*
X39150Y-25000D01*
X39150Y-40250D02*
X39132Y-40424D01*
X39082Y-40592D01*
X38999Y-40748D01*
X38888Y-40884D01*
X38753Y-40996D01*
X38598Y-41079D01*
X38430Y-41131D01*
X38256Y-41149D01*
X38082Y-41134D01*
X37913Y-41084D01*
X37758Y-41003D01*
X37621Y-40893D01*
X37508Y-40758D01*
X37423Y-40604D01*
X37370Y-40437D01*
X37351Y-40262D01*
X37365Y-40088D01*
X37414Y-39919D01*
X37494Y-39763D01*
X37603Y-39625D01*
X37737Y-39511D01*
X37890Y-39426D01*
X38057Y-39371D01*
X38232Y-39351D01*
X38406Y-39364D01*
X38575Y-39411D01*
X38732Y-39491D01*
X38870Y-39599D01*
X38985Y-39732D01*
X39072Y-39884D01*
X39127Y-40051D01*
X39149Y-40225D01*
X39150Y-40250D01*
X48400Y-28250D02*
X48382Y-28424D01*
X48332Y-28592D01*
X48249Y-28748D01*
X48138Y-28884D01*
X48003Y-28996D01*
X47848Y-29079D01*
X47680Y-29131D01*
X47506Y-29149D01*
X47332Y-29134D01*
X47163Y-29084D01*
X47008Y-29003D01*
X46871Y-28893D01*
X46758Y-28758D01*
X46673Y-28604D01*
X46620Y-28437D01*
X46601Y-28262D01*
X46615Y-28088D01*
X46664Y-27919D01*
X46744Y-27763D01*
X46853Y-27625D01*
X46987Y-27511D01*
X47140Y-27426D01*
X47307Y-27371D01*
X47482Y-27351D01*
X47656Y-27364D01*
X47825Y-27411D01*
X47982Y-27491D01*
X48120Y-27599D01*
X48235Y-27732D01*
X48322Y-27884D01*
X48377Y-28051D01*
X48399Y-28225D01*
X48400Y-28250D01*
G54D10*
X42442Y-38174D02*
X42442Y-37174D01*
X42442Y-37174D02*
X44442Y-37174D01*
X44442Y-37174D02*
X44442Y-38174D01*
X44442Y-38174D02*
X42442Y-38174D01*
X42398Y-29132D02*
X42398Y-28132D01*
X42398Y-28132D02*
X44398Y-28132D01*
X44398Y-28132D02*
X44398Y-29132D01*
X44398Y-29132D02*
X42398Y-29132D01*
X46000Y-26050D02*
X46000Y-25050D01*
X46000Y-25050D02*
X48000Y-25050D01*
X48000Y-25050D02*
X48000Y-26050D01*
X48000Y-26050D02*
X46000Y-26050D01*
X46000Y-25050D02*
X46000Y-24050D01*
X46000Y-24050D02*
X48000Y-24050D01*
X48000Y-24050D02*
X48000Y-25050D01*
X48000Y-25050D02*
X46000Y-25050D01*
X49450Y-41200D02*
X49450Y-40200D01*
X49450Y-40200D02*
X51450Y-40200D01*
X51450Y-40200D02*
X51450Y-41200D01*
X51450Y-41200D02*
X49450Y-41200D01*
X49450Y-40200D02*
X49450Y-39200D01*
X49450Y-39200D02*
X51450Y-39200D01*
X51450Y-39200D02*
X51450Y-40200D01*
X51450Y-40200D02*
X49450Y-40200D01*
X49450Y-39200D02*
X49450Y-38200D01*
X49450Y-38200D02*
X51450Y-38200D01*
X51450Y-38200D02*
X51450Y-39200D01*
X51450Y-39200D02*
X49450Y-39200D01*
X49450Y-38200D02*
X49450Y-37200D01*
X49450Y-37200D02*
X51450Y-37200D01*
X51450Y-37200D02*
X51450Y-38200D01*
X51450Y-38200D02*
X49450Y-38200D01*
X49450Y-37200D02*
X49450Y-36200D01*
X49450Y-36200D02*
X51450Y-36200D01*
X51450Y-36200D02*
X51450Y-37200D01*
X51450Y-37200D02*
X49450Y-37200D01*
X49450Y-36200D02*
X49450Y-35200D01*
X49450Y-35200D02*
X51450Y-35200D01*
X51450Y-35200D02*
X51450Y-36200D01*
X51450Y-36200D02*
X49450Y-36200D01*
X49450Y-35200D02*
X49450Y-34200D01*
X49450Y-34200D02*
X51450Y-34200D01*
X51450Y-34200D02*
X51450Y-35200D01*
X51450Y-35200D02*
X49450Y-35200D01*
X42400Y-28100D02*
X42400Y-27100D01*
X42400Y-27100D02*
X44400Y-27100D01*
X44400Y-27100D02*
X44400Y-28100D01*
X44400Y-28100D02*
X42400Y-28100D01*
X42400Y-27100D02*
X42400Y-26100D01*
X42400Y-26100D02*
X44400Y-26100D01*
X44400Y-26100D02*
X44400Y-27100D01*
X44400Y-27100D02*
X42400Y-27100D01*
X42400Y-26100D02*
X42400Y-25100D01*
X42400Y-25100D02*
X44400Y-25100D01*
X44400Y-25100D02*
X44400Y-26100D01*
X44400Y-26100D02*
X42400Y-26100D01*
X42400Y-25100D02*
X42400Y-24100D01*
X42400Y-24100D02*
X44400Y-24100D01*
X44400Y-24100D02*
X44400Y-25100D01*
X44400Y-25100D02*
X42400Y-25100D01*
X49400Y-31050D02*
X49400Y-30050D01*
X49400Y-30050D02*
X51400Y-30050D01*
X51400Y-30050D02*
X51400Y-31050D01*
X51400Y-31050D02*
X49400Y-31050D01*
X49400Y-30050D02*
X49400Y-29050D01*
X49400Y-29050D02*
X51400Y-29050D01*
X51400Y-29050D02*
X51400Y-30050D01*
X51400Y-30050D02*
X49400Y-30050D01*
X49400Y-29050D02*
X49400Y-28050D01*
X49400Y-28050D02*
X51400Y-28050D01*
X51400Y-28050D02*
X51400Y-29050D01*
X51400Y-29050D02*
X49400Y-29050D01*
X49400Y-28050D02*
X49400Y-27050D01*
X49400Y-27050D02*
X51400Y-27050D01*
X51400Y-27050D02*
X51400Y-28050D01*
X51400Y-28050D02*
X49400Y-28050D01*
X49400Y-27050D02*
X49400Y-26050D01*
X49400Y-26050D02*
X51400Y-26050D01*
X51400Y-26050D02*
X51400Y-27050D01*
X51400Y-27050D02*
X49400Y-27050D01*
X49400Y-26050D02*
X49400Y-25050D01*
X49400Y-25050D02*
X51400Y-25050D01*
X51400Y-25050D02*
X51400Y-26050D01*
X51400Y-26050D02*
X49400Y-26050D01*
X49400Y-25050D02*
X49400Y-24050D01*
X49400Y-24050D02*
X51400Y-24050D01*
X51400Y-24050D02*
X51400Y-25050D01*
X51400Y-25050D02*
X49400Y-25050D01*
X42450Y-40200D02*
X42450Y-39200D01*
X42450Y-39200D02*
X44450Y-39200D01*
X44450Y-39200D02*
X44450Y-40200D01*
X44450Y-40200D02*
X42450Y-40200D01*
X42450Y-41200D02*
X42450Y-40200D01*
X42450Y-40200D02*
X44450Y-40200D01*
X44450Y-40200D02*
X44450Y-41200D01*
X44450Y-41200D02*
X42450Y-41200D01*
X42450Y-39200D02*
X42450Y-38200D01*
X42450Y-38200D02*
X44450Y-38200D01*
X44450Y-38200D02*
X44450Y-39200D01*
X44450Y-39200D02*
X42450Y-39200D01*
X40352Y-33832D02*
X39880Y-33832D01*
X40352Y-34480D02*
X39880Y-34480D01*
X39880Y-33832D02*
X39852Y-33834D01*
X39824Y-33837D01*
X39797Y-33844D01*
X39770Y-33852D01*
X39744Y-33863D01*
X39719Y-33876D01*
X39695Y-33891D01*
X39672Y-33908D01*
X39651Y-33927D01*
X39632Y-33948D01*
X39615Y-33971D01*
X39600Y-33995D01*
X39587Y-34020D01*
X39576Y-34046D01*
X39568Y-34073D01*
X39561Y-34100D01*
X39558Y-34128D01*
X39556Y-34156D01*
X39558Y-34184D01*
X39561Y-34212D01*
X39568Y-34239D01*
X39576Y-34266D01*
X39587Y-34292D01*
X39600Y-34317D01*
X39615Y-34341D01*
X39632Y-34364D01*
X39651Y-34385D01*
X39672Y-34404D01*
X39695Y-34421D01*
X39719Y-34436D01*
X39744Y-34449D01*
X39770Y-34460D01*
X39797Y-34468D01*
X39824Y-34475D01*
X39852Y-34478D01*
X39880Y-34480D01*
X40352Y-34480D02*
X40380Y-34478D01*
X40408Y-34475D01*
X40435Y-34468D01*
X40462Y-34460D01*
X40488Y-34449D01*
X40514Y-34436D01*
X40537Y-34421D01*
X40560Y-34404D01*
X40581Y-34385D01*
X40600Y-34364D01*
X40617Y-34341D01*
X40632Y-34318D01*
X40645Y-34292D01*
X40656Y-34266D01*
X40664Y-34239D01*
X40671Y-34212D01*
X40674Y-34184D01*
X40676Y-34156D01*
X40674Y-34128D01*
X40671Y-34100D01*
X40664Y-34073D01*
X40656Y-34046D01*
X40645Y-34020D01*
X40632Y-33994D01*
X40617Y-33971D01*
X40600Y-33948D01*
X40581Y-33927D01*
X40560Y-33908D01*
X40537Y-33891D01*
X40514Y-33876D01*
X40488Y-33863D01*
X40462Y-33852D01*
X40435Y-33844D01*
X40408Y-33837D01*
X40380Y-33834D01*
X40352Y-33832D01*
X40352Y-32832D02*
X39880Y-32832D01*
X40352Y-33480D02*
X39880Y-33480D01*
X39880Y-32832D02*
X39852Y-32834D01*
X39824Y-32837D01*
X39797Y-32844D01*
X39770Y-32852D01*
X39744Y-32863D01*
X39719Y-32876D01*
X39695Y-32891D01*
X39672Y-32908D01*
X39651Y-32927D01*
X39632Y-32948D01*
X39615Y-32971D01*
X39600Y-32995D01*
X39587Y-33020D01*
X39576Y-33046D01*
X39568Y-33073D01*
X39561Y-33100D01*
X39558Y-33128D01*
X39556Y-33156D01*
X39558Y-33184D01*
X39561Y-33212D01*
X39568Y-33239D01*
X39576Y-33266D01*
X39587Y-33292D01*
X39600Y-33317D01*
X39615Y-33341D01*
X39632Y-33364D01*
X39651Y-33385D01*
X39672Y-33404D01*
X39695Y-33421D01*
X39719Y-33436D01*
X39744Y-33449D01*
X39770Y-33460D01*
X39797Y-33468D01*
X39824Y-33475D01*
X39852Y-33478D01*
X39880Y-33480D01*
X40352Y-33480D02*
X40380Y-33478D01*
X40408Y-33475D01*
X40435Y-33468D01*
X40462Y-33460D01*
X40488Y-33449D01*
X40514Y-33436D01*
X40537Y-33421D01*
X40560Y-33404D01*
X40581Y-33385D01*
X40600Y-33364D01*
X40617Y-33341D01*
X40632Y-33318D01*
X40645Y-33292D01*
X40656Y-33266D01*
X40664Y-33239D01*
X40671Y-33212D01*
X40674Y-33184D01*
X40676Y-33156D01*
X40674Y-33128D01*
X40671Y-33100D01*
X40664Y-33073D01*
X40656Y-33046D01*
X40645Y-33020D01*
X40632Y-32994D01*
X40617Y-32971D01*
X40600Y-32948D01*
X40581Y-32927D01*
X40560Y-32908D01*
X40537Y-32891D01*
X40514Y-32876D01*
X40488Y-32863D01*
X40462Y-32852D01*
X40435Y-32844D01*
X40408Y-32837D01*
X40380Y-32834D01*
X40352Y-32832D01*
X39556Y-31832D02*
X39556Y-32480D01*
X40676Y-32480D01*
X40676Y-31832D01*
X39556Y-31832D01*
X45126Y-34784D02*
X45126Y-35724D01*
X46246Y-35724D01*
X46246Y-34784D01*
X45126Y-34784D01*
X45596Y-31724D02*
X45776Y-31724D01*
X45596Y-30784D02*
X45776Y-30784D01*
X45776Y-31724D02*
X45816Y-31722D01*
X45857Y-31716D01*
X45897Y-31707D01*
X45936Y-31695D01*
X45974Y-31679D01*
X46011Y-31661D01*
X46045Y-31639D01*
X46078Y-31614D01*
X46108Y-31586D01*
X46136Y-31556D01*
X46161Y-31523D01*
X46183Y-31489D01*
X46201Y-31452D01*
X46217Y-31414D01*
X46229Y-31375D01*
X46238Y-31335D01*
X46244Y-31294D01*
X46246Y-31254D01*
X46244Y-31214D01*
X46238Y-31173D01*
X46229Y-31133D01*
X46217Y-31094D01*
X46201Y-31056D01*
X46183Y-31019D01*
X46161Y-30985D01*
X46136Y-30952D01*
X46108Y-30922D01*
X46078Y-30894D01*
X46045Y-30869D01*
X46011Y-30847D01*
X45974Y-30829D01*
X45936Y-30813D01*
X45897Y-30801D01*
X45857Y-30792D01*
X45816Y-30786D01*
X45776Y-30784D01*
X45596Y-30784D02*
X45556Y-30786D01*
X45515Y-30792D01*
X45475Y-30801D01*
X45436Y-30813D01*
X45398Y-30829D01*
X45362Y-30847D01*
X45327Y-30869D01*
X45294Y-30894D01*
X45264Y-30922D01*
X45236Y-30952D01*
X45211Y-30985D01*
X45189Y-31020D01*
X45171Y-31056D01*
X45155Y-31094D01*
X45143Y-31133D01*
X45134Y-31173D01*
X45128Y-31214D01*
X45126Y-31254D01*
X45128Y-31294D01*
X45134Y-31335D01*
X45143Y-31375D01*
X45155Y-31414D01*
X45171Y-31452D01*
X45189Y-31488D01*
X45211Y-31523D01*
X45236Y-31556D01*
X45264Y-31586D01*
X45294Y-31614D01*
X45327Y-31639D01*
X45361Y-31661D01*
X45398Y-31679D01*
X45436Y-31695D01*
X45475Y-31707D01*
X45515Y-31716D01*
X45556Y-31722D01*
X45596Y-31724D01*
X39662Y-29456D02*
X39662Y-30396D01*
X40310Y-30396D01*
X40310Y-29456D01*
X39662Y-29456D01*
X40662Y-29781D02*
X40662Y-30071D01*
X41310Y-29781D02*
X41310Y-30071D01*
X40662Y-30071D02*
X40664Y-30099D01*
X40667Y-30127D01*
X40674Y-30154D01*
X40682Y-30181D01*
X40693Y-30207D01*
X40706Y-30232D01*
X40721Y-30256D01*
X40738Y-30279D01*
X40757Y-30300D01*
X40778Y-30319D01*
X40801Y-30336D01*
X40824Y-30351D01*
X40850Y-30364D01*
X40876Y-30375D01*
X40903Y-30383D01*
X40930Y-30390D01*
X40958Y-30393D01*
X40986Y-30395D01*
X41014Y-30393D01*
X41042Y-30390D01*
X41069Y-30383D01*
X41096Y-30375D01*
X41122Y-30364D01*
X41148Y-30351D01*
X41171Y-30336D01*
X41194Y-30319D01*
X41215Y-30300D01*
X41234Y-30279D01*
X41251Y-30256D01*
X41266Y-30233D01*
X41279Y-30207D01*
X41290Y-30181D01*
X41298Y-30154D01*
X41305Y-30127D01*
X41308Y-30099D01*
X41310Y-30071D01*
X41310Y-29781D02*
X41308Y-29753D01*
X41305Y-29725D01*
X41298Y-29698D01*
X41290Y-29671D01*
X41279Y-29645D01*
X41266Y-29620D01*
X41251Y-29596D01*
X41234Y-29573D01*
X41215Y-29552D01*
X41194Y-29533D01*
X41171Y-29516D01*
X41148Y-29501D01*
X41122Y-29488D01*
X41096Y-29477D01*
X41069Y-29469D01*
X41042Y-29462D01*
X41014Y-29459D01*
X40986Y-29457D01*
X40958Y-29459D01*
X40930Y-29462D01*
X40903Y-29469D01*
X40876Y-29477D01*
X40850Y-29488D01*
X40825Y-29501D01*
X40801Y-29516D01*
X40778Y-29533D01*
X40757Y-29552D01*
X40738Y-29573D01*
X40721Y-29596D01*
X40706Y-29620D01*
X40693Y-29645D01*
X40682Y-29671D01*
X40674Y-29698D01*
X40667Y-29725D01*
X40664Y-29753D01*
X40662Y-29781D01*
X48270Y-38000D02*
X48255Y-38149D01*
X48211Y-38293D01*
X48141Y-38426D01*
X48046Y-38542D01*
X47930Y-38638D01*
X47798Y-38709D01*
X47654Y-38754D01*
X47505Y-38769D01*
X47356Y-38756D01*
X47212Y-38713D01*
X47079Y-38644D01*
X46962Y-38550D01*
X46865Y-38435D01*
X46793Y-38303D01*
X46747Y-38160D01*
X46731Y-38010D01*
X46743Y-37862D01*
X46785Y-37717D01*
X46853Y-37583D01*
X46947Y-37466D01*
X47061Y-37368D01*
X47192Y-37295D01*
X47335Y-37248D01*
X47484Y-37231D01*
X47633Y-37242D01*
X47778Y-37283D01*
X47912Y-37350D01*
X48031Y-37443D01*
X48129Y-37557D01*
X48203Y-37687D01*
X48250Y-37830D01*
X48269Y-37979D01*
X48270Y-38000D01*
X39020Y-25000D02*
X39005Y-25149D01*
X38961Y-25293D01*
X38891Y-25426D01*
X38796Y-25542D01*
X38680Y-25638D01*
X38548Y-25709D01*
X38404Y-25754D01*
X38255Y-25769D01*
X38106Y-25756D01*
X37962Y-25713D01*
X37829Y-25644D01*
X37712Y-25550D01*
X37615Y-25435D01*
X37543Y-25303D01*
X37497Y-25160D01*
X37481Y-25010D01*
X37493Y-24862D01*
X37535Y-24717D01*
X37603Y-24583D01*
X37697Y-24466D01*
X37811Y-24368D01*
X37942Y-24295D01*
X38085Y-24248D01*
X38234Y-24231D01*
X38383Y-24242D01*
X38528Y-24283D01*
X38662Y-24350D01*
X38781Y-24443D01*
X38879Y-24557D01*
X38953Y-24687D01*
X39000Y-24830D01*
X39019Y-24979D01*
X39020Y-25000D01*
X39020Y-40250D02*
X39005Y-40399D01*
X38961Y-40543D01*
X38891Y-40676D01*
X38796Y-40792D01*
X38680Y-40888D01*
X38548Y-40959D01*
X38404Y-41004D01*
X38255Y-41019D01*
X38106Y-41006D01*
X37962Y-40963D01*
X37829Y-40894D01*
X37712Y-40800D01*
X37615Y-40685D01*
X37543Y-40553D01*
X37497Y-40410D01*
X37481Y-40260D01*
X37493Y-40112D01*
X37535Y-39967D01*
X37603Y-39833D01*
X37697Y-39716D01*
X37811Y-39618D01*
X37942Y-39545D01*
X38085Y-39498D01*
X38234Y-39481D01*
X38383Y-39492D01*
X38528Y-39533D01*
X38662Y-39600D01*
X38781Y-39693D01*
X38879Y-39807D01*
X38953Y-39937D01*
X39000Y-40080D01*
X39019Y-40229D01*
X39020Y-40250D01*
X48270Y-28250D02*
X48255Y-28399D01*
X48211Y-28543D01*
X48141Y-28676D01*
X48046Y-28792D01*
X47930Y-28888D01*
X47798Y-28959D01*
X47654Y-29004D01*
X47505Y-29019D01*
X47356Y-29006D01*
X47212Y-28963D01*
X47079Y-28894D01*
X46962Y-28800D01*
X46865Y-28685D01*
X46793Y-28553D01*
X46747Y-28410D01*
X46731Y-28260D01*
X46743Y-28112D01*
X46785Y-27967D01*
X46853Y-27833D01*
X46947Y-27716D01*
X47061Y-27618D01*
X47192Y-27545D01*
X47335Y-27498D01*
X47484Y-27481D01*
X47633Y-27492D01*
X47778Y-27533D01*
X47912Y-27600D01*
X48031Y-27693D01*
X48129Y-27807D01*
X48203Y-27937D01*
X48250Y-28080D01*
X48269Y-28229D01*
X48270Y-28250D01*
X42618Y-37350D02*
X42618Y-37998D01*
X43266Y-37998D01*
X43266Y-37350D01*
X42618Y-37350D01*
X44266Y-37674D02*
X44259Y-37736D01*
X44241Y-37797D01*
X44211Y-37853D01*
X44171Y-37902D01*
X44123Y-37942D01*
X44067Y-37972D01*
X44007Y-37991D01*
X43944Y-37997D01*
X43882Y-37992D01*
X43821Y-37974D01*
X43765Y-37945D01*
X43716Y-37905D01*
X43675Y-37857D01*
X43645Y-37801D01*
X43626Y-37741D01*
X43619Y-37678D01*
X43624Y-37616D01*
X43641Y-37555D01*
X43670Y-37499D01*
X43709Y-37449D01*
X43758Y-37408D01*
X43813Y-37378D01*
X43873Y-37358D01*
X43936Y-37351D01*
X43998Y-37355D01*
X44059Y-37372D01*
X44115Y-37401D01*
X44165Y-37440D01*
X44206Y-37488D01*
X44237Y-37543D01*
X44257Y-37603D01*
X44265Y-37665D01*
X44266Y-37674D01*
X42574Y-28308D02*
X42574Y-28956D01*
X43222Y-28956D01*
X43222Y-28308D01*
X42574Y-28308D01*
X44222Y-28632D02*
X44215Y-28694D01*
X44197Y-28755D01*
X44167Y-28811D01*
X44127Y-28860D01*
X44079Y-28900D01*
X44023Y-28930D01*
X43963Y-28949D01*
X43900Y-28955D01*
X43838Y-28950D01*
X43777Y-28932D01*
X43721Y-28903D01*
X43672Y-28863D01*
X43631Y-28815D01*
X43601Y-28759D01*
X43582Y-28699D01*
X43575Y-28636D01*
X43580Y-28574D01*
X43597Y-28513D01*
X43626Y-28457D01*
X43665Y-28407D01*
X43714Y-28366D01*
X43769Y-28336D01*
X43829Y-28316D01*
X43892Y-28309D01*
X43954Y-28313D01*
X44015Y-28330D01*
X44071Y-28359D01*
X44121Y-28398D01*
X44162Y-28446D01*
X44193Y-28501D01*
X44213Y-28561D01*
X44221Y-28623D01*
X44222Y-28632D01*
X46176Y-25226D02*
X46176Y-25874D01*
X46824Y-25874D01*
X46824Y-25226D01*
X46176Y-25226D01*
X47824Y-25550D02*
X47817Y-25612D01*
X47799Y-25673D01*
X47769Y-25729D01*
X47729Y-25778D01*
X47681Y-25818D01*
X47625Y-25848D01*
X47565Y-25867D01*
X47502Y-25873D01*
X47440Y-25868D01*
X47379Y-25850D01*
X47323Y-25821D01*
X47274Y-25781D01*
X47233Y-25733D01*
X47203Y-25677D01*
X47184Y-25617D01*
X47177Y-25554D01*
X47182Y-25492D01*
X47199Y-25431D01*
X47228Y-25375D01*
X47267Y-25325D01*
X47316Y-25284D01*
X47371Y-25254D01*
X47431Y-25234D01*
X47494Y-25227D01*
X47556Y-25231D01*
X47617Y-25248D01*
X47673Y-25277D01*
X47723Y-25316D01*
X47764Y-25364D01*
X47795Y-25419D01*
X47815Y-25479D01*
X47823Y-25541D01*
X47824Y-25550D01*
X46176Y-24226D02*
X46176Y-24874D01*
X46824Y-24874D01*
X46824Y-24226D01*
X46176Y-24226D01*
X47824Y-24550D02*
X47817Y-24612D01*
X47799Y-24673D01*
X47769Y-24729D01*
X47729Y-24778D01*
X47681Y-24818D01*
X47625Y-24848D01*
X47565Y-24867D01*
X47502Y-24873D01*
X47440Y-24868D01*
X47379Y-24850D01*
X47323Y-24821D01*
X47274Y-24781D01*
X47233Y-24733D01*
X47203Y-24677D01*
X47184Y-24617D01*
X47177Y-24554D01*
X47182Y-24492D01*
X47199Y-24431D01*
X47228Y-24375D01*
X47267Y-24325D01*
X47316Y-24284D01*
X47371Y-24254D01*
X47431Y-24234D01*
X47494Y-24227D01*
X47556Y-24231D01*
X47617Y-24248D01*
X47673Y-24277D01*
X47723Y-24316D01*
X47764Y-24364D01*
X47795Y-24419D01*
X47815Y-24479D01*
X47823Y-24541D01*
X47824Y-24550D01*
X49626Y-40376D02*
X49626Y-41024D01*
X50274Y-41024D01*
X50274Y-40376D01*
X49626Y-40376D01*
X51274Y-40700D02*
X51267Y-40762D01*
X51249Y-40823D01*
X51219Y-40879D01*
X51179Y-40928D01*
X51131Y-40968D01*
X51075Y-40998D01*
X51015Y-41017D01*
X50952Y-41023D01*
X50890Y-41018D01*
X50829Y-41000D01*
X50773Y-40971D01*
X50724Y-40931D01*
X50683Y-40883D01*
X50653Y-40827D01*
X50634Y-40767D01*
X50627Y-40704D01*
X50632Y-40642D01*
X50649Y-40581D01*
X50678Y-40525D01*
X50717Y-40475D01*
X50766Y-40434D01*
X50821Y-40404D01*
X50881Y-40384D01*
X50944Y-40377D01*
X51006Y-40381D01*
X51067Y-40398D01*
X51123Y-40427D01*
X51173Y-40466D01*
X51214Y-40514D01*
X51245Y-40569D01*
X51265Y-40629D01*
X51273Y-40691D01*
X51274Y-40700D01*
X49626Y-39376D02*
X49626Y-40024D01*
X50274Y-40024D01*
X50274Y-39376D01*
X49626Y-39376D01*
X51274Y-39700D02*
X51267Y-39762D01*
X51249Y-39823D01*
X51219Y-39879D01*
X51179Y-39928D01*
X51131Y-39968D01*
X51075Y-39998D01*
X51015Y-40017D01*
X50952Y-40023D01*
X50890Y-40018D01*
X50829Y-40000D01*
X50773Y-39971D01*
X50724Y-39931D01*
X50683Y-39883D01*
X50653Y-39827D01*
X50634Y-39767D01*
X50627Y-39704D01*
X50632Y-39642D01*
X50649Y-39581D01*
X50678Y-39525D01*
X50717Y-39475D01*
X50766Y-39434D01*
X50821Y-39404D01*
X50881Y-39384D01*
X50944Y-39377D01*
X51006Y-39381D01*
X51067Y-39398D01*
X51123Y-39427D01*
X51173Y-39466D01*
X51214Y-39514D01*
X51245Y-39569D01*
X51265Y-39629D01*
X51273Y-39691D01*
X51274Y-39700D01*
X49626Y-38376D02*
X49626Y-39024D01*
X50274Y-39024D01*
X50274Y-38376D01*
X49626Y-38376D01*
X51274Y-38700D02*
X51267Y-38762D01*
X51249Y-38823D01*
X51219Y-38879D01*
X51179Y-38928D01*
X51131Y-38968D01*
X51075Y-38998D01*
X51015Y-39017D01*
X50952Y-39023D01*
X50890Y-39018D01*
X50829Y-39000D01*
X50773Y-38971D01*
X50724Y-38931D01*
X50683Y-38883D01*
X50653Y-38827D01*
X50634Y-38767D01*
X50627Y-38704D01*
X50632Y-38642D01*
X50649Y-38581D01*
X50678Y-38525D01*
X50717Y-38475D01*
X50766Y-38434D01*
X50821Y-38404D01*
X50881Y-38384D01*
X50944Y-38377D01*
X51006Y-38381D01*
X51067Y-38398D01*
X51123Y-38427D01*
X51173Y-38466D01*
X51214Y-38514D01*
X51245Y-38569D01*
X51265Y-38629D01*
X51273Y-38691D01*
X51274Y-38700D01*
X49626Y-37376D02*
X49626Y-38024D01*
X50274Y-38024D01*
X50274Y-37376D01*
X49626Y-37376D01*
X51274Y-37700D02*
X51267Y-37762D01*
X51249Y-37823D01*
X51219Y-37879D01*
X51179Y-37928D01*
X51131Y-37968D01*
X51075Y-37998D01*
X51015Y-38017D01*
X50952Y-38023D01*
X50890Y-38018D01*
X50829Y-38000D01*
X50773Y-37971D01*
X50724Y-37931D01*
X50683Y-37883D01*
X50653Y-37827D01*
X50634Y-37767D01*
X50627Y-37704D01*
X50632Y-37642D01*
X50649Y-37581D01*
X50678Y-37525D01*
X50717Y-37475D01*
X50766Y-37434D01*
X50821Y-37404D01*
X50881Y-37384D01*
X50944Y-37377D01*
X51006Y-37381D01*
X51067Y-37398D01*
X51123Y-37427D01*
X51173Y-37466D01*
X51214Y-37514D01*
X51245Y-37569D01*
X51265Y-37629D01*
X51273Y-37691D01*
X51274Y-37700D01*
X49626Y-36376D02*
X49626Y-37024D01*
X50274Y-37024D01*
X50274Y-36376D01*
X49626Y-36376D01*
X51274Y-36700D02*
X51267Y-36762D01*
X51249Y-36823D01*
X51219Y-36879D01*
X51179Y-36928D01*
X51131Y-36968D01*
X51075Y-36998D01*
X51015Y-37017D01*
X50952Y-37023D01*
X50890Y-37018D01*
X50829Y-37000D01*
X50773Y-36971D01*
X50724Y-36931D01*
X50683Y-36883D01*
X50653Y-36827D01*
X50634Y-36767D01*
X50627Y-36704D01*
X50632Y-36642D01*
X50649Y-36581D01*
X50678Y-36525D01*
X50717Y-36475D01*
X50766Y-36434D01*
X50821Y-36404D01*
X50881Y-36384D01*
X50944Y-36377D01*
X51006Y-36381D01*
X51067Y-36398D01*
X51123Y-36427D01*
X51173Y-36466D01*
X51214Y-36514D01*
X51245Y-36569D01*
X51265Y-36629D01*
X51273Y-36691D01*
X51274Y-36700D01*
X49626Y-35376D02*
X49626Y-36024D01*
X50274Y-36024D01*
X50274Y-35376D01*
X49626Y-35376D01*
X51274Y-35700D02*
X51267Y-35762D01*
X51249Y-35823D01*
X51219Y-35879D01*
X51179Y-35928D01*
X51131Y-35968D01*
X51075Y-35998D01*
X51015Y-36017D01*
X50952Y-36023D01*
X50890Y-36018D01*
X50829Y-36000D01*
X50773Y-35971D01*
X50724Y-35931D01*
X50683Y-35883D01*
X50653Y-35827D01*
X50634Y-35767D01*
X50627Y-35704D01*
X50632Y-35642D01*
X50649Y-35581D01*
X50678Y-35525D01*
X50717Y-35475D01*
X50766Y-35434D01*
X50821Y-35404D01*
X50881Y-35384D01*
X50944Y-35377D01*
X51006Y-35381D01*
X51067Y-35398D01*
X51123Y-35427D01*
X51173Y-35466D01*
X51214Y-35514D01*
X51245Y-35569D01*
X51265Y-35629D01*
X51273Y-35691D01*
X51274Y-35700D01*
X49626Y-34376D02*
X49626Y-35024D01*
X50274Y-35024D01*
X50274Y-34376D01*
X49626Y-34376D01*
X51274Y-34700D02*
X51267Y-34762D01*
X51249Y-34823D01*
X51219Y-34879D01*
X51179Y-34928D01*
X51131Y-34968D01*
X51075Y-34998D01*
X51015Y-35017D01*
X50952Y-35023D01*
X50890Y-35018D01*
X50829Y-35000D01*
X50773Y-34971D01*
X50724Y-34931D01*
X50683Y-34883D01*
X50653Y-34827D01*
X50634Y-34767D01*
X50627Y-34704D01*
X50632Y-34642D01*
X50649Y-34581D01*
X50678Y-34525D01*
X50717Y-34475D01*
X50766Y-34434D01*
X50821Y-34404D01*
X50881Y-34384D01*
X50944Y-34377D01*
X51006Y-34381D01*
X51067Y-34398D01*
X51123Y-34427D01*
X51173Y-34466D01*
X51214Y-34514D01*
X51245Y-34569D01*
X51265Y-34629D01*
X51273Y-34691D01*
X51274Y-34700D01*
X42576Y-27276D02*
X42576Y-27924D01*
X43224Y-27924D01*
X43224Y-27276D01*
X42576Y-27276D01*
X44224Y-27600D02*
X44217Y-27662D01*
X44199Y-27723D01*
X44169Y-27779D01*
X44129Y-27828D01*
X44081Y-27868D01*
X44025Y-27898D01*
X43965Y-27917D01*
X43902Y-27923D01*
X43840Y-27918D01*
X43779Y-27900D01*
X43723Y-27871D01*
X43674Y-27831D01*
X43633Y-27783D01*
X43603Y-27727D01*
X43584Y-27667D01*
X43577Y-27604D01*
X43582Y-27542D01*
X43599Y-27481D01*
X43628Y-27425D01*
X43667Y-27375D01*
X43716Y-27334D01*
X43771Y-27304D01*
X43831Y-27284D01*
X43894Y-27277D01*
X43956Y-27281D01*
X44017Y-27298D01*
X44073Y-27327D01*
X44123Y-27366D01*
X44164Y-27414D01*
X44195Y-27469D01*
X44215Y-27529D01*
X44223Y-27591D01*
X44224Y-27600D01*
X42576Y-26276D02*
X42576Y-26924D01*
X43224Y-26924D01*
X43224Y-26276D01*
X42576Y-26276D01*
X44224Y-26600D02*
X44217Y-26662D01*
X44199Y-26723D01*
X44169Y-26779D01*
X44129Y-26828D01*
X44081Y-26868D01*
X44025Y-26898D01*
X43965Y-26917D01*
X43902Y-26923D01*
X43840Y-26918D01*
X43779Y-26900D01*
X43723Y-26871D01*
X43674Y-26831D01*
X43633Y-26783D01*
X43603Y-26727D01*
X43584Y-26667D01*
X43577Y-26604D01*
X43582Y-26542D01*
X43599Y-26481D01*
X43628Y-26425D01*
X43667Y-26375D01*
X43716Y-26334D01*
X43771Y-26304D01*
X43831Y-26284D01*
X43894Y-26277D01*
X43956Y-26281D01*
X44017Y-26298D01*
X44073Y-26327D01*
X44123Y-26366D01*
X44164Y-26414D01*
X44195Y-26469D01*
X44215Y-26529D01*
X44223Y-26591D01*
X44224Y-26600D01*
X42576Y-25276D02*
X42576Y-25924D01*
X43224Y-25924D01*
X43224Y-25276D01*
X42576Y-25276D01*
X44224Y-25600D02*
X44217Y-25662D01*
X44199Y-25723D01*
X44169Y-25779D01*
X44129Y-25828D01*
X44081Y-25868D01*
X44025Y-25898D01*
X43965Y-25917D01*
X43902Y-25923D01*
X43840Y-25918D01*
X43779Y-25900D01*
X43723Y-25871D01*
X43674Y-25831D01*
X43633Y-25783D01*
X43603Y-25727D01*
X43584Y-25667D01*
X43577Y-25604D01*
X43582Y-25542D01*
X43599Y-25481D01*
X43628Y-25425D01*
X43667Y-25375D01*
X43716Y-25334D01*
X43771Y-25304D01*
X43831Y-25284D01*
X43894Y-25277D01*
X43956Y-25281D01*
X44017Y-25298D01*
X44073Y-25327D01*
X44123Y-25366D01*
X44164Y-25414D01*
X44195Y-25469D01*
X44215Y-25529D01*
X44223Y-25591D01*
X44224Y-25600D01*
X42576Y-24276D02*
X42576Y-24924D01*
X43224Y-24924D01*
X43224Y-24276D01*
X42576Y-24276D01*
X44224Y-24600D02*
X44217Y-24662D01*
X44199Y-24723D01*
X44169Y-24779D01*
X44129Y-24828D01*
X44081Y-24868D01*
X44025Y-24898D01*
X43965Y-24917D01*
X43902Y-24923D01*
X43840Y-24918D01*
X43779Y-24900D01*
X43723Y-24871D01*
X43674Y-24831D01*
X43633Y-24783D01*
X43603Y-24727D01*
X43584Y-24667D01*
X43577Y-24604D01*
X43582Y-24542D01*
X43599Y-24481D01*
X43628Y-24425D01*
X43667Y-24375D01*
X43716Y-24334D01*
X43771Y-24304D01*
X43831Y-24284D01*
X43894Y-24277D01*
X43956Y-24281D01*
X44017Y-24298D01*
X44073Y-24327D01*
X44123Y-24366D01*
X44164Y-24414D01*
X44195Y-24469D01*
X44215Y-24529D01*
X44223Y-24591D01*
X44224Y-24600D01*
X49576Y-30226D02*
X49576Y-30874D01*
X50224Y-30874D01*
X50224Y-30226D01*
X49576Y-30226D01*
X51224Y-30550D02*
X51217Y-30612D01*
X51199Y-30673D01*
X51169Y-30729D01*
X51129Y-30778D01*
X51081Y-30818D01*
X51025Y-30848D01*
X50965Y-30867D01*
X50902Y-30873D01*
X50840Y-30868D01*
X50779Y-30850D01*
X50723Y-30821D01*
X50674Y-30781D01*
X50633Y-30733D01*
X50603Y-30677D01*
X50584Y-30617D01*
X50577Y-30554D01*
X50582Y-30492D01*
X50599Y-30431D01*
X50628Y-30375D01*
X50667Y-30325D01*
X50716Y-30284D01*
X50771Y-30254D01*
X50831Y-30234D01*
X50894Y-30227D01*
X50956Y-30231D01*
X51017Y-30248D01*
X51073Y-30277D01*
X51123Y-30316D01*
X51164Y-30364D01*
X51195Y-30419D01*
X51215Y-30479D01*
X51223Y-30541D01*
X51224Y-30550D01*
X49576Y-29226D02*
X49576Y-29874D01*
X50224Y-29874D01*
X50224Y-29226D01*
X49576Y-29226D01*
X51224Y-29550D02*
X51217Y-29612D01*
X51199Y-29673D01*
X51169Y-29729D01*
X51129Y-29778D01*
X51081Y-29818D01*
X51025Y-29848D01*
X50965Y-29867D01*
X50902Y-29873D01*
X50840Y-29868D01*
X50779Y-29850D01*
X50723Y-29821D01*
X50674Y-29781D01*
X50633Y-29733D01*
X50603Y-29677D01*
X50584Y-29617D01*
X50577Y-29554D01*
X50582Y-29492D01*
X50599Y-29431D01*
X50628Y-29375D01*
X50667Y-29325D01*
X50716Y-29284D01*
X50771Y-29254D01*
X50831Y-29234D01*
X50894Y-29227D01*
X50956Y-29231D01*
X51017Y-29248D01*
X51073Y-29277D01*
X51123Y-29316D01*
X51164Y-29364D01*
X51195Y-29419D01*
X51215Y-29479D01*
X51223Y-29541D01*
X51224Y-29550D01*
X49576Y-28226D02*
X49576Y-28874D01*
X50224Y-28874D01*
X50224Y-28226D01*
X49576Y-28226D01*
X51224Y-28550D02*
X51217Y-28612D01*
X51199Y-28673D01*
X51169Y-28729D01*
X51129Y-28778D01*
X51081Y-28818D01*
X51025Y-28848D01*
X50965Y-28867D01*
X50902Y-28873D01*
X50840Y-28868D01*
X50779Y-28850D01*
X50723Y-28821D01*
X50674Y-28781D01*
X50633Y-28733D01*
X50603Y-28677D01*
X50584Y-28617D01*
X50577Y-28554D01*
X50582Y-28492D01*
X50599Y-28431D01*
X50628Y-28375D01*
X50667Y-28325D01*
X50716Y-28284D01*
X50771Y-28254D01*
X50831Y-28234D01*
X50894Y-28227D01*
X50956Y-28231D01*
X51017Y-28248D01*
X51073Y-28277D01*
X51123Y-28316D01*
X51164Y-28364D01*
X51195Y-28419D01*
X51215Y-28479D01*
X51223Y-28541D01*
X51224Y-28550D01*
X49576Y-27226D02*
X49576Y-27874D01*
X50224Y-27874D01*
X50224Y-27226D01*
X49576Y-27226D01*
X51224Y-27550D02*
X51217Y-27612D01*
X51199Y-27673D01*
X51169Y-27729D01*
X51129Y-27778D01*
X51081Y-27818D01*
X51025Y-27848D01*
X50965Y-27867D01*
X50902Y-27873D01*
X50840Y-27868D01*
X50779Y-27850D01*
X50723Y-27821D01*
X50674Y-27781D01*
X50633Y-27733D01*
X50603Y-27677D01*
X50584Y-27617D01*
X50577Y-27554D01*
X50582Y-27492D01*
X50599Y-27431D01*
X50628Y-27375D01*
X50667Y-27325D01*
X50716Y-27284D01*
X50771Y-27254D01*
X50831Y-27234D01*
X50894Y-27227D01*
X50956Y-27231D01*
X51017Y-27248D01*
X51073Y-27277D01*
X51123Y-27316D01*
X51164Y-27364D01*
X51195Y-27419D01*
X51215Y-27479D01*
X51223Y-27541D01*
X51224Y-27550D01*
X49576Y-26226D02*
X49576Y-26874D01*
X50224Y-26874D01*
X50224Y-26226D01*
X49576Y-26226D01*
X51224Y-26550D02*
X51217Y-26612D01*
X51199Y-26673D01*
X51169Y-26729D01*
X51129Y-26778D01*
X51081Y-26818D01*
X51025Y-26848D01*
X50965Y-26867D01*
X50902Y-26873D01*
X50840Y-26868D01*
X50779Y-26850D01*
X50723Y-26821D01*
X50674Y-26781D01*
X50633Y-26733D01*
X50603Y-26677D01*
X50584Y-26617D01*
X50577Y-26554D01*
X50582Y-26492D01*
X50599Y-26431D01*
X50628Y-26375D01*
X50667Y-26325D01*
X50716Y-26284D01*
X50771Y-26254D01*
X50831Y-26234D01*
X50894Y-26227D01*
X50956Y-26231D01*
X51017Y-26248D01*
X51073Y-26277D01*
X51123Y-26316D01*
X51164Y-26364D01*
X51195Y-26419D01*
X51215Y-26479D01*
X51223Y-26541D01*
X51224Y-26550D01*
X49576Y-25226D02*
X49576Y-25874D01*
X50224Y-25874D01*
X50224Y-25226D01*
X49576Y-25226D01*
X51224Y-25550D02*
X51217Y-25612D01*
X51199Y-25673D01*
X51169Y-25729D01*
X51129Y-25778D01*
X51081Y-25818D01*
X51025Y-25848D01*
X50965Y-25867D01*
X50902Y-25873D01*
X50840Y-25868D01*
X50779Y-25850D01*
X50723Y-25821D01*
X50674Y-25781D01*
X50633Y-25733D01*
X50603Y-25677D01*
X50584Y-25617D01*
X50577Y-25554D01*
X50582Y-25492D01*
X50599Y-25431D01*
X50628Y-25375D01*
X50667Y-25325D01*
X50716Y-25284D01*
X50771Y-25254D01*
X50831Y-25234D01*
X50894Y-25227D01*
X50956Y-25231D01*
X51017Y-25248D01*
X51073Y-25277D01*
X51123Y-25316D01*
X51164Y-25364D01*
X51195Y-25419D01*
X51215Y-25479D01*
X51223Y-25541D01*
X51224Y-25550D01*
X49576Y-24226D02*
X49576Y-24874D01*
X50224Y-24874D01*
X50224Y-24226D01*
X49576Y-24226D01*
X51224Y-24550D02*
X51217Y-24612D01*
X51199Y-24673D01*
X51169Y-24729D01*
X51129Y-24778D01*
X51081Y-24818D01*
X51025Y-24848D01*
X50965Y-24867D01*
X50902Y-24873D01*
X50840Y-24868D01*
X50779Y-24850D01*
X50723Y-24821D01*
X50674Y-24781D01*
X50633Y-24733D01*
X50603Y-24677D01*
X50584Y-24617D01*
X50577Y-24554D01*
X50582Y-24492D01*
X50599Y-24431D01*
X50628Y-24375D01*
X50667Y-24325D01*
X50716Y-24284D01*
X50771Y-24254D01*
X50831Y-24234D01*
X50894Y-24227D01*
X50956Y-24231D01*
X51017Y-24248D01*
X51073Y-24277D01*
X51123Y-24316D01*
X51164Y-24364D01*
X51195Y-24419D01*
X51215Y-24479D01*
X51223Y-24541D01*
X51224Y-24550D01*
X42626Y-39376D02*
X42626Y-40024D01*
X43274Y-40024D01*
X43274Y-39376D01*
X42626Y-39376D01*
X44274Y-39700D02*
X44267Y-39762D01*
X44249Y-39823D01*
X44219Y-39879D01*
X44179Y-39928D01*
X44131Y-39968D01*
X44075Y-39998D01*
X44015Y-40017D01*
X43952Y-40023D01*
X43890Y-40018D01*
X43829Y-40000D01*
X43773Y-39971D01*
X43724Y-39931D01*
X43683Y-39883D01*
X43653Y-39827D01*
X43634Y-39767D01*
X43627Y-39704D01*
X43632Y-39642D01*
X43649Y-39581D01*
X43678Y-39525D01*
X43717Y-39475D01*
X43766Y-39434D01*
X43821Y-39404D01*
X43881Y-39384D01*
X43944Y-39377D01*
X44006Y-39381D01*
X44067Y-39398D01*
X44123Y-39427D01*
X44173Y-39466D01*
X44214Y-39514D01*
X44245Y-39569D01*
X44265Y-39629D01*
X44273Y-39691D01*
X44274Y-39700D01*
X42626Y-40376D02*
X42626Y-41024D01*
X43274Y-41024D01*
X43274Y-40376D01*
X42626Y-40376D01*
X44274Y-40700D02*
X44267Y-40762D01*
X44249Y-40823D01*
X44219Y-40879D01*
X44179Y-40928D01*
X44131Y-40968D01*
X44075Y-40998D01*
X44015Y-41017D01*
X43952Y-41023D01*
X43890Y-41018D01*
X43829Y-41000D01*
X43773Y-40971D01*
X43724Y-40931D01*
X43683Y-40883D01*
X43653Y-40827D01*
X43634Y-40767D01*
X43627Y-40704D01*
X43632Y-40642D01*
X43649Y-40581D01*
X43678Y-40525D01*
X43717Y-40475D01*
X43766Y-40434D01*
X43821Y-40404D01*
X43881Y-40384D01*
X43944Y-40377D01*
X44006Y-40381D01*
X44067Y-40398D01*
X44123Y-40427D01*
X44173Y-40466D01*
X44214Y-40514D01*
X44245Y-40569D01*
X44265Y-40629D01*
X44273Y-40691D01*
X44274Y-40700D01*
X42626Y-38376D02*
X42626Y-39024D01*
X43274Y-39024D01*
X43274Y-38376D01*
X42626Y-38376D01*
X44274Y-38700D02*
X44267Y-38762D01*
X44249Y-38823D01*
X44219Y-38879D01*
X44179Y-38928D01*
X44131Y-38968D01*
X44075Y-38998D01*
X44015Y-39017D01*
X43952Y-39023D01*
X43890Y-39018D01*
X43829Y-39000D01*
X43773Y-38971D01*
X43724Y-38931D01*
X43683Y-38883D01*
X43653Y-38827D01*
X43634Y-38767D01*
X43627Y-38704D01*
X43632Y-38642D01*
X43649Y-38581D01*
X43678Y-38525D01*
X43717Y-38475D01*
X43766Y-38434D01*
X43821Y-38404D01*
X43881Y-38384D01*
X43944Y-38377D01*
X44006Y-38381D01*
X44067Y-38398D01*
X44123Y-38427D01*
X44173Y-38466D01*
X44214Y-38514D01*
X44245Y-38569D01*
X44265Y-38629D01*
X44273Y-38691D01*
X44274Y-38700D01*
G54D13*
X41666Y-33194D02*
X41637Y-33232D01*
X41580Y-33270D01*
X41495Y-33327D01*
X41466Y-33366D01*
X41466Y-33404D01*
X41609Y-33385D02*
X41580Y-33423D01*
X41523Y-33461D01*
X41409Y-33480D01*
X41209Y-33480D01*
X41095Y-33461D01*
X41037Y-33423D01*
X41009Y-33385D01*
X41009Y-33308D01*
X41037Y-33270D01*
X41095Y-33232D01*
X41209Y-33213D01*
X41409Y-33213D01*
X41523Y-33232D01*
X41580Y-33270D01*
X41609Y-33308D01*
X41609Y-33385D01*
X41266Y-32985D02*
X41237Y-33023D01*
X41209Y-33042D01*
X41152Y-33061D01*
X41123Y-33061D01*
X41066Y-33042D01*
X41037Y-33023D01*
X41009Y-32985D01*
X41009Y-32908D01*
X41037Y-32870D01*
X41066Y-32851D01*
X41123Y-32832D01*
X41152Y-32832D01*
X41209Y-32851D01*
X41237Y-32870D01*
X41266Y-32908D01*
X41266Y-32985D01*
X41295Y-33023D01*
X41323Y-33042D01*
X41380Y-33061D01*
X41495Y-33061D01*
X41552Y-33042D01*
X41580Y-33023D01*
X41609Y-32985D01*
X41609Y-32908D01*
X41580Y-32870D01*
X41552Y-32851D01*
X41495Y-32832D01*
X41380Y-32832D01*
X41323Y-32851D01*
X41295Y-32870D01*
X41266Y-32908D01*
X38733Y-35899D02*
X38733Y-35299D01*
X39152Y-35899D02*
X39018Y-35613D01*
X38923Y-35899D02*
X38923Y-35299D01*
X39076Y-35299D01*
X39114Y-35327D01*
X39133Y-35356D01*
X39152Y-35413D01*
X39152Y-35499D01*
X39133Y-35556D01*
X39114Y-35585D01*
X39076Y-35613D01*
X38923Y-35613D01*
X39457Y-35585D02*
X39323Y-35585D01*
X39323Y-35899D02*
X39323Y-35299D01*
X39514Y-35299D01*
X39857Y-35299D02*
X39666Y-35299D01*
X39647Y-35585D01*
X39666Y-35556D01*
X39704Y-35527D01*
X39800Y-35527D01*
X39838Y-35556D01*
X39857Y-35585D01*
X39876Y-35642D01*
X39876Y-35785D01*
X39857Y-35842D01*
X39838Y-35870D01*
X39800Y-35899D01*
X39704Y-35899D01*
X39666Y-35870D01*
X39647Y-35842D01*
X40009Y-35299D02*
X40257Y-35299D01*
X40123Y-35527D01*
X40181Y-35527D01*
X40219Y-35556D01*
X40238Y-35585D01*
X40257Y-35642D01*
X40257Y-35785D01*
X40238Y-35842D01*
X40219Y-35870D01*
X40181Y-35899D01*
X40066Y-35899D01*
X40028Y-35870D01*
X40009Y-35842D01*
X40504Y-35299D02*
X40543Y-35299D01*
X40581Y-35327D01*
X40600Y-35356D01*
X40619Y-35413D01*
X40638Y-35527D01*
X40638Y-35670D01*
X40619Y-35785D01*
X40600Y-35842D01*
X40581Y-35870D01*
X40543Y-35899D01*
X40504Y-35899D01*
X40466Y-35870D01*
X40447Y-35842D01*
X40428Y-35785D01*
X40409Y-35670D01*
X40409Y-35527D01*
X40428Y-35413D01*
X40447Y-35356D01*
X40466Y-35327D01*
X40504Y-35299D01*
X41000Y-35299D02*
X40809Y-35299D01*
X40790Y-35585D01*
X40809Y-35556D01*
X40847Y-35527D01*
X40943Y-35527D01*
X40981Y-35556D01*
X41000Y-35585D01*
X41019Y-35642D01*
X41019Y-35785D01*
X41000Y-35842D01*
X40981Y-35870D01*
X40943Y-35899D01*
X40847Y-35899D01*
X40809Y-35870D01*
X40790Y-35842D01*
G54D14*
X44372Y-33389D02*
X44400Y-33418D01*
X44429Y-33504D01*
X44429Y-33561D01*
X44400Y-33646D01*
X44343Y-33704D01*
X44286Y-33732D01*
X44172Y-33761D01*
X44086Y-33761D01*
X43972Y-33732D01*
X43915Y-33704D01*
X43857Y-33646D01*
X43829Y-33561D01*
X43829Y-33504D01*
X43857Y-33418D01*
X43886Y-33389D01*
X44429Y-32818D02*
X44429Y-33161D01*
X44429Y-32989D02*
X43829Y-32989D01*
X43915Y-33046D01*
X43972Y-33104D01*
X44000Y-33161D01*
X43829Y-32304D02*
X43829Y-32418D01*
X43857Y-32475D01*
X43886Y-32504D01*
X43972Y-32561D01*
X44086Y-32590D01*
X44315Y-32590D01*
X44372Y-32561D01*
X44400Y-32533D01*
X44429Y-32475D01*
X44429Y-32361D01*
X44400Y-32304D01*
X44372Y-32275D01*
X44315Y-32247D01*
X44172Y-32247D01*
X44115Y-32275D01*
X44086Y-32304D01*
X44057Y-32361D01*
X44057Y-32475D01*
X44086Y-32533D01*
X44115Y-32561D01*
X44172Y-32590D01*
X46636Y-34560D02*
X46607Y-34531D01*
X46579Y-34474D01*
X46579Y-34331D01*
X46607Y-34274D01*
X46636Y-34245D01*
X46693Y-34217D01*
X46750Y-34217D01*
X46836Y-34245D01*
X47179Y-34588D01*
X47179Y-34217D01*
X46636Y-33989D02*
X46607Y-33960D01*
X46579Y-33903D01*
X46579Y-33760D01*
X46607Y-33703D01*
X46636Y-33674D01*
X46693Y-33646D01*
X46750Y-33646D01*
X46836Y-33674D01*
X47179Y-34017D01*
X47179Y-33646D01*
X46579Y-33275D02*
X46579Y-33218D01*
X46607Y-33161D01*
X46636Y-33132D01*
X46693Y-33103D01*
X46807Y-33075D01*
X46950Y-33075D01*
X47065Y-33103D01*
X47122Y-33132D01*
X47150Y-33161D01*
X47179Y-33218D01*
X47179Y-33275D01*
X47150Y-33332D01*
X47122Y-33361D01*
X47065Y-33389D01*
X46950Y-33418D01*
X46807Y-33418D01*
X46693Y-33389D01*
X46636Y-33361D01*
X46607Y-33332D01*
X46579Y-33275D01*
X46579Y-32704D02*
X46579Y-32647D01*
X46607Y-32590D01*
X46636Y-32561D01*
X46693Y-32532D01*
X46807Y-32504D01*
X46950Y-32504D01*
X47065Y-32532D01*
X47122Y-32561D01*
X47150Y-32590D01*
X47179Y-32647D01*
X47179Y-32704D01*
X47150Y-32761D01*
X47122Y-32790D01*
X47065Y-32818D01*
X46950Y-32847D01*
X46807Y-32847D01*
X46693Y-32818D01*
X46636Y-32790D01*
X46607Y-32761D01*
X46579Y-32704D01*
X46779Y-31990D02*
X47179Y-31990D01*
X46779Y-32247D02*
X47093Y-32247D01*
X47150Y-32219D01*
X47179Y-32161D01*
X47179Y-32076D01*
X47150Y-32019D01*
X47122Y-31990D01*
X46865Y-31504D02*
X46865Y-31704D01*
X47179Y-31704D02*
X46579Y-31704D01*
X46579Y-31418D01*
X40080Y-28455D02*
X40080Y-27855D01*
X40223Y-27855D01*
X40308Y-27883D01*
X40366Y-27941D01*
X40394Y-27998D01*
X40423Y-28112D01*
X40423Y-28198D01*
X40394Y-28312D01*
X40366Y-28369D01*
X40308Y-28426D01*
X40223Y-28455D01*
X40080Y-28455D01*
X40937Y-27855D02*
X40823Y-27855D01*
X40766Y-27883D01*
X40737Y-27912D01*
X40680Y-27998D01*
X40651Y-28112D01*
X40651Y-28341D01*
X40680Y-28398D01*
X40708Y-28426D01*
X40766Y-28455D01*
X40880Y-28455D01*
X40937Y-28426D01*
X40966Y-28398D01*
X40994Y-28341D01*
X40994Y-28198D01*
X40966Y-28141D01*
X40937Y-28112D01*
X40880Y-28083D01*
X40766Y-28083D01*
X40708Y-28112D01*
X40680Y-28141D01*
X40651Y-28198D01*
G54D15*
X47195Y-36962D02*
X47195Y-36562D01*
X47195Y-36752D02*
X47424Y-36752D01*
X47424Y-36962D02*
X47424Y-36562D01*
X47824Y-36962D02*
X47595Y-36962D01*
X47709Y-36962D02*
X47709Y-36562D01*
X47671Y-36619D01*
X47633Y-36657D01*
X47595Y-36676D01*
X37945Y-23962D02*
X37945Y-23562D01*
X37945Y-23752D02*
X38174Y-23752D01*
X38174Y-23962D02*
X38174Y-23562D01*
X38345Y-23600D02*
X38364Y-23581D01*
X38402Y-23562D01*
X38498Y-23562D01*
X38536Y-23581D01*
X38555Y-23600D01*
X38574Y-23638D01*
X38574Y-23676D01*
X38555Y-23733D01*
X38326Y-23962D01*
X38574Y-23962D01*
X37945Y-39212D02*
X37945Y-38812D01*
X37945Y-39002D02*
X38174Y-39002D01*
X38174Y-39212D02*
X38174Y-38812D01*
X38326Y-38812D02*
X38574Y-38812D01*
X38440Y-38964D01*
X38498Y-38964D01*
X38536Y-38983D01*
X38555Y-39002D01*
X38574Y-39040D01*
X38574Y-39136D01*
X38555Y-39174D01*
X38536Y-39193D01*
X38498Y-39212D01*
X38383Y-39212D01*
X38345Y-39193D01*
X38326Y-39174D01*
X47195Y-27212D02*
X47195Y-26812D01*
X47195Y-27002D02*
X47424Y-27002D01*
X47424Y-27212D02*
X47424Y-26812D01*
X47786Y-26945D02*
X47786Y-27212D01*
X47690Y-26793D02*
X47595Y-27079D01*
X47843Y-27079D01*
G54D10*
X43220Y-37045D02*
X43220Y-36745D01*
X43335Y-36745D01*
X43363Y-36760D01*
X43378Y-36774D01*
X43392Y-36803D01*
X43392Y-36845D01*
X43378Y-36874D01*
X43363Y-36888D01*
X43335Y-36903D01*
X43220Y-36903D01*
X43678Y-37045D02*
X43506Y-37045D01*
X43592Y-37045D02*
X43592Y-36745D01*
X43563Y-36788D01*
X43535Y-36817D01*
X43506Y-36831D01*
X43176Y-28003D02*
X43176Y-27703D01*
X43291Y-27703D01*
X43319Y-27718D01*
X43334Y-27732D01*
X43348Y-27761D01*
X43348Y-27803D01*
X43334Y-27832D01*
X43319Y-27846D01*
X43291Y-27861D01*
X43176Y-27861D01*
X43462Y-27732D02*
X43476Y-27718D01*
X43505Y-27703D01*
X43576Y-27703D01*
X43605Y-27718D01*
X43619Y-27732D01*
X43634Y-27761D01*
X43634Y-27789D01*
X43619Y-27832D01*
X43448Y-28003D01*
X43634Y-28003D01*
X46635Y-24921D02*
X46635Y-24621D01*
X46750Y-24621D01*
X46778Y-24636D01*
X46793Y-24650D01*
X46807Y-24679D01*
X46807Y-24721D01*
X46793Y-24750D01*
X46778Y-24764D01*
X46750Y-24779D01*
X46635Y-24779D01*
X46921Y-24650D02*
X46935Y-24636D01*
X46964Y-24621D01*
X47035Y-24621D01*
X47064Y-24636D01*
X47078Y-24650D01*
X47093Y-24679D01*
X47093Y-24707D01*
X47078Y-24750D01*
X46907Y-24921D01*
X47093Y-24921D01*
X47364Y-24621D02*
X47221Y-24621D01*
X47207Y-24764D01*
X47221Y-24750D01*
X47250Y-24736D01*
X47321Y-24736D01*
X47350Y-24750D01*
X47364Y-24764D01*
X47379Y-24793D01*
X47379Y-24864D01*
X47364Y-24893D01*
X47350Y-24907D01*
X47321Y-24921D01*
X47250Y-24921D01*
X47221Y-24907D01*
X47207Y-24893D01*
X46635Y-23921D02*
X46635Y-23621D01*
X46750Y-23621D01*
X46778Y-23636D01*
X46793Y-23650D01*
X46807Y-23679D01*
X46807Y-23721D01*
X46793Y-23750D01*
X46778Y-23764D01*
X46750Y-23779D01*
X46635Y-23779D01*
X46921Y-23650D02*
X46935Y-23636D01*
X46964Y-23621D01*
X47035Y-23621D01*
X47064Y-23636D01*
X47078Y-23650D01*
X47093Y-23679D01*
X47093Y-23707D01*
X47078Y-23750D01*
X46907Y-23921D01*
X47093Y-23921D01*
X47350Y-23721D02*
X47350Y-23921D01*
X47279Y-23607D02*
X47207Y-23821D01*
X47393Y-23821D01*
X50085Y-40071D02*
X50085Y-39771D01*
X50200Y-39771D01*
X50228Y-39786D01*
X50243Y-39800D01*
X50257Y-39829D01*
X50257Y-39871D01*
X50243Y-39900D01*
X50228Y-39914D01*
X50200Y-39929D01*
X50085Y-39929D01*
X50371Y-39800D02*
X50385Y-39786D01*
X50414Y-39771D01*
X50485Y-39771D01*
X50514Y-39786D01*
X50528Y-39800D01*
X50543Y-39829D01*
X50543Y-39857D01*
X50528Y-39900D01*
X50357Y-40071D01*
X50543Y-40071D01*
X50643Y-39771D02*
X50829Y-39771D01*
X50729Y-39886D01*
X50771Y-39886D01*
X50800Y-39900D01*
X50814Y-39914D01*
X50829Y-39943D01*
X50829Y-40014D01*
X50814Y-40043D01*
X50800Y-40057D01*
X50771Y-40071D01*
X50686Y-40071D01*
X50657Y-40057D01*
X50643Y-40043D01*
X50085Y-39071D02*
X50085Y-38771D01*
X50200Y-38771D01*
X50228Y-38786D01*
X50243Y-38800D01*
X50257Y-38829D01*
X50257Y-38871D01*
X50243Y-38900D01*
X50228Y-38914D01*
X50200Y-38929D01*
X50085Y-38929D01*
X50371Y-38800D02*
X50385Y-38786D01*
X50414Y-38771D01*
X50485Y-38771D01*
X50514Y-38786D01*
X50528Y-38800D01*
X50543Y-38829D01*
X50543Y-38857D01*
X50528Y-38900D01*
X50357Y-39071D01*
X50543Y-39071D01*
X50657Y-38800D02*
X50671Y-38786D01*
X50700Y-38771D01*
X50771Y-38771D01*
X50800Y-38786D01*
X50814Y-38800D01*
X50829Y-38829D01*
X50829Y-38857D01*
X50814Y-38900D01*
X50643Y-39071D01*
X50829Y-39071D01*
X50085Y-38071D02*
X50085Y-37771D01*
X50200Y-37771D01*
X50228Y-37786D01*
X50243Y-37800D01*
X50257Y-37829D01*
X50257Y-37871D01*
X50243Y-37900D01*
X50228Y-37914D01*
X50200Y-37929D01*
X50085Y-37929D01*
X50371Y-37800D02*
X50385Y-37786D01*
X50414Y-37771D01*
X50485Y-37771D01*
X50514Y-37786D01*
X50528Y-37800D01*
X50543Y-37829D01*
X50543Y-37857D01*
X50528Y-37900D01*
X50357Y-38071D01*
X50543Y-38071D01*
X50829Y-38071D02*
X50657Y-38071D01*
X50743Y-38071D02*
X50743Y-37771D01*
X50714Y-37814D01*
X50686Y-37843D01*
X50657Y-37857D01*
X50085Y-37071D02*
X50085Y-36771D01*
X50200Y-36771D01*
X50228Y-36786D01*
X50243Y-36800D01*
X50257Y-36829D01*
X50257Y-36871D01*
X50243Y-36900D01*
X50228Y-36914D01*
X50200Y-36929D01*
X50085Y-36929D01*
X50371Y-36800D02*
X50385Y-36786D01*
X50414Y-36771D01*
X50485Y-36771D01*
X50514Y-36786D01*
X50528Y-36800D01*
X50543Y-36829D01*
X50543Y-36857D01*
X50528Y-36900D01*
X50357Y-37071D01*
X50543Y-37071D01*
X50729Y-36771D02*
X50757Y-36771D01*
X50786Y-36786D01*
X50800Y-36800D01*
X50814Y-36829D01*
X50829Y-36886D01*
X50829Y-36957D01*
X50814Y-37014D01*
X50800Y-37043D01*
X50786Y-37057D01*
X50757Y-37071D01*
X50729Y-37071D01*
X50700Y-37057D01*
X50686Y-37043D01*
X50671Y-37014D01*
X50657Y-36957D01*
X50657Y-36886D01*
X50671Y-36829D01*
X50686Y-36800D01*
X50700Y-36786D01*
X50729Y-36771D01*
X50085Y-36071D02*
X50085Y-35771D01*
X50200Y-35771D01*
X50228Y-35786D01*
X50243Y-35800D01*
X50257Y-35829D01*
X50257Y-35871D01*
X50243Y-35900D01*
X50228Y-35914D01*
X50200Y-35929D01*
X50085Y-35929D01*
X50543Y-36071D02*
X50371Y-36071D01*
X50457Y-36071D02*
X50457Y-35771D01*
X50428Y-35814D01*
X50400Y-35843D01*
X50371Y-35857D01*
X50686Y-36071D02*
X50743Y-36071D01*
X50771Y-36057D01*
X50786Y-36043D01*
X50814Y-36000D01*
X50829Y-35943D01*
X50829Y-35829D01*
X50814Y-35800D01*
X50800Y-35786D01*
X50771Y-35771D01*
X50714Y-35771D01*
X50686Y-35786D01*
X50671Y-35800D01*
X50657Y-35829D01*
X50657Y-35900D01*
X50671Y-35929D01*
X50686Y-35943D01*
X50714Y-35957D01*
X50771Y-35957D01*
X50800Y-35943D01*
X50814Y-35929D01*
X50829Y-35900D01*
X50085Y-35071D02*
X50085Y-34771D01*
X50200Y-34771D01*
X50228Y-34786D01*
X50243Y-34800D01*
X50257Y-34829D01*
X50257Y-34871D01*
X50243Y-34900D01*
X50228Y-34914D01*
X50200Y-34929D01*
X50085Y-34929D01*
X50543Y-35071D02*
X50371Y-35071D01*
X50457Y-35071D02*
X50457Y-34771D01*
X50428Y-34814D01*
X50400Y-34843D01*
X50371Y-34857D01*
X50714Y-34900D02*
X50686Y-34886D01*
X50671Y-34871D01*
X50657Y-34843D01*
X50657Y-34829D01*
X50671Y-34800D01*
X50686Y-34786D01*
X50714Y-34771D01*
X50771Y-34771D01*
X50800Y-34786D01*
X50814Y-34800D01*
X50829Y-34829D01*
X50829Y-34843D01*
X50814Y-34871D01*
X50800Y-34886D01*
X50771Y-34900D01*
X50714Y-34900D01*
X50686Y-34914D01*
X50671Y-34929D01*
X50657Y-34957D01*
X50657Y-35014D01*
X50671Y-35043D01*
X50686Y-35057D01*
X50714Y-35071D01*
X50771Y-35071D01*
X50800Y-35057D01*
X50814Y-35043D01*
X50829Y-35014D01*
X50829Y-34957D01*
X50814Y-34929D01*
X50800Y-34914D01*
X50771Y-34900D01*
X50085Y-35635D02*
X50085Y-35335D01*
X50200Y-35335D01*
X50228Y-35350D01*
X50243Y-35364D01*
X50257Y-35393D01*
X50257Y-35435D01*
X50243Y-35464D01*
X50228Y-35478D01*
X50200Y-35493D01*
X50085Y-35493D01*
X50543Y-35635D02*
X50371Y-35635D01*
X50457Y-35635D02*
X50457Y-35335D01*
X50428Y-35378D01*
X50400Y-35407D01*
X50371Y-35421D01*
X50643Y-35335D02*
X50843Y-35335D01*
X50714Y-35635D01*
X43035Y-26971D02*
X43035Y-26671D01*
X43150Y-26671D01*
X43178Y-26686D01*
X43193Y-26700D01*
X43207Y-26729D01*
X43207Y-26771D01*
X43193Y-26800D01*
X43178Y-26814D01*
X43150Y-26829D01*
X43035Y-26829D01*
X43493Y-26971D02*
X43321Y-26971D01*
X43407Y-26971D02*
X43407Y-26671D01*
X43378Y-26714D01*
X43350Y-26743D01*
X43321Y-26757D01*
X43750Y-26671D02*
X43693Y-26671D01*
X43664Y-26686D01*
X43650Y-26700D01*
X43621Y-26743D01*
X43607Y-26800D01*
X43607Y-26914D01*
X43621Y-26943D01*
X43636Y-26957D01*
X43664Y-26971D01*
X43721Y-26971D01*
X43750Y-26957D01*
X43764Y-26943D01*
X43779Y-26914D01*
X43779Y-26843D01*
X43764Y-26814D01*
X43750Y-26800D01*
X43721Y-26786D01*
X43664Y-26786D01*
X43636Y-26800D01*
X43621Y-26814D01*
X43607Y-26843D01*
X43035Y-25971D02*
X43035Y-25671D01*
X43150Y-25671D01*
X43178Y-25686D01*
X43193Y-25700D01*
X43207Y-25729D01*
X43207Y-25771D01*
X43193Y-25800D01*
X43178Y-25814D01*
X43150Y-25829D01*
X43035Y-25829D01*
X43493Y-25971D02*
X43321Y-25971D01*
X43407Y-25971D02*
X43407Y-25671D01*
X43378Y-25714D01*
X43350Y-25743D01*
X43321Y-25757D01*
X43764Y-25671D02*
X43621Y-25671D01*
X43607Y-25814D01*
X43621Y-25800D01*
X43650Y-25786D01*
X43721Y-25786D01*
X43750Y-25800D01*
X43764Y-25814D01*
X43779Y-25843D01*
X43779Y-25914D01*
X43764Y-25943D01*
X43750Y-25957D01*
X43721Y-25971D01*
X43650Y-25971D01*
X43621Y-25957D01*
X43607Y-25943D01*
X43035Y-24971D02*
X43035Y-24671D01*
X43150Y-24671D01*
X43178Y-24686D01*
X43193Y-24700D01*
X43207Y-24729D01*
X43207Y-24771D01*
X43193Y-24800D01*
X43178Y-24814D01*
X43150Y-24829D01*
X43035Y-24829D01*
X43493Y-24971D02*
X43321Y-24971D01*
X43407Y-24971D02*
X43407Y-24671D01*
X43378Y-24714D01*
X43350Y-24743D01*
X43321Y-24757D01*
X43750Y-24771D02*
X43750Y-24971D01*
X43679Y-24657D02*
X43607Y-24871D01*
X43793Y-24871D01*
X43035Y-23971D02*
X43035Y-23671D01*
X43150Y-23671D01*
X43178Y-23686D01*
X43193Y-23700D01*
X43207Y-23729D01*
X43207Y-23771D01*
X43193Y-23800D01*
X43178Y-23814D01*
X43150Y-23829D01*
X43035Y-23829D01*
X43493Y-23971D02*
X43321Y-23971D01*
X43407Y-23971D02*
X43407Y-23671D01*
X43378Y-23714D01*
X43350Y-23743D01*
X43321Y-23757D01*
X43593Y-23671D02*
X43779Y-23671D01*
X43679Y-23786D01*
X43721Y-23786D01*
X43750Y-23800D01*
X43764Y-23814D01*
X43779Y-23843D01*
X43779Y-23914D01*
X43764Y-23943D01*
X43750Y-23957D01*
X43721Y-23971D01*
X43636Y-23971D01*
X43607Y-23957D01*
X43593Y-23943D01*
X50035Y-29921D02*
X50035Y-29621D01*
X50150Y-29621D01*
X50178Y-29636D01*
X50193Y-29650D01*
X50207Y-29679D01*
X50207Y-29721D01*
X50193Y-29750D01*
X50178Y-29764D01*
X50150Y-29779D01*
X50035Y-29779D01*
X50493Y-29921D02*
X50321Y-29921D01*
X50407Y-29921D02*
X50407Y-29621D01*
X50378Y-29664D01*
X50350Y-29693D01*
X50321Y-29707D01*
X50607Y-29650D02*
X50621Y-29636D01*
X50650Y-29621D01*
X50721Y-29621D01*
X50750Y-29636D01*
X50764Y-29650D01*
X50779Y-29679D01*
X50779Y-29707D01*
X50764Y-29750D01*
X50593Y-29921D01*
X50779Y-29921D01*
X50035Y-28921D02*
X50035Y-28621D01*
X50150Y-28621D01*
X50178Y-28636D01*
X50193Y-28650D01*
X50207Y-28679D01*
X50207Y-28721D01*
X50193Y-28750D01*
X50178Y-28764D01*
X50150Y-28779D01*
X50035Y-28779D01*
X50493Y-28921D02*
X50321Y-28921D01*
X50407Y-28921D02*
X50407Y-28621D01*
X50378Y-28664D01*
X50350Y-28693D01*
X50321Y-28707D01*
X50779Y-28921D02*
X50607Y-28921D01*
X50693Y-28921D02*
X50693Y-28621D01*
X50664Y-28664D01*
X50636Y-28693D01*
X50607Y-28707D01*
X50035Y-27921D02*
X50035Y-27621D01*
X50150Y-27621D01*
X50178Y-27636D01*
X50193Y-27650D01*
X50207Y-27679D01*
X50207Y-27721D01*
X50193Y-27750D01*
X50178Y-27764D01*
X50150Y-27779D01*
X50035Y-27779D01*
X50493Y-27921D02*
X50321Y-27921D01*
X50407Y-27921D02*
X50407Y-27621D01*
X50378Y-27664D01*
X50350Y-27693D01*
X50321Y-27707D01*
X50679Y-27621D02*
X50707Y-27621D01*
X50736Y-27636D01*
X50750Y-27650D01*
X50764Y-27679D01*
X50779Y-27736D01*
X50779Y-27807D01*
X50764Y-27864D01*
X50750Y-27893D01*
X50736Y-27907D01*
X50707Y-27921D01*
X50679Y-27921D01*
X50650Y-27907D01*
X50636Y-27893D01*
X50621Y-27864D01*
X50607Y-27807D01*
X50607Y-27736D01*
X50621Y-27679D01*
X50636Y-27650D01*
X50650Y-27636D01*
X50679Y-27621D01*
X50178Y-26921D02*
X50178Y-26621D01*
X50293Y-26621D01*
X50321Y-26636D01*
X50336Y-26650D01*
X50350Y-26679D01*
X50350Y-26721D01*
X50336Y-26750D01*
X50321Y-26764D01*
X50293Y-26779D01*
X50178Y-26779D01*
X50493Y-26921D02*
X50550Y-26921D01*
X50578Y-26907D01*
X50593Y-26893D01*
X50621Y-26850D01*
X50636Y-26793D01*
X50636Y-26679D01*
X50621Y-26650D01*
X50607Y-26636D01*
X50578Y-26621D01*
X50521Y-26621D01*
X50493Y-26636D01*
X50478Y-26650D01*
X50464Y-26679D01*
X50464Y-26750D01*
X50478Y-26779D01*
X50493Y-26793D01*
X50521Y-26807D01*
X50578Y-26807D01*
X50607Y-26793D01*
X50621Y-26779D01*
X50636Y-26750D01*
X50178Y-25921D02*
X50178Y-25621D01*
X50293Y-25621D01*
X50321Y-25636D01*
X50336Y-25650D01*
X50350Y-25679D01*
X50350Y-25721D01*
X50336Y-25750D01*
X50321Y-25764D01*
X50293Y-25779D01*
X50178Y-25779D01*
X50521Y-25750D02*
X50493Y-25736D01*
X50478Y-25721D01*
X50464Y-25693D01*
X50464Y-25679D01*
X50478Y-25650D01*
X50493Y-25636D01*
X50521Y-25621D01*
X50578Y-25621D01*
X50607Y-25636D01*
X50621Y-25650D01*
X50636Y-25679D01*
X50636Y-25693D01*
X50621Y-25721D01*
X50607Y-25736D01*
X50578Y-25750D01*
X50521Y-25750D01*
X50493Y-25764D01*
X50478Y-25779D01*
X50464Y-25807D01*
X50464Y-25864D01*
X50478Y-25893D01*
X50493Y-25907D01*
X50521Y-25921D01*
X50578Y-25921D01*
X50607Y-25907D01*
X50621Y-25893D01*
X50636Y-25864D01*
X50636Y-25807D01*
X50621Y-25779D01*
X50607Y-25764D01*
X50578Y-25750D01*
X50178Y-24921D02*
X50178Y-24621D01*
X50293Y-24621D01*
X50321Y-24636D01*
X50336Y-24650D01*
X50350Y-24679D01*
X50350Y-24721D01*
X50336Y-24750D01*
X50321Y-24764D01*
X50293Y-24779D01*
X50178Y-24779D01*
X50450Y-24621D02*
X50650Y-24621D01*
X50521Y-24921D01*
X50178Y-23921D02*
X50178Y-23621D01*
X50293Y-23621D01*
X50321Y-23636D01*
X50336Y-23650D01*
X50350Y-23679D01*
X50350Y-23721D01*
X50336Y-23750D01*
X50321Y-23764D01*
X50293Y-23779D01*
X50178Y-23779D01*
X50607Y-23621D02*
X50550Y-23621D01*
X50521Y-23636D01*
X50507Y-23650D01*
X50478Y-23693D01*
X50464Y-23750D01*
X50464Y-23864D01*
X50478Y-23893D01*
X50493Y-23907D01*
X50521Y-23921D01*
X50578Y-23921D01*
X50607Y-23907D01*
X50621Y-23893D01*
X50636Y-23864D01*
X50636Y-23793D01*
X50621Y-23764D01*
X50607Y-23750D01*
X50578Y-23736D01*
X50521Y-23736D01*
X50493Y-23750D01*
X50478Y-23764D01*
X50464Y-23793D01*
X43228Y-39071D02*
X43228Y-38771D01*
X43343Y-38771D01*
X43371Y-38786D01*
X43386Y-38800D01*
X43400Y-38829D01*
X43400Y-38871D01*
X43386Y-38900D01*
X43371Y-38914D01*
X43343Y-38929D01*
X43228Y-38929D01*
X43671Y-38771D02*
X43528Y-38771D01*
X43514Y-38914D01*
X43528Y-38900D01*
X43557Y-38886D01*
X43628Y-38886D01*
X43657Y-38900D01*
X43671Y-38914D01*
X43686Y-38943D01*
X43686Y-39014D01*
X43671Y-39043D01*
X43657Y-39057D01*
X43628Y-39071D01*
X43557Y-39071D01*
X43528Y-39057D01*
X43514Y-39043D01*
X43228Y-40071D02*
X43228Y-39771D01*
X43343Y-39771D01*
X43371Y-39786D01*
X43386Y-39800D01*
X43400Y-39829D01*
X43400Y-39871D01*
X43386Y-39900D01*
X43371Y-39914D01*
X43343Y-39929D01*
X43228Y-39929D01*
X43657Y-39871D02*
X43657Y-40071D01*
X43586Y-39757D02*
X43514Y-39971D01*
X43700Y-39971D01*
X43228Y-38071D02*
X43228Y-37771D01*
X43343Y-37771D01*
X43371Y-37786D01*
X43386Y-37800D01*
X43400Y-37829D01*
X43400Y-37871D01*
X43386Y-37900D01*
X43371Y-37914D01*
X43343Y-37929D01*
X43228Y-37929D01*
X43500Y-37771D02*
X43686Y-37771D01*
X43586Y-37886D01*
X43628Y-37886D01*
X43657Y-37900D01*
X43671Y-37914D01*
X43686Y-37943D01*
X43686Y-38014D01*
X43671Y-38043D01*
X43657Y-38057D01*
X43628Y-38071D01*
X43543Y-38071D01*
X43514Y-38057D01*
X43500Y-38043D01*
M02*
