M48
INCH,TZ
T1C0.032
T2C0.039
T3C0.040
T4C0.120
%
G90
G05
T1
X3.999Y-2.993
X4.099Y-2.993
T2
X4.569Y-3.125
X4.569Y-3.525
T3
X4.012Y-3.216
X4.012Y-3.316
X4.012Y-3.416
X4.290Y-2.863
X4.290Y-2.460
X4.290Y-2.560
X4.290Y-2.660
X4.290Y-2.760
X4.294Y-3.767
X4.295Y-3.870
X4.295Y-3.970
X4.295Y-4.070
X4.390Y-2.863
X4.390Y-2.460
X4.390Y-2.560
X4.390Y-2.660
X4.390Y-2.760
X4.394Y-3.767
X4.395Y-3.870
X4.395Y-3.970
X4.395Y-4.070
X4.650Y-2.455
X4.650Y-2.555
X4.750Y-2.455
X4.750Y-2.555
X4.990Y-2.455
X4.990Y-2.555
X4.990Y-2.655
X4.990Y-2.755
X4.990Y-2.855
X4.990Y-2.955
X4.990Y-3.055
X4.995Y-3.470
X4.995Y-3.570
X4.995Y-3.670
X4.995Y-3.770
X4.995Y-3.870
X4.995Y-3.970
X4.995Y-4.070
X5.090Y-2.455
X5.090Y-2.555
X5.090Y-2.655
X5.090Y-2.755
X5.090Y-2.855
X5.090Y-2.955
X5.090Y-3.055
X5.095Y-3.470
X5.095Y-3.570
X5.095Y-3.670
X5.095Y-3.770
X5.095Y-3.870
X5.095Y-3.970
X5.095Y-4.070
T4
X3.825Y-2.500
X3.825Y-4.025
X4.750Y-2.825
X4.750Y-3.800
T0
M30
